<?xml version="1.0" encoding="utf-8" standalone="no"?>
<!DOCTYPE svg PUBLIC "-//W3C//DTD SVG 1.1//EN"
  "http://www.w3.org/Graphics/SVG/1.1/DTD/svg11.dtd">
<svg xmlns:xlink="http://www.w3.org/1999/xlink" width="710.812195pt" height="352.8pt" viewBox="0 0 710.812195 352.8" xmlns="http://www.w3.org/2000/svg" version="1.1">
 <metadata>
  <rdf:RDF xmlns:dc="http://purl.org/dc/elements/1.1/" xmlns:cc="http://creativecommons.org/ns#" xmlns:rdf="http://www.w3.org/1999/02/22-rdf-syntax-ns#">
   <cc:Work>
    <dc:type rdf:resource="http://purl.org/dc/dcmitype/StillImage"/>
    <dc:date>2023-02-21T09:54:32.877186</dc:date>
    <dc:format>image/svg+xml</dc:format>
    <dc:creator>
     <cc:Agent>
      <dc:title>Matplotlib v3.5.2, https://matplotlib.org/</dc:title>
     </cc:Agent>
    </dc:creator>
   </cc:Work>
  </rdf:RDF>
 </metadata>
 <defs>
  <style type="text/css">*{stroke-linejoin: round; stroke-linecap: butt}</style>
 </defs>
 <g id="figure_1">
  <g id="patch_1">
   <path d="M 0 352.8 
L 710.812195 352.8 
L 710.812195 0 
L 0 0 
z
" style="fill: #ffffff"/>
  </g>
  <g id="axes_1">
   <g id="patch_2">
    <path d="M 43.784417 138.746449 
L 347.490408 138.746449 
L 347.490408 22.885876 
L 43.784417 22.885876 
z
" style="fill: #ffffff"/>
   </g>
   <g id="patch_3">
    <path d="M 57.589235 138.746449 
L 85.509091 138.746449 
L 85.509091 138.746449 
L 57.589235 138.746449 
z
" clip-path="url(#p45d764ea23)" style="fill: #ff0000; fill-opacity: 0.75"/>
   </g>
   <g id="patch_4">
    <path d="M 88.611297 138.746449 
L 116.531154 138.746449 
L 116.531154 107.850296 
L 88.611297 107.850296 
z
" clip-path="url(#p45d764ea23)" style="fill: #ff0000; fill-opacity: 0.75"/>
   </g>
   <g id="patch_5">
    <path d="M 119.63336 138.746449 
L 147.553216 138.746449 
L 147.553216 111.712315 
L 119.63336 111.712315 
z
" clip-path="url(#p45d764ea23)" style="fill: #ff0000; fill-opacity: 0.75"/>
   </g>
   <g id="patch_6">
    <path d="M 150.655422 138.746449 
L 178.575278 138.746449 
L 178.575278 61.506067 
L 150.655422 61.506067 
z
" clip-path="url(#p45d764ea23)" style="fill: #ff0000; fill-opacity: 0.75"/>
   </g>
   <g id="patch_7">
    <path d="M 181.677485 138.746449 
L 209.597341 138.746449 
L 209.597341 53.782029 
L 181.677485 53.782029 
z
" clip-path="url(#p45d764ea23)" style="fill: #ff0000; fill-opacity: 0.75"/>
   </g>
   <g id="patch_8">
    <path d="M 212.699547 138.746449 
L 240.619403 138.746449 
L 240.619403 49.92001 
L 212.699547 49.92001 
z
" clip-path="url(#p45d764ea23)" style="fill: #ff0000; fill-opacity: 0.75"/>
   </g>
   <g id="patch_9">
    <path d="M 243.721609 138.746449 
L 271.641466 138.746449 
L 271.641466 92.40222 
L 243.721609 92.40222 
z
" clip-path="url(#p45d764ea23)" style="fill: #ff0000; fill-opacity: 0.75"/>
   </g>
   <g id="patch_10">
    <path d="M 274.743672 138.746449 
L 302.663528 138.746449 
L 302.663528 111.712315 
L 274.743672 111.712315 
z
" clip-path="url(#p45d764ea23)" style="fill: #ff0000; fill-opacity: 0.75"/>
   </g>
   <g id="patch_11">
    <path d="M 305.765734 138.746449 
L 333.68559 138.746449 
L 333.68559 134.88443 
L 305.765734 134.88443 
z
" clip-path="url(#p45d764ea23)" style="fill: #ff0000; fill-opacity: 0.75"/>
   </g>
   <g id="matplotlib.axis_1">
    <g id="xtick_1">
     <g id="line2d_1">
      <defs>
       <path id="ma09d382336" d="M 0 0 
L 0 3.5 
" style="stroke: #000000; stroke-width: 0.8"/>
      </defs>
      <g>
       <use xlink:href="#ma09d382336" x="56.038132" y="138.746449" style="stroke: #000000; stroke-width: 0.8"/>
      </g>
     </g>
     <g id="text_1">
      <!-- -0.18 -->
      <g transform="translate(43.681819 154.048629)scale(0.12 -0.12)">
       <defs>
        <path id="CMSS17-2d" d="M 1664 1216 
L 1664 1587 
L 64 1587 
L 64 1216 
L 1664 1216 
z
" transform="scale(0.015625)"/>
        <path id="CMSS17-30" d="M 2758 2073 
C 2758 2439 2752 3120 2490 3647 
C 2227 4153 1805 4288 1504 4288 
C 1069 4288 698 4031 506 3621 
C 301 3191 243 2748 243 2073 
C 243 1611 262 1046 493 551 
C 755 6 1197 -128 1498 -128 
C 1894 -128 2278 83 2496 525 
C 2720 988 2758 1495 2758 2073 
z
M 1498 262 
C 1011 262 864 821 819 1007 
C 742 1328 730 1636 730 2144 
C 730 2542 730 2992 851 3345 
C 998 3756 1254 3897 1498 3897 
C 1971 3897 2125 3422 2176 3255 
C 2272 2915 2272 2516 2272 2144 
C 2272 1546 2272 262 1498 262 
z
" transform="scale(0.015625)"/>
        <path id="CMSS17-2e" d="M 1088 512 
L 576 512 
L 576 0 
L 1088 0 
L 1088 512 
z
" transform="scale(0.015625)"/>
        <path id="CMSS17-31" d="M 1818 4288 
L 1696 4288 
C 1350 3949 947 3902 538 3891 
L 538 3520 
C 723 3526 1024 3539 1325 3673 
L 1325 371 
L 570 371 
L 570 0 
L 2573 0 
L 2573 371 
L 1818 371 
L 1818 4288 
z
" transform="scale(0.015625)"/>
        <path id="CMSS17-38" d="M 1933 2246 
C 2419 2406 2669 2793 2669 3174 
C 2669 3774 2157 4288 1504 4288 
C 826 4288 333 3755 333 3174 
C 333 2799 576 2412 1069 2246 
C 442 2003 250 1516 250 1152 
C 250 448 819 -128 1498 -128 
C 2202 -128 2752 460 2752 1152 
C 2752 1574 2502 2022 1933 2246 
z
M 1504 2438 
C 1075 2438 787 2728 787 3167 
C 787 3613 1075 3897 1504 3897 
C 1901 3897 2214 3639 2214 3167 
C 2214 2703 1907 2438 1504 2438 
z
M 1504 268 
C 1139 268 749 518 749 1158 
C 749 1817 1184 2048 1498 2048 
C 1843 2048 2253 1804 2253 1158 
C 2253 492 1830 268 1504 268 
z
" transform="scale(0.015625)"/>
       </defs>
       <use xlink:href="#CMSS17-2d" transform="scale(0.996264)"/>
       <use xlink:href="#CMSS17-30" transform="translate(31.229113 0)scale(0.996264)"/>
       <use xlink:href="#CMSS17-2e" transform="translate(78.072736 0)scale(0.996264)"/>
       <use xlink:href="#CMSS17-31" transform="translate(104.096941 0)scale(0.996264)"/>
       <use xlink:href="#CMSS17-38" transform="translate(150.940565 0)scale(0.996264)"/>
      </g>
     </g>
    </g>
    <g id="xtick_2">
     <g id="line2d_2">
      <g>
       <use xlink:href="#ma09d382336" x="118.082257" y="138.746449" style="stroke: #000000; stroke-width: 0.8"/>
      </g>
     </g>
     <g id="text_2">
      <!-- -0.16 -->
      <g transform="translate(105.725944 154.048629)scale(0.12 -0.12)">
       <defs>
        <path id="CMSS17-36" d="M 2496 4159 
C 2227 4268 2035 4288 1856 4288 
C 1024 4288 250 3408 250 2023 
C 250 268 986 -128 1510 -128 
C 1798 -128 2086 -39 2362 281 
C 2643 619 2752 900 2752 1392 
C 2752 2183 2362 2886 1779 2886 
C 1357 2886 992 2662 768 2381 
C 832 3290 1254 3897 1862 3897 
C 2029 3897 2246 3871 2496 3760 
L 2496 4159 
z
M 774 1372 
C 774 1423 774 1455 781 1551 
C 781 2049 1069 2496 1536 2496 
C 1837 2496 1990 2336 2106 2138 
C 2240 1889 2246 1653 2246 1392 
C 2246 1143 2246 894 2099 638 
C 1978 441 1818 268 1510 268 
C 902 268 800 1117 774 1372 
z
" transform="scale(0.015625)"/>
       </defs>
       <use xlink:href="#CMSS17-2d" transform="scale(0.996264)"/>
       <use xlink:href="#CMSS17-30" transform="translate(31.229113 0)scale(0.996264)"/>
       <use xlink:href="#CMSS17-2e" transform="translate(78.072736 0)scale(0.996264)"/>
       <use xlink:href="#CMSS17-31" transform="translate(104.096941 0)scale(0.996264)"/>
       <use xlink:href="#CMSS17-36" transform="translate(150.940565 0)scale(0.996264)"/>
      </g>
     </g>
    </g>
    <g id="xtick_3">
     <g id="line2d_3">
      <g>
       <use xlink:href="#ma09d382336" x="180.126381" y="138.746449" style="stroke: #000000; stroke-width: 0.8"/>
      </g>
     </g>
     <g id="text_3">
      <!-- -0.14 -->
      <g transform="translate(167.770069 154.048629)scale(0.12 -0.12)">
       <defs>
        <path id="CMSS17-34" d="M 2253 1088 
L 2835 1088 
L 2835 1478 
L 2253 1478 
L 2253 4224 
L 1690 4224 
L 166 1478 
L 166 1088 
L 1747 1088 
L 1747 0 
L 2253 0 
L 2253 1088 
z
M 659 1478 
C 1030 2139 1766 3474 1766 3927 
L 1766 1478 
L 659 1478 
z
" transform="scale(0.015625)"/>
       </defs>
       <use xlink:href="#CMSS17-2d" transform="scale(0.996264)"/>
       <use xlink:href="#CMSS17-30" transform="translate(31.229113 0)scale(0.996264)"/>
       <use xlink:href="#CMSS17-2e" transform="translate(78.072736 0)scale(0.996264)"/>
       <use xlink:href="#CMSS17-31" transform="translate(104.096941 0)scale(0.996264)"/>
       <use xlink:href="#CMSS17-34" transform="translate(150.940565 0)scale(0.996264)"/>
      </g>
     </g>
    </g>
    <g id="xtick_4">
     <g id="line2d_4">
      <g>
       <use xlink:href="#ma09d382336" x="242.170506" y="138.746449" style="stroke: #000000; stroke-width: 0.8"/>
      </g>
     </g>
     <g id="text_4">
      <!-- -0.12 -->
      <g transform="translate(229.814194 154.048629)scale(0.12 -0.12)">
       <defs>
        <path id="CMSS17-32" d="M 1651 1353 
C 1830 1538 2099 1761 2285 1984 
C 2464 2201 2701 2507 2701 2953 
C 2701 3655 2227 4288 1421 4288 
C 787 4288 422 3891 250 3272 
L 499 2928 
C 640 3508 838 3878 1338 3878 
C 1888 3878 2195 3431 2195 2940 
C 2195 2354 1747 1901 1408 1563 
C 1030 1187 659 805 301 409 
L 301 0 
L 2701 0 
L 2701 435 
L 1613 435 
C 1536 435 1459 428 1382 428 
L 742 428 
L 742 435 
L 1651 1353 
z
" transform="scale(0.015625)"/>
       </defs>
       <use xlink:href="#CMSS17-2d" transform="scale(0.996264)"/>
       <use xlink:href="#CMSS17-30" transform="translate(31.229113 0)scale(0.996264)"/>
       <use xlink:href="#CMSS17-2e" transform="translate(78.072736 0)scale(0.996264)"/>
       <use xlink:href="#CMSS17-31" transform="translate(104.096941 0)scale(0.996264)"/>
       <use xlink:href="#CMSS17-32" transform="translate(150.940565 0)scale(0.996264)"/>
      </g>
     </g>
    </g>
    <g id="xtick_5">
     <g id="line2d_5">
      <g>
       <use xlink:href="#ma09d382336" x="304.214631" y="138.746449" style="stroke: #000000; stroke-width: 0.8"/>
      </g>
     </g>
     <g id="text_5">
      <!-- -0.1 -->
      <g transform="translate(294.784813 154.048629)scale(0.12 -0.12)">
       <use xlink:href="#CMSS17-2d" transform="scale(0.996264)"/>
       <use xlink:href="#CMSS17-30" transform="translate(31.229113 0)scale(0.996264)"/>
       <use xlink:href="#CMSS17-2e" transform="translate(78.072736 0)scale(0.996264)"/>
       <use xlink:href="#CMSS17-31" transform="translate(104.096941 0)scale(0.996264)"/>
      </g>
     </g>
    </g>
    <g id="text_6">
     <!-- estimate Republicans -->
     <g transform="translate(144.426614 168.675404)scale(0.12 -0.12)">
      <defs>
       <path id="CMSS17-65" d="M 2502 1375 
C 2502 1587 2490 2001 2285 2347 
C 2061 2713 1696 2816 1421 2816 
C 755 2816 192 2184 192 1363 
C 192 579 774 -64 1510 -64 
C 1798 -64 2150 19 2470 249 
C 2470 275 2458 414 2451 421 
C 2451 433 2432 629 2432 655 
C 2125 408 1773 326 1517 326 
C 1107 326 666 667 646 1375 
L 2502 1375 
z
M 698 1728 
C 781 2086 1062 2425 1421 2425 
C 1517 2425 1965 2412 2080 1728 
L 698 1728 
z
" transform="scale(0.015625)"/>
       <path id="CMSS17-73" d="M 2061 2623 
C 1683 2803 1389 2816 1197 2816 
C 742 2816 198 2655 198 2009 
C 198 1363 902 1222 1094 1183 
C 1389 1126 1715 1062 1715 742 
C 1715 339 1254 339 1171 339 
C 915 339 563 409 243 639 
L 166 211 
C 531 0 883 -64 1178 -64 
C 1965 -64 2163 416 2163 780 
C 2163 1094 1984 1305 1862 1401 
C 1651 1567 1574 1587 1050 1695 
C 960 1708 646 1779 646 2067 
C 646 2431 1050 2431 1139 2431 
C 1555 2431 1811 2303 1984 2207 
L 2061 2623 
z
" transform="scale(0.015625)"/>
       <path id="CMSS17-74" d="M 1069 2380 
L 1901 2380 
L 1901 2752 
L 1069 2752 
L 1069 3520 
L 614 3520 
L 614 2752 
L 109 2752 
L 109 2380 
L 602 2380 
L 602 751 
C 602 384 685 -64 1107 -64 
C 1427 -64 1722 25 2003 172 
L 1901 551 
C 1747 416 1562 339 1363 339 
C 1082 339 1069 699 1069 860 
L 1069 2380 
z
" transform="scale(0.015625)"/>
       <path id="CMSS17-69" d="M 979 4224 
L 442 4224 
L 442 3686 
L 979 3686 
L 979 4224 
z
M 947 2752 
L 474 2752 
L 474 0 
L 947 0 
L 947 2752 
z
" transform="scale(0.015625)"/>
       <path id="CMSS17-6d" d="M 4288 1878 
C 4288 2309 4179 2816 3462 2816 
C 2982 2816 2694 2515 2566 2328 
C 2451 2668 2182 2816 1798 2816 
C 1363 2816 1088 2566 941 2386 
L 941 2783 
L 474 2783 
L 474 0 
L 960 0 
L 960 1556 
C 960 1936 1101 2425 1555 2425 
C 2138 2425 2138 2013 2138 1826 
L 2138 0 
L 2624 0 
L 2624 1556 
C 2624 1936 2765 2425 3219 2425 
C 3802 2425 3802 2013 3802 1826 
L 3802 0 
L 4288 0 
L 4288 1878 
z
" transform="scale(0.015625)"/>
       <path id="CMSS17-61" d="M 2406 1789 
C 2406 2399 1978 2816 1402 2816 
C 1120 2816 813 2764 461 2559 
L 499 2133 
C 659 2250 934 2438 1395 2438 
C 1722 2438 1920 2185 1920 1782 
L 1920 1536 
C 896 1504 256 1209 256 711 
C 256 452 416 -64 947 -64 
C 1043 -64 1562 -52 1933 224 
L 1933 -13 
L 2406 -13 
L 2406 1789 
z
M 1920 824 
C 1920 711 1920 559 1728 446 
C 1562 339 1350 326 1261 326 
C 941 326 723 503 723 723 
C 723 1165 1722 1209 1920 1216 
L 1920 824 
z
" transform="scale(0.015625)"/>
       <path id="CMSS17-52" d="M 2522 2099 
L 2534 2105 
C 3533 2450 3539 3125 3539 3244 
C 3539 3838 2925 4416 2003 4416 
L 570 4416 
L 570 0 
L 1094 0 
L 1094 2041 
L 2035 2041 
L 3168 0 
L 3706 0 
L 2522 2099 
z
M 1094 2432 
L 1094 4057 
L 1933 4057 
C 2746 4057 3034 3607 3034 3244 
C 3034 2907 2778 2432 1933 2432 
L 1094 2432 
z
" transform="scale(0.015625)"/>
       <path id="CMSS17-70" d="M 966 275 
C 1178 70 1466 -64 1773 -64 
C 2368 -64 2880 553 2880 1382 
C 2880 2147 2496 2816 1946 2816 
C 1626 2816 1242 2700 954 2470 
L 954 2764 
L 480 2764 
L 480 -1280 
L 966 -1280 
L 966 275 
z
M 966 2088 
C 1018 2166 1235 2412 1587 2412 
C 2035 2412 2394 1946 2394 1382 
C 2394 741 1958 326 1530 326 
C 1402 326 1267 358 1139 468 
C 966 624 966 721 966 812 
L 966 2088 
z
" transform="scale(0.015625)"/>
       <path id="CMSS17-75" d="M 2618 2752 
L 2131 2752 
L 2131 976 
C 2131 500 1786 307 1421 307 
C 998 307 960 448 960 712 
L 960 2752 
L 474 2752 
L 474 680 
C 474 179 646 -64 1088 -64 
C 1306 -64 1798 -13 2144 307 
L 2144 -13 
L 2618 -13 
L 2618 2752 
z
" transform="scale(0.015625)"/>
       <path id="CMSS17-62" d="M 954 4416 
L 480 4416 
L 480 -13 
L 966 -13 
L 966 275 
C 1210 38 1504 -64 1766 -64 
C 2381 -64 2880 559 2880 1382 
C 2880 2133 2496 2816 1926 2816 
C 1523 2816 1165 2649 954 2476 
L 954 4416 
z
M 966 2095 
C 1107 2276 1306 2425 1587 2425 
C 1965 2425 2394 2146 2394 1382 
C 2394 566 1882 326 1530 326 
C 1402 326 1267 358 1139 468 
C 966 624 966 721 966 812 
L 966 2095 
z
" transform="scale(0.015625)"/>
       <path id="CMSS17-6c" d="M 947 4416 
L 474 4416 
L 474 0 
L 947 0 
L 947 4416 
z
" transform="scale(0.015625)"/>
       <path id="CMSS17-63" d="M 2464 2540 
C 2464 2585 2170 2713 2093 2739 
C 1882 2816 1613 2816 1542 2816 
C 710 2816 211 2092 211 1363 
C 211 595 768 -64 1517 -64 
C 1946 -64 2253 76 2502 243 
L 2464 665 
C 2189 454 1869 339 1523 339 
C 1024 339 698 774 698 1369 
C 698 1830 909 2412 1549 2412 
C 1901 2412 2099 2342 2394 2143 
L 2464 2540 
z
" transform="scale(0.015625)"/>
       <path id="CMSS17-6e" d="M 2618 1878 
C 2618 2283 2522 2816 1798 2816 
C 1389 2816 1120 2604 941 2386 
L 941 2783 
L 474 2783 
L 474 0 
L 960 0 
L 960 1556 
C 960 1962 1114 2425 1549 2425 
C 2112 2425 2131 2045 2131 1826 
L 2131 0 
L 2618 0 
L 2618 1878 
z
" transform="scale(0.015625)"/>
      </defs>
      <use xlink:href="#CMSS17-65" transform="scale(0.996264)"/>
      <use xlink:href="#CMSS17-73" transform="translate(41.638822 0)scale(0.996264)"/>
      <use xlink:href="#CMSS17-74" transform="translate(77.552364 0)scale(0.996264)"/>
      <use xlink:href="#CMSS17-69" transform="translate(111.383931 0)scale(0.996264)"/>
      <use xlink:href="#CMSS17-6d" transform="translate(133.564654 0)scale(0.996264)"/>
      <use xlink:href="#CMSS17-61" transform="translate(207.793908 0)scale(0.996264)"/>
      <use xlink:href="#CMSS17-74" transform="translate(252.715829 0)scale(0.996264)"/>
      <use xlink:href="#CMSS17-65" transform="translate(286.547396 0)scale(0.996264)"/>
      <use xlink:href="#CMSS17-52" transform="translate(359.41533 0)scale(0.996264)"/>
      <use xlink:href="#CMSS17-65" transform="translate(419.831485 0)scale(0.996264)"/>
      <use xlink:href="#CMSS17-70" transform="translate(461.470307 0)scale(0.996264)"/>
      <use xlink:href="#CMSS17-75" transform="translate(509.67525 0)scale(0.996264)"/>
      <use xlink:href="#CMSS17-62" transform="translate(557.880194 0)scale(0.996264)"/>
      <use xlink:href="#CMSS17-6c" transform="translate(606.085137 0)scale(0.996264)"/>
      <use xlink:href="#CMSS17-69" transform="translate(628.26586 0)scale(0.996264)"/>
      <use xlink:href="#CMSS17-63" transform="translate(650.446583 0)scale(0.996264)"/>
      <use xlink:href="#CMSS17-61" transform="translate(692.085405 0)scale(0.996264)"/>
      <use xlink:href="#CMSS17-6e" transform="translate(737.007325 0)scale(0.996264)"/>
      <use xlink:href="#CMSS17-73" transform="translate(785.212269 0)scale(0.996264)"/>
     </g>
    </g>
   </g>
   <g id="matplotlib.axis_2">
    <g id="ytick_1">
     <g id="line2d_6">
      <defs>
       <path id="mb00b99155c" d="M 0 0 
L -3.5 0 
" style="stroke: #000000; stroke-width: 0.8"/>
      </defs>
      <g>
       <use xlink:href="#mb00b99155c" x="43.784417" y="138.746449" style="stroke: #000000; stroke-width: 0.8"/>
      </g>
     </g>
     <g id="text_7">
      <!-- 0.0 -->
      <g transform="translate(21.826776 142.897539)scale(0.12 -0.12)">
       <use xlink:href="#CMSS17-30" transform="scale(0.996264)"/>
       <use xlink:href="#CMSS17-2e" transform="translate(46.843624 0)scale(0.996264)"/>
       <use xlink:href="#CMSS17-30" transform="translate(72.867828 0)scale(0.996264)"/>
      </g>
     </g>
    </g>
    <g id="ytick_2">
     <g id="line2d_7">
      <g>
       <use xlink:href="#mb00b99155c" x="43.784417" y="100.126258" style="stroke: #000000; stroke-width: 0.8"/>
      </g>
     </g>
     <g id="text_8">
      <!-- 0.1 -->
      <g transform="translate(21.826776 104.277348)scale(0.12 -0.12)">
       <use xlink:href="#CMSS17-30" transform="scale(0.996264)"/>
       <use xlink:href="#CMSS17-2e" transform="translate(46.843624 0)scale(0.996264)"/>
       <use xlink:href="#CMSS17-31" transform="translate(72.867828 0)scale(0.996264)"/>
      </g>
     </g>
    </g>
    <g id="ytick_3">
     <g id="line2d_8">
      <g>
       <use xlink:href="#mb00b99155c" x="43.784417" y="61.506067" style="stroke: #000000; stroke-width: 0.8"/>
      </g>
     </g>
     <g id="text_9">
      <!-- 0.2 -->
      <g transform="translate(21.826776 65.657157)scale(0.12 -0.12)">
       <use xlink:href="#CMSS17-30" transform="scale(0.996264)"/>
       <use xlink:href="#CMSS17-2e" transform="translate(46.843624 0)scale(0.996264)"/>
       <use xlink:href="#CMSS17-32" transform="translate(72.867828 0)scale(0.996264)"/>
      </g>
     </g>
    </g>
    <g id="ytick_4">
     <g id="line2d_9">
      <g>
       <use xlink:href="#mb00b99155c" x="43.784417" y="22.885876" style="stroke: #000000; stroke-width: 0.8"/>
      </g>
     </g>
     <g id="text_10">
      <!-- 0.3 -->
      <g transform="translate(21.826776 27.036966)scale(0.12 -0.12)">
       <defs>
        <path id="CMSS17-33" d="M 1005 2060 
L 1440 2060 
C 2042 2060 2214 1532 2214 1164 
C 2214 662 1933 268 1472 268 
C 1114 268 608 449 320 926 
C 275 700 275 687 250 533 
C 550 89 1037 -128 1485 -128 
C 2214 -128 2752 481 2752 1158 
C 2752 1667 2400 2092 1920 2252 
C 2304 2463 2586 2860 2586 3321 
C 2586 3859 2093 4288 1491 4288 
C 941 4288 512 3948 333 3583 
C 378 3519 493 3334 550 3238 
C 691 3615 1056 3897 1485 3897 
C 1843 3897 2080 3660 2080 3321 
C 2080 2969 1856 2585 1478 2496 
C 1453 2496 1056 2457 1005 2451 
L 1005 2060 
z
" transform="scale(0.015625)"/>
       </defs>
       <use xlink:href="#CMSS17-30" transform="scale(0.996264)"/>
       <use xlink:href="#CMSS17-2e" transform="translate(46.843624 0)scale(0.996264)"/>
       <use xlink:href="#CMSS17-33" transform="translate(72.867828 0)scale(0.996264)"/>
      </g>
     </g>
    </g>
    <g id="text_11">
     <!-- density -->
     <g transform="translate(15.50218 97.671489)rotate(-90)scale(0.12 -0.12)">
      <defs>
       <path id="CMSS17-64" d="M 2611 4416 
L 2138 4416 
L 2138 2495 
C 1939 2662 1613 2816 1254 2816 
C 672 2816 211 2179 211 1375 
C 211 572 666 -64 1235 -64 
C 1677 -64 1971 172 2125 307 
L 2125 -13 
L 2611 -13 
L 2611 4416 
z
M 2125 851 
C 2125 760 2125 663 1926 488 
C 1798 378 1645 326 1498 326 
C 1152 326 698 585 698 1369 
C 698 2185 1210 2425 1562 2425 
C 1798 2425 1990 2308 2125 2114 
L 2125 851 
z
" transform="scale(0.015625)"/>
       <path id="CMSS17-79" d="M 2675 2752 
L 2176 2752 
C 1632 1293 1446 701 1434 383 
L 1427 383 
C 1408 695 1126 1459 902 2006 
L 602 2752 
L 83 2752 
L 1216 14 
C 1146 -177 1043 -464 1011 -527 
C 870 -884 774 -884 672 -884 
C 646 -884 442 -877 211 -807 
L 250 -1229 
C 410 -1261 570 -1280 685 -1280 
C 845 -1280 1165 -1280 1459 -495 
L 2675 2752 
z
" transform="scale(0.015625)"/>
      </defs>
      <use xlink:href="#CMSS17-64" transform="scale(0.996264)"/>
      <use xlink:href="#CMSS17-65" transform="translate(48.204943 0)scale(0.996264)"/>
      <use xlink:href="#CMSS17-6e" transform="translate(89.843765 0)scale(0.996264)"/>
      <use xlink:href="#CMSS17-73" transform="translate(138.048708 0)scale(0.996264)"/>
      <use xlink:href="#CMSS17-69" transform="translate(173.96225 0)scale(0.996264)"/>
      <use xlink:href="#CMSS17-74" transform="translate(196.142973 0)scale(0.996264)"/>
      <use xlink:href="#CMSS17-79" transform="translate(227.372086 0)scale(0.996264)"/>
     </g>
    </g>
   </g>
   <g id="line2d_10">
    <path d="M 220.144842 138.746449 
L 220.144842 24.044482 
" clip-path="url(#p45d764ea23)" style="fill: none; stroke-dasharray: 7.4,3.2; stroke-dashoffset: 0; stroke: #000000; stroke-width: 2"/>
   </g>
   <g id="patch_12">
    <path d="M 43.784417 138.746449 
L 43.784417 22.885876 
" style="fill: none; stroke: #000000; stroke-width: 0.8; stroke-linejoin: miter; stroke-linecap: square"/>
   </g>
   <g id="patch_13">
    <path d="M 43.784417 138.746449 
L 347.490408 138.746449 
" style="fill: none; stroke: #000000; stroke-width: 0.8; stroke-linejoin: miter; stroke-linecap: square"/>
   </g>
   <g id="text_12">
    <!-- belief-speaking -->
    <g transform="translate(153.848899 16.885876)scale(0.14 -0.14)">
     <defs>
      <path id="CMSS17-66" d="M 1075 2380 
L 1722 2380 
L 1722 2752 
L 1062 2752 
L 1062 3563 
C 1062 4013 1408 4089 1606 4089 
C 1670 4089 1850 4089 2080 4007 
L 2080 4428 
C 1933 4460 1754 4480 1613 4480 
C 1018 4480 602 3994 602 3366 
L 602 2752 
L 160 2752 
L 160 2380 
L 602 2380 
L 602 0 
L 1075 0 
L 1075 2380 
z
" transform="scale(0.015625)"/>
      <path id="CMSS17-6b" d="M 1696 1686 
L 2688 2735 
L 2074 2735 
L 954 1552 
L 954 4416 
L 480 4416 
L 480 0 
L 947 0 
L 947 891 
L 1376 1342 
L 2278 0 
L 2822 0 
L 1696 1686 
z
" transform="scale(0.015625)"/>
      <path id="CMSS17-67" d="M 2848 2816 
C 2483 2809 2170 2739 1914 2617 
C 1702 2783 1485 2816 1338 2816 
C 781 2816 358 2356 358 1824 
C 358 1481 550 1222 563 1209 
C 448 1049 384 876 384 684 
C 384 460 474 300 544 211 
C 211 6 166 -308 166 -429 
C 166 -896 749 -1280 1498 -1280 
C 2253 -1280 2835 -896 2835 -423 
C 2835 460 1856 467 1587 467 
L 1069 467 
C 973 467 717 467 717 793 
C 717 921 774 1004 781 1011 
C 877 940 1075 832 1338 832 
C 1869 832 2310 1279 2310 1824 
C 2310 2128 2170 2349 2112 2425 
L 2131 2425 
C 2150 2425 2419 2444 2515 2444 
C 2720 2444 2739 2438 2918 2419 
L 2848 2816 
z
M 1338 1184 
C 1120 1184 813 1317 813 1824 
C 813 2375 1165 2463 1331 2463 
C 1549 2463 1856 2330 1856 1824 
C 1856 1272 1504 1184 1338 1184 
z
M 1581 0 
C 1734 0 2381 0 2381 -436 
C 2381 -711 1984 -928 1504 -928 
C 1018 -928 621 -717 621 -429 
C 621 -397 621 0 1062 0 
L 1581 0 
z
" transform="scale(0.015625)"/>
     </defs>
     <use xlink:href="#CMSS17-62" transform="scale(0.996264)"/>
     <use xlink:href="#CMSS17-65" transform="translate(50.807382 0)scale(0.996264)"/>
     <use xlink:href="#CMSS17-6c" transform="translate(92.446204 0)scale(0.996264)"/>
     <use xlink:href="#CMSS17-69" transform="translate(114.626927 0)scale(0.996264)"/>
     <use xlink:href="#CMSS17-65" transform="translate(136.80765 0)scale(0.996264)"/>
     <use xlink:href="#CMSS17-66" transform="translate(178.446472 0)scale(0.996264)"/>
     <use xlink:href="#CMSS17-2d" transform="translate(207.073131 0)scale(0.996264)"/>
     <use xlink:href="#CMSS17-73" transform="translate(238.302244 0)scale(0.996264)"/>
     <use xlink:href="#CMSS17-70" transform="translate(274.215786 0)scale(0.996264)"/>
     <use xlink:href="#CMSS17-65" transform="translate(325.023168 0)scale(0.996264)"/>
     <use xlink:href="#CMSS17-61" transform="translate(366.66199 0)scale(0.996264)"/>
     <use xlink:href="#CMSS17-6b" transform="translate(411.58391 0)scale(0.996264)"/>
     <use xlink:href="#CMSS17-69" transform="translate(457.186399 0)scale(0.996264)"/>
     <use xlink:href="#CMSS17-6e" transform="translate(479.367122 0)scale(0.996264)"/>
     <use xlink:href="#CMSS17-67" transform="translate(527.572066 0)scale(0.996264)"/>
    </g>
   </g>
  </g>
  <g id="axes_2">
   <g id="patch_14">
    <path d="M 398.631766 138.746449 
L 702.337757 138.746449 
L 702.337757 22.885876 
L 398.631766 22.885876 
z
" style="fill: #ffffff"/>
   </g>
   <g id="patch_15">
    <path d="M 412.436584 138.746449 
L 443.890599 138.746449 
L 443.890599 119.436353 
L 412.436584 119.436353 
z
" clip-path="url(#p3f57d51937)" style="fill: #ff0000; fill-opacity: 0.75"/>
   </g>
   <g id="patch_16">
    <path d="M 447.38549 138.746449 
L 478.839505 138.746449 
L 478.839505 88.540201 
L 447.38549 88.540201 
z
" clip-path="url(#p3f57d51937)" style="fill: #ff0000; fill-opacity: 0.75"/>
   </g>
   <g id="patch_17">
    <path d="M 482.334395 138.746449 
L 513.78841 138.746449 
L 513.78841 84.678182 
L 482.334395 84.678182 
z
" clip-path="url(#p3f57d51937)" style="fill: #ff0000; fill-opacity: 0.75"/>
   </g>
   <g id="patch_18">
    <path d="M 517.283301 138.746449 
L 548.737316 138.746449 
L 548.737316 73.092124 
L 517.283301 73.092124 
z
" clip-path="url(#p3f57d51937)" style="fill: #ff0000; fill-opacity: 0.75"/>
   </g>
   <g id="patch_19">
    <path d="M 552.232207 138.746449 
L 583.686222 138.746449 
L 583.686222 49.92001 
L 552.232207 49.92001 
z
" clip-path="url(#p3f57d51937)" style="fill: #ff0000; fill-opacity: 0.75"/>
   </g>
   <g id="patch_20">
    <path d="M 587.181112 138.746449 
L 618.635128 138.746449 
L 618.635128 69.230105 
L 587.181112 69.230105 
z
" clip-path="url(#p3f57d51937)" style="fill: #ff0000; fill-opacity: 0.75"/>
   </g>
   <g id="patch_21">
    <path d="M 622.130018 138.746449 
L 653.584033 138.746449 
L 653.584033 123.298373 
L 622.130018 123.298373 
z
" clip-path="url(#p3f57d51937)" style="fill: #ff0000; fill-opacity: 0.75"/>
   </g>
   <g id="patch_22">
    <path d="M 657.078924 138.746449 
L 688.532939 138.746449 
L 688.532939 115.574334 
L 657.078924 115.574334 
z
" clip-path="url(#p3f57d51937)" style="fill: #ff0000; fill-opacity: 0.75"/>
   </g>
   <g id="matplotlib.axis_3">
    <g id="xtick_6">
     <g id="line2d_11">
      <g>
       <use xlink:href="#ma09d382336" x="410.689139" y="138.746449" style="stroke: #000000; stroke-width: 0.8"/>
      </g>
     </g>
     <g id="text_13">
      <!-- 0.02 -->
      <g transform="translate(400.283823 154.048629)scale(0.12 -0.12)">
       <use xlink:href="#CMSS17-30" transform="scale(0.996264)"/>
       <use xlink:href="#CMSS17-2e" transform="translate(46.843624 0)scale(0.996264)"/>
       <use xlink:href="#CMSS17-30" transform="translate(72.867828 0)scale(0.996264)"/>
       <use xlink:href="#CMSS17-32" transform="translate(119.711452 0)scale(0.996264)"/>
      </g>
     </g>
    </g>
    <g id="xtick_7">
     <g id="line2d_12">
      <g>
       <use xlink:href="#ma09d382336" x="480.58695" y="138.746449" style="stroke: #000000; stroke-width: 0.8"/>
      </g>
     </g>
     <g id="text_14">
      <!-- 0.04 -->
      <g transform="translate(470.181634 154.048629)scale(0.12 -0.12)">
       <use xlink:href="#CMSS17-30" transform="scale(0.996264)"/>
       <use xlink:href="#CMSS17-2e" transform="translate(46.843624 0)scale(0.996264)"/>
       <use xlink:href="#CMSS17-30" transform="translate(72.867828 0)scale(0.996264)"/>
       <use xlink:href="#CMSS17-34" transform="translate(119.711452 0)scale(0.996264)"/>
      </g>
     </g>
    </g>
    <g id="xtick_8">
     <g id="line2d_13">
      <g>
       <use xlink:href="#ma09d382336" x="550.484761" y="138.746449" style="stroke: #000000; stroke-width: 0.8"/>
      </g>
     </g>
     <g id="text_15">
      <!-- 0.06 -->
      <g transform="translate(540.079445 154.048629)scale(0.12 -0.12)">
       <use xlink:href="#CMSS17-30" transform="scale(0.996264)"/>
       <use xlink:href="#CMSS17-2e" transform="translate(46.843624 0)scale(0.996264)"/>
       <use xlink:href="#CMSS17-30" transform="translate(72.867828 0)scale(0.996264)"/>
       <use xlink:href="#CMSS17-36" transform="translate(119.711452 0)scale(0.996264)"/>
      </g>
     </g>
    </g>
    <g id="xtick_9">
     <g id="line2d_14">
      <g>
       <use xlink:href="#ma09d382336" x="620.382573" y="138.746449" style="stroke: #000000; stroke-width: 0.8"/>
      </g>
     </g>
     <g id="text_16">
      <!-- 0.08 -->
      <g transform="translate(609.977257 154.048629)scale(0.12 -0.12)">
       <use xlink:href="#CMSS17-30" transform="scale(0.996264)"/>
       <use xlink:href="#CMSS17-2e" transform="translate(46.843624 0)scale(0.996264)"/>
       <use xlink:href="#CMSS17-30" transform="translate(72.867828 0)scale(0.996264)"/>
       <use xlink:href="#CMSS17-38" transform="translate(119.711452 0)scale(0.996264)"/>
      </g>
     </g>
    </g>
    <g id="xtick_10">
     <g id="line2d_15">
      <g>
       <use xlink:href="#ma09d382336" x="690.280384" y="138.746449" style="stroke: #000000; stroke-width: 0.8"/>
      </g>
     </g>
     <g id="text_17">
      <!-- 0.1 -->
      <g transform="translate(682.801563 154.048629)scale(0.12 -0.12)">
       <use xlink:href="#CMSS17-30" transform="scale(0.996264)"/>
       <use xlink:href="#CMSS17-2e" transform="translate(46.843624 0)scale(0.996264)"/>
       <use xlink:href="#CMSS17-31" transform="translate(72.867828 0)scale(0.996264)"/>
      </g>
     </g>
    </g>
    <g id="text_18">
     <!-- estimate Republicans -->
     <g transform="translate(499.273962 168.675404)scale(0.12 -0.12)">
      <use xlink:href="#CMSS17-65" transform="scale(0.996264)"/>
      <use xlink:href="#CMSS17-73" transform="translate(41.638822 0)scale(0.996264)"/>
      <use xlink:href="#CMSS17-74" transform="translate(77.552364 0)scale(0.996264)"/>
      <use xlink:href="#CMSS17-69" transform="translate(111.383931 0)scale(0.996264)"/>
      <use xlink:href="#CMSS17-6d" transform="translate(133.564654 0)scale(0.996264)"/>
      <use xlink:href="#CMSS17-61" transform="translate(207.793908 0)scale(0.996264)"/>
      <use xlink:href="#CMSS17-74" transform="translate(252.715829 0)scale(0.996264)"/>
      <use xlink:href="#CMSS17-65" transform="translate(286.547396 0)scale(0.996264)"/>
      <use xlink:href="#CMSS17-52" transform="translate(359.41533 0)scale(0.996264)"/>
      <use xlink:href="#CMSS17-65" transform="translate(419.831485 0)scale(0.996264)"/>
      <use xlink:href="#CMSS17-70" transform="translate(461.470307 0)scale(0.996264)"/>
      <use xlink:href="#CMSS17-75" transform="translate(509.67525 0)scale(0.996264)"/>
      <use xlink:href="#CMSS17-62" transform="translate(557.880194 0)scale(0.996264)"/>
      <use xlink:href="#CMSS17-6c" transform="translate(606.085137 0)scale(0.996264)"/>
      <use xlink:href="#CMSS17-69" transform="translate(628.26586 0)scale(0.996264)"/>
      <use xlink:href="#CMSS17-63" transform="translate(650.446583 0)scale(0.996264)"/>
      <use xlink:href="#CMSS17-61" transform="translate(692.085405 0)scale(0.996264)"/>
      <use xlink:href="#CMSS17-6e" transform="translate(737.007325 0)scale(0.996264)"/>
      <use xlink:href="#CMSS17-73" transform="translate(785.212269 0)scale(0.996264)"/>
     </g>
    </g>
   </g>
   <g id="matplotlib.axis_4">
    <g id="ytick_5">
     <g id="line2d_16">
      <g>
       <use xlink:href="#mb00b99155c" x="398.631766" y="138.746449" style="stroke: #000000; stroke-width: 0.8"/>
      </g>
     </g>
     <g id="text_19">
      <!-- 0.0 -->
      <g transform="translate(376.674124 142.897539)scale(0.12 -0.12)">
       <use xlink:href="#CMSS17-30" transform="scale(0.996264)"/>
       <use xlink:href="#CMSS17-2e" transform="translate(46.843624 0)scale(0.996264)"/>
       <use xlink:href="#CMSS17-30" transform="translate(72.867828 0)scale(0.996264)"/>
      </g>
     </g>
    </g>
    <g id="ytick_6">
     <g id="line2d_17">
      <g>
       <use xlink:href="#mb00b99155c" x="398.631766" y="100.126258" style="stroke: #000000; stroke-width: 0.8"/>
      </g>
     </g>
     <g id="text_20">
      <!-- 0.1 -->
      <g transform="translate(376.674124 104.277348)scale(0.12 -0.12)">
       <use xlink:href="#CMSS17-30" transform="scale(0.996264)"/>
       <use xlink:href="#CMSS17-2e" transform="translate(46.843624 0)scale(0.996264)"/>
       <use xlink:href="#CMSS17-31" transform="translate(72.867828 0)scale(0.996264)"/>
      </g>
     </g>
    </g>
    <g id="ytick_7">
     <g id="line2d_18">
      <g>
       <use xlink:href="#mb00b99155c" x="398.631766" y="61.506067" style="stroke: #000000; stroke-width: 0.8"/>
      </g>
     </g>
     <g id="text_21">
      <!-- 0.2 -->
      <g transform="translate(376.674124 65.657157)scale(0.12 -0.12)">
       <use xlink:href="#CMSS17-30" transform="scale(0.996264)"/>
       <use xlink:href="#CMSS17-2e" transform="translate(46.843624 0)scale(0.996264)"/>
       <use xlink:href="#CMSS17-32" transform="translate(72.867828 0)scale(0.996264)"/>
      </g>
     </g>
    </g>
    <g id="ytick_8">
     <g id="line2d_19">
      <g>
       <use xlink:href="#mb00b99155c" x="398.631766" y="22.885876" style="stroke: #000000; stroke-width: 0.8"/>
      </g>
     </g>
     <g id="text_22">
      <!-- 0.3 -->
      <g transform="translate(376.674124 27.036966)scale(0.12 -0.12)">
       <use xlink:href="#CMSS17-30" transform="scale(0.996264)"/>
       <use xlink:href="#CMSS17-2e" transform="translate(46.843624 0)scale(0.996264)"/>
       <use xlink:href="#CMSS17-33" transform="translate(72.867828 0)scale(0.996264)"/>
      </g>
     </g>
    </g>
    <g id="text_23">
     <!-- density -->
     <g transform="translate(370.349529 97.671489)rotate(-90)scale(0.12 -0.12)">
      <use xlink:href="#CMSS17-64" transform="scale(0.996264)"/>
      <use xlink:href="#CMSS17-65" transform="translate(48.204943 0)scale(0.996264)"/>
      <use xlink:href="#CMSS17-6e" transform="translate(89.843765 0)scale(0.996264)"/>
      <use xlink:href="#CMSS17-73" transform="translate(138.048708 0)scale(0.996264)"/>
      <use xlink:href="#CMSS17-69" transform="translate(173.96225 0)scale(0.996264)"/>
      <use xlink:href="#CMSS17-74" transform="translate(196.142973 0)scale(0.996264)"/>
      <use xlink:href="#CMSS17-79" transform="translate(227.372086 0)scale(0.996264)"/>
     </g>
    </g>
   </g>
   <g id="line2d_20">
    <path d="M 555.727097 138.746449 
L 555.727097 24.044482 
" clip-path="url(#p3f57d51937)" style="fill: none; stroke-dasharray: 7.4,3.2; stroke-dashoffset: 0; stroke: #000000; stroke-width: 2"/>
   </g>
   <g id="patch_23">
    <path d="M 398.631766 138.746449 
L 398.631766 22.885876 
" style="fill: none; stroke: #000000; stroke-width: 0.8; stroke-linejoin: miter; stroke-linecap: square"/>
   </g>
   <g id="patch_24">
    <path d="M 398.631766 138.746449 
L 702.337757 138.746449 
" style="fill: none; stroke: #000000; stroke-width: 0.8; stroke-linejoin: miter; stroke-linecap: square"/>
   </g>
   <g id="text_24">
    <!-- truth-seeking -->
    <g transform="translate(513.42613 16.885876)scale(0.14 -0.14)">
     <defs>
      <path id="CMSS17-72" d="M 954 1369 
C 954 1974 1395 2379 1958 2392 
L 1958 2816 
C 1549 2809 1165 2604 934 2270 
L 934 2783 
L 480 2783 
L 480 0 
L 954 0 
L 954 1369 
z
" transform="scale(0.015625)"/>
      <path id="CMSS17-68" d="M 2618 1878 
C 2618 2283 2522 2816 1798 2816 
C 1395 2816 1133 2617 947 2399 
L 947 4416 
L 474 4416 
L 474 0 
L 960 0 
L 960 1556 
C 960 1962 1114 2425 1549 2425 
C 2112 2425 2131 2045 2131 1826 
L 2131 0 
L 2618 0 
L 2618 1878 
z
" transform="scale(0.015625)"/>
     </defs>
     <use xlink:href="#CMSS17-74" transform="scale(0.996264)"/>
     <use xlink:href="#CMSS17-72" transform="translate(33.831567 0)scale(0.996264)"/>
     <use xlink:href="#CMSS17-75" transform="translate(65.741339 0)scale(0.996264)"/>
     <use xlink:href="#CMSS17-74" transform="translate(113.946282 0)scale(0.996264)"/>
     <use xlink:href="#CMSS17-68" transform="translate(147.777849 0)scale(0.996264)"/>
     <use xlink:href="#CMSS17-2d" transform="translate(195.982792 0)scale(0.996264)"/>
     <use xlink:href="#CMSS17-73" transform="translate(227.211905 0)scale(0.996264)"/>
     <use xlink:href="#CMSS17-65" transform="translate(263.125447 0)scale(0.996264)"/>
     <use xlink:href="#CMSS17-65" transform="translate(304.764269 0)scale(0.996264)"/>
     <use xlink:href="#CMSS17-6b" transform="translate(346.403091 0)scale(0.996264)"/>
     <use xlink:href="#CMSS17-69" transform="translate(392.00558 0)scale(0.996264)"/>
     <use xlink:href="#CMSS17-6e" transform="translate(414.186303 0)scale(0.996264)"/>
     <use xlink:href="#CMSS17-67" transform="translate(462.391246 0)scale(0.996264)"/>
    </g>
   </g>
  </g>
  <g id="axes_3">
   <g id="patch_25">
    <path d="M 43.784417 313.346449 
L 347.490408 313.346449 
L 347.490408 197.485876 
L 43.784417 197.485876 
z
" style="fill: #ffffff"/>
   </g>
   <g id="patch_26">
    <path d="M 57.589235 313.346449 
L 99.705628 313.346449 
L 99.705628 293.020033 
L 57.589235 293.020033 
z
" clip-path="url(#pc99fc29017)" style="fill: #0015bc; fill-opacity: 0.75"/>
   </g>
   <g id="patch_27">
    <path d="M 104.385227 313.346449 
L 146.501621 313.346449 
L 146.501621 272.693616 
L 104.385227 272.693616 
z
" clip-path="url(#pc99fc29017)" style="fill: #0015bc; fill-opacity: 0.75"/>
   </g>
   <g id="patch_28">
    <path d="M 151.18122 313.346449 
L 193.297613 313.346449 
L 193.297613 195.453235 
L 151.18122 195.453235 
z
" clip-path="url(#pc99fc29017)" style="fill: #0015bc; fill-opacity: 0.75"/>
   </g>
   <g id="patch_29">
    <path d="M 197.977212 313.346449 
L 240.093605 313.346449 
L 240.093605 215.779651 
L 197.977212 215.779651 
z
" clip-path="url(#pc99fc29017)" style="fill: #0015bc; fill-opacity: 0.75"/>
   </g>
   <g id="patch_30">
    <path d="M 244.773205 313.346449 
L 286.889598 313.346449 
L 286.889598 236.106067 
L 244.773205 236.106067 
z
" clip-path="url(#pc99fc29017)" style="fill: #0015bc; fill-opacity: 0.75"/>
   </g>
   <g id="patch_31">
    <path d="M 291.569197 313.346449 
L 333.68559 313.346449 
L 333.68559 280.824183 
L 291.569197 280.824183 
z
" clip-path="url(#pc99fc29017)" style="fill: #0015bc; fill-opacity: 0.75"/>
   </g>
   <g id="matplotlib.axis_5">
    <g id="xtick_11">
     <g id="line2d_21">
      <g>
       <use xlink:href="#ma09d382336" x="55.249435" y="313.346449" style="stroke: #000000; stroke-width: 0.8"/>
      </g>
     </g>
     <g id="text_25">
      <!-- -0.011 -->
      <g transform="translate(39.966628 328.648629)scale(0.12 -0.12)">
       <use xlink:href="#CMSS17-2d" transform="scale(0.996264)"/>
       <use xlink:href="#CMSS17-30" transform="translate(31.229113 0)scale(0.996264)"/>
       <use xlink:href="#CMSS17-2e" transform="translate(78.072736 0)scale(0.996264)"/>
       <use xlink:href="#CMSS17-30" transform="translate(104.096941 0)scale(0.996264)"/>
       <use xlink:href="#CMSS17-31" transform="translate(150.940565 0)scale(0.996264)"/>
       <use xlink:href="#CMSS17-31" transform="translate(197.784188 0)scale(0.996264)"/>
      </g>
     </g>
    </g>
    <g id="xtick_12">
     <g id="line2d_22">
      <g>
       <use xlink:href="#ma09d382336" x="148.84142" y="313.346449" style="stroke: #000000; stroke-width: 0.8"/>
      </g>
     </g>
     <g id="text_26">
      <!-- -0.007 -->
      <g transform="translate(133.558612 328.648629)scale(0.12 -0.12)">
       <defs>
        <path id="CMSS17-37" d="M 1389 3788 
C 1466 3788 1542 3795 1619 3795 
L 2355 3795 
C 1440 2715 915 1350 915 -64 
L 1427 -64 
C 1427 1305 1875 2695 2752 3807 
L 2752 4224 
L 250 4224 
L 250 3788 
L 1389 3788 
z
" transform="scale(0.015625)"/>
       </defs>
       <use xlink:href="#CMSS17-2d" transform="scale(0.996264)"/>
       <use xlink:href="#CMSS17-30" transform="translate(31.229113 0)scale(0.996264)"/>
       <use xlink:href="#CMSS17-2e" transform="translate(78.072736 0)scale(0.996264)"/>
       <use xlink:href="#CMSS17-30" transform="translate(104.096941 0)scale(0.996264)"/>
       <use xlink:href="#CMSS17-30" transform="translate(150.940565 0)scale(0.996264)"/>
       <use xlink:href="#CMSS17-37" transform="translate(197.784188 0)scale(0.996264)"/>
      </g>
     </g>
    </g>
    <g id="xtick_13">
     <g id="line2d_23">
      <g>
       <use xlink:href="#ma09d382336" x="242.433405" y="313.346449" style="stroke: #000000; stroke-width: 0.8"/>
      </g>
     </g>
     <g id="text_27">
      <!-- -0.003 -->
      <g transform="translate(227.150597 328.648629)scale(0.12 -0.12)">
       <use xlink:href="#CMSS17-2d" transform="scale(0.996264)"/>
       <use xlink:href="#CMSS17-30" transform="translate(31.229113 0)scale(0.996264)"/>
       <use xlink:href="#CMSS17-2e" transform="translate(78.072736 0)scale(0.996264)"/>
       <use xlink:href="#CMSS17-30" transform="translate(104.096941 0)scale(0.996264)"/>
       <use xlink:href="#CMSS17-30" transform="translate(150.940565 0)scale(0.996264)"/>
       <use xlink:href="#CMSS17-33" transform="translate(197.784188 0)scale(0.996264)"/>
      </g>
     </g>
    </g>
    <g id="xtick_14">
     <g id="line2d_24">
      <g>
       <use xlink:href="#ma09d382336" x="336.02539" y="313.346449" style="stroke: #000000; stroke-width: 0.8"/>
      </g>
     </g>
     <g id="text_28">
      <!-- 0.001 -->
      <g transform="translate(322.693579 328.648629)scale(0.12 -0.12)">
       <use xlink:href="#CMSS17-30" transform="scale(0.996264)"/>
       <use xlink:href="#CMSS17-2e" transform="translate(46.843624 0)scale(0.996264)"/>
       <use xlink:href="#CMSS17-30" transform="translate(72.867828 0)scale(0.996264)"/>
       <use xlink:href="#CMSS17-30" transform="translate(119.711452 0)scale(0.996264)"/>
       <use xlink:href="#CMSS17-31" transform="translate(166.555075 0)scale(0.996264)"/>
      </g>
     </g>
    </g>
    <g id="text_29">
     <!-- estimate Democrats -->
     <g transform="translate(146.927573 343.275404)scale(0.12 -0.12)">
      <defs>
       <path id="CMSS17-44" d="M 570 4416 
L 570 0 
L 2144 0 
C 3194 0 4000 981 4000 2169 
C 4000 3396 3194 4416 2144 4416 
L 570 4416 
z
M 1094 358 
L 1094 4057 
L 2003 4057 
C 2861 4057 3475 3275 3475 2169 
C 3475 1108 2867 358 2003 358 
L 1094 358 
z
" transform="scale(0.015625)"/>
       <path id="CMSS17-6f" d="M 2829 1356 
C 2829 2175 2221 2816 1504 2816 
C 768 2816 173 2156 173 1356 
C 173 544 787 -64 1498 -64 
C 2227 -64 2829 563 2829 1356 
z
M 1504 339 
C 1050 339 659 710 659 1407 
C 659 2150 1114 2425 1498 2425 
C 1914 2425 2342 2124 2342 1407 
C 2342 684 1926 339 1504 339 
z
" transform="scale(0.015625)"/>
      </defs>
      <use xlink:href="#CMSS17-65" transform="scale(0.996264)"/>
      <use xlink:href="#CMSS17-73" transform="translate(41.638822 0)scale(0.996264)"/>
      <use xlink:href="#CMSS17-74" transform="translate(77.552364 0)scale(0.996264)"/>
      <use xlink:href="#CMSS17-69" transform="translate(111.383931 0)scale(0.996264)"/>
      <use xlink:href="#CMSS17-6d" transform="translate(133.564654 0)scale(0.996264)"/>
      <use xlink:href="#CMSS17-61" transform="translate(207.793908 0)scale(0.996264)"/>
      <use xlink:href="#CMSS17-74" transform="translate(252.715829 0)scale(0.996264)"/>
      <use xlink:href="#CMSS17-65" transform="translate(286.547396 0)scale(0.996264)"/>
      <use xlink:href="#CMSS17-44" transform="translate(359.41533 0)scale(0.996264)"/>
      <use xlink:href="#CMSS17-65" transform="translate(426.958172 0)scale(0.996264)"/>
      <use xlink:href="#CMSS17-6d" transform="translate(468.596994 0)scale(0.996264)"/>
      <use xlink:href="#CMSS17-6f" transform="translate(542.826248 0)scale(0.996264)"/>
      <use xlink:href="#CMSS17-63" transform="translate(592.272311 0)scale(0.996264)"/>
      <use xlink:href="#CMSS17-72" transform="translate(633.911133 0)scale(0.996264)"/>
      <use xlink:href="#CMSS17-61" transform="translate(665.820905 0)scale(0.996264)"/>
      <use xlink:href="#CMSS17-74" transform="translate(710.742826 0)scale(0.996264)"/>
      <use xlink:href="#CMSS17-73" transform="translate(744.574393 0)scale(0.996264)"/>
     </g>
    </g>
   </g>
   <g id="matplotlib.axis_6">
    <g id="ytick_9">
     <g id="line2d_25">
      <g>
       <use xlink:href="#mb00b99155c" x="43.784417" y="313.346449" style="stroke: #000000; stroke-width: 0.8"/>
      </g>
     </g>
     <g id="text_30">
      <!-- 0.0 -->
      <g transform="translate(21.826776 317.497539)scale(0.12 -0.12)">
       <use xlink:href="#CMSS17-30" transform="scale(0.996264)"/>
       <use xlink:href="#CMSS17-2e" transform="translate(46.843624 0)scale(0.996264)"/>
       <use xlink:href="#CMSS17-30" transform="translate(72.867828 0)scale(0.996264)"/>
      </g>
     </g>
    </g>
    <g id="ytick_10">
     <g id="line2d_26">
      <g>
       <use xlink:href="#mb00b99155c" x="43.784417" y="274.726258" style="stroke: #000000; stroke-width: 0.8"/>
      </g>
     </g>
     <g id="text_31">
      <!-- 0.1 -->
      <g transform="translate(21.826776 278.877348)scale(0.12 -0.12)">
       <use xlink:href="#CMSS17-30" transform="scale(0.996264)"/>
       <use xlink:href="#CMSS17-2e" transform="translate(46.843624 0)scale(0.996264)"/>
       <use xlink:href="#CMSS17-31" transform="translate(72.867828 0)scale(0.996264)"/>
      </g>
     </g>
    </g>
    <g id="ytick_11">
     <g id="line2d_27">
      <g>
       <use xlink:href="#mb00b99155c" x="43.784417" y="236.106067" style="stroke: #000000; stroke-width: 0.8"/>
      </g>
     </g>
     <g id="text_32">
      <!-- 0.2 -->
      <g transform="translate(21.826776 240.257157)scale(0.12 -0.12)">
       <use xlink:href="#CMSS17-30" transform="scale(0.996264)"/>
       <use xlink:href="#CMSS17-2e" transform="translate(46.843624 0)scale(0.996264)"/>
       <use xlink:href="#CMSS17-32" transform="translate(72.867828 0)scale(0.996264)"/>
      </g>
     </g>
    </g>
    <g id="ytick_12">
     <g id="line2d_28">
      <g>
       <use xlink:href="#mb00b99155c" x="43.784417" y="197.485876" style="stroke: #000000; stroke-width: 0.8"/>
      </g>
     </g>
     <g id="text_33">
      <!-- 0.3 -->
      <g transform="translate(21.826776 201.636966)scale(0.12 -0.12)">
       <use xlink:href="#CMSS17-30" transform="scale(0.996264)"/>
       <use xlink:href="#CMSS17-2e" transform="translate(46.843624 0)scale(0.996264)"/>
       <use xlink:href="#CMSS17-33" transform="translate(72.867828 0)scale(0.996264)"/>
      </g>
     </g>
    </g>
    <g id="text_34">
     <!-- density -->
     <g transform="translate(15.50218 272.271489)rotate(-90)scale(0.12 -0.12)">
      <use xlink:href="#CMSS17-64" transform="scale(0.996264)"/>
      <use xlink:href="#CMSS17-65" transform="translate(48.204943 0)scale(0.996264)"/>
      <use xlink:href="#CMSS17-6e" transform="translate(89.843765 0)scale(0.996264)"/>
      <use xlink:href="#CMSS17-73" transform="translate(138.048708 0)scale(0.996264)"/>
      <use xlink:href="#CMSS17-69" transform="translate(173.96225 0)scale(0.996264)"/>
      <use xlink:href="#CMSS17-74" transform="translate(196.142973 0)scale(0.996264)"/>
      <use xlink:href="#CMSS17-79" transform="translate(227.372086 0)scale(0.996264)"/>
     </g>
    </g>
   </g>
   <g id="line2d_29">
    <path d="M 221.375209 313.346449 
L 221.375209 198.644482 
" clip-path="url(#pc99fc29017)" style="fill: none; stroke-dasharray: 7.4,3.2; stroke-dashoffset: 0; stroke: #000000; stroke-width: 2"/>
   </g>
   <g id="patch_32">
    <path d="M 43.784417 313.346449 
L 43.784417 197.485876 
" style="fill: none; stroke: #000000; stroke-width: 0.8; stroke-linejoin: miter; stroke-linecap: square"/>
   </g>
   <g id="patch_33">
    <path d="M 43.784417 313.346449 
L 347.490408 313.346449 
" style="fill: none; stroke: #000000; stroke-width: 0.8; stroke-linejoin: miter; stroke-linecap: square"/>
   </g>
   <g id="text_35">
    <!-- belief-speaking -->
    <g transform="translate(153.848899 191.485876)scale(0.14 -0.14)">
     <use xlink:href="#CMSS17-62" transform="scale(0.996264)"/>
     <use xlink:href="#CMSS17-65" transform="translate(50.807382 0)scale(0.996264)"/>
     <use xlink:href="#CMSS17-6c" transform="translate(92.446204 0)scale(0.996264)"/>
     <use xlink:href="#CMSS17-69" transform="translate(114.626927 0)scale(0.996264)"/>
     <use xlink:href="#CMSS17-65" transform="translate(136.80765 0)scale(0.996264)"/>
     <use xlink:href="#CMSS17-66" transform="translate(178.446472 0)scale(0.996264)"/>
     <use xlink:href="#CMSS17-2d" transform="translate(207.073131 0)scale(0.996264)"/>
     <use xlink:href="#CMSS17-73" transform="translate(238.302244 0)scale(0.996264)"/>
     <use xlink:href="#CMSS17-70" transform="translate(274.215786 0)scale(0.996264)"/>
     <use xlink:href="#CMSS17-65" transform="translate(325.023168 0)scale(0.996264)"/>
     <use xlink:href="#CMSS17-61" transform="translate(366.66199 0)scale(0.996264)"/>
     <use xlink:href="#CMSS17-6b" transform="translate(411.58391 0)scale(0.996264)"/>
     <use xlink:href="#CMSS17-69" transform="translate(457.186399 0)scale(0.996264)"/>
     <use xlink:href="#CMSS17-6e" transform="translate(479.367122 0)scale(0.996264)"/>
     <use xlink:href="#CMSS17-67" transform="translate(527.572066 0)scale(0.996264)"/>
    </g>
   </g>
  </g>
  <g id="axes_4">
   <g id="patch_34">
    <path d="M 398.631766 313.346449 
L 702.337757 313.346449 
L 702.337757 197.485876 
L 398.631766 197.485876 
z
" style="fill: #ffffff"/>
   </g>
   <g id="patch_35">
    <path d="M 412.436584 313.346449 
L 443.890599 313.346449 
L 443.890599 305.622411 
L 412.436584 305.622411 
z
" clip-path="url(#p5091e8e0f2)" style="fill: #0015bc; fill-opacity: 0.75"/>
   </g>
   <g id="patch_36">
    <path d="M 447.38549 313.346449 
L 478.839505 313.346449 
L 478.839505 282.450296 
L 447.38549 282.450296 
z
" clip-path="url(#p5091e8e0f2)" style="fill: #0015bc; fill-opacity: 0.75"/>
   </g>
   <g id="patch_37">
    <path d="M 482.334395 313.346449 
L 513.78841 313.346449 
L 513.78841 259.278182 
L 482.334395 259.278182 
z
" clip-path="url(#p5091e8e0f2)" style="fill: #0015bc; fill-opacity: 0.75"/>
   </g>
   <g id="patch_38">
    <path d="M 517.283301 313.346449 
L 548.737316 313.346449 
L 548.737316 236.106067 
L 517.283301 236.106067 
z
" clip-path="url(#p5091e8e0f2)" style="fill: #0015bc; fill-opacity: 0.75"/>
   </g>
   <g id="patch_39">
    <path d="M 552.232207 313.346449 
L 583.686222 313.346449 
L 583.686222 201.347896 
L 552.232207 201.347896 
z
" clip-path="url(#p5091e8e0f2)" style="fill: #0015bc; fill-opacity: 0.75"/>
   </g>
   <g id="patch_40">
    <path d="M 587.181112 313.346449 
L 618.635128 313.346449 
L 618.635128 243.830105 
L 587.181112 243.830105 
z
" clip-path="url(#p5091e8e0f2)" style="fill: #0015bc; fill-opacity: 0.75"/>
   </g>
   <g id="patch_41">
    <path d="M 622.130018 313.346449 
L 653.584033 313.346449 
L 653.584033 282.450296 
L 622.130018 282.450296 
z
" clip-path="url(#p5091e8e0f2)" style="fill: #0015bc; fill-opacity: 0.75"/>
   </g>
   <g id="patch_42">
    <path d="M 657.078924 313.346449 
L 688.532939 313.346449 
L 688.532939 309.48443 
L 657.078924 309.48443 
z
" clip-path="url(#p5091e8e0f2)" style="fill: #0015bc; fill-opacity: 0.75"/>
   </g>
   <g id="matplotlib.axis_7">
    <g id="xtick_15">
     <g id="line2d_30">
      <g>
       <use xlink:href="#ma09d382336" x="410.689139" y="313.346449" style="stroke: #000000; stroke-width: 0.8"/>
      </g>
     </g>
     <g id="text_36">
      <!-- 0.018 -->
      <g transform="translate(397.357327 328.648629)scale(0.12 -0.12)">
       <use xlink:href="#CMSS17-30" transform="scale(0.996264)"/>
       <use xlink:href="#CMSS17-2e" transform="translate(46.843624 0)scale(0.996264)"/>
       <use xlink:href="#CMSS17-30" transform="translate(72.867828 0)scale(0.996264)"/>
       <use xlink:href="#CMSS17-31" transform="translate(119.711452 0)scale(0.996264)"/>
       <use xlink:href="#CMSS17-38" transform="translate(166.555075 0)scale(0.996264)"/>
      </g>
     </g>
    </g>
    <g id="xtick_16">
     <g id="line2d_31">
      <g>
       <use xlink:href="#ma09d382336" x="480.58695" y="313.346449" style="stroke: #000000; stroke-width: 0.8"/>
      </g>
     </g>
     <g id="text_37">
      <!-- 0.022 -->
      <g transform="translate(467.255139 328.648629)scale(0.12 -0.12)">
       <use xlink:href="#CMSS17-30" transform="scale(0.996264)"/>
       <use xlink:href="#CMSS17-2e" transform="translate(46.843624 0)scale(0.996264)"/>
       <use xlink:href="#CMSS17-30" transform="translate(72.867828 0)scale(0.996264)"/>
       <use xlink:href="#CMSS17-32" transform="translate(119.711452 0)scale(0.996264)"/>
       <use xlink:href="#CMSS17-32" transform="translate(166.555075 0)scale(0.996264)"/>
      </g>
     </g>
    </g>
    <g id="xtick_17">
     <g id="line2d_32">
      <g>
       <use xlink:href="#ma09d382336" x="550.484761" y="313.346449" style="stroke: #000000; stroke-width: 0.8"/>
      </g>
     </g>
     <g id="text_38">
      <!-- 0.026 -->
      <g transform="translate(537.15295 328.648629)scale(0.12 -0.12)">
       <use xlink:href="#CMSS17-30" transform="scale(0.996264)"/>
       <use xlink:href="#CMSS17-2e" transform="translate(46.843624 0)scale(0.996264)"/>
       <use xlink:href="#CMSS17-30" transform="translate(72.867828 0)scale(0.996264)"/>
       <use xlink:href="#CMSS17-32" transform="translate(119.711452 0)scale(0.996264)"/>
       <use xlink:href="#CMSS17-36" transform="translate(166.555075 0)scale(0.996264)"/>
      </g>
     </g>
    </g>
    <g id="xtick_18">
     <g id="line2d_33">
      <g>
       <use xlink:href="#ma09d382336" x="620.382573" y="313.346449" style="stroke: #000000; stroke-width: 0.8"/>
      </g>
     </g>
     <g id="text_39">
      <!-- 0.03 -->
      <g transform="translate(609.977257 328.648629)scale(0.12 -0.12)">
       <use xlink:href="#CMSS17-30" transform="scale(0.996264)"/>
       <use xlink:href="#CMSS17-2e" transform="translate(46.843624 0)scale(0.996264)"/>
       <use xlink:href="#CMSS17-30" transform="translate(72.867828 0)scale(0.996264)"/>
       <use xlink:href="#CMSS17-33" transform="translate(119.711452 0)scale(0.996264)"/>
      </g>
     </g>
    </g>
    <g id="xtick_19">
     <g id="line2d_34">
      <g>
       <use xlink:href="#ma09d382336" x="690.280384" y="313.346449" style="stroke: #000000; stroke-width: 0.8"/>
      </g>
     </g>
     <g id="text_40">
      <!-- 0.034 -->
      <g transform="translate(676.948573 328.648629)scale(0.12 -0.12)">
       <use xlink:href="#CMSS17-30" transform="scale(0.996264)"/>
       <use xlink:href="#CMSS17-2e" transform="translate(46.843624 0)scale(0.996264)"/>
       <use xlink:href="#CMSS17-30" transform="translate(72.867828 0)scale(0.996264)"/>
       <use xlink:href="#CMSS17-33" transform="translate(119.711452 0)scale(0.996264)"/>
       <use xlink:href="#CMSS17-34" transform="translate(166.555075 0)scale(0.996264)"/>
      </g>
     </g>
    </g>
    <g id="text_41">
     <!-- estimate Democrats -->
     <g transform="translate(501.774922 343.275404)scale(0.12 -0.12)">
      <use xlink:href="#CMSS17-65" transform="scale(0.996264)"/>
      <use xlink:href="#CMSS17-73" transform="translate(41.638822 0)scale(0.996264)"/>
      <use xlink:href="#CMSS17-74" transform="translate(77.552364 0)scale(0.996264)"/>
      <use xlink:href="#CMSS17-69" transform="translate(111.383931 0)scale(0.996264)"/>
      <use xlink:href="#CMSS17-6d" transform="translate(133.564654 0)scale(0.996264)"/>
      <use xlink:href="#CMSS17-61" transform="translate(207.793908 0)scale(0.996264)"/>
      <use xlink:href="#CMSS17-74" transform="translate(252.715829 0)scale(0.996264)"/>
      <use xlink:href="#CMSS17-65" transform="translate(286.547396 0)scale(0.996264)"/>
      <use xlink:href="#CMSS17-44" transform="translate(359.41533 0)scale(0.996264)"/>
      <use xlink:href="#CMSS17-65" transform="translate(426.958172 0)scale(0.996264)"/>
      <use xlink:href="#CMSS17-6d" transform="translate(468.596994 0)scale(0.996264)"/>
      <use xlink:href="#CMSS17-6f" transform="translate(542.826248 0)scale(0.996264)"/>
      <use xlink:href="#CMSS17-63" transform="translate(592.272311 0)scale(0.996264)"/>
      <use xlink:href="#CMSS17-72" transform="translate(633.911133 0)scale(0.996264)"/>
      <use xlink:href="#CMSS17-61" transform="translate(665.820905 0)scale(0.996264)"/>
      <use xlink:href="#CMSS17-74" transform="translate(710.742826 0)scale(0.996264)"/>
      <use xlink:href="#CMSS17-73" transform="translate(744.574393 0)scale(0.996264)"/>
     </g>
    </g>
   </g>
   <g id="matplotlib.axis_8">
    <g id="ytick_13">
     <g id="line2d_35">
      <g>
       <use xlink:href="#mb00b99155c" x="398.631766" y="313.346449" style="stroke: #000000; stroke-width: 0.8"/>
      </g>
     </g>
     <g id="text_42">
      <!-- 0.0 -->
      <g transform="translate(376.674124 317.497539)scale(0.12 -0.12)">
       <use xlink:href="#CMSS17-30" transform="scale(0.996264)"/>
       <use xlink:href="#CMSS17-2e" transform="translate(46.843624 0)scale(0.996264)"/>
       <use xlink:href="#CMSS17-30" transform="translate(72.867828 0)scale(0.996264)"/>
      </g>
     </g>
    </g>
    <g id="ytick_14">
     <g id="line2d_36">
      <g>
       <use xlink:href="#mb00b99155c" x="398.631766" y="274.726258" style="stroke: #000000; stroke-width: 0.8"/>
      </g>
     </g>
     <g id="text_43">
      <!-- 0.1 -->
      <g transform="translate(376.674124 278.877348)scale(0.12 -0.12)">
       <use xlink:href="#CMSS17-30" transform="scale(0.996264)"/>
       <use xlink:href="#CMSS17-2e" transform="translate(46.843624 0)scale(0.996264)"/>
       <use xlink:href="#CMSS17-31" transform="translate(72.867828 0)scale(0.996264)"/>
      </g>
     </g>
    </g>
    <g id="ytick_15">
     <g id="line2d_37">
      <g>
       <use xlink:href="#mb00b99155c" x="398.631766" y="236.106067" style="stroke: #000000; stroke-width: 0.8"/>
      </g>
     </g>
     <g id="text_44">
      <!-- 0.2 -->
      <g transform="translate(376.674124 240.257157)scale(0.12 -0.12)">
       <use xlink:href="#CMSS17-30" transform="scale(0.996264)"/>
       <use xlink:href="#CMSS17-2e" transform="translate(46.843624 0)scale(0.996264)"/>
       <use xlink:href="#CMSS17-32" transform="translate(72.867828 0)scale(0.996264)"/>
      </g>
     </g>
    </g>
    <g id="ytick_16">
     <g id="line2d_38">
      <g>
       <use xlink:href="#mb00b99155c" x="398.631766" y="197.485876" style="stroke: #000000; stroke-width: 0.8"/>
      </g>
     </g>
     <g id="text_45">
      <!-- 0.3 -->
      <g transform="translate(376.674124 201.636966)scale(0.12 -0.12)">
       <use xlink:href="#CMSS17-30" transform="scale(0.996264)"/>
       <use xlink:href="#CMSS17-2e" transform="translate(46.843624 0)scale(0.996264)"/>
       <use xlink:href="#CMSS17-33" transform="translate(72.867828 0)scale(0.996264)"/>
      </g>
     </g>
    </g>
    <g id="text_46">
     <!-- density -->
     <g transform="translate(370.349529 272.271489)rotate(-90)scale(0.12 -0.12)">
      <use xlink:href="#CMSS17-64" transform="scale(0.996264)"/>
      <use xlink:href="#CMSS17-65" transform="translate(48.204943 0)scale(0.996264)"/>
      <use xlink:href="#CMSS17-6e" transform="translate(89.843765 0)scale(0.996264)"/>
      <use xlink:href="#CMSS17-73" transform="translate(138.048708 0)scale(0.996264)"/>
      <use xlink:href="#CMSS17-69" transform="translate(173.96225 0)scale(0.996264)"/>
      <use xlink:href="#CMSS17-74" transform="translate(196.142973 0)scale(0.996264)"/>
      <use xlink:href="#CMSS17-79" transform="translate(227.372086 0)scale(0.996264)"/>
     </g>
    </g>
   </g>
   <g id="line2d_39">
    <path d="M 555.727097 313.346449 
L 555.727097 198.644482 
" clip-path="url(#p5091e8e0f2)" style="fill: none; stroke-dasharray: 7.4,3.2; stroke-dashoffset: 0; stroke: #000000; stroke-width: 2"/>
   </g>
   <g id="patch_43">
    <path d="M 398.631766 313.346449 
L 398.631766 197.485876 
" style="fill: none; stroke: #000000; stroke-width: 0.8; stroke-linejoin: miter; stroke-linecap: square"/>
   </g>
   <g id="patch_44">
    <path d="M 398.631766 313.346449 
L 702.337757 313.346449 
" style="fill: none; stroke: #000000; stroke-width: 0.8; stroke-linejoin: miter; stroke-linecap: square"/>
   </g>
   <g id="text_47">
    <!-- truth-seeking -->
    <g transform="translate(513.42613 191.485876)scale(0.14 -0.14)">
     <use xlink:href="#CMSS17-74" transform="scale(0.996264)"/>
     <use xlink:href="#CMSS17-72" transform="translate(33.831567 0)scale(0.996264)"/>
     <use xlink:href="#CMSS17-75" transform="translate(65.741339 0)scale(0.996264)"/>
     <use xlink:href="#CMSS17-74" transform="translate(113.946282 0)scale(0.996264)"/>
     <use xlink:href="#CMSS17-68" transform="translate(147.777849 0)scale(0.996264)"/>
     <use xlink:href="#CMSS17-2d" transform="translate(195.982792 0)scale(0.996264)"/>
     <use xlink:href="#CMSS17-73" transform="translate(227.211905 0)scale(0.996264)"/>
     <use xlink:href="#CMSS17-65" transform="translate(263.125447 0)scale(0.996264)"/>
     <use xlink:href="#CMSS17-65" transform="translate(304.764269 0)scale(0.996264)"/>
     <use xlink:href="#CMSS17-6b" transform="translate(346.403091 0)scale(0.996264)"/>
     <use xlink:href="#CMSS17-69" transform="translate(392.00558 0)scale(0.996264)"/>
     <use xlink:href="#CMSS17-6e" transform="translate(414.186303 0)scale(0.996264)"/>
     <use xlink:href="#CMSS17-67" transform="translate(462.391246 0)scale(0.996264)"/>
    </g>
   </g>
  </g>
  <g id="text_48">
   <!-- A -->
   <g transform="translate(54 19.8)scale(0.16 -0.16)">
    <defs>
     <path id="CMSS17-41" d="M 2272 4416 
L 1722 4416 
L 166 0 
L 653 0 
L 1101 1280 
L 2816 1280 
L 3270 0 
L 3827 0 
L 2272 4416 
z
M 2694 1638 
L 1222 1638 
C 1530 2530 1914 3638 1958 3924 
L 1965 3924 
C 2010 3663 2138 3281 2246 2956 
L 2694 1638 
z
" transform="scale(0.015625)"/>
    </defs>
    <use xlink:href="#CMSS17-41" transform="scale(0.996264)"/>
   </g>
  </g>
  <g id="text_49">
   <!-- B -->
   <g transform="translate(410.4 19.8)scale(0.16 -0.16)">
    <defs>
     <path id="CMSS17-42" d="M 570 4416 
L 570 0 
L 2163 0 
C 3034 0 3667 575 3667 1200 
C 3667 1684 3251 2175 2502 2316 
C 3334 2559 3501 3039 3501 3311 
C 3501 3880 2874 4416 1997 4416 
L 570 4416 
z
M 1088 2496 
L 1088 4057 
L 1824 4057 
C 2483 4057 3002 3722 3002 3305 
C 3002 2925 2592 2496 1766 2496 
L 1088 2496 
z
M 1088 358 
L 1088 2105 
L 1939 2105 
C 2630 2105 3162 1678 3162 1206 
C 3162 772 2694 358 1984 358 
L 1088 358 
z
" transform="scale(0.015625)"/>
    </defs>
    <use xlink:href="#CMSS17-42" transform="scale(0.996264)"/>
   </g>
  </g>
  <g id="text_50">
   <!-- C -->
   <g transform="translate(54 196.2)scale(0.16 -0.16)">
    <defs>
     <path id="CMSS17-43" d="M 3501 705 
C 3072 416 2874 332 2355 332 
C 1459 332 934 1304 934 2191 
C 934 3137 1472 4070 2381 4070 
C 2790 4070 3059 3954 3386 3748 
L 3475 4255 
C 3168 4409 2778 4480 2387 4480 
C 1158 4480 397 3343 397 2191 
C 397 924 1299 -77 2323 -77 
C 2874 -77 3066 -32 3539 268 
L 3501 705 
z
" transform="scale(0.015625)"/>
    </defs>
    <use xlink:href="#CMSS17-43" transform="scale(0.996264)"/>
   </g>
  </g>
  <g id="text_51">
   <!-- D -->
   <g transform="translate(410.4 196.2)scale(0.16 -0.16)">
    <use xlink:href="#CMSS17-44" transform="scale(0.996264)"/>
   </g>
  </g>
 </g>
 <defs>
  <clipPath id="p45d764ea23">
   <rect x="43.784417" y="22.885876" width="303.705991" height="115.860572"/>
  </clipPath>
  <clipPath id="p3f57d51937">
   <rect x="398.631766" y="22.885876" width="303.705991" height="115.860572"/>
  </clipPath>
  <clipPath id="pc99fc29017">
   <rect x="43.784417" y="197.485876" width="303.705991" height="115.860572"/>
  </clipPath>
  <clipPath id="p5091e8e0f2">
   <rect x="398.631766" y="197.485876" width="303.705991" height="115.860572"/>
  </clipPath>
 </defs>
</svg>
