<?xml version="1.0" encoding="utf-8" standalone="no"?>
<!DOCTYPE svg PUBLIC "-//W3C//DTD SVG 1.1//EN"
  "http://www.w3.org/Graphics/SVG/1.1/DTD/svg11.dtd">
<svg xmlns:xlink="http://www.w3.org/1999/xlink" width="712.8pt" height="424.8pt" viewBox="0 0 712.8 424.8" xmlns="http://www.w3.org/2000/svg" version="1.1">
 <metadata>
  <rdf:RDF xmlns:dc="http://purl.org/dc/elements/1.1/" xmlns:cc="http://creativecommons.org/ns#" xmlns:rdf="http://www.w3.org/1999/02/22-rdf-syntax-ns#">
   <cc:Work>
    <dc:type rdf:resource="http://purl.org/dc/dcmitype/StillImage"/>
    <dc:date>2023-02-22T18:46:06.989737</dc:date>
    <dc:format>image/svg+xml</dc:format>
    <dc:creator>
     <cc:Agent>
      <dc:title>Matplotlib v3.5.2, https://matplotlib.org/</dc:title>
     </cc:Agent>
    </dc:creator>
   </cc:Work>
  </rdf:RDF>
 </metadata>
 <defs>
  <style type="text/css">*{stroke-linejoin: round; stroke-linecap: butt}</style>
 </defs>
 <g id="figure_1">
  <g id="patch_1">
   <path d="M -0 424.8 
L 712.8 424.8 
L 712.8 0 
L -0 0 
z
" style="fill: #ffffff"/>
  </g>
  <g id="axes_1">
   <g id="patch_2">
    <path d="M 44.075045 194.948769 
L 705.6 194.948769 
L 705.6 7.2 
L 44.075045 7.2 
z
" style="fill: #ffffff"/>
   </g>
   <g id="PolyCollection_1">
    <defs>
     <path id="m14ee3d2f68" d="M 74.144361 -274.828601 
L 74.144361 -272.737317 
L 78.735096 -278.3284 
L 83.325832 -273.346115 
L 87.916567 -277.686752 
L 92.507302 -278.004422 
L 97.098038 -271.562487 
L 101.688773 -279.680208 
L 106.279508 -272.140031 
L 110.870243 -269.318173 
L 115.460979 -276.205311 
L 120.051714 -276.426364 
L 124.642449 -293.782993 
L 129.233185 -290.014083 
L 133.82392 -285.220809 
L 138.414655 -278.483706 
L 143.00539 -280.651642 
L 147.596126 -279.896037 
L 152.186861 -280.522845 
L 156.777596 -284.935781 
L 161.368332 -290.190263 
L 165.959067 -291.979202 
L 170.549802 -290.490372 
L 175.140537 -290.244496 
L 179.731273 -296.523545 
L 184.322008 -297.40776 
L 188.912743 -295.00472 
L 193.503479 -293.091706 
L 198.094214 -293.25623 
L 202.684949 -293.249699 
L 207.275684 -297.382129 
L 211.86642 -301.635713 
L 216.457155 -295.187923 
L 221.04789 -293.612701 
L 225.638626 -293.723045 
L 230.229361 -298.148439 
L 234.820096 -302.018694 
L 239.410832 -309.239426 
L 244.001567 -307.124155 
L 248.592302 -310.428603 
L 253.183037 -308.239759 
L 257.773773 -317.431177 
L 262.364508 -318.662326 
L 266.955243 -318.957732 
L 271.545979 -337.09186 
L 276.136714 -313.414685 
L 280.727449 -313.785231 
L 285.318184 -312.231783 
L 289.90892 -314.743309 
L 294.499655 -320.921429 
L 299.09039 -320.76554 
L 303.681126 -318.262046 
L 308.271861 -313.477132 
L 312.862596 -328.366414 
L 317.453331 -317.90729 
L 322.044067 -324.34842 
L 326.634802 -332.550022 
L 331.225537 -328.758053 
L 335.816273 -323.255173 
L 340.407008 -322.496189 
L 344.997743 -347.918583 
L 349.588478 -350.759427 
L 354.179214 -363.031183 
L 358.769949 -363.511987 
L 363.360684 -365.125206 
L 367.95142 -365.713301 
L 372.542155 -368.594505 
L 377.13289 -374.559099 
L 381.723625 -373.79381 
L 386.314361 -360.986952 
L 390.905096 -365.930127 
L 395.495831 -374.052549 
L 400.086567 -368.816924 
L 404.677302 -384.233988 
L 409.268037 -370.803435 
L 413.858772 -379.096369 
L 418.449508 -379.742121 
L 423.040243 -374.093481 
L 427.630978 -377.092163 
L 432.221714 -384.165504 
L 436.812449 -387.825307 
L 441.403184 -367.912664 
L 445.993919 -363.825576 
L 450.584655 -367.306588 
L 455.17539 -397.839855 
L 459.766125 -415.62554 
L 464.356861 -399.87483 
L 468.947596 -401.122178 
L 473.538331 -393.236891 
L 478.129066 -399.072279 
L 482.719802 -391.96827 
L 487.310537 -396.713238 
L 491.901272 -400.400465 
L 496.492008 -381.279759 
L 501.082743 -382.353719 
L 505.673478 -372.023179 
L 510.264213 -376.773615 
L 514.854949 -397.494878 
L 519.445684 -377.490496 
L 524.036419 -348.960636 
L 528.627155 -348.628676 
L 533.21789 -361.898668 
L 537.808625 -372.398878 
L 542.399361 -377.816581 
L 546.990096 -368.455085 
L 551.580831 -352.179079 
L 556.171566 -341.024893 
L 560.762302 -364.209535 
L 565.353037 -380.737701 
L 569.943772 -388.396314 
L 574.534508 -372.91787 
L 579.125243 -371.34256 
L 583.715978 -364.558922 
L 588.306713 -363.075011 
L 592.897449 -375.421787 
L 597.488184 -371.947952 
L 602.078919 -375.642651 
L 606.669655 -371.745735 
L 611.26039 -372.975696 
L 615.851125 -366.105509 
L 620.44186 -377.595696 
L 625.032596 -363.662451 
L 629.623331 -373.613945 
L 634.214066 -366.663343 
L 638.804802 -366.915588 
L 643.395537 -367.471552 
L 647.986272 -372.178284 
L 652.577007 -373.83992 
L 657.167743 -379.792861 
L 661.758478 -355.639342 
L 666.349213 -341.824563 
L 670.939949 -333.771556 
L 675.530684 -362.928374 
L 675.530684 -364.958336 
L 675.530684 -364.958336 
L 670.939949 -335.893034 
L 666.349213 -343.632957 
L 661.758478 -357.686344 
L 657.167743 -381.739197 
L 652.577007 -375.738135 
L 647.986272 -374.154635 
L 643.395537 -369.45604 
L 638.804802 -368.788187 
L 634.214066 -368.385448 
L 629.623331 -375.327224 
L 625.032596 -365.569893 
L 620.44186 -379.368379 
L 615.851125 -367.981384 
L 611.26039 -374.631673 
L 606.669655 -373.601697 
L 602.078919 -377.292566 
L 597.488184 -373.462447 
L 592.897449 -377.045721 
L 588.306713 -364.715607 
L 583.715978 -366.097834 
L 579.125243 -372.937052 
L 574.534508 -374.603116 
L 569.943772 -389.96246 
L 565.353037 -382.504304 
L 560.762302 -365.812644 
L 556.171566 -342.155546 
L 551.580831 -353.402933 
L 546.990096 -369.690761 
L 542.399361 -379.077187 
L 537.808625 -373.615591 
L 533.21789 -363.358368 
L 528.627155 -349.84903 
L 524.036419 -350.312443 
L 519.445684 -378.956662 
L 514.854949 -399.065691 
L 510.264213 -378.535966 
L 505.673478 -373.612207 
L 501.082743 -384.005328 
L 496.492008 -383.139939 
L 491.901272 -401.98791 
L 487.310537 -398.141797 
L 482.719802 -393.761632 
L 478.129066 -400.830662 
L 473.538331 -395.040637 
L 468.947596 -402.51788 
L 464.356861 -401.580144 
L 459.766125 -417.089314 
L 455.17539 -399.665671 
L 450.584655 -368.944399 
L 445.993919 -365.275265 
L 441.403184 -369.546234 
L 436.812449 -389.44288 
L 432.221714 -385.837989 
L 427.630978 -378.72157 
L 423.040243 -375.665256 
L 418.449508 -381.25285 
L 413.858772 -380.916036 
L 409.268037 -372.597888 
L 404.677302 -385.814338 
L 400.086567 -370.612429 
L 395.495831 -375.978486 
L 390.905096 -367.543737 
L 386.314361 -362.778669 
L 381.723625 -375.902046 
L 377.13289 -376.420554 
L 372.542155 -370.686682 
L 367.95142 -367.650034 
L 363.360684 -367.225081 
L 358.769949 -365.118852 
L 354.179214 -364.869285 
L 349.588478 -352.558045 
L 344.997743 -350.214776 
L 340.407008 -324.870739 
L 335.816273 -325.399785 
L 331.225537 -330.649152 
L 326.634802 -334.61001 
L 322.044067 -326.8558 
L 317.453331 -319.940455 
L 312.862596 -330.489496 
L 308.271861 -315.366339 
L 303.681126 -320.2948 
L 299.09039 -322.943685 
L 294.499655 -323.237294 
L 289.90892 -316.967796 
L 285.318184 -314.792123 
L 280.727449 -315.811731 
L 276.136714 -315.458913 
L 271.545979 -339.399728 
L 266.955243 -321.002624 
L 262.364508 -321.185696 
L 257.773773 -319.6118 
L 253.183037 -310.484856 
L 248.592302 -312.799991 
L 244.001567 -309.280824 
L 239.410832 -311.378909 
L 234.820096 -304.373096 
L 230.229361 -300.514658 
L 225.638626 -295.641602 
L 221.04789 -295.410463 
L 216.457155 -297.593948 
L 211.86642 -303.365291 
L 207.275684 -299.155901 
L 202.684949 -295.244917 
L 198.094214 -295.044993 
L 193.503479 -295.021551 
L 188.912743 -297.009287 
L 184.322008 -299.34393 
L 179.731273 -299.19269 
L 175.140537 -292.345972 
L 170.549802 -292.384164 
L 165.959067 -294.105358 
L 161.368332 -292.275465 
L 156.777596 -286.80003 
L 152.186861 -282.124381 
L 147.596126 -281.724409 
L 143.00539 -282.591795 
L 138.414655 -280.277307 
L 133.82392 -287.103204 
L 129.233185 -292.407386 
L 124.642449 -296.794385 
L 120.051714 -278.503825 
L 115.460979 -277.901285 
L 110.870243 -270.957325 
L 106.279508 -274.201838 
L 101.688773 -281.416487 
L 97.098038 -273.538217 
L 92.507302 -280.085997 
L 87.916567 -280.003462 
L 83.325832 -275.180229 
L 78.735096 -280.315011 
L 74.144361 -274.828601 
z
" style="stroke: #0015bc; stroke-opacity: 0.2"/>
    </defs>
    <g clip-path="url(#p4e44ab0bbb)">
     <use xlink:href="#m14ee3d2f68" x="0" y="424.8" style="fill: #0015bc; fill-opacity: 0.2; stroke: #0015bc; stroke-opacity: 0.2"/>
    </g>
   </g>
   <g id="PolyCollection_2">
    <defs>
     <path id="m1f0365e410" d="M 74.144361 -270.646034 
L 74.144361 -272.737317 
L 78.735096 -278.3284 
L 83.325832 -273.346115 
L 87.916567 -277.686752 
L 92.507302 -278.004422 
L 97.098038 -271.562487 
L 101.688773 -279.680208 
L 106.279508 -272.140031 
L 110.870243 -269.318173 
L 115.460979 -276.205311 
L 120.051714 -276.426364 
L 124.642449 -293.782993 
L 129.233185 -290.014083 
L 133.82392 -285.220809 
L 138.414655 -278.483706 
L 143.00539 -280.651642 
L 147.596126 -279.896037 
L 152.186861 -280.522845 
L 156.777596 -284.935781 
L 161.368332 -290.190263 
L 165.959067 -291.979202 
L 170.549802 -290.490372 
L 175.140537 -290.244496 
L 179.731273 -296.523545 
L 184.322008 -297.40776 
L 188.912743 -295.00472 
L 193.503479 -293.091706 
L 198.094214 -293.25623 
L 202.684949 -293.249699 
L 207.275684 -297.382129 
L 211.86642 -301.635713 
L 216.457155 -295.187923 
L 221.04789 -293.612701 
L 225.638626 -293.723045 
L 230.229361 -298.148439 
L 234.820096 -302.018694 
L 239.410832 -309.239426 
L 244.001567 -307.124155 
L 248.592302 -310.428603 
L 253.183037 -308.239759 
L 257.773773 -317.431177 
L 262.364508 -318.662326 
L 266.955243 -318.957732 
L 271.545979 -337.09186 
L 276.136714 -313.414685 
L 280.727449 -313.785231 
L 285.318184 -312.231783 
L 289.90892 -314.743309 
L 294.499655 -320.921429 
L 299.09039 -320.76554 
L 303.681126 -318.262046 
L 308.271861 -313.477132 
L 312.862596 -328.366414 
L 317.453331 -317.90729 
L 322.044067 -324.34842 
L 326.634802 -332.550022 
L 331.225537 -328.758053 
L 335.816273 -323.255173 
L 340.407008 -322.496189 
L 344.997743 -347.918583 
L 349.588478 -350.759427 
L 354.179214 -363.031183 
L 358.769949 -363.511987 
L 363.360684 -365.125206 
L 367.95142 -365.713301 
L 372.542155 -368.594505 
L 377.13289 -374.559099 
L 381.723625 -373.79381 
L 386.314361 -360.986952 
L 390.905096 -365.930127 
L 395.495831 -374.052549 
L 400.086567 -368.816924 
L 404.677302 -384.233988 
L 409.268037 -370.803435 
L 413.858772 -379.096369 
L 418.449508 -379.742121 
L 423.040243 -374.093481 
L 427.630978 -377.092163 
L 432.221714 -384.165504 
L 436.812449 -387.825307 
L 441.403184 -367.912664 
L 445.993919 -363.825576 
L 450.584655 -367.306588 
L 455.17539 -397.839855 
L 459.766125 -415.62554 
L 464.356861 -399.87483 
L 468.947596 -401.122178 
L 473.538331 -393.236891 
L 478.129066 -399.072279 
L 482.719802 -391.96827 
L 487.310537 -396.713238 
L 491.901272 -400.400465 
L 496.492008 -381.279759 
L 501.082743 -382.353719 
L 505.673478 -372.023179 
L 510.264213 -376.773615 
L 514.854949 -397.494878 
L 519.445684 -377.490496 
L 524.036419 -348.960636 
L 528.627155 -348.628676 
L 533.21789 -361.898668 
L 537.808625 -372.398878 
L 542.399361 -377.816581 
L 546.990096 -368.455085 
L 551.580831 -352.179079 
L 556.171566 -341.024893 
L 560.762302 -364.209535 
L 565.353037 -380.737701 
L 569.943772 -388.396314 
L 574.534508 -372.91787 
L 579.125243 -371.34256 
L 583.715978 -364.558922 
L 588.306713 -363.075011 
L 592.897449 -375.421787 
L 597.488184 -371.947952 
L 602.078919 -375.642651 
L 606.669655 -371.745735 
L 611.26039 -372.975696 
L 615.851125 -366.105509 
L 620.44186 -377.595696 
L 625.032596 -363.662451 
L 629.623331 -373.613945 
L 634.214066 -366.663343 
L 638.804802 -366.915588 
L 643.395537 -367.471552 
L 647.986272 -372.178284 
L 652.577007 -373.83992 
L 657.167743 -379.792861 
L 661.758478 -355.639342 
L 666.349213 -341.824563 
L 670.939949 -333.771556 
L 675.530684 -362.928374 
L 675.530684 -360.898413 
L 675.530684 -360.898413 
L 670.939949 -331.650078 
L 666.349213 -340.016169 
L 661.758478 -353.592341 
L 657.167743 -377.846525 
L 652.577007 -371.941706 
L 647.986272 -370.201934 
L 643.395537 -365.487063 
L 638.804802 -365.042989 
L 634.214066 -364.941238 
L 629.623331 -371.900665 
L 625.032596 -361.75501 
L 620.44186 -375.823014 
L 615.851125 -364.229634 
L 611.26039 -371.319718 
L 606.669655 -369.889774 
L 602.078919 -373.992736 
L 597.488184 -370.433457 
L 592.897449 -373.797852 
L 588.306713 -361.434415 
L 583.715978 -363.02001 
L 579.125243 -369.748068 
L 574.534508 -371.232625 
L 569.943772 -386.830168 
L 565.353037 -378.971098 
L 560.762302 -362.606426 
L 556.171566 -339.89424 
L 551.580831 -350.955226 
L 546.990096 -367.219408 
L 542.399361 -376.555975 
L 537.808625 -371.182165 
L 533.21789 -360.438969 
L 528.627155 -347.408322 
L 524.036419 -347.608829 
L 519.445684 -376.02433 
L 514.854949 -395.924064 
L 510.264213 -375.011265 
L 505.673478 -370.43415 
L 501.082743 -380.70211 
L 496.492008 -379.41958 
L 491.901272 -398.81302 
L 487.310537 -395.284679 
L 482.719802 -390.174907 
L 478.129066 -397.313896 
L 473.538331 -391.433146 
L 468.947596 -399.726476 
L 464.356861 -398.169516 
L 459.766125 -414.161766 
L 455.17539 -396.01404 
L 450.584655 -365.668777 
L 445.993919 -362.375887 
L 441.403184 -366.279094 
L 436.812449 -386.207733 
L 432.221714 -382.493019 
L 427.630978 -375.462757 
L 423.040243 -372.521707 
L 418.449508 -378.231392 
L 413.858772 -377.276703 
L 409.268037 -369.008982 
L 404.677302 -382.653638 
L 400.086567 -367.021419 
L 395.495831 -372.126611 
L 390.905096 -364.316517 
L 386.314361 -359.195235 
L 381.723625 -371.685574 
L 377.13289 -372.697644 
L 372.542155 -366.502329 
L 367.95142 -363.776568 
L 363.360684 -363.02533 
L 358.769949 -361.905121 
L 354.179214 -361.193082 
L 349.588478 -348.960808 
L 344.997743 -345.62239 
L 340.407008 -320.121639 
L 335.816273 -321.110561 
L 331.225537 -326.866954 
L 326.634802 -330.490033 
L 322.044067 -321.84104 
L 317.453331 -315.874126 
L 312.862596 -326.243333 
L 308.271861 -311.587924 
L 303.681126 -316.229292 
L 299.09039 -318.587395 
L 294.499655 -318.605563 
L 289.90892 -312.518823 
L 285.318184 -309.671443 
L 280.727449 -311.758731 
L 276.136714 -311.370456 
L 271.545979 -334.783992 
L 266.955243 -316.912841 
L 262.364508 -316.138956 
L 257.773773 -315.250554 
L 253.183037 -305.994662 
L 248.592302 -308.057216 
L 244.001567 -304.967485 
L 239.410832 -307.099943 
L 234.820096 -299.664291 
L 230.229361 -295.782219 
L 225.638626 -291.804488 
L 221.04789 -291.814939 
L 216.457155 -292.781898 
L 211.86642 -299.906135 
L 207.275684 -295.608356 
L 202.684949 -291.25448 
L 198.094214 -291.467467 
L 193.503479 -291.161862 
L 188.912743 -293.000153 
L 184.322008 -295.47159 
L 179.731273 -293.8544 
L 175.140537 -288.14302 
L 170.549802 -288.596581 
L 165.959067 -289.853045 
L 161.368332 -288.105062 
L 156.777596 -283.071531 
L 152.186861 -278.921309 
L 147.596126 -278.067664 
L 143.00539 -278.711489 
L 138.414655 -276.690105 
L 133.82392 -283.338413 
L 129.233185 -287.62078 
L 124.642449 -290.771601 
L 120.051714 -274.348902 
L 115.460979 -274.509337 
L 110.870243 -267.679022 
L 106.279508 -270.078225 
L 101.688773 -277.943928 
L 97.098038 -269.586757 
L 92.507302 -275.922847 
L 87.916567 -275.370042 
L 83.325832 -271.512002 
L 78.735096 -276.341789 
L 74.144361 -270.646034 
z
" style="stroke: #0015bc; stroke-opacity: 0.2"/>
    </defs>
    <g clip-path="url(#p4e44ab0bbb)">
     <use xlink:href="#m1f0365e410" x="0" y="424.8" style="fill: #0015bc; fill-opacity: 0.2; stroke: #0015bc; stroke-opacity: 0.2"/>
    </g>
   </g>
   <g id="PolyCollection_3">
    <defs>
     <path id="m383989f507" d="M 74.144361 -277.558875 
L 74.144361 -275.525681 
L 78.735096 -276.648178 
L 83.325832 -286.486727 
L 87.916567 -280.790439 
L 92.507302 -285.387871 
L 97.098038 -280.587236 
L 101.688773 -281.488781 
L 106.279508 -288.755831 
L 110.870243 -276.511788 
L 115.460979 -283.127085 
L 120.051714 -280.607231 
L 124.642449 -293.433382 
L 129.233185 -293.632352 
L 133.82392 -282.36025 
L 138.414655 -283.776488 
L 143.00539 -286.373243 
L 147.596126 -301.41886 
L 152.186861 -295.798953 
L 156.777596 -303.80086 
L 161.368332 -301.274517 
L 165.959067 -299.247547 
L 170.549802 -308.420128 
L 175.140537 -300.594055 
L 179.731273 -312.301638 
L 184.322008 -311.276383 
L 188.912743 -312.414093 
L 193.503479 -306.251784 
L 198.094214 -298.396374 
L 202.684949 -294.463312 
L 207.275684 -294.822293 
L 211.86642 -296.78419 
L 216.457155 -296.172583 
L 221.04789 -294.158553 
L 225.638626 -303.752987 
L 230.229361 -310.239739 
L 234.820096 -316.351113 
L 239.410832 -313.650738 
L 244.001567 -307.594666 
L 248.592302 -305.920189 
L 253.183037 -300.196727 
L 257.773773 -297.879964 
L 262.364508 -303.287721 
L 266.955243 -304.548419 
L 271.545979 -308.43508 
L 276.136714 -301.603797 
L 280.727449 -298.783835 
L 285.318184 -298.791564 
L 289.90892 -301.767667 
L 294.499655 -296.419319 
L 299.09039 -295.847845 
L 303.681126 -299.005191 
L 308.271861 -293.976922 
L 312.862596 -299.779289 
L 317.453331 -300.948331 
L 322.044067 -299.809301 
L 326.634802 -311.482028 
L 331.225537 -306.8844 
L 335.816273 -311.829586 
L 340.407008 -314.845853 
L 344.997743 -332.452495 
L 349.588478 -317.481741 
L 354.179214 -319.173336 
L 358.769949 -314.826576 
L 363.360684 -322.533376 
L 367.95142 -319.827309 
L 372.542155 -321.725788 
L 377.13289 -326.946801 
L 381.723625 -331.972354 
L 386.314361 -301.900327 
L 390.905096 -317.909546 
L 395.495831 -324.405034 
L 400.086567 -335.785278 
L 404.677302 -342.337949 
L 409.268037 -339.812282 
L 413.858772 -329.70281 
L 418.449508 -326.525217 
L 423.040243 -332.042293 
L 427.630978 -338.30453 
L 432.221714 -339.887935 
L 436.812449 -348.57337 
L 441.403184 -338.68352 
L 445.993919 -345.441504 
L 450.584655 -360.850801 
L 455.17539 -358.613408 
L 459.766125 -362.228156 
L 464.356861 -357.002338 
L 468.947596 -355.474942 
L 473.538331 -365.2837 
L 478.129066 -362.243286 
L 482.719802 -360.435037 
L 487.310537 -368.742539 
L 491.901272 -369.775679 
L 496.492008 -353.84475 
L 501.082743 -361.028215 
L 505.673478 -366.293831 
L 510.264213 -372.359654 
L 514.854949 -379.54103 
L 519.445684 -361.173471 
L 524.036419 -338.039322 
L 528.627155 -340.490412 
L 533.21789 -355.082244 
L 537.808625 -359.281994 
L 542.399361 -361.132165 
L 546.990096 -366.070609 
L 551.580831 -346.222045 
L 556.171566 -344.041002 
L 560.762302 -357.057091 
L 565.353037 -376.213189 
L 569.943772 -361.995667 
L 574.534508 -371.40098 
L 579.125243 -368.933649 
L 583.715978 -370.342722 
L 588.306713 -376.151873 
L 592.897449 -378.790996 
L 597.488184 -384.369505 
L 602.078919 -385.505066 
L 606.669655 -383.155221 
L 611.26039 -387.194333 
L 615.851125 -383.93593 
L 620.44186 -382.174883 
L 625.032596 -386.389861 
L 629.623331 -384.973395 
L 634.214066 -372.412684 
L 638.804802 -379.4713 
L 643.395537 -378.026115 
L 647.986272 -381.908492 
L 652.577007 -385.73062 
L 657.167743 -380.127374 
L 661.758478 -373.453003 
L 666.349213 -370.186759 
L 670.939949 -365.060435 
L 675.530684 -388.120106 
L 675.530684 -390.545225 
L 675.530684 -390.545225 
L 670.939949 -367.672797 
L 666.349213 -372.024392 
L 661.758478 -375.350163 
L 657.167743 -382.154373 
L 652.577007 -387.640231 
L 647.986272 -384.132475 
L 643.395537 -380.271872 
L 638.804802 -381.356985 
L 634.214066 -374.353093 
L 629.623331 -387.298864 
L 625.032596 -388.304839 
L 620.44186 -384.258759 
L 615.851125 -385.98852 
L 611.26039 -388.955764 
L 606.669655 -385.022381 
L 602.078919 -387.466422 
L 597.488184 -386.300029 
L 592.897449 -380.801145 
L 588.306713 -378.128698 
L 583.715978 -372.153532 
L 579.125243 -370.585552 
L 574.534508 -373.563792 
L 569.943772 -364.184944 
L 565.353037 -378.270022 
L 560.762302 -359.165015 
L 556.171566 -345.770002 
L 551.580831 -347.95944 
L 546.990096 -368.20059 
L 542.399361 -363.052192 
L 537.808625 -361.126941 
L 533.21789 -356.725575 
L 528.627155 -341.855195 
L 524.036419 -339.801322 
L 519.445684 -363.207559 
L 514.854949 -381.640116 
L 510.264213 -374.434712 
L 505.673478 -368.354457 
L 501.082743 -363.247342 
L 496.492008 -355.977898 
L 491.901272 -372.569049 
L 487.310537 -370.887987 
L 482.719802 -362.555944 
L 478.129066 -364.214552 
L 473.538331 -367.527378 
L 468.947596 -357.398378 
L 464.356861 -359.426823 
L 459.766125 -364.527109 
L 455.17539 -361.192257 
L 450.584655 -363.40084 
L 445.993919 -347.333107 
L 441.403184 -340.482332 
L 436.812449 -351.183996 
L 432.221714 -342.169629 
L 427.630978 -340.264106 
L 423.040243 -334.164517 
L 418.449508 -328.653677 
L 413.858772 -331.467952 
L 409.268037 -342.153393 
L 404.677302 -344.266544 
L 400.086567 -338.259931 
L 395.495831 -326.477675 
L 390.905096 -320.138899 
L 386.314361 -303.926777 
L 381.723625 -334.622294 
L 377.13289 -329.182502 
L 372.542155 -324.220234 
L 367.95142 -322.062886 
L 363.360684 -324.732728 
L 358.769949 -317.031807 
L 354.179214 -321.83614 
L 349.588478 -319.863429 
L 344.997743 -335.261975 
L 340.407008 -317.11947 
L 335.816273 -313.764648 
L 331.225537 -308.385991 
L 326.634802 -313.269675 
L 322.044067 -301.853627 
L 317.453331 -302.627475 
L 312.862596 -301.676196 
L 308.271861 -295.758179 
L 303.681126 -300.67992 
L 299.09039 -297.503065 
L 294.499655 -298.178524 
L 289.90892 -303.705664 
L 285.318184 -300.705038 
L 280.727449 -300.61696 
L 276.136714 -303.692168 
L 271.545979 -310.728312 
L 266.955243 -306.333662 
L 262.364508 -304.995478 
L 257.773773 -299.933444 
L 253.183037 -302.229868 
L 248.592302 -307.911757 
L 244.001567 -309.460523 
L 239.410832 -315.703708 
L 234.820096 -319.224777 
L 230.229361 -313.005611 
L 225.638626 -305.645793 
L 221.04789 -295.875467 
L 216.457155 -298.405923 
L 211.86642 -298.634571 
L 207.275684 -296.669723 
L 202.684949 -296.281777 
L 198.094214 -300.228745 
L 193.503479 -308.283262 
L 188.912743 -314.551922 
L 184.322008 -313.423694 
L 179.731273 -314.799065 
L 175.140537 -302.650865 
L 170.549802 -310.431378 
L 165.959067 -301.329571 
L 161.368332 -303.816828 
L 156.777596 -305.86246 
L 152.186861 -297.663911 
L 147.596126 -303.25197 
L 143.00539 -288.3781 
L 138.414655 -285.722765 
L 133.82392 -284.548287 
L 129.233185 -295.884589 
L 124.642449 -295.607489 
L 120.051714 -282.967409 
L 115.460979 -285.444439 
L 110.870243 -278.537329 
L 106.279508 -290.994663 
L 101.688773 -283.573717 
L 97.098038 -282.386275 
L 92.507302 -287.295348 
L 87.916567 -282.871013 
L 83.325832 -288.33854 
L 78.735096 -278.668251 
L 74.144361 -277.558875 
z
" style="stroke: #ff0000; stroke-opacity: 0.2"/>
    </defs>
    <g clip-path="url(#p4e44ab0bbb)">
     <use xlink:href="#m383989f507" x="0" y="424.8" style="fill: #ff0000; fill-opacity: 0.2; stroke: #ff0000; stroke-opacity: 0.2"/>
    </g>
   </g>
   <g id="PolyCollection_4">
    <defs>
     <path id="mf19e838f8f" d="M 74.144361 -273.492488 
L 74.144361 -275.525681 
L 78.735096 -276.648178 
L 83.325832 -286.486727 
L 87.916567 -280.790439 
L 92.507302 -285.387871 
L 97.098038 -280.587236 
L 101.688773 -281.488781 
L 106.279508 -288.755831 
L 110.870243 -276.511788 
L 115.460979 -283.127085 
L 120.051714 -280.607231 
L 124.642449 -293.433382 
L 129.233185 -293.632352 
L 133.82392 -282.36025 
L 138.414655 -283.776488 
L 143.00539 -286.373243 
L 147.596126 -301.41886 
L 152.186861 -295.798953 
L 156.777596 -303.80086 
L 161.368332 -301.274517 
L 165.959067 -299.247547 
L 170.549802 -308.420128 
L 175.140537 -300.594055 
L 179.731273 -312.301638 
L 184.322008 -311.276383 
L 188.912743 -312.414093 
L 193.503479 -306.251784 
L 198.094214 -298.396374 
L 202.684949 -294.463312 
L 207.275684 -294.822293 
L 211.86642 -296.78419 
L 216.457155 -296.172583 
L 221.04789 -294.158553 
L 225.638626 -303.752987 
L 230.229361 -310.239739 
L 234.820096 -316.351113 
L 239.410832 -313.650738 
L 244.001567 -307.594666 
L 248.592302 -305.920189 
L 253.183037 -300.196727 
L 257.773773 -297.879964 
L 262.364508 -303.287721 
L 266.955243 -304.548419 
L 271.545979 -308.43508 
L 276.136714 -301.603797 
L 280.727449 -298.783835 
L 285.318184 -298.791564 
L 289.90892 -301.767667 
L 294.499655 -296.419319 
L 299.09039 -295.847845 
L 303.681126 -299.005191 
L 308.271861 -293.976922 
L 312.862596 -299.779289 
L 317.453331 -300.948331 
L 322.044067 -299.809301 
L 326.634802 -311.482028 
L 331.225537 -306.8844 
L 335.816273 -311.829586 
L 340.407008 -314.845853 
L 344.997743 -332.452495 
L 349.588478 -317.481741 
L 354.179214 -319.173336 
L 358.769949 -314.826576 
L 363.360684 -322.533376 
L 367.95142 -319.827309 
L 372.542155 -321.725788 
L 377.13289 -326.946801 
L 381.723625 -331.972354 
L 386.314361 -301.900327 
L 390.905096 -317.909546 
L 395.495831 -324.405034 
L 400.086567 -335.785278 
L 404.677302 -342.337949 
L 409.268037 -339.812282 
L 413.858772 -329.70281 
L 418.449508 -326.525217 
L 423.040243 -332.042293 
L 427.630978 -338.30453 
L 432.221714 -339.887935 
L 436.812449 -348.57337 
L 441.403184 -338.68352 
L 445.993919 -345.441504 
L 450.584655 -360.850801 
L 455.17539 -358.613408 
L 459.766125 -362.228156 
L 464.356861 -357.002338 
L 468.947596 -355.474942 
L 473.538331 -365.2837 
L 478.129066 -362.243286 
L 482.719802 -360.435037 
L 487.310537 -368.742539 
L 491.901272 -369.775679 
L 496.492008 -353.84475 
L 501.082743 -361.028215 
L 505.673478 -366.293831 
L 510.264213 -372.359654 
L 514.854949 -379.54103 
L 519.445684 -361.173471 
L 524.036419 -338.039322 
L 528.627155 -340.490412 
L 533.21789 -355.082244 
L 537.808625 -359.281994 
L 542.399361 -361.132165 
L 546.990096 -366.070609 
L 551.580831 -346.222045 
L 556.171566 -344.041002 
L 560.762302 -357.057091 
L 565.353037 -376.213189 
L 569.943772 -361.995667 
L 574.534508 -371.40098 
L 579.125243 -368.933649 
L 583.715978 -370.342722 
L 588.306713 -376.151873 
L 592.897449 -378.790996 
L 597.488184 -384.369505 
L 602.078919 -385.505066 
L 606.669655 -383.155221 
L 611.26039 -387.194333 
L 615.851125 -383.93593 
L 620.44186 -382.174883 
L 625.032596 -386.389861 
L 629.623331 -384.973395 
L 634.214066 -372.412684 
L 638.804802 -379.4713 
L 643.395537 -378.026115 
L 647.986272 -381.908492 
L 652.577007 -385.73062 
L 657.167743 -380.127374 
L 661.758478 -373.453003 
L 666.349213 -370.186759 
L 670.939949 -365.060435 
L 675.530684 -388.120106 
L 675.530684 -385.694987 
L 675.530684 -385.694987 
L 670.939949 -362.448073 
L 666.349213 -368.349126 
L 661.758478 -371.555844 
L 657.167743 -378.100374 
L 652.577007 -383.821009 
L 647.986272 -379.684509 
L 643.395537 -375.780358 
L 638.804802 -377.585616 
L 634.214066 -370.472276 
L 629.623331 -382.647925 
L 625.032596 -384.474883 
L 620.44186 -380.091007 
L 615.851125 -381.88334 
L 611.26039 -385.432903 
L 606.669655 -381.288062 
L 602.078919 -383.543711 
L 597.488184 -382.438981 
L 592.897449 -376.780848 
L 588.306713 -374.175049 
L 583.715978 -368.531911 
L 579.125243 -367.281746 
L 574.534508 -369.238169 
L 569.943772 -359.80639 
L 565.353037 -374.156355 
L 560.762302 -354.949167 
L 556.171566 -342.312003 
L 551.580831 -344.48465 
L 546.990096 -363.940628 
L 542.399361 -359.212138 
L 537.808625 -357.437047 
L 533.21789 -353.438913 
L 528.627155 -339.125628 
L 524.036419 -336.277323 
L 519.445684 -359.139383 
L 514.854949 -377.441943 
L 510.264213 -370.284595 
L 505.673478 -364.233205 
L 501.082743 -358.809087 
L 496.492008 -351.711603 
L 491.901272 -366.982309 
L 487.310537 -366.597091 
L 482.719802 -358.31413 
L 478.129066 -360.272021 
L 473.538331 -363.040022 
L 468.947596 -353.551506 
L 464.356861 -354.577854 
L 459.766125 -359.929204 
L 455.17539 -356.034558 
L 450.584655 -358.300761 
L 445.993919 -343.5499 
L 441.403184 -336.884709 
L 436.812449 -345.962743 
L 432.221714 -337.606241 
L 427.630978 -336.344954 
L 423.040243 -329.920068 
L 418.449508 -324.396756 
L 413.858772 -327.937669 
L 409.268037 -337.471171 
L 404.677302 -340.409354 
L 400.086567 -333.310625 
L 395.495831 -322.332393 
L 390.905096 -315.680192 
L 386.314361 -299.873877 
L 381.723625 -329.322414 
L 377.13289 -324.711099 
L 372.542155 -319.231341 
L 367.95142 -317.591732 
L 363.360684 -320.334024 
L 358.769949 -312.621345 
L 354.179214 -316.510531 
L 349.588478 -315.100052 
L 344.997743 -329.643016 
L 340.407008 -312.572236 
L 335.816273 -309.894525 
L 331.225537 -305.382808 
L 326.634802 -309.69438 
L 322.044067 -297.764976 
L 317.453331 -299.269186 
L 312.862596 -297.882382 
L 308.271861 -292.195665 
L 303.681126 -297.330463 
L 299.09039 -294.192625 
L 294.499655 -294.660114 
L 289.90892 -299.82967 
L 285.318184 -296.87809 
L 280.727449 -296.950709 
L 276.136714 -299.515425 
L 271.545979 -306.141848 
L 266.955243 -302.763176 
L 262.364508 -301.579964 
L 257.773773 -295.826484 
L 253.183037 -298.163587 
L 248.592302 -303.92862 
L 244.001567 -305.72881 
L 239.410832 -311.597769 
L 234.820096 -313.47745 
L 230.229361 -307.473867 
L 225.638626 -301.860181 
L 221.04789 -292.441639 
L 216.457155 -293.939243 
L 211.86642 -294.933809 
L 207.275684 -292.974863 
L 202.684949 -292.644848 
L 198.094214 -296.564004 
L 193.503479 -304.220306 
L 188.912743 -310.276264 
L 184.322008 -309.129072 
L 179.731273 -309.804212 
L 175.140537 -298.537245 
L 170.549802 -306.408877 
L 165.959067 -297.165523 
L 161.368332 -298.732206 
L 156.777596 -301.739259 
L 152.186861 -293.933996 
L 147.596126 -299.58575 
L 143.00539 -284.368386 
L 138.414655 -281.83021 
L 133.82392 -280.172213 
L 129.233185 -291.380115 
L 124.642449 -291.259275 
L 120.051714 -278.247053 
L 115.460979 -280.809731 
L 110.870243 -274.486246 
L 106.279508 -286.516998 
L 101.688773 -279.403844 
L 97.098038 -278.788198 
L 92.507302 -283.480395 
L 87.916567 -278.709865 
L 83.325832 -284.634914 
L 78.735096 -274.628105 
L 74.144361 -273.492488 
z
" style="stroke: #ff0000; stroke-opacity: 0.2"/>
    </defs>
    <g clip-path="url(#p4e44ab0bbb)">
     <use xlink:href="#mf19e838f8f" x="0" y="424.8" style="fill: #ff0000; fill-opacity: 0.2; stroke: #ff0000; stroke-opacity: 0.2"/>
    </g>
   </g>
   <g id="matplotlib.axis_1"/>
   <g id="matplotlib.axis_2">
    <g id="ytick_1">
     <g id="line2d_1">
      <defs>
       <path id="m6e8f0027b5" d="M 0 0 
L -3.5 0 
" style="stroke: #000000; stroke-width: 0.8"/>
      </defs>
      <g>
       <use xlink:href="#m6e8f0027b5" x="44.075045" y="194.948769" style="stroke: #000000; stroke-width: 0.8"/>
      </g>
     </g>
     <g id="text_1">
      <!-- 0% -->
      <g transform="translate(31.222055 199.099859)scale(0.12 -0.12)">
       <defs>
        <path id="CMSS17-30" d="M 2758 2073 
C 2758 2439 2752 3120 2490 3647 
C 2227 4153 1805 4288 1504 4288 
C 1069 4288 698 4031 506 3621 
C 301 3191 243 2748 243 2073 
C 243 1611 262 1046 493 551 
C 755 6 1197 -128 1498 -128 
C 1894 -128 2278 83 2496 525 
C 2720 988 2758 1495 2758 2073 
z
M 1498 262 
C 1011 262 864 821 819 1007 
C 742 1328 730 1636 730 2144 
C 730 2542 730 2992 851 3345 
C 998 3756 1254 3897 1498 3897 
C 1971 3897 2125 3422 2176 3255 
C 2272 2915 2272 2516 2272 2144 
C 2272 1546 2272 262 1498 262 
z
" transform="scale(0.015625)"/>
       </defs>
       <use xlink:href="#CMSS17-30" transform="scale(0.996264)"/>
      </g>
     </g>
    </g>
    <g id="ytick_2">
     <g id="line2d_2">
      <g>
       <use xlink:href="#m6e8f0027b5" x="44.075045" y="139.728543" style="stroke: #000000; stroke-width: 0.8"/>
      </g>
     </g>
     <g id="text_2">
      <!-- 20% -->
      <g transform="translate(25.369064 143.879633)scale(0.12 -0.12)">
       <defs>
        <path id="CMSS17-32" d="M 1651 1353 
C 1830 1538 2099 1761 2285 1984 
C 2464 2201 2701 2507 2701 2953 
C 2701 3655 2227 4288 1421 4288 
C 787 4288 422 3891 250 3272 
L 499 2928 
C 640 3508 838 3878 1338 3878 
C 1888 3878 2195 3431 2195 2940 
C 2195 2354 1747 1901 1408 1563 
C 1030 1187 659 805 301 409 
L 301 0 
L 2701 0 
L 2701 435 
L 1613 435 
C 1536 435 1459 428 1382 428 
L 742 428 
L 742 435 
L 1651 1353 
z
" transform="scale(0.015625)"/>
       </defs>
       <use xlink:href="#CMSS17-32" transform="scale(0.996264)"/>
       <use xlink:href="#CMSS17-30" transform="translate(46.843624 0)scale(0.996264)"/>
      </g>
     </g>
    </g>
    <g id="ytick_3">
     <g id="line2d_3">
      <g>
       <use xlink:href="#m6e8f0027b5" x="44.075045" y="84.508317" style="stroke: #000000; stroke-width: 0.8"/>
      </g>
     </g>
     <g id="text_3">
      <!-- 40% -->
      <g transform="translate(25.369064 88.659407)scale(0.12 -0.12)">
       <defs>
        <path id="CMSS17-34" d="M 2253 1088 
L 2835 1088 
L 2835 1478 
L 2253 1478 
L 2253 4224 
L 1690 4224 
L 166 1478 
L 166 1088 
L 1747 1088 
L 1747 0 
L 2253 0 
L 2253 1088 
z
M 659 1478 
C 1030 2139 1766 3474 1766 3927 
L 1766 1478 
L 659 1478 
z
" transform="scale(0.015625)"/>
       </defs>
       <use xlink:href="#CMSS17-34" transform="scale(0.996264)"/>
       <use xlink:href="#CMSS17-30" transform="translate(46.843624 0)scale(0.996264)"/>
      </g>
     </g>
    </g>
    <g id="ytick_4">
     <g id="line2d_4">
      <g>
       <use xlink:href="#m6e8f0027b5" x="44.075045" y="29.288091" style="stroke: #000000; stroke-width: 0.8"/>
      </g>
     </g>
     <g id="text_4">
      <!-- 60% -->
      <g transform="translate(25.369064 33.43918)scale(0.12 -0.12)">
       <defs>
        <path id="CMSS17-36" d="M 2496 4159 
C 2227 4268 2035 4288 1856 4288 
C 1024 4288 250 3408 250 2023 
C 250 268 986 -128 1510 -128 
C 1798 -128 2086 -39 2362 281 
C 2643 619 2752 900 2752 1392 
C 2752 2183 2362 2886 1779 2886 
C 1357 2886 992 2662 768 2381 
C 832 3290 1254 3897 1862 3897 
C 2029 3897 2246 3871 2496 3760 
L 2496 4159 
z
M 774 1372 
C 774 1423 774 1455 781 1551 
C 781 2049 1069 2496 1536 2496 
C 1837 2496 1990 2336 2106 2138 
C 2240 1889 2246 1653 2246 1392 
C 2246 1143 2246 894 2099 638 
C 1978 441 1818 268 1510 268 
C 902 268 800 1117 774 1372 
z
" transform="scale(0.015625)"/>
       </defs>
       <use xlink:href="#CMSS17-36" transform="scale(0.996264)"/>
       <use xlink:href="#CMSS17-30" transform="translate(46.843624 0)scale(0.996264)"/>
      </g>
     </g>
    </g>
    <g id="text_5">
     <!-- NewsGuard coverage -->
     <g transform="translate(18.269588 168.45801)rotate(-90)scale(0.16 -0.16)">
      <defs>
       <path id="CMSS17-4e" d="M 1466 4179 
L 1350 4416 
L 563 4416 
L 563 0 
L 1062 0 
L 1062 3925 
L 1069 3931 
C 1114 3817 1139 3759 1402 3193 
L 2771 236 
L 2886 0 
L 3674 0 
L 3674 4416 
L 3174 4416 
L 3174 490 
L 3168 484 
C 3123 598 3098 655 2835 1222 
L 1466 4179 
z
" transform="scale(0.015625)"/>
       <path id="CMSS17-65" d="M 2502 1375 
C 2502 1587 2490 2001 2285 2347 
C 2061 2713 1696 2816 1421 2816 
C 755 2816 192 2184 192 1363 
C 192 579 774 -64 1510 -64 
C 1798 -64 2150 19 2470 249 
C 2470 275 2458 414 2451 421 
C 2451 433 2432 629 2432 655 
C 2125 408 1773 326 1517 326 
C 1107 326 666 667 646 1375 
L 2502 1375 
z
M 698 1728 
C 781 2086 1062 2425 1421 2425 
C 1517 2425 1965 2412 2080 1728 
L 698 1728 
z
" transform="scale(0.015625)"/>
       <path id="CMSS17-77" d="M 4013 2752 
L 3526 2752 
L 3187 1600 
C 3117 1356 2918 684 2893 371 
L 2886 371 
C 2874 563 2765 1024 2586 1632 
L 2259 2752 
L 1818 2752 
L 1498 1657 
C 1338 1100 1216 627 1203 371 
L 1197 371 
C 1171 748 909 1632 870 1772 
L 582 2752 
L 83 2752 
L 915 0 
L 1402 0 
C 1734 1100 1990 1952 2010 2380 
C 2022 2169 2131 1715 2195 1491 
L 2618 0 
L 3181 0 
L 4013 2752 
z
" transform="scale(0.015625)"/>
       <path id="CMSS17-73" d="M 2061 2623 
C 1683 2803 1389 2816 1197 2816 
C 742 2816 198 2655 198 2009 
C 198 1363 902 1222 1094 1183 
C 1389 1126 1715 1062 1715 742 
C 1715 339 1254 339 1171 339 
C 915 339 563 409 243 639 
L 166 211 
C 531 0 883 -64 1178 -64 
C 1965 -64 2163 416 2163 780 
C 2163 1094 1984 1305 1862 1401 
C 1651 1567 1574 1587 1050 1695 
C 960 1708 646 1779 646 2067 
C 646 2431 1050 2431 1139 2431 
C 1555 2431 1811 2303 1984 2207 
L 2061 2623 
z
" transform="scale(0.015625)"/>
       <path id="CMSS17-47" d="M 3610 1868 
L 2336 1868 
L 2336 1472 
L 3123 1472 
L 3123 473 
C 2874 403 2618 352 2362 352 
C 1466 352 934 1311 934 2220 
C 934 3123 1491 4070 2362 4070 
C 2854 4070 3130 3916 3469 3660 
L 3552 4172 
C 3130 4390 2867 4480 2387 4480 
C 1146 4480 397 3353 397 2201 
C 397 1100 1152 -64 2349 -64 
C 2797 -64 3213 51 3610 249 
L 3610 1868 
z
" transform="scale(0.015625)"/>
       <path id="CMSS17-75" d="M 2618 2752 
L 2131 2752 
L 2131 976 
C 2131 500 1786 307 1421 307 
C 998 307 960 448 960 712 
L 960 2752 
L 474 2752 
L 474 680 
C 474 179 646 -64 1088 -64 
C 1306 -64 1798 -13 2144 307 
L 2144 -13 
L 2618 -13 
L 2618 2752 
z
" transform="scale(0.015625)"/>
       <path id="CMSS17-61" d="M 2406 1789 
C 2406 2399 1978 2816 1402 2816 
C 1120 2816 813 2764 461 2559 
L 499 2133 
C 659 2250 934 2438 1395 2438 
C 1722 2438 1920 2185 1920 1782 
L 1920 1536 
C 896 1504 256 1209 256 711 
C 256 452 416 -64 947 -64 
C 1043 -64 1562 -52 1933 224 
L 1933 -13 
L 2406 -13 
L 2406 1789 
z
M 1920 824 
C 1920 711 1920 559 1728 446 
C 1562 339 1350 326 1261 326 
C 941 326 723 503 723 723 
C 723 1165 1722 1209 1920 1216 
L 1920 824 
z
" transform="scale(0.015625)"/>
       <path id="CMSS17-72" d="M 954 1369 
C 954 1974 1395 2379 1958 2392 
L 1958 2816 
C 1549 2809 1165 2604 934 2270 
L 934 2783 
L 480 2783 
L 480 0 
L 954 0 
L 954 1369 
z
" transform="scale(0.015625)"/>
       <path id="CMSS17-64" d="M 2611 4416 
L 2138 4416 
L 2138 2495 
C 1939 2662 1613 2816 1254 2816 
C 672 2816 211 2179 211 1375 
C 211 572 666 -64 1235 -64 
C 1677 -64 1971 172 2125 307 
L 2125 -13 
L 2611 -13 
L 2611 4416 
z
M 2125 851 
C 2125 760 2125 663 1926 488 
C 1798 378 1645 326 1498 326 
C 1152 326 698 585 698 1369 
C 698 2185 1210 2425 1562 2425 
C 1798 2425 1990 2308 2125 2114 
L 2125 851 
z
" transform="scale(0.015625)"/>
       <path id="CMSS17-63" d="M 2464 2540 
C 2464 2585 2170 2713 2093 2739 
C 1882 2816 1613 2816 1542 2816 
C 710 2816 211 2092 211 1363 
C 211 595 768 -64 1517 -64 
C 1946 -64 2253 76 2502 243 
L 2464 665 
C 2189 454 1869 339 1523 339 
C 1024 339 698 774 698 1369 
C 698 1830 909 2412 1549 2412 
C 1901 2412 2099 2342 2394 2143 
L 2464 2540 
z
" transform="scale(0.015625)"/>
       <path id="CMSS17-6f" d="M 2829 1356 
C 2829 2175 2221 2816 1504 2816 
C 768 2816 173 2156 173 1356 
C 173 544 787 -64 1498 -64 
C 2227 -64 2829 563 2829 1356 
z
M 1504 339 
C 1050 339 659 710 659 1407 
C 659 2150 1114 2425 1498 2425 
C 1914 2425 2342 2124 2342 1407 
C 2342 684 1926 339 1504 339 
z
" transform="scale(0.015625)"/>
       <path id="CMSS17-76" d="M 2675 2752 
L 2176 2752 
L 1747 1555 
C 1613 1164 1421 627 1389 352 
L 1382 352 
C 1370 467 1318 633 1286 748 
C 1248 889 1197 1056 1158 1171 
L 595 2752 
L 83 2752 
L 1094 0 
L 1664 0 
L 2675 2752 
z
" transform="scale(0.015625)"/>
       <path id="CMSS17-67" d="M 2848 2816 
C 2483 2809 2170 2739 1914 2617 
C 1702 2783 1485 2816 1338 2816 
C 781 2816 358 2356 358 1824 
C 358 1481 550 1222 563 1209 
C 448 1049 384 876 384 684 
C 384 460 474 300 544 211 
C 211 6 166 -308 166 -429 
C 166 -896 749 -1280 1498 -1280 
C 2253 -1280 2835 -896 2835 -423 
C 2835 460 1856 467 1587 467 
L 1069 467 
C 973 467 717 467 717 793 
C 717 921 774 1004 781 1011 
C 877 940 1075 832 1338 832 
C 1869 832 2310 1279 2310 1824 
C 2310 2128 2170 2349 2112 2425 
L 2131 2425 
C 2150 2425 2419 2444 2515 2444 
C 2720 2444 2739 2438 2918 2419 
L 2848 2816 
z
M 1338 1184 
C 1120 1184 813 1317 813 1824 
C 813 2375 1165 2463 1331 2463 
C 1549 2463 1856 2330 1856 1824 
C 1856 1272 1504 1184 1338 1184 
z
M 1581 0 
C 1734 0 2381 0 2381 -436 
C 2381 -711 1984 -928 1504 -928 
C 1018 -928 621 -717 621 -429 
C 621 -397 621 0 1062 0 
L 1581 0 
z
" transform="scale(0.015625)"/>
      </defs>
      <use xlink:href="#CMSS17-4e" transform="scale(0.996264)"/>
      <use xlink:href="#CMSS17-65" transform="translate(66.061519 0)scale(0.996264)"/>
      <use xlink:href="#CMSS17-77" transform="translate(107.700341 0)scale(0.996264)"/>
      <use xlink:href="#CMSS17-73" transform="translate(171.519886 0)scale(0.996264)"/>
      <use xlink:href="#CMSS17-47" transform="translate(207.433428 0)scale(0.996264)"/>
      <use xlink:href="#CMSS17-75" transform="translate(269.891654 0)scale(0.996264)"/>
      <use xlink:href="#CMSS17-61" transform="translate(318.096597 0)scale(0.996264)"/>
      <use xlink:href="#CMSS17-72" transform="translate(360.416064 0)scale(0.996264)"/>
      <use xlink:href="#CMSS17-64" transform="translate(392.325836 0)scale(0.996264)"/>
      <use xlink:href="#CMSS17-63" transform="translate(471.759892 0)scale(0.996264)"/>
      <use xlink:href="#CMSS17-6f" transform="translate(513.398714 0)scale(0.996264)"/>
      <use xlink:href="#CMSS17-76" transform="translate(560.242338 0)scale(0.996264)"/>
      <use xlink:href="#CMSS17-65" transform="translate(603.242479 0)scale(0.996264)"/>
      <use xlink:href="#CMSS17-72" transform="translate(644.881301 0)scale(0.996264)"/>
      <use xlink:href="#CMSS17-61" transform="translate(676.791074 0)scale(0.996264)"/>
      <use xlink:href="#CMSS17-67" transform="translate(721.712995 0)scale(0.996264)"/>
      <use xlink:href="#CMSS17-65" transform="translate(768.556618 0)scale(0.996264)"/>
     </g>
    </g>
   </g>
   <g id="line2d_5">
    <path d="M 74.144361 152.062683 
L 78.735096 146.4716 
L 83.325832 151.453885 
L 87.916567 147.113248 
L 92.507302 146.795578 
L 97.098038 153.237513 
L 101.688773 145.119792 
L 106.279508 152.659969 
L 110.870243 155.481827 
L 115.460979 148.594689 
L 120.051714 148.373636 
L 124.642449 131.017007 
L 129.233185 134.785917 
L 133.82392 139.579191 
L 138.414655 146.316294 
L 143.00539 144.148358 
L 147.596126 144.903963 
L 152.186861 144.277155 
L 156.777596 139.864219 
L 161.368332 134.609737 
L 165.959067 132.820798 
L 170.549802 134.309628 
L 175.140537 134.555504 
L 179.731273 128.276455 
L 184.322008 127.39224 
L 188.912743 129.79528 
L 193.503479 131.708294 
L 198.094214 131.54377 
L 202.684949 131.550301 
L 211.86642 123.164287 
L 216.457155 129.612077 
L 221.04789 131.187299 
L 225.638626 131.076955 
L 230.229361 126.651561 
L 234.820096 122.781306 
L 239.410832 115.560574 
L 244.001567 117.675845 
L 248.592302 114.371397 
L 253.183037 116.560241 
L 257.773773 107.368823 
L 262.364508 106.137674 
L 266.955243 105.842268 
L 271.545979 87.70814 
L 276.136714 111.385315 
L 280.727449 111.014769 
L 285.318184 112.568217 
L 289.90892 110.056691 
L 294.499655 103.878571 
L 299.09039 104.03446 
L 303.681126 106.537954 
L 308.271861 111.322868 
L 312.862596 96.433586 
L 317.453331 106.89271 
L 322.044067 100.45158 
L 326.634802 92.249978 
L 331.225537 96.041947 
L 335.816273 101.544827 
L 340.407008 102.303811 
L 344.997743 76.881417 
L 349.588478 74.040573 
L 354.179214 61.768817 
L 358.769949 61.288013 
L 363.360684 59.674794 
L 367.95142 59.086699 
L 372.542155 56.205495 
L 377.13289 50.240901 
L 381.723625 51.00619 
L 386.314361 63.813048 
L 390.905096 58.869873 
L 395.495831 50.747451 
L 400.086567 55.983076 
L 404.677302 40.566012 
L 409.268037 53.996565 
L 413.858772 45.703631 
L 418.449508 45.057879 
L 423.040243 50.706519 
L 427.630978 47.707837 
L 432.221714 40.634496 
L 436.812449 36.974693 
L 441.403184 56.887336 
L 445.993919 60.974424 
L 450.584655 57.493412 
L 455.17539 26.960145 
L 459.766125 9.17446 
L 464.356861 24.92517 
L 468.947596 23.677822 
L 473.538331 31.563109 
L 478.129066 25.727721 
L 482.719802 32.83173 
L 487.310537 28.086762 
L 491.901272 24.399535 
L 496.492008 43.520241 
L 501.082743 42.446281 
L 505.673478 52.776821 
L 510.264213 48.026385 
L 514.854949 27.305122 
L 519.445684 47.309504 
L 524.036419 75.839364 
L 528.627155 76.171324 
L 533.21789 62.901332 
L 537.808625 52.401122 
L 542.399361 46.983419 
L 546.990096 56.344915 
L 551.580831 72.620921 
L 556.171566 83.775107 
L 560.762302 60.590465 
L 565.353037 44.062299 
L 569.943772 36.403686 
L 574.534508 51.88213 
L 579.125243 53.45744 
L 583.715978 60.241078 
L 588.306713 61.724989 
L 592.897449 49.378213 
L 597.488184 52.852048 
L 602.078919 49.157349 
L 606.669655 53.054265 
L 611.26039 51.824304 
L 615.851125 58.694491 
L 620.44186 47.204304 
L 625.032596 61.137549 
L 629.623331 51.186055 
L 634.214066 58.136657 
L 638.804802 57.884412 
L 643.395537 57.328448 
L 647.986272 52.621716 
L 652.577007 50.96008 
L 657.167743 45.007139 
L 661.758478 69.160658 
L 666.349213 82.975437 
L 670.939949 91.028444 
L 675.530684 61.871626 
L 675.530684 61.871626 
" clip-path="url(#p4e44ab0bbb)" style="fill: none; stroke: #0015bc; stroke-width: 1.5; stroke-linecap: square"/>
   </g>
   <g id="line2d_6">
    <path d="M 74.144361 149.274319 
L 78.735096 148.151822 
L 83.325832 138.313273 
L 87.916567 144.009561 
L 92.507302 139.412129 
L 97.098038 144.212764 
L 101.688773 143.311219 
L 106.279508 136.044169 
L 110.870243 148.288212 
L 115.460979 141.672915 
L 120.051714 144.192769 
L 124.642449 131.366618 
L 129.233185 131.167648 
L 133.82392 142.43975 
L 138.414655 141.023512 
L 143.00539 138.426757 
L 147.596126 123.38114 
L 152.186861 129.001047 
L 156.777596 120.99914 
L 161.368332 123.525483 
L 165.959067 125.552453 
L 170.549802 116.379872 
L 175.140537 124.205945 
L 179.731273 112.498362 
L 184.322008 113.523617 
L 188.912743 112.385907 
L 193.503479 118.548216 
L 198.094214 126.403626 
L 202.684949 130.336688 
L 207.275684 129.977707 
L 211.86642 128.01581 
L 216.457155 128.627417 
L 221.04789 130.641447 
L 225.638626 121.047013 
L 230.229361 114.560261 
L 234.820096 108.448887 
L 239.410832 111.149262 
L 244.001567 117.205334 
L 248.592302 118.879811 
L 253.183037 124.603273 
L 257.773773 126.920036 
L 262.364508 121.512279 
L 266.955243 120.251581 
L 271.545979 116.36492 
L 276.136714 123.196203 
L 280.727449 126.016165 
L 285.318184 126.008436 
L 289.90892 123.032333 
L 294.499655 128.380681 
L 299.09039 128.952155 
L 303.681126 125.794809 
L 308.271861 130.823078 
L 312.862596 125.020711 
L 317.453331 123.851669 
L 322.044067 124.990699 
L 326.634802 113.317972 
L 331.225537 117.9156 
L 335.816273 112.970414 
L 340.407008 109.954147 
L 344.997743 92.347505 
L 349.588478 107.318259 
L 354.179214 105.626664 
L 358.769949 109.973424 
L 363.360684 102.266624 
L 367.95142 104.972691 
L 372.542155 103.074212 
L 377.13289 97.853199 
L 381.723625 92.827646 
L 386.314361 122.899673 
L 390.905096 106.890454 
L 395.495831 100.394966 
L 400.086567 89.014722 
L 404.677302 82.462051 
L 409.268037 84.987718 
L 413.858772 95.09719 
L 418.449508 98.274783 
L 423.040243 92.757707 
L 427.630978 86.49547 
L 432.221714 84.912065 
L 436.812449 76.22663 
L 441.403184 86.11648 
L 445.993919 79.358496 
L 450.584655 63.949199 
L 455.17539 66.186592 
L 459.766125 62.571844 
L 464.356861 67.797662 
L 468.947596 69.325058 
L 473.538331 59.5163 
L 478.129066 62.556714 
L 482.719802 64.364963 
L 487.310537 56.057461 
L 491.901272 55.024321 
L 496.492008 70.95525 
L 501.082743 63.771785 
L 505.673478 58.506169 
L 510.264213 52.440346 
L 514.854949 45.25897 
L 519.445684 63.626529 
L 524.036419 86.760678 
L 528.627155 84.309588 
L 533.21789 69.717756 
L 537.808625 65.518006 
L 542.399361 63.667835 
L 546.990096 58.729391 
L 551.580831 78.577955 
L 556.171566 80.758998 
L 560.762302 67.742909 
L 565.353037 48.586811 
L 569.943772 62.804333 
L 574.534508 53.39902 
L 579.125243 55.866351 
L 583.715978 54.457278 
L 588.306713 48.648127 
L 592.897449 46.009004 
L 597.488184 40.430495 
L 602.078919 39.294934 
L 606.669655 41.644779 
L 611.26039 37.605667 
L 615.851125 40.86407 
L 620.44186 42.625117 
L 625.032596 38.410139 
L 629.623331 39.826605 
L 634.214066 52.387316 
L 638.804802 45.3287 
L 643.395537 46.773885 
L 652.577007 39.06938 
L 657.167743 44.672626 
L 661.758478 51.346997 
L 666.349213 54.613241 
L 670.939949 59.739565 
L 675.530684 36.679894 
L 675.530684 36.679894 
" clip-path="url(#p4e44ab0bbb)" style="fill: none; stroke: #ff0000; stroke-width: 1.5; stroke-linecap: square"/>
   </g>
   <g id="patch_3">
    <path d="M 44.075045 194.948769 
L 44.075045 7.2 
" style="fill: none; stroke: #000000; stroke-width: 0.8; stroke-linejoin: miter; stroke-linecap: square"/>
   </g>
   <g id="patch_4">
    <path d="M 44.075045 194.948769 
L 705.6 194.948769 
" style="fill: none; stroke: #000000; stroke-width: 0.8; stroke-linejoin: miter; stroke-linecap: square"/>
   </g>
   <g id="legend_1">
    <g id="line2d_7">
     <path d="M 575.638409 149.549817 
L 591.638409 149.549817 
L 607.638409 149.549817 
" style="fill: none; stroke: #0015bc; stroke-width: 1.5; stroke-linecap: square"/>
    </g>
    <g id="text_6">
     <!-- Democrat -->
     <g transform="translate(620.438409 155.149817)scale(0.16 -0.16)">
      <defs>
       <path id="CMSS17-44" d="M 570 4416 
L 570 0 
L 2144 0 
C 3194 0 4000 981 4000 2169 
C 4000 3396 3194 4416 2144 4416 
L 570 4416 
z
M 1094 358 
L 1094 4057 
L 2003 4057 
C 2861 4057 3475 3275 3475 2169 
C 3475 1108 2867 358 2003 358 
L 1094 358 
z
" transform="scale(0.015625)"/>
       <path id="CMSS17-6d" d="M 4288 1878 
C 4288 2309 4179 2816 3462 2816 
C 2982 2816 2694 2515 2566 2328 
C 2451 2668 2182 2816 1798 2816 
C 1363 2816 1088 2566 941 2386 
L 941 2783 
L 474 2783 
L 474 0 
L 960 0 
L 960 1556 
C 960 1936 1101 2425 1555 2425 
C 2138 2425 2138 2013 2138 1826 
L 2138 0 
L 2624 0 
L 2624 1556 
C 2624 1936 2765 2425 3219 2425 
C 3802 2425 3802 2013 3802 1826 
L 3802 0 
L 4288 0 
L 4288 1878 
z
" transform="scale(0.015625)"/>
       <path id="CMSS17-74" d="M 1069 2380 
L 1901 2380 
L 1901 2752 
L 1069 2752 
L 1069 3520 
L 614 3520 
L 614 2752 
L 109 2752 
L 109 2380 
L 602 2380 
L 602 751 
C 602 384 685 -64 1107 -64 
C 1427 -64 1722 25 2003 172 
L 1901 551 
C 1747 416 1562 339 1363 339 
C 1082 339 1069 699 1069 860 
L 1069 2380 
z
" transform="scale(0.015625)"/>
      </defs>
      <use xlink:href="#CMSS17-44" transform="scale(0.996264)"/>
      <use xlink:href="#CMSS17-65" transform="translate(67.542842 0)scale(0.996264)"/>
      <use xlink:href="#CMSS17-6d" transform="translate(109.181664 0)scale(0.996264)"/>
      <use xlink:href="#CMSS17-6f" transform="translate(183.410918 0)scale(0.996264)"/>
      <use xlink:href="#CMSS17-63" transform="translate(232.85698 0)scale(0.996264)"/>
      <use xlink:href="#CMSS17-72" transform="translate(274.495802 0)scale(0.996264)"/>
      <use xlink:href="#CMSS17-61" transform="translate(306.405575 0)scale(0.996264)"/>
      <use xlink:href="#CMSS17-74" transform="translate(351.327496 0)scale(0.996264)"/>
     </g>
    </g>
    <g id="line2d_8">
     <path d="M 575.638409 171.849293 
L 591.638409 171.849293 
L 607.638409 171.849293 
" style="fill: none; stroke: #ff0000; stroke-width: 1.5; stroke-linecap: square"/>
    </g>
    <g id="text_7">
     <!-- Republican -->
     <g transform="translate(620.438409 177.449293)scale(0.16 -0.16)">
      <defs>
       <path id="CMSS17-52" d="M 2522 2099 
L 2534 2105 
C 3533 2450 3539 3125 3539 3244 
C 3539 3838 2925 4416 2003 4416 
L 570 4416 
L 570 0 
L 1094 0 
L 1094 2041 
L 2035 2041 
L 3168 0 
L 3706 0 
L 2522 2099 
z
M 1094 2432 
L 1094 4057 
L 1933 4057 
C 2746 4057 3034 3607 3034 3244 
C 3034 2907 2778 2432 1933 2432 
L 1094 2432 
z
" transform="scale(0.015625)"/>
       <path id="CMSS17-70" d="M 966 275 
C 1178 70 1466 -64 1773 -64 
C 2368 -64 2880 553 2880 1382 
C 2880 2147 2496 2816 1946 2816 
C 1626 2816 1242 2700 954 2470 
L 954 2764 
L 480 2764 
L 480 -1280 
L 966 -1280 
L 966 275 
z
M 966 2088 
C 1018 2166 1235 2412 1587 2412 
C 2035 2412 2394 1946 2394 1382 
C 2394 741 1958 326 1530 326 
C 1402 326 1267 358 1139 468 
C 966 624 966 721 966 812 
L 966 2088 
z
" transform="scale(0.015625)"/>
       <path id="CMSS17-62" d="M 954 4416 
L 480 4416 
L 480 -13 
L 966 -13 
L 966 275 
C 1210 38 1504 -64 1766 -64 
C 2381 -64 2880 559 2880 1382 
C 2880 2133 2496 2816 1926 2816 
C 1523 2816 1165 2649 954 2476 
L 954 4416 
z
M 966 2095 
C 1107 2276 1306 2425 1587 2425 
C 1965 2425 2394 2146 2394 1382 
C 2394 566 1882 326 1530 326 
C 1402 326 1267 358 1139 468 
C 966 624 966 721 966 812 
L 966 2095 
z
" transform="scale(0.015625)"/>
       <path id="CMSS17-6c" d="M 947 4416 
L 474 4416 
L 474 0 
L 947 0 
L 947 4416 
z
" transform="scale(0.015625)"/>
       <path id="CMSS17-69" d="M 979 4224 
L 442 4224 
L 442 3686 
L 979 3686 
L 979 4224 
z
M 947 2752 
L 474 2752 
L 474 0 
L 947 0 
L 947 2752 
z
" transform="scale(0.015625)"/>
       <path id="CMSS17-6e" d="M 2618 1878 
C 2618 2283 2522 2816 1798 2816 
C 1389 2816 1120 2604 941 2386 
L 941 2783 
L 474 2783 
L 474 0 
L 960 0 
L 960 1556 
C 960 1962 1114 2425 1549 2425 
C 2112 2425 2131 2045 2131 1826 
L 2131 0 
L 2618 0 
L 2618 1878 
z
" transform="scale(0.015625)"/>
      </defs>
      <use xlink:href="#CMSS17-52" transform="scale(0.996264)"/>
      <use xlink:href="#CMSS17-65" transform="translate(60.416155 0)scale(0.996264)"/>
      <use xlink:href="#CMSS17-70" transform="translate(102.054977 0)scale(0.996264)"/>
      <use xlink:href="#CMSS17-75" transform="translate(150.25992 0)scale(0.996264)"/>
      <use xlink:href="#CMSS17-62" transform="translate(198.464863 0)scale(0.996264)"/>
      <use xlink:href="#CMSS17-6c" transform="translate(246.669806 0)scale(0.996264)"/>
      <use xlink:href="#CMSS17-69" transform="translate(268.850529 0)scale(0.996264)"/>
      <use xlink:href="#CMSS17-63" transform="translate(291.031252 0)scale(0.996264)"/>
      <use xlink:href="#CMSS17-61" transform="translate(332.670075 0)scale(0.996264)"/>
      <use xlink:href="#CMSS17-6e" transform="translate(377.591995 0)scale(0.996264)"/>
     </g>
    </g>
   </g>
  </g>
  <g id="axes_2">
   <g id="patch_5">
    <path d="M 44.075045 399.973224 
L 705.6 399.973224 
L 705.6 212.224455 
L 44.075045 212.224455 
z
" style="fill: #ffffff"/>
   </g>
   <g id="PolyCollection_5">
    <defs>
     <path id="mfa689aa160" d="M 74.144361 -63.410934 
L 74.144361 -61.683587 
L 78.735096 -65.474303 
L 83.325832 -60.938591 
L 87.916567 -65.624254 
L 92.507302 -65.695366 
L 97.098038 -60.027412 
L 101.688773 -68.585586 
L 106.279508 -59.650285 
L 110.870243 -57.026411 
L 115.460979 -62.704886 
L 120.051714 -64.443847 
L 124.642449 -76.535373 
L 129.233185 -77.329939 
L 133.82392 -75.076593 
L 138.414655 -66.900273 
L 143.00539 -69.850394 
L 147.596126 -69.175363 
L 152.186861 -71.98462 
L 156.777596 -74.441966 
L 161.368332 -73.810599 
L 165.959067 -76.959755 
L 170.549802 -78.568307 
L 175.140537 -81.458351 
L 179.731273 -85.980544 
L 184.322008 -83.526959 
L 188.912743 -84.916168 
L 193.503479 -77.151661 
L 198.094214 -81.09628 
L 202.684949 -82.718112 
L 207.275684 -82.692919 
L 211.86642 -88.431763 
L 216.457155 -76.991606 
L 221.04789 -78.869581 
L 225.638626 -79.014486 
L 230.229361 -82.814698 
L 234.820096 -89.183528 
L 239.410832 -95.605205 
L 244.001567 -93.342992 
L 248.592302 -94.96746 
L 253.183037 -95.536642 
L 257.773773 -100.159571 
L 262.364508 -104.387935 
L 266.955243 -105.877311 
L 271.545979 -121.369055 
L 276.136714 -99.544662 
L 280.727449 -104.82862 
L 285.318184 -99.357142 
L 289.90892 -103.823005 
L 294.499655 -106.91026 
L 299.09039 -105.245418 
L 303.681126 -104.899812 
L 308.271861 -101.604503 
L 312.862596 -111.47882 
L 317.453331 -106.954563 
L 322.044067 -112.151496 
L 326.634802 -113.800388 
L 331.225537 -115.572679 
L 335.816273 -108.635161 
L 340.407008 -108.22309 
L 344.997743 -134.388058 
L 349.588478 -140.361106 
L 354.179214 -151.222943 
L 358.769949 -155.726887 
L 363.360684 -150.080273 
L 367.95142 -156.79093 
L 372.542155 -159.596671 
L 377.13289 -164.91271 
L 381.723625 -161.080513 
L 386.314361 -152.45279 
L 390.905096 -155.864104 
L 395.495831 -164.411332 
L 400.086567 -160.162501 
L 404.677302 -170.573359 
L 409.268037 -158.458855 
L 413.858772 -163.716314 
L 418.449508 -166.07622 
L 423.040243 -160.412531 
L 427.630978 -164.513201 
L 432.221714 -169.176772 
L 436.812449 -169.500645 
L 441.403184 -154.042311 
L 445.993919 -147.071842 
L 450.584655 -154.544325 
L 455.17539 -183.079734 
L 459.766125 -194.696606 
L 464.356861 -176.997938 
L 468.947596 -179.025992 
L 473.538331 -172.413982 
L 478.129066 -179.10208 
L 482.719802 -172.840314 
L 487.310537 -175.940376 
L 491.901272 -176.865633 
L 496.492008 -160.636001 
L 501.082743 -162.570446 
L 505.673478 -150.797907 
L 510.264213 -158.429751 
L 514.854949 -173.793433 
L 519.445684 -155.315681 
L 524.036419 -129.751082 
L 528.627155 -124.914518 
L 533.21789 -138.313009 
L 537.808625 -153.333866 
L 542.399361 -157.387371 
L 546.990096 -146.317796 
L 551.580831 -134.762381 
L 556.171566 -121.60308 
L 560.762302 -143.772122 
L 565.353037 -157.921454 
L 569.943772 -165.850534 
L 574.534508 -148.128826 
L 579.125243 -146.970866 
L 583.715978 -142.222332 
L 588.306713 -135.09224 
L 592.897449 -148.348282 
L 597.488184 -141.525388 
L 602.078919 -141.721568 
L 606.669655 -146.738134 
L 611.26039 -147.825488 
L 615.851125 -136.41263 
L 620.44186 -148.180144 
L 625.032596 -137.003989 
L 629.623331 -146.81761 
L 634.214066 -142.013282 
L 638.804802 -140.231675 
L 643.395537 -143.578799 
L 647.986272 -149.78194 
L 652.577007 -146.916607 
L 657.167743 -154.914414 
L 661.758478 -133.69911 
L 666.349213 -120.050501 
L 670.939949 -112.250059 
L 675.530684 -137.70774 
L 675.530684 -139.830291 
L 675.530684 -139.830291 
L 670.939949 -114.39354 
L 666.349213 -121.677798 
L 661.758478 -135.712972 
L 657.167743 -156.963102 
L 652.577007 -148.75711 
L 647.986272 -151.737198 
L 643.395537 -145.475612 
L 638.804802 -142.246182 
L 634.214066 -143.650772 
L 629.623331 -148.591453 
L 625.032596 -138.602481 
L 620.44186 -150.104934 
L 615.851125 -138.194289 
L 611.26039 -149.477903 
L 606.669655 -148.50519 
L 602.078919 -143.418786 
L 597.488184 -143.131631 
L 592.897449 -149.958627 
L 588.306713 -136.712063 
L 583.715978 -143.719741 
L 579.125243 -148.521487 
L 574.534508 -149.910435 
L 569.943772 -167.433823 
L 565.353037 -159.727447 
L 560.762302 -145.374017 
L 556.171566 -122.733404 
L 551.580831 -135.984004 
L 546.990096 -147.548012 
L 542.399361 -158.635722 
L 537.808625 -154.645956 
L 533.21789 -139.585659 
L 528.627155 -126.190183 
L 524.036419 -131.119063 
L 519.445684 -156.735891 
L 514.854949 -175.497788 
L 510.264213 -160.228371 
L 505.673478 -152.627359 
L 501.082743 -164.244168 
L 496.492008 -162.43558 
L 491.901272 -178.477188 
L 487.310537 -177.564748 
L 482.719802 -174.605445 
L 478.129066 -180.653116 
L 473.538331 -174.19915 
L 468.947596 -180.716264 
L 464.356861 -178.623279 
L 459.766125 -196.164839 
L 455.17539 -185.009144 
L 450.584655 -156.130714 
L 445.993919 -148.4968 
L 441.403184 -155.687977 
L 436.812449 -171.022579 
L 432.221714 -170.827975 
L 427.630978 -166.048196 
L 423.040243 -161.875691 
L 418.449508 -167.609243 
L 413.858772 -165.449034 
L 409.268037 -160.199103 
L 404.677302 -172.250454 
L 400.086567 -161.864831 
L 395.495831 -166.327644 
L 390.905096 -157.328909 
L 386.314361 -154.119565 
L 381.723625 -163.083482 
L 377.13289 -166.880672 
L 372.542155 -161.677878 
L 367.95142 -158.65996 
L 363.360684 -152.16194 
L 358.769949 -157.2746 
L 354.179214 -153.17302 
L 349.588478 -142.328824 
L 344.997743 -136.519765 
L 340.407008 -110.488036 
L 335.816273 -110.584868 
L 331.225537 -117.341068 
L 326.634802 -115.887549 
L 322.044067 -114.482941 
L 317.453331 -108.915907 
L 312.862596 -113.713418 
L 308.271861 -103.498843 
L 303.681126 -106.757066 
L 299.09039 -107.380834 
L 294.499655 -109.128859 
L 289.90892 -106.172344 
L 285.318184 -101.966369 
L 280.727449 -106.911136 
L 276.136714 -101.622003 
L 271.545979 -123.63425 
L 266.955243 -107.780529 
L 262.364508 -106.650643 
L 257.773773 -102.38465 
L 253.183037 -97.504829 
L 248.592302 -96.968276 
L 244.001567 -95.303998 
L 239.410832 -97.526025 
L 234.820096 -91.273573 
L 230.229361 -84.974645 
L 225.638626 -80.790063 
L 221.04789 -80.520697 
L 216.457155 -79.226485 
L 211.86642 -90.1732 
L 207.275684 -84.242057 
L 202.684949 -84.722805 
L 198.094214 -82.872518 
L 193.503479 -78.834792 
L 188.912743 -86.939229 
L 184.322008 -85.273177 
L 179.731273 -88.626522 
L 175.140537 -83.334654 
L 170.549802 -80.370651 
L 165.959067 -78.988563 
L 161.368332 -75.711249 
L 156.777596 -76.136286 
L 152.186861 -73.565907 
L 147.596126 -70.693252 
L 143.00539 -71.549554 
L 138.414655 -68.870567 
L 133.82392 -77.052733 
L 129.233185 -79.578926 
L 124.642449 -79.419369 
L 120.051714 -66.205163 
L 115.460979 -64.08051 
L 110.870243 -58.664121 
L 106.279508 -61.567117 
L 101.688773 -70.295928 
L 97.098038 -61.86599 
L 92.507302 -67.566118 
L 87.916567 -67.657481 
L 83.325832 -62.537865 
L 78.735096 -67.211228 
L 74.144361 -63.410934 
z
" style="stroke: #0015bc; stroke-opacity: 0.2"/>
    </defs>
    <g clip-path="url(#p23f988a228)">
     <use xlink:href="#mfa689aa160" x="0" y="424.8" style="fill: #0015bc; fill-opacity: 0.2; stroke: #0015bc; stroke-opacity: 0.2"/>
    </g>
   </g>
   <g id="PolyCollection_6">
    <defs>
     <path id="m814711eece" d="M 74.144361 -59.95624 
L 74.144361 -61.683587 
L 78.735096 -65.474303 
L 83.325832 -60.938591 
L 87.916567 -65.624254 
L 92.507302 -65.695366 
L 97.098038 -60.027412 
L 101.688773 -68.585586 
L 106.279508 -59.650285 
L 110.870243 -57.026411 
L 115.460979 -62.704886 
L 120.051714 -64.443847 
L 124.642449 -76.535373 
L 129.233185 -77.329939 
L 133.82392 -75.076593 
L 138.414655 -66.900273 
L 143.00539 -69.850394 
L 147.596126 -69.175363 
L 152.186861 -71.98462 
L 156.777596 -74.441966 
L 161.368332 -73.810599 
L 165.959067 -76.959755 
L 170.549802 -78.568307 
L 175.140537 -81.458351 
L 179.731273 -85.980544 
L 184.322008 -83.526959 
L 188.912743 -84.916168 
L 193.503479 -77.151661 
L 198.094214 -81.09628 
L 202.684949 -82.718112 
L 207.275684 -82.692919 
L 211.86642 -88.431763 
L 216.457155 -76.991606 
L 221.04789 -78.869581 
L 225.638626 -79.014486 
L 230.229361 -82.814698 
L 234.820096 -89.183528 
L 239.410832 -95.605205 
L 244.001567 -93.342992 
L 248.592302 -94.96746 
L 253.183037 -95.536642 
L 257.773773 -100.159571 
L 262.364508 -104.387935 
L 266.955243 -105.877311 
L 271.545979 -121.369055 
L 276.136714 -99.544662 
L 280.727449 -104.82862 
L 285.318184 -99.357142 
L 289.90892 -103.823005 
L 294.499655 -106.91026 
L 299.09039 -105.245418 
L 303.681126 -104.899812 
L 308.271861 -101.604503 
L 312.862596 -111.47882 
L 317.453331 -106.954563 
L 322.044067 -112.151496 
L 326.634802 -113.800388 
L 331.225537 -115.572679 
L 335.816273 -108.635161 
L 340.407008 -108.22309 
L 344.997743 -134.388058 
L 349.588478 -140.361106 
L 354.179214 -151.222943 
L 358.769949 -155.726887 
L 363.360684 -150.080273 
L 367.95142 -156.79093 
L 372.542155 -159.596671 
L 377.13289 -164.91271 
L 381.723625 -161.080513 
L 386.314361 -152.45279 
L 390.905096 -155.864104 
L 395.495831 -164.411332 
L 400.086567 -160.162501 
L 404.677302 -170.573359 
L 409.268037 -158.458855 
L 413.858772 -163.716314 
L 418.449508 -166.07622 
L 423.040243 -160.412531 
L 427.630978 -164.513201 
L 432.221714 -169.176772 
L 436.812449 -169.500645 
L 441.403184 -154.042311 
L 445.993919 -147.071842 
L 450.584655 -154.544325 
L 455.17539 -183.079734 
L 459.766125 -194.696606 
L 464.356861 -176.997938 
L 468.947596 -179.025992 
L 473.538331 -172.413982 
L 478.129066 -179.10208 
L 482.719802 -172.840314 
L 487.310537 -175.940376 
L 491.901272 -176.865633 
L 496.492008 -160.636001 
L 501.082743 -162.570446 
L 505.673478 -150.797907 
L 510.264213 -158.429751 
L 514.854949 -173.793433 
L 519.445684 -155.315681 
L 524.036419 -129.751082 
L 528.627155 -124.914518 
L 533.21789 -138.313009 
L 537.808625 -153.333866 
L 542.399361 -157.387371 
L 546.990096 -146.317796 
L 551.580831 -134.762381 
L 556.171566 -121.60308 
L 560.762302 -143.772122 
L 565.353037 -157.921454 
L 569.943772 -165.850534 
L 574.534508 -148.128826 
L 579.125243 -146.970866 
L 583.715978 -142.222332 
L 588.306713 -135.09224 
L 592.897449 -148.348282 
L 597.488184 -141.525388 
L 602.078919 -141.721568 
L 606.669655 -146.738134 
L 611.26039 -147.825488 
L 615.851125 -136.41263 
L 620.44186 -148.180144 
L 625.032596 -137.003989 
L 629.623331 -146.81761 
L 634.214066 -142.013282 
L 638.804802 -140.231675 
L 643.395537 -143.578799 
L 647.986272 -149.78194 
L 652.577007 -146.916607 
L 657.167743 -154.914414 
L 661.758478 -133.69911 
L 666.349213 -120.050501 
L 670.939949 -112.250059 
L 675.530684 -137.70774 
L 675.530684 -135.58519 
L 675.530684 -135.58519 
L 670.939949 -110.106578 
L 666.349213 -118.423205 
L 661.758478 -131.685248 
L 657.167743 -152.865726 
L 652.577007 -145.076103 
L 647.986272 -147.826682 
L 643.395537 -141.681986 
L 638.804802 -138.217169 
L 634.214066 -140.375791 
L 629.623331 -145.043768 
L 625.032596 -135.405497 
L 620.44186 -146.255354 
L 615.851125 -134.63097 
L 611.26039 -146.173074 
L 606.669655 -144.971077 
L 602.078919 -140.024349 
L 597.488184 -139.919144 
L 592.897449 -146.737937 
L 588.306713 -133.472416 
L 583.715978 -140.724923 
L 579.125243 -145.420245 
L 574.534508 -146.347217 
L 569.943772 -164.267244 
L 565.353037 -156.115461 
L 560.762302 -142.170226 
L 556.171566 -120.472756 
L 551.580831 -133.540757 
L 546.990096 -145.08758 
L 542.399361 -156.139021 
L 537.808625 -152.021776 
L 533.21789 -137.040359 
L 528.627155 -123.638853 
L 524.036419 -128.383101 
L 519.445684 -153.895471 
L 514.854949 -172.089077 
L 510.264213 -156.631131 
L 505.673478 -148.968454 
L 501.082743 -160.896725 
L 496.492008 -158.836422 
L 491.901272 -175.254079 
L 487.310537 -174.316003 
L 482.719802 -171.075184 
L 478.129066 -177.551044 
L 473.538331 -170.628815 
L 468.947596 -177.33572 
L 464.356861 -175.372597 
L 459.766125 -193.228373 
L 455.17539 -181.150323 
L 450.584655 -152.957935 
L 445.993919 -145.646885 
L 441.403184 -152.396644 
L 436.812449 -167.978711 
L 432.221714 -167.525568 
L 427.630978 -162.978207 
L 423.040243 -158.949371 
L 418.449508 -164.543197 
L 413.858772 -161.983594 
L 409.268037 -156.718606 
L 404.677302 -168.896263 
L 400.086567 -158.460171 
L 395.495831 -162.495019 
L 390.905096 -154.399299 
L 386.314361 -150.786014 
L 381.723625 -159.077545 
L 377.13289 -162.944747 
L 372.542155 -157.515465 
L 367.95142 -154.9219 
L 363.360684 -147.998606 
L 358.769949 -154.179175 
L 354.179214 -149.272867 
L 349.588478 -138.393388 
L 344.997743 -132.256351 
L 340.407008 -105.958144 
L 335.816273 -106.685454 
L 331.225537 -113.80429 
L 326.634802 -111.713227 
L 322.044067 -109.820051 
L 317.453331 -104.993219 
L 312.862596 -109.244222 
L 308.271861 -99.710164 
L 303.681126 -103.042558 
L 299.09039 -103.110002 
L 294.499655 -104.691662 
L 289.90892 -101.473666 
L 285.318184 -96.747915 
L 280.727449 -102.746104 
L 276.136714 -97.467322 
L 271.545979 -119.10386 
L 266.955243 -103.974093 
L 262.364508 -102.125228 
L 257.773773 -97.934492 
L 253.183037 -93.568455 
L 248.592302 -92.966643 
L 244.001567 -91.381986 
L 239.410832 -93.684385 
L 234.820096 -87.093483 
L 230.229361 -80.654751 
L 225.638626 -77.238909 
L 221.04789 -77.218464 
L 216.457155 -74.756727 
L 211.86642 -86.690325 
L 207.275684 -81.143781 
L 202.684949 -80.713418 
L 198.094214 -79.320042 
L 193.503479 -75.468529 
L 188.912743 -82.893108 
L 184.322008 -81.780741 
L 179.731273 -83.334566 
L 175.140537 -79.582047 
L 170.549802 -76.765963 
L 165.959067 -74.930948 
L 161.368332 -71.909949 
L 156.777596 -72.747646 
L 152.186861 -70.403333 
L 147.596126 -67.657474 
L 143.00539 -68.151234 
L 138.414655 -64.929979 
L 133.82392 -73.100453 
L 129.233185 -75.080952 
L 124.642449 -73.651378 
L 120.051714 -62.682531 
L 115.460979 -61.329261 
L 110.870243 -55.388702 
L 106.279508 -57.733453 
L 101.688773 -66.875243 
L 97.098038 -58.188834 
L 92.507302 -63.824613 
L 87.916567 -63.591026 
L 83.325832 -59.339316 
L 78.735096 -63.737377 
L 74.144361 -59.95624 
z
" style="stroke: #0015bc; stroke-opacity: 0.2"/>
    </defs>
    <g clip-path="url(#p23f988a228)">
     <use xlink:href="#m814711eece" x="0" y="424.8" style="fill: #0015bc; fill-opacity: 0.2; stroke: #0015bc; stroke-opacity: 0.2"/>
    </g>
   </g>
   <g id="PolyCollection_7">
    <defs>
     <path id="me69c8745bb" d="M 74.144361 -73.798581 
L 74.144361 -71.777207 
L 78.735096 -69.133167 
L 83.325832 -76.824362 
L 87.916567 -72.328695 
L 92.507302 -75.568689 
L 97.098038 -70.322728 
L 101.688773 -69.885034 
L 106.279508 -72.065643 
L 110.870243 -64.704701 
L 115.460979 -71.441807 
L 120.051714 -72.628044 
L 124.642449 -83.997339 
L 129.233185 -81.604145 
L 133.82392 -78.782891 
L 138.414655 -74.469277 
L 143.00539 -75.054446 
L 147.596126 -90.567492 
L 152.186861 -85.128862 
L 156.777596 -92.869635 
L 161.368332 -85.900834 
L 165.959067 -85.102071 
L 170.549802 -98.586075 
L 175.140537 -90.143516 
L 179.731273 -96.960766 
L 184.322008 -96.933558 
L 188.912743 -99.178883 
L 193.503479 -91.996261 
L 198.094214 -87.875616 
L 202.684949 -79.638088 
L 207.275684 -82.522642 
L 211.86642 -82.7133 
L 216.457155 -79.758274 
L 221.04789 -81.118872 
L 225.638626 -85.675755 
L 230.229361 -96.613836 
L 234.820096 -101.324751 
L 239.410832 -100.365397 
L 244.001567 -91.198917 
L 248.592302 -91.845988 
L 253.183037 -82.813871 
L 257.773773 -81.68625 
L 262.364508 -88.097089 
L 266.955243 -88.753285 
L 271.545979 -88.326617 
L 276.136714 -86.327895 
L 280.727449 -81.182465 
L 285.318184 -80.942002 
L 289.90892 -84.988961 
L 294.499655 -80.705217 
L 299.09039 -79.183673 
L 303.681126 -82.830724 
L 308.271861 -77.196568 
L 312.862596 -82.249537 
L 317.453331 -86.65269 
L 322.044067 -83.744168 
L 326.634802 -89.886293 
L 331.225537 -91.915652 
L 335.816273 -94.974693 
L 340.407008 -95.677108 
L 344.997743 -110.443876 
L 349.588478 -102.127361 
L 354.179214 -96.771481 
L 358.769949 -98.073994 
L 363.360684 -101.792606 
L 367.95142 -103.119069 
L 372.542155 -103.552747 
L 377.13289 -109.263431 
L 381.723625 -108.675942 
L 386.314361 -83.410141 
L 390.905096 -99.878081 
L 395.495831 -106.74393 
L 400.086567 -120.985804 
L 404.677302 -124.309199 
L 409.268037 -113.480596 
L 413.858772 -104.820295 
L 418.449508 -107.642758 
L 423.040243 -110.854336 
L 427.630978 -116.714982 
L 432.221714 -116.945472 
L 436.812449 -118.851463 
L 441.403184 -114.406754 
L 445.993919 -120.843528 
L 450.584655 -133.5295 
L 455.17539 -128.819687 
L 459.766125 -132.618539 
L 464.356861 -132.66013 
L 468.947596 -125.970916 
L 473.538331 -131.7656 
L 478.129066 -131.50061 
L 482.719802 -127.975951 
L 487.310537 -136.064475 
L 491.901272 -130.386431 
L 496.492008 -122.994194 
L 501.082743 -126.84687 
L 505.673478 -138.093116 
L 510.264213 -142.561918 
L 514.854949 -145.901116 
L 519.445684 -132.95723 
L 524.036419 -113.118535 
L 528.627155 -110.242464 
L 533.21789 -127.791141 
L 537.808625 -129.973912 
L 542.399361 -133.230613 
L 546.990096 -134.246146 
L 551.580831 -123.149224 
L 556.171566 -121.013531 
L 560.762302 -132.688514 
L 565.353037 -144.130624 
L 569.943772 -135.339615 
L 574.534508 -143.847037 
L 579.125243 -143.321292 
L 583.715978 -147.340358 
L 588.306713 -151.833397 
L 592.897449 -154.349793 
L 597.488184 -158.202696 
L 602.078919 -160.584586 
L 606.669655 -159.582537 
L 611.26039 -168.108253 
L 615.851125 -163.263396 
L 620.44186 -162.275815 
L 625.032596 -168.260818 
L 629.623331 -157.287929 
L 634.214066 -147.073819 
L 638.804802 -156.025201 
L 643.395537 -154.196757 
L 647.986272 -154.216972 
L 652.577007 -158.077232 
L 657.167743 -155.805172 
L 661.758478 -149.896511 
L 666.349213 -148.44824 
L 670.939949 -142.669445 
L 675.530684 -162.081283 
L 675.530684 -164.501308 
L 675.530684 -164.501308 
L 670.939949 -145.069205 
L 666.349213 -150.249806 
L 661.758478 -151.939806 
L 657.167743 -157.878277 
L 652.577007 -160.165513 
L 647.986272 -156.328718 
L 643.395537 -156.263594 
L 638.804802 -158.019702 
L 634.214066 -149.107056 
L 629.623331 -159.278141 
L 625.032596 -170.214517 
L 620.44186 -164.420965 
L 615.851125 -165.173143 
L 611.26039 -169.932723 
L 606.669655 -161.525361 
L 602.078919 -162.645744 
L 597.488184 -159.935916 
L 592.897449 -156.414121 
L 588.306713 -153.901597 
L 583.715978 -149.294671 
L 579.125243 -145.084612 
L 574.534508 -145.865549 
L 569.943772 -137.568544 
L 565.353037 -146.313518 
L 560.762302 -135.050872 
L 556.171566 -122.611619 
L 551.580831 -125.066777 
L 546.990096 -136.267105 
L 542.399361 -134.952401 
L 537.808625 -131.649403 
L 533.21789 -129.286366 
L 528.627155 -111.652247 
L 524.036419 -114.823971 
L 519.445684 -134.9354 
L 514.854949 -147.869976 
L 510.264213 -144.677922 
L 505.673478 -140.34203 
L 501.082743 -128.827605 
L 496.492008 -125.059483 
L 491.901272 -132.703845 
L 487.310537 -138.138248 
L 482.719802 -130.084243 
L 478.129066 -133.505543 
L 473.538331 -133.870855 
L 468.947596 -127.787099 
L 464.356861 -135.011419 
L 459.766125 -134.674643 
L 455.17539 -131.573866 
L 450.584655 -136.234967 
L 445.993919 -122.722661 
L 441.403184 -116.254377 
L 436.812449 -121.112873 
L 432.221714 -119.144994 
L 427.630978 -118.535968 
L 423.040243 -112.872867 
L 418.449508 -109.923691 
L 413.858772 -106.619527 
L 409.268037 -115.789879 
L 404.677302 -126.150671 
L 400.086567 -123.422407 
L 395.495831 -108.724921 
L 390.905096 -102.036159 
L 386.314361 -85.152979 
L 381.723625 -111.037468 
L 377.13289 -111.62958 
L 372.542155 -105.907952 
L 367.95142 -105.332378 
L 363.360684 -104.034073 
L 358.769949 -100.063489 
L 354.179214 -98.980999 
L 349.588478 -104.507833 
L 344.997743 -112.802053 
L 340.407008 -97.884276 
L 335.816273 -96.770857 
L 331.225537 -93.630041 
L 326.634802 -91.710991 
L 322.044067 -85.491186 
L 317.453331 -88.281279 
L 312.862596 -84.061344 
L 308.271861 -78.849352 
L 303.681126 -84.265715 
L 299.09039 -80.717058 
L 294.499655 -82.396159 
L 289.90892 -86.701451 
L 285.318184 -82.650687 
L 280.727449 -83.10881 
L 276.136714 -88.185854 
L 271.545979 -90.535429 
L 266.955243 -90.365222 
L 262.364508 -89.699759 
L 257.773773 -83.57606 
L 253.183037 -84.864569 
L 248.592302 -93.554386 
L 244.001567 -92.949445 
L 239.410832 -102.278393 
L 234.820096 -103.904504 
L 230.229361 -99.327816 
L 225.638626 -87.658409 
L 221.04789 -82.768657 
L 216.457155 -81.830692 
L 211.86642 -84.369563 
L 207.275684 -84.261091 
L 202.684949 -81.338558 
L 198.094214 -89.780989 
L 193.503479 -93.653269 
L 188.912743 -101.401484 
L 184.322008 -99.055203 
L 179.731273 -99.45107 
L 175.140537 -92.252132 
L 170.549802 -100.758347 
L 165.959067 -87.221739 
L 161.368332 -88.231668 
L 156.777596 -95.031016 
L 152.186861 -86.736554 
L 147.596126 -92.523024 
L 143.00539 -76.930184 
L 138.414655 -76.33059 
L 133.82392 -80.911173 
L 129.233185 -83.741623 
L 124.642449 -86.502401 
L 120.051714 -74.905968 
L 115.460979 -73.542048 
L 110.870243 -66.544755 
L 106.279508 -74.282093 
L 101.688773 -71.785754 
L 97.098038 -72.116374 
L 92.507302 -77.532188 
L 87.916567 -74.395186 
L 83.325832 -78.626796 
L 78.735096 -71.079509 
L 74.144361 -73.798581 
z
" style="stroke: #ff0000; stroke-opacity: 0.2"/>
    </defs>
    <g clip-path="url(#p23f988a228)">
     <use xlink:href="#me69c8745bb" x="0" y="424.8" style="fill: #ff0000; fill-opacity: 0.2; stroke: #ff0000; stroke-opacity: 0.2"/>
    </g>
   </g>
   <g id="PolyCollection_8">
    <defs>
     <path id="mcd976858a5" d="M 74.144361 -69.755833 
L 74.144361 -71.777207 
L 78.735096 -69.133167 
L 83.325832 -76.824362 
L 87.916567 -72.328695 
L 92.507302 -75.568689 
L 97.098038 -70.322728 
L 101.688773 -69.885034 
L 106.279508 -72.065643 
L 110.870243 -64.704701 
L 115.460979 -71.441807 
L 120.051714 -72.628044 
L 124.642449 -83.997339 
L 129.233185 -81.604145 
L 133.82392 -78.782891 
L 138.414655 -74.469277 
L 143.00539 -75.054446 
L 147.596126 -90.567492 
L 152.186861 -85.128862 
L 156.777596 -92.869635 
L 161.368332 -85.900834 
L 165.959067 -85.102071 
L 170.549802 -98.586075 
L 175.140537 -90.143516 
L 179.731273 -96.960766 
L 184.322008 -96.933558 
L 188.912743 -99.178883 
L 193.503479 -91.996261 
L 198.094214 -87.875616 
L 202.684949 -79.638088 
L 207.275684 -82.522642 
L 211.86642 -82.7133 
L 216.457155 -79.758274 
L 221.04789 -81.118872 
L 225.638626 -85.675755 
L 230.229361 -96.613836 
L 234.820096 -101.324751 
L 239.410832 -100.365397 
L 244.001567 -91.198917 
L 248.592302 -91.845988 
L 253.183037 -82.813871 
L 257.773773 -81.68625 
L 262.364508 -88.097089 
L 266.955243 -88.753285 
L 271.545979 -88.326617 
L 276.136714 -86.327895 
L 280.727449 -81.182465 
L 285.318184 -80.942002 
L 289.90892 -84.988961 
L 294.499655 -80.705217 
L 299.09039 -79.183673 
L 303.681126 -82.830724 
L 308.271861 -77.196568 
L 312.862596 -82.249537 
L 317.453331 -86.65269 
L 322.044067 -83.744168 
L 326.634802 -89.886293 
L 331.225537 -91.915652 
L 335.816273 -94.974693 
L 340.407008 -95.677108 
L 344.997743 -110.443876 
L 349.588478 -102.127361 
L 354.179214 -96.771481 
L 358.769949 -98.073994 
L 363.360684 -101.792606 
L 367.95142 -103.119069 
L 372.542155 -103.552747 
L 377.13289 -109.263431 
L 381.723625 -108.675942 
L 386.314361 -83.410141 
L 390.905096 -99.878081 
L 395.495831 -106.74393 
L 400.086567 -120.985804 
L 404.677302 -124.309199 
L 409.268037 -113.480596 
L 413.858772 -104.820295 
L 418.449508 -107.642758 
L 423.040243 -110.854336 
L 427.630978 -116.714982 
L 432.221714 -116.945472 
L 436.812449 -118.851463 
L 441.403184 -114.406754 
L 445.993919 -120.843528 
L 450.584655 -133.5295 
L 455.17539 -128.819687 
L 459.766125 -132.618539 
L 464.356861 -132.66013 
L 468.947596 -125.970916 
L 473.538331 -131.7656 
L 478.129066 -131.50061 
L 482.719802 -127.975951 
L 487.310537 -136.064475 
L 491.901272 -130.386431 
L 496.492008 -122.994194 
L 501.082743 -126.84687 
L 505.673478 -138.093116 
L 510.264213 -142.561918 
L 514.854949 -145.901116 
L 519.445684 -132.95723 
L 524.036419 -113.118535 
L 528.627155 -110.242464 
L 533.21789 -127.791141 
L 537.808625 -129.973912 
L 542.399361 -133.230613 
L 546.990096 -134.246146 
L 551.580831 -123.149224 
L 556.171566 -121.013531 
L 560.762302 -132.688514 
L 565.353037 -144.130624 
L 569.943772 -135.339615 
L 574.534508 -143.847037 
L 579.125243 -143.321292 
L 583.715978 -147.340358 
L 588.306713 -151.833397 
L 592.897449 -154.349793 
L 597.488184 -158.202696 
L 602.078919 -160.584586 
L 606.669655 -159.582537 
L 611.26039 -168.108253 
L 615.851125 -163.263396 
L 620.44186 -162.275815 
L 625.032596 -168.260818 
L 629.623331 -157.287929 
L 634.214066 -147.073819 
L 638.804802 -156.025201 
L 643.395537 -154.196757 
L 647.986272 -154.216972 
L 652.577007 -158.077232 
L 657.167743 -155.805172 
L 661.758478 -149.896511 
L 666.349213 -148.44824 
L 670.939949 -142.669445 
L 675.530684 -162.081283 
L 675.530684 -159.661258 
L 675.530684 -159.661258 
L 670.939949 -140.269685 
L 666.349213 -146.646675 
L 661.758478 -147.853216 
L 657.167743 -153.732066 
L 652.577007 -155.988952 
L 647.986272 -152.105227 
L 643.395537 -152.129919 
L 638.804802 -154.0307 
L 634.214066 -145.040582 
L 629.623331 -155.297718 
L 625.032596 -166.307118 
L 620.44186 -160.130665 
L 615.851125 -161.353649 
L 611.26039 -166.283782 
L 606.669655 -157.639712 
L 602.078919 -158.523428 
L 597.488184 -156.469475 
L 592.897449 -152.285466 
L 588.306713 -149.765197 
L 583.715978 -145.386045 
L 579.125243 -141.557972 
L 574.534508 -141.828524 
L 569.943772 -133.110687 
L 565.353037 -141.94773 
L 560.762302 -130.326157 
L 556.171566 -119.415444 
L 551.580831 -121.231671 
L 546.990096 -132.225186 
L 542.399361 -131.508826 
L 537.808625 -128.29842 
L 533.21789 -126.295915 
L 528.627155 -108.832681 
L 524.036419 -111.413099 
L 519.445684 -130.97906 
L 514.854949 -143.932256 
L 510.264213 -140.445915 
L 505.673478 -135.844202 
L 501.082743 -124.866134 
L 496.492008 -120.928906 
L 491.901272 -128.069017 
L 487.310537 -133.990701 
L 482.719802 -125.867658 
L 478.129066 -129.495677 
L 473.538331 -129.660345 
L 468.947596 -124.154733 
L 464.356861 -130.308841 
L 459.766125 -130.562434 
L 455.17539 -126.065508 
L 450.584655 -130.824032 
L 445.993919 -118.964394 
L 441.403184 -112.559131 
L 436.812449 -116.590053 
L 432.221714 -114.745951 
L 427.630978 -114.893996 
L 423.040243 -108.835804 
L 418.449508 -105.361825 
L 413.858772 -103.021063 
L 409.268037 -111.171314 
L 404.677302 -122.467727 
L 400.086567 -118.549201 
L 395.495831 -104.76294 
L 390.905096 -97.720002 
L 386.314361 -81.667302 
L 381.723625 -106.314416 
L 377.13289 -106.897282 
L 372.542155 -101.197543 
L 367.95142 -100.905759 
L 363.360684 -99.551138 
L 358.769949 -96.084499 
L 354.179214 -94.561963 
L 349.588478 -99.74689 
L 344.997743 -108.085699 
L 340.407008 -93.469941 
L 335.816273 -93.178528 
L 331.225537 -90.201262 
L 326.634802 -88.061596 
L 322.044067 -81.99715 
L 317.453331 -85.024102 
L 312.862596 -80.43773 
L 308.271861 -75.543783 
L 303.681126 -81.395734 
L 299.09039 -77.650289 
L 294.499655 -79.014275 
L 289.90892 -83.27647 
L 285.318184 -79.233316 
L 280.727449 -79.256119 
L 276.136714 -84.469936 
L 271.545979 -86.117805 
L 266.955243 -87.141349 
L 262.364508 -86.494419 
L 257.773773 -79.796439 
L 253.183037 -80.763174 
L 248.592302 -90.137589 
L 244.001567 -89.44839 
L 239.410832 -98.4524 
L 234.820096 -98.744997 
L 230.229361 -93.899856 
L 225.638626 -83.693101 
L 221.04789 -79.469086 
L 216.457155 -77.685857 
L 211.86642 -81.057037 
L 207.275684 -80.784193 
L 202.684949 -77.937618 
L 198.094214 -85.970243 
L 193.503479 -90.339252 
L 188.912743 -96.956282 
L 184.322008 -94.811912 
L 179.731273 -94.470462 
L 175.140537 -88.034899 
L 170.549802 -96.413803 
L 165.959067 -82.982403 
L 161.368332 -83.57 
L 156.777596 -90.708255 
L 152.186861 -83.52117 
L 147.596126 -88.611959 
L 143.00539 -73.178707 
L 138.414655 -72.607964 
L 133.82392 -76.654608 
L 129.233185 -79.466667 
L 124.642449 -81.492278 
L 120.051714 -70.35012 
L 115.460979 -69.341567 
L 110.870243 -62.864648 
L 106.279508 -69.849193 
L 101.688773 -67.984313 
L 97.098038 -68.529083 
L 92.507302 -73.605189 
L 87.916567 -70.262204 
L 83.325832 -75.021928 
L 78.735096 -67.186825 
L 74.144361 -69.755833 
z
" style="stroke: #ff0000; stroke-opacity: 0.2"/>
    </defs>
    <g clip-path="url(#p23f988a228)">
     <use xlink:href="#mcd976858a5" x="0" y="424.8" style="fill: #ff0000; fill-opacity: 0.2; stroke: #ff0000; stroke-opacity: 0.2"/>
    </g>
   </g>
   <g id="matplotlib.axis_3">
    <g id="xtick_1">
     <g id="line2d_9">
      <defs>
       <path id="mec6b4dffe5" d="M 0 0 
L 0 3.5 
" style="stroke: #000000; stroke-width: 0.8"/>
      </defs>
      <g>
       <use xlink:href="#mec6b4dffe5" x="101.688773" y="399.973224" style="stroke: #000000; stroke-width: 0.8"/>
      </g>
     </g>
     <g id="text_8">
      <!-- 2012 -->
      <g transform="translate(89.982792 415.275404)scale(0.12 -0.12)">
       <defs>
        <path id="CMSS17-31" d="M 1818 4288 
L 1696 4288 
C 1350 3949 947 3902 538 3891 
L 538 3520 
C 723 3526 1024 3539 1325 3673 
L 1325 371 
L 570 371 
L 570 0 
L 2573 0 
L 2573 371 
L 1818 371 
L 1818 4288 
z
" transform="scale(0.015625)"/>
       </defs>
       <use xlink:href="#CMSS17-32" transform="scale(0.996264)"/>
       <use xlink:href="#CMSS17-30" transform="translate(46.843624 0)scale(0.996264)"/>
       <use xlink:href="#CMSS17-31" transform="translate(93.687247 0)scale(0.996264)"/>
       <use xlink:href="#CMSS17-32" transform="translate(140.530871 0)scale(0.996264)"/>
      </g>
     </g>
    </g>
    <g id="xtick_2">
     <g id="line2d_10">
      <g>
       <use xlink:href="#mec6b4dffe5" x="211.86642" y="399.973224" style="stroke: #000000; stroke-width: 0.8"/>
      </g>
     </g>
     <g id="text_9">
      <!-- 2014 -->
      <g transform="translate(200.160439 415.275404)scale(0.12 -0.12)">
       <use xlink:href="#CMSS17-32" transform="scale(0.996264)"/>
       <use xlink:href="#CMSS17-30" transform="translate(46.843624 0)scale(0.996264)"/>
       <use xlink:href="#CMSS17-31" transform="translate(93.687247 0)scale(0.996264)"/>
       <use xlink:href="#CMSS17-34" transform="translate(140.530871 0)scale(0.996264)"/>
      </g>
     </g>
    </g>
    <g id="xtick_3">
     <g id="line2d_11">
      <g>
       <use xlink:href="#mec6b4dffe5" x="322.044067" y="399.973224" style="stroke: #000000; stroke-width: 0.8"/>
      </g>
     </g>
     <g id="text_10">
      <!-- 2016 -->
      <g transform="translate(310.338086 415.275404)scale(0.12 -0.12)">
       <use xlink:href="#CMSS17-32" transform="scale(0.996264)"/>
       <use xlink:href="#CMSS17-30" transform="translate(46.843624 0)scale(0.996264)"/>
       <use xlink:href="#CMSS17-31" transform="translate(93.687247 0)scale(0.996264)"/>
       <use xlink:href="#CMSS17-36" transform="translate(140.530871 0)scale(0.996264)"/>
      </g>
     </g>
    </g>
    <g id="xtick_4">
     <g id="line2d_12">
      <g>
       <use xlink:href="#mec6b4dffe5" x="432.221714" y="399.973224" style="stroke: #000000; stroke-width: 0.8"/>
      </g>
     </g>
     <g id="text_11">
      <!-- 2018 -->
      <g transform="translate(420.515733 415.275404)scale(0.12 -0.12)">
       <defs>
        <path id="CMSS17-38" d="M 1933 2246 
C 2419 2406 2669 2793 2669 3174 
C 2669 3774 2157 4288 1504 4288 
C 826 4288 333 3755 333 3174 
C 333 2799 576 2412 1069 2246 
C 442 2003 250 1516 250 1152 
C 250 448 819 -128 1498 -128 
C 2202 -128 2752 460 2752 1152 
C 2752 1574 2502 2022 1933 2246 
z
M 1504 2438 
C 1075 2438 787 2728 787 3167 
C 787 3613 1075 3897 1504 3897 
C 1901 3897 2214 3639 2214 3167 
C 2214 2703 1907 2438 1504 2438 
z
M 1504 268 
C 1139 268 749 518 749 1158 
C 749 1817 1184 2048 1498 2048 
C 1843 2048 2253 1804 2253 1158 
C 2253 492 1830 268 1504 268 
z
" transform="scale(0.015625)"/>
       </defs>
       <use xlink:href="#CMSS17-32" transform="scale(0.996264)"/>
       <use xlink:href="#CMSS17-30" transform="translate(46.843624 0)scale(0.996264)"/>
       <use xlink:href="#CMSS17-31" transform="translate(93.687247 0)scale(0.996264)"/>
       <use xlink:href="#CMSS17-38" transform="translate(140.530871 0)scale(0.996264)"/>
      </g>
     </g>
    </g>
    <g id="xtick_5">
     <g id="line2d_13">
      <g>
       <use xlink:href="#mec6b4dffe5" x="542.399361" y="399.973224" style="stroke: #000000; stroke-width: 0.8"/>
      </g>
     </g>
     <g id="text_12">
      <!-- 2020 -->
      <g transform="translate(530.69338 415.275404)scale(0.12 -0.12)">
       <use xlink:href="#CMSS17-32" transform="scale(0.996264)"/>
       <use xlink:href="#CMSS17-30" transform="translate(46.843624 0)scale(0.996264)"/>
       <use xlink:href="#CMSS17-32" transform="translate(93.687247 0)scale(0.996264)"/>
       <use xlink:href="#CMSS17-30" transform="translate(140.530871 0)scale(0.996264)"/>
      </g>
     </g>
    </g>
    <g id="xtick_6">
     <g id="line2d_14">
      <g>
       <use xlink:href="#mec6b4dffe5" x="652.577007" y="399.973224" style="stroke: #000000; stroke-width: 0.8"/>
      </g>
     </g>
     <g id="text_13">
      <!-- 2022 -->
      <g transform="translate(640.871027 415.275404)scale(0.12 -0.12)">
       <use xlink:href="#CMSS17-32" transform="scale(0.996264)"/>
       <use xlink:href="#CMSS17-30" transform="translate(46.843624 0)scale(0.996264)"/>
       <use xlink:href="#CMSS17-32" transform="translate(93.687247 0)scale(0.996264)"/>
       <use xlink:href="#CMSS17-32" transform="translate(140.530871 0)scale(0.996264)"/>
      </g>
     </g>
    </g>
   </g>
   <g id="matplotlib.axis_4">
    <g id="ytick_5">
     <g id="line2d_15">
      <g>
       <use xlink:href="#m6e8f0027b5" x="44.075045" y="399.973224" style="stroke: #000000; stroke-width: 0.8"/>
      </g>
     </g>
     <g id="text_14">
      <!-- 0% -->
      <g transform="translate(31.222055 404.124314)scale(0.12 -0.12)">
       <use xlink:href="#CMSS17-30" transform="scale(0.996264)"/>
      </g>
     </g>
    </g>
    <g id="ytick_6">
     <g id="line2d_16">
      <g>
       <use xlink:href="#m6e8f0027b5" x="44.075045" y="344.752998" style="stroke: #000000; stroke-width: 0.8"/>
      </g>
     </g>
     <g id="text_15">
      <!-- 20% -->
      <g transform="translate(25.369064 348.904088)scale(0.12 -0.12)">
       <use xlink:href="#CMSS17-32" transform="scale(0.996264)"/>
       <use xlink:href="#CMSS17-30" transform="translate(46.843624 0)scale(0.996264)"/>
      </g>
     </g>
    </g>
    <g id="ytick_7">
     <g id="line2d_17">
      <g>
       <use xlink:href="#m6e8f0027b5" x="44.075045" y="289.532772" style="stroke: #000000; stroke-width: 0.8"/>
      </g>
     </g>
     <g id="text_16">
      <!-- 40% -->
      <g transform="translate(25.369064 293.683862)scale(0.12 -0.12)">
       <use xlink:href="#CMSS17-34" transform="scale(0.996264)"/>
       <use xlink:href="#CMSS17-30" transform="translate(46.843624 0)scale(0.996264)"/>
      </g>
     </g>
    </g>
    <g id="ytick_8">
     <g id="line2d_18">
      <g>
       <use xlink:href="#m6e8f0027b5" x="44.075045" y="234.312546" style="stroke: #000000; stroke-width: 0.8"/>
      </g>
     </g>
     <g id="text_17">
      <!-- 60% -->
      <g transform="translate(25.369064 238.463635)scale(0.12 -0.12)">
       <use xlink:href="#CMSS17-36" transform="scale(0.996264)"/>
       <use xlink:href="#CMSS17-30" transform="translate(46.843624 0)scale(0.996264)"/>
      </g>
     </g>
    </g>
    <g id="text_18">
     <!-- independent list coverage -->
     <g transform="translate(18.269588 388.246353)rotate(-90)scale(0.16 -0.16)">
      <use xlink:href="#CMSS17-69" transform="scale(0.996264)"/>
      <use xlink:href="#CMSS17-6e" transform="translate(22.180723 0)scale(0.996264)"/>
      <use xlink:href="#CMSS17-64" transform="translate(70.385666 0)scale(0.996264)"/>
      <use xlink:href="#CMSS17-65" transform="translate(118.590609 0)scale(0.996264)"/>
      <use xlink:href="#CMSS17-70" transform="translate(160.229431 0)scale(0.996264)"/>
      <use xlink:href="#CMSS17-65" transform="translate(211.036813 0)scale(0.996264)"/>
      <use xlink:href="#CMSS17-6e" transform="translate(252.675635 0)scale(0.996264)"/>
      <use xlink:href="#CMSS17-64" transform="translate(300.880578 0)scale(0.996264)"/>
      <use xlink:href="#CMSS17-65" transform="translate(349.085522 0)scale(0.996264)"/>
      <use xlink:href="#CMSS17-6e" transform="translate(390.724344 0)scale(0.996264)"/>
      <use xlink:href="#CMSS17-74" transform="translate(438.929287 0)scale(0.996264)"/>
      <use xlink:href="#CMSS17-6c" transform="translate(503.989966 0)scale(0.996264)"/>
      <use xlink:href="#CMSS17-69" transform="translate(526.170689 0)scale(0.996264)"/>
      <use xlink:href="#CMSS17-73" transform="translate(548.351412 0)scale(0.996264)"/>
      <use xlink:href="#CMSS17-74" transform="translate(584.264954 0)scale(0.996264)"/>
      <use xlink:href="#CMSS17-63" transform="translate(649.325634 0)scale(0.996264)"/>
      <use xlink:href="#CMSS17-6f" transform="translate(690.964456 0)scale(0.996264)"/>
      <use xlink:href="#CMSS17-76" transform="translate(737.808079 0)scale(0.996264)"/>
      <use xlink:href="#CMSS17-65" transform="translate(780.808221 0)scale(0.996264)"/>
      <use xlink:href="#CMSS17-72" transform="translate(822.447043 0)scale(0.996264)"/>
      <use xlink:href="#CMSS17-61" transform="translate(854.356816 0)scale(0.996264)"/>
      <use xlink:href="#CMSS17-67" transform="translate(899.278736 0)scale(0.996264)"/>
      <use xlink:href="#CMSS17-65" transform="translate(946.12236 0)scale(0.996264)"/>
     </g>
    </g>
   </g>
   <g id="line2d_19">
    <path d="M 74.144361 363.116413 
L 78.735096 359.325697 
L 83.325832 363.861409 
L 87.916567 359.175746 
L 92.507302 359.104634 
L 97.098038 364.772588 
L 101.688773 356.214414 
L 106.279508 365.149715 
L 110.870243 367.773589 
L 115.460979 362.095114 
L 120.051714 360.356153 
L 124.642449 348.264627 
L 129.233185 347.470061 
L 133.82392 349.723407 
L 138.414655 357.899727 
L 143.00539 354.949606 
L 147.596126 355.624637 
L 152.186861 352.81538 
L 156.777596 350.358034 
L 161.368332 350.989401 
L 165.959067 347.840245 
L 170.549802 346.231693 
L 175.140537 343.341649 
L 179.731273 338.819456 
L 184.322008 341.273041 
L 188.912743 339.883832 
L 193.503479 347.648339 
L 198.094214 343.70372 
L 202.684949 342.081888 
L 207.275684 342.107081 
L 211.86642 336.368237 
L 216.457155 347.808394 
L 221.04789 345.930419 
L 225.638626 345.785514 
L 230.229361 341.985302 
L 239.410832 329.194795 
L 244.001567 331.457008 
L 248.592302 329.83254 
L 253.183037 329.263358 
L 257.773773 324.640429 
L 262.364508 320.412065 
L 266.955243 318.922689 
L 271.545979 303.430945 
L 276.136714 325.255338 
L 280.727449 319.97138 
L 285.318184 325.442858 
L 289.90892 320.976995 
L 294.499655 317.88974 
L 299.09039 319.554582 
L 303.681126 319.900188 
L 308.271861 323.195497 
L 312.862596 313.32118 
L 317.453331 317.845437 
L 322.044067 312.648504 
L 326.634802 310.999612 
L 331.225537 309.227321 
L 335.816273 316.164839 
L 340.407008 316.57691 
L 344.997743 290.411942 
L 349.588478 284.438894 
L 354.179214 273.577057 
L 358.769949 269.073113 
L 363.360684 274.719727 
L 367.95142 268.00907 
L 372.542155 265.203329 
L 377.13289 259.88729 
L 381.723625 263.719487 
L 386.314361 272.34721 
L 390.905096 268.935896 
L 395.495831 260.388668 
L 400.086567 264.637499 
L 404.677302 254.226641 
L 409.268037 266.341145 
L 413.858772 261.083686 
L 418.449508 258.72378 
L 423.040243 264.387469 
L 427.630978 260.286799 
L 432.221714 255.623228 
L 436.812449 255.299355 
L 441.403184 270.757689 
L 445.993919 277.728158 
L 450.584655 270.255675 
L 455.17539 241.720266 
L 459.766125 230.103394 
L 464.356861 247.802062 
L 468.947596 245.774008 
L 473.538331 252.386018 
L 478.129066 245.69792 
L 482.719802 251.959686 
L 487.310537 248.859624 
L 491.901272 247.934367 
L 496.492008 264.163999 
L 501.082743 262.229554 
L 505.673478 274.002093 
L 510.264213 266.370249 
L 514.854949 251.006567 
L 519.445684 269.484319 
L 524.036419 295.048918 
L 528.627155 299.885482 
L 533.21789 286.486991 
L 537.808625 271.466134 
L 542.399361 267.412629 
L 546.990096 278.482204 
L 551.580831 290.037619 
L 556.171566 303.19692 
L 560.762302 281.027878 
L 565.353037 266.878546 
L 569.943772 258.949466 
L 574.534508 276.671174 
L 579.125243 277.829134 
L 583.715978 282.577668 
L 588.306713 289.70776 
L 592.897449 276.451718 
L 597.488184 283.274612 
L 602.078919 283.078432 
L 606.669655 278.061866 
L 611.26039 276.974512 
L 615.851125 288.38737 
L 620.44186 276.619856 
L 625.032596 287.796011 
L 629.623331 277.98239 
L 634.214066 282.786718 
L 638.804802 284.568325 
L 643.395537 281.221201 
L 647.986272 275.01806 
L 652.577007 277.883393 
L 657.167743 269.885586 
L 661.758478 291.10089 
L 666.349213 304.749499 
L 670.939949 312.549941 
L 675.530684 287.09226 
L 675.530684 287.09226 
" clip-path="url(#p23f988a228)" style="fill: none; stroke: #0015bc; stroke-width: 1.5; stroke-linecap: square"/>
   </g>
   <g id="line2d_20">
    <path d="M 74.144361 353.022793 
L 78.735096 355.666833 
L 83.325832 347.975638 
L 87.916567 352.471305 
L 92.507302 349.231311 
L 97.098038 354.477272 
L 101.688773 354.914966 
L 106.279508 352.734357 
L 110.870243 360.095299 
L 115.460979 353.358193 
L 120.051714 352.171956 
L 124.642449 340.802661 
L 129.233185 343.195855 
L 133.82392 346.017109 
L 138.414655 350.330723 
L 143.00539 349.745554 
L 147.596126 334.232508 
L 152.186861 339.671138 
L 156.777596 331.930365 
L 161.368332 338.899166 
L 165.959067 339.697929 
L 170.549802 326.213925 
L 175.140537 334.656484 
L 179.731273 327.839234 
L 184.322008 327.866442 
L 188.912743 325.621117 
L 193.503479 332.803739 
L 198.094214 336.924384 
L 202.684949 345.161912 
L 207.275684 342.277358 
L 211.86642 342.0867 
L 216.457155 345.041726 
L 221.04789 343.681128 
L 225.638626 339.124245 
L 230.229361 328.186164 
L 234.820096 323.475249 
L 239.410832 324.434603 
L 244.001567 333.601083 
L 248.592302 332.954012 
L 253.183037 341.986129 
L 257.773773 343.11375 
L 262.364508 336.702911 
L 266.955243 336.046715 
L 271.545979 336.473383 
L 276.136714 338.472105 
L 280.727449 343.617535 
L 285.318184 343.857998 
L 289.90892 339.811039 
L 294.499655 344.094783 
L 299.09039 345.616327 
L 303.681126 341.969276 
L 308.271861 347.603432 
L 312.862596 342.550463 
L 317.453331 338.14731 
L 322.044067 341.055832 
L 326.634802 334.913707 
L 331.225537 332.884348 
L 335.816273 329.825307 
L 340.407008 329.122892 
L 344.997743 314.356124 
L 349.588478 322.672639 
L 354.179214 328.028519 
L 358.769949 326.726006 
L 363.360684 323.007394 
L 367.95142 321.680931 
L 372.542155 321.247253 
L 377.13289 315.536569 
L 381.723625 316.124058 
L 386.314361 341.389859 
L 390.905096 324.921919 
L 395.495831 318.05607 
L 400.086567 303.814196 
L 404.677302 300.490801 
L 409.268037 311.319404 
L 413.858772 319.979705 
L 418.449508 317.157242 
L 423.040243 313.945664 
L 427.630978 308.085018 
L 432.221714 307.854528 
L 436.812449 305.948537 
L 441.403184 310.393246 
L 445.993919 303.956472 
L 450.584655 291.2705 
L 455.17539 295.980313 
L 459.766125 292.181461 
L 464.356861 292.13987 
L 468.947596 298.829084 
L 473.538331 293.0344 
L 478.129066 293.29939 
L 482.719802 296.824049 
L 487.310537 288.735525 
L 491.901272 294.413569 
L 496.492008 301.805806 
L 501.082743 297.95313 
L 505.673478 286.706884 
L 510.264213 282.238082 
L 514.854949 278.898884 
L 519.445684 291.84277 
L 524.036419 311.681465 
L 528.627155 314.557536 
L 533.21789 297.008859 
L 537.808625 294.826088 
L 542.399361 291.569387 
L 546.990096 290.553854 
L 551.580831 301.650776 
L 556.171566 303.786469 
L 565.353037 280.669376 
L 569.943772 289.460385 
L 574.534508 280.952963 
L 579.125243 281.478708 
L 583.715978 277.459642 
L 588.306713 272.966603 
L 592.897449 270.450207 
L 597.488184 266.597304 
L 602.078919 264.215414 
L 606.669655 265.217463 
L 611.26039 256.691747 
L 615.851125 261.536604 
L 620.44186 262.524185 
L 625.032596 256.539182 
L 629.623331 267.512071 
L 634.214066 277.726181 
L 638.804802 268.774799 
L 643.395537 270.603243 
L 647.986272 270.583028 
L 652.577007 266.722768 
L 657.167743 268.994828 
L 661.758478 274.903489 
L 666.349213 276.35176 
L 670.939949 282.130555 
L 675.530684 262.718717 
L 675.530684 262.718717 
" clip-path="url(#p23f988a228)" style="fill: none; stroke: #ff0000; stroke-width: 1.5; stroke-linecap: square"/>
   </g>
   <g id="patch_6">
    <path d="M 44.075045 399.973224 
L 44.075045 212.224455 
" style="fill: none; stroke: #000000; stroke-width: 0.8; stroke-linejoin: miter; stroke-linecap: square"/>
   </g>
   <g id="patch_7">
    <path d="M 44.075045 399.973224 
L 705.6 399.973224 
" style="fill: none; stroke: #000000; stroke-width: 0.8; stroke-linejoin: miter; stroke-linecap: square"/>
   </g>
  </g>
  <g id="text_19">
   <!-- A -->
   <g transform="translate(68.4 22.32)scale(0.2 -0.2)">
    <defs>
     <path id="CMSS17-41" d="M 2272 4416 
L 1722 4416 
L 166 0 
L 653 0 
L 1101 1280 
L 2816 1280 
L 3270 0 
L 3827 0 
L 2272 4416 
z
M 2694 1638 
L 1222 1638 
C 1530 2530 1914 3638 1958 3924 
L 1965 3924 
C 2010 3663 2138 3281 2246 2956 
L 2694 1638 
z
" transform="scale(0.015625)"/>
    </defs>
    <use xlink:href="#CMSS17-41" transform="scale(0.996264)"/>
   </g>
  </g>
  <g id="text_20">
   <!-- B -->
   <g transform="translate(68.4 225.36)scale(0.2 -0.2)">
    <defs>
     <path id="CMSS17-42" d="M 570 4416 
L 570 0 
L 2163 0 
C 3034 0 3667 575 3667 1200 
C 3667 1684 3251 2175 2502 2316 
C 3334 2559 3501 3039 3501 3311 
C 3501 3880 2874 4416 1997 4416 
L 570 4416 
z
M 1088 2496 
L 1088 4057 
L 1824 4057 
C 2483 4057 3002 3722 3002 3305 
C 3002 2925 2592 2496 1766 2496 
L 1088 2496 
z
M 1088 358 
L 1088 2105 
L 1939 2105 
C 2630 2105 3162 1678 3162 1206 
C 3162 772 2694 358 1984 358 
L 1088 358 
z
" transform="scale(0.015625)"/>
    </defs>
    <use xlink:href="#CMSS17-42" transform="scale(0.996264)"/>
   </g>
  </g>
 </g>
 <defs>
  <clipPath id="p4e44ab0bbb">
   <rect x="44.075045" y="7.2" width="661.524955" height="187.748769"/>
  </clipPath>
  <clipPath id="p23f988a228">
   <rect x="44.075045" y="212.224455" width="661.524955" height="187.748769"/>
  </clipPath>
 </defs>
</svg>
