<?xml version="1.0" encoding="utf-8" standalone="no"?>
<!DOCTYPE svg PUBLIC "-//W3C//DTD SVG 1.1//EN"
  "http://www.w3.org/Graphics/SVG/1.1/DTD/svg11.dtd">
<svg xmlns:xlink="http://www.w3.org/1999/xlink" width="711.226554pt" height="424.8pt" viewBox="0 0 711.226554 424.8" xmlns="http://www.w3.org/2000/svg" version="1.1">
 <metadata>
  <rdf:RDF xmlns:dc="http://purl.org/dc/elements/1.1/" xmlns:cc="http://creativecommons.org/ns#" xmlns:rdf="http://www.w3.org/1999/02/22-rdf-syntax-ns#">
   <cc:Work>
    <dc:type rdf:resource="http://purl.org/dc/dcmitype/StillImage"/>
    <dc:date>2022-12-01T08:45:49.148343</dc:date>
    <dc:format>image/svg+xml</dc:format>
    <dc:creator>
     <cc:Agent>
      <dc:title>Matplotlib v3.5.2, https://matplotlib.org/</dc:title>
     </cc:Agent>
    </dc:creator>
   </cc:Work>
  </rdf:RDF>
 </metadata>
 <defs>
  <style type="text/css">*{stroke-linejoin: round; stroke-linecap: butt}</style>
 </defs>
 <g id="figure_1">
  <g id="patch_1">
   <path d="M -0 424.8 
L 711.226554 424.8 
L 711.226554 0 
L -0 0 
z
" style="fill: #ffffff"/>
  </g>
  <g id="axes_1">
   <g id="patch_2">
    <path d="M 44.075045 194.948769 
L 702.625763 194.948769 
L 702.625763 7.2 
L 44.075045 7.2 
z
" style="fill: #ffffff"/>
   </g>
   <g id="PolyCollection_1">
    <defs>
     <path id="m1c85ea3bc0" d="M 74.009169 -270.483314 
L 74.009169 -266.115576 
L 78.916402 -297.619651 
L 83.823635 -270.547084 
L 88.730869 -284.635915 
L 93.638102 -288.960094 
L 98.545335 -282.93621 
L 103.452569 -278.228722 
L 108.359802 -281.890575 
L 113.267036 -272.521766 
L 118.174269 -276.321995 
L 123.081502 -268.014887 
L 127.988736 -269.991868 
L 132.895969 -277.490198 
L 137.803202 -272.969563 
L 142.710436 -277.985481 
L 147.617669 -277.835586 
L 152.524902 -266.846277 
L 157.432136 -272.869128 
L 162.339369 -279.748531 
L 167.246603 -261.573662 
L 172.153836 -281.783822 
L 177.061069 -285.209938 
L 181.968303 -278.524749 
L 186.875536 -290.595568 
L 191.782769 -289.453756 
L 196.690003 -285.709262 
L 201.597236 -294.790438 
L 206.50447 -282.306607 
L 211.411703 -279.715664 
L 216.318936 -276.214059 
L 221.22617 -285.14309 
L 226.133403 -281.228569 
L 231.040636 -271.947489 
L 235.94787 -283.05122 
L 240.855103 -289.986903 
L 245.762336 -296.20561 
L 250.66957 -306.194532 
L 255.576803 -281.923403 
L 260.484037 -298.591793 
L 265.39127 -298.078905 
L 270.298503 -311.144391 
L 275.205737 -306.554904 
L 280.11297 -295.541679 
L 285.020203 -317.103469 
L 289.927437 -296.976642 
L 294.83467 -288.268336 
L 299.741904 -302.820721 
L 304.649137 -304.025052 
L 309.55637 -311.555442 
L 314.463604 -302.583128 
L 319.370837 -299.498079 
L 324.27807 -307.510319 
L 329.185304 -315.204688 
L 334.092537 -311.677893 
L 338.99977 -309.423831 
L 343.907004 -307.857621 
L 348.814237 -316.084983 
L 353.721471 -294.921483 
L 358.628704 -302.622248 
L 363.535937 -341.382621 
L 368.443171 -335.106841 
L 373.350404 -350.552938 
L 378.257637 -363.754102 
L 383.164871 -354.145692 
L 388.072104 -346.949005 
L 392.979338 -352.978995 
L 397.886571 -360.676496 
L 402.793804 -355.609442 
L 407.701038 -347.403951 
L 412.608271 -348.430306 
L 417.515504 -363.076776 
L 422.422738 -359.352171 
L 427.329971 -367.604178 
L 432.237205 -367.592694 
L 437.144438 -369.263439 
L 442.051671 -370.500922 
L 446.958905 -363.605296 
L 451.866138 -366.539968 
L 456.773371 -366.723879 
L 461.680605 -364.628643 
L 466.587838 -349.823634 
L 471.495071 -343.70557 
L 476.402305 -336.657451 
L 481.309538 -385.267184 
L 486.216772 -409.158547 
L 491.124005 -392.597317 
L 496.031238 -397.880707 
L 500.938472 -383.254524 
L 505.845705 -391.799571 
L 510.752938 -383.85434 
L 515.660172 -388.139443 
L 520.567405 -386.616052 
L 525.474639 -371.258533 
L 530.381872 -370.560657 
L 535.289105 -365.857276 
L 540.196339 -373.388283 
L 545.103572 -389.832528 
L 550.010805 -374.635568 
L 554.918039 -345.532125 
L 559.825272 -342.425414 
L 564.732505 -354.494956 
L 569.639739 -367.128333 
L 574.546972 -372.340427 
L 579.454206 -364.867599 
L 584.361439 -346.301548 
L 589.268672 -335.105952 
L 594.175906 -358.818513 
L 599.083139 -382.035386 
L 603.990372 -389.150417 
L 608.897606 -374.287079 
L 613.804839 -372.264406 
L 618.712073 -364.175441 
L 623.619306 -366.877707 
L 628.526539 -378.308367 
L 633.433773 -374.976287 
L 638.341006 -379.368034 
L 643.248239 -375.106356 
L 648.155473 -375.052534 
L 653.062706 -369.227892 
L 657.96994 -380.994409 
L 662.877173 -367.559606 
L 667.784406 -376.410199 
L 672.69164 -361.655787 
L 672.69164 -363.831995 
L 672.69164 -363.831995 
L 667.784406 -378.196953 
L 662.877173 -369.189551 
L 657.96994 -382.898911 
L 653.062706 -370.983229 
L 648.155473 -376.9718 
L 643.248239 -376.696793 
L 638.341006 -381.103764 
L 633.433773 -376.497683 
L 628.526539 -379.977508 
L 623.619306 -368.431721 
L 618.712073 -365.90398 
L 613.804839 -373.570676 
L 608.897606 -376.033459 
L 603.990372 -390.645863 
L 599.083139 -383.710382 
L 594.175906 -360.605688 
L 589.268672 -336.34804 
L 584.361439 -347.627868 
L 579.454206 -365.998015 
L 574.546972 -373.641196 
L 569.639739 -368.554572 
L 564.732505 -355.962719 
L 559.825272 -343.750215 
L 554.918039 -347.114992 
L 550.010805 -376.418026 
L 545.103572 -391.762541 
L 540.196339 -375.534566 
L 535.289105 -368.13911 
L 530.381872 -372.663399 
L 525.474639 -373.411814 
L 520.567405 -389.37156 
L 515.660172 -390.293907 
L 510.752938 -386.054559 
L 505.845705 -394.369373 
L 500.938472 -385.701471 
L 496.031238 -400.128662 
L 491.124005 -395.105308 
L 486.216772 -411.432742 
L 481.309538 -388.717635 
L 476.402305 -339.149257 
L 471.495071 -345.511326 
L 466.587838 -352.363918 
L 461.680605 -367.446296 
L 456.773371 -369.41419 
L 451.866138 -368.833007 
L 446.958905 -366.034399 
L 442.051671 -373.329993 
L 437.144438 -371.761781 
L 432.237205 -370.503573 
L 427.329971 -370.791052 
L 422.422738 -362.61184 
L 417.515504 -366.190673 
L 412.608271 -352.036224 
L 407.701038 -351.48161 
L 402.793804 -360.480018 
L 397.886571 -365.152356 
L 392.979338 -357.671298 
L 388.072104 -351.545396 
L 383.164871 -359.257357 
L 378.257637 -368.637615 
L 373.350404 -355.894512 
L 368.443171 -340.583412 
L 363.535937 -347.090767 
L 358.628704 -307.193564 
L 353.721471 -298.449238 
L 348.814237 -320.40459 
L 343.907004 -312.9147 
L 338.99977 -313.99725 
L 334.092537 -316.415778 
L 329.185304 -320.106507 
L 324.27807 -311.966604 
L 319.370837 -303.601972 
L 314.463604 -307.038098 
L 309.55637 -319.063876 
L 304.649137 -309.713022 
L 299.741904 -308.44656 
L 294.83467 -293.090901 
L 289.927437 -303.116426 
L 285.020203 -324.227315 
L 280.11297 -301.110604 
L 275.205737 -311.771592 
L 270.298503 -317.904127 
L 265.39127 -303.484951 
L 260.484037 -303.771224 
L 255.576803 -286.851572 
L 250.66957 -312.484164 
L 245.762336 -303.706755 
L 240.855103 -295.265027 
L 235.94787 -285.902808 
L 231.040636 -275.600548 
L 226.133403 -285.907404 
L 221.22617 -289.486079 
L 216.318936 -280.893088 
L 211.411703 -283.775208 
L 206.50447 -287.372174 
L 201.597236 -299.759557 
L 196.690003 -290.603958 
L 191.782769 -294.973036 
L 186.875536 -297.745688 
L 181.968303 -284.59048 
L 177.061069 -290.431358 
L 172.153836 -287.966478 
L 167.246603 -265.256295 
L 162.339369 -285.293515 
L 157.432136 -277.715267 
L 152.524902 -271.756642 
L 147.617669 -283.897642 
L 142.710436 -283.429623 
L 137.803202 -277.663509 
L 132.895969 -283.202711 
L 127.988736 -276.197463 
L 123.081502 -272.048483 
L 118.174269 -279.244314 
L 113.267036 -276.252812 
L 108.359802 -286.182277 
L 103.452569 -282.040511 
L 98.545335 -287.188752 
L 93.638102 -293.687673 
L 88.730869 -288.694734 
L 83.823635 -274.258128 
L 78.916402 -302.743812 
L 74.009169 -270.483314 
z
" style="stroke: #0015bc; stroke-opacity: 0.2"/>
    </defs>
    <g clip-path="url(#p74ab090703)">
     <use xlink:href="#m1c85ea3bc0" x="0" y="424.8" style="fill: #0015bc; fill-opacity: 0.2; stroke: #0015bc; stroke-opacity: 0.2"/>
    </g>
   </g>
   <g id="PolyCollection_2">
    <defs>
     <path id="me4071f8d8f" d="M 74.009169 -261.747839 
L 74.009169 -266.115576 
L 78.916402 -297.619651 
L 83.823635 -270.547084 
L 88.730869 -284.635915 
L 93.638102 -288.960094 
L 98.545335 -282.93621 
L 103.452569 -278.228722 
L 108.359802 -281.890575 
L 113.267036 -272.521766 
L 118.174269 -276.321995 
L 123.081502 -268.014887 
L 127.988736 -269.991868 
L 132.895969 -277.490198 
L 137.803202 -272.969563 
L 142.710436 -277.985481 
L 147.617669 -277.835586 
L 152.524902 -266.846277 
L 157.432136 -272.869128 
L 162.339369 -279.748531 
L 167.246603 -261.573662 
L 172.153836 -281.783822 
L 177.061069 -285.209938 
L 181.968303 -278.524749 
L 186.875536 -290.595568 
L 191.782769 -289.453756 
L 196.690003 -285.709262 
L 201.597236 -294.790438 
L 206.50447 -282.306607 
L 211.411703 -279.715664 
L 216.318936 -276.214059 
L 221.22617 -285.14309 
L 226.133403 -281.228569 
L 231.040636 -271.947489 
L 235.94787 -283.05122 
L 240.855103 -289.986903 
L 245.762336 -296.20561 
L 250.66957 -306.194532 
L 255.576803 -281.923403 
L 260.484037 -298.591793 
L 265.39127 -298.078905 
L 270.298503 -311.144391 
L 275.205737 -306.554904 
L 280.11297 -295.541679 
L 285.020203 -317.103469 
L 289.927437 -296.976642 
L 294.83467 -288.268336 
L 299.741904 -302.820721 
L 304.649137 -304.025052 
L 309.55637 -311.555442 
L 314.463604 -302.583128 
L 319.370837 -299.498079 
L 324.27807 -307.510319 
L 329.185304 -315.204688 
L 334.092537 -311.677893 
L 338.99977 -309.423831 
L 343.907004 -307.857621 
L 348.814237 -316.084983 
L 353.721471 -294.921483 
L 358.628704 -302.622248 
L 363.535937 -341.382621 
L 368.443171 -335.106841 
L 373.350404 -350.552938 
L 378.257637 -363.754102 
L 383.164871 -354.145692 
L 388.072104 -346.949005 
L 392.979338 -352.978995 
L 397.886571 -360.676496 
L 402.793804 -355.609442 
L 407.701038 -347.403951 
L 412.608271 -348.430306 
L 417.515504 -363.076776 
L 422.422738 -359.352171 
L 427.329971 -367.604178 
L 432.237205 -367.592694 
L 437.144438 -369.263439 
L 442.051671 -370.500922 
L 446.958905 -363.605296 
L 451.866138 -366.539968 
L 456.773371 -366.723879 
L 461.680605 -364.628643 
L 466.587838 -349.823634 
L 471.495071 -343.70557 
L 476.402305 -336.657451 
L 481.309538 -385.267184 
L 486.216772 -409.158547 
L 491.124005 -392.597317 
L 496.031238 -397.880707 
L 500.938472 -383.254524 
L 505.845705 -391.799571 
L 510.752938 -383.85434 
L 515.660172 -388.139443 
L 520.567405 -386.616052 
L 525.474639 -371.258533 
L 530.381872 -370.560657 
L 535.289105 -365.857276 
L 540.196339 -373.388283 
L 545.103572 -389.832528 
L 550.010805 -374.635568 
L 554.918039 -345.532125 
L 559.825272 -342.425414 
L 564.732505 -354.494956 
L 569.639739 -367.128333 
L 574.546972 -372.340427 
L 579.454206 -364.867599 
L 584.361439 -346.301548 
L 589.268672 -335.105952 
L 594.175906 -358.818513 
L 599.083139 -382.035386 
L 603.990372 -389.150417 
L 608.897606 -374.287079 
L 613.804839 -372.264406 
L 618.712073 -364.175441 
L 623.619306 -366.877707 
L 628.526539 -378.308367 
L 633.433773 -374.976287 
L 638.341006 -379.368034 
L 643.248239 -375.106356 
L 648.155473 -375.052534 
L 653.062706 -369.227892 
L 657.96994 -380.994409 
L 662.877173 -367.559606 
L 667.784406 -376.410199 
L 672.69164 -361.655787 
L 672.69164 -359.479579 
L 672.69164 -359.479579 
L 667.784406 -374.623445 
L 662.877173 -365.929662 
L 657.96994 -379.089907 
L 653.062706 -367.472556 
L 648.155473 -373.133268 
L 643.248239 -373.515919 
L 638.341006 -377.632303 
L 633.433773 -373.454892 
L 628.526539 -376.639226 
L 623.619306 -365.323692 
L 618.712073 -362.446902 
L 613.804839 -370.958135 
L 608.897606 -372.540698 
L 603.990372 -387.654972 
L 599.083139 -380.360389 
L 594.175906 -357.031337 
L 589.268672 -333.863864 
L 584.361439 -344.975228 
L 579.454206 -363.737183 
L 574.546972 -371.039658 
L 569.639739 -365.702094 
L 564.732505 -353.027193 
L 559.825272 -341.100612 
L 554.918039 -343.949257 
L 550.010805 -372.85311 
L 545.103572 -387.902514 
L 540.196339 -371.242 
L 535.289105 -363.575441 
L 530.381872 -368.457915 
L 525.474639 -369.105251 
L 520.567405 -383.860543 
L 515.660172 -385.984979 
L 510.752938 -381.654121 
L 505.845705 -389.229768 
L 500.938472 -380.807576 
L 496.031238 -395.632753 
L 491.124005 -390.089326 
L 486.216772 -406.884352 
L 481.309538 -381.816732 
L 476.402305 -334.165645 
L 471.495071 -341.899814 
L 466.587838 -347.283351 
L 461.680605 -361.810989 
L 456.773371 -364.033568 
L 451.866138 -364.24693 
L 446.958905 -361.176193 
L 442.051671 -367.671852 
L 437.144438 -366.765096 
L 432.237205 -364.681815 
L 427.329971 -364.417304 
L 422.422738 -356.092503 
L 417.515504 -359.96288 
L 412.608271 -344.824388 
L 407.701038 -343.326292 
L 402.793804 -350.738865 
L 397.886571 -356.200636 
L 392.979338 -348.286691 
L 388.072104 -342.352615 
L 383.164871 -349.034028 
L 378.257637 -358.87059 
L 373.350404 -345.211364 
L 368.443171 -329.630271 
L 363.535937 -335.674476 
L 358.628704 -298.050932 
L 353.721471 -291.393728 
L 348.814237 -311.765375 
L 343.907004 -302.800541 
L 338.99977 -304.850412 
L 334.092537 -306.940008 
L 329.185304 -310.30287 
L 324.27807 -303.054034 
L 319.370837 -295.394186 
L 314.463604 -298.128159 
L 309.55637 -304.047008 
L 304.649137 -298.337083 
L 299.741904 -297.194881 
L 294.83467 -283.44577 
L 289.927437 -290.836859 
L 285.020203 -309.979623 
L 280.11297 -289.972753 
L 275.205737 -301.338216 
L 270.298503 -304.384655 
L 265.39127 -292.672858 
L 260.484037 -293.412362 
L 255.576803 -276.995234 
L 250.66957 -299.9049 
L 245.762336 -288.704465 
L 240.855103 -284.70878 
L 235.94787 -280.199633 
L 231.040636 -268.294429 
L 226.133403 -276.549735 
L 221.22617 -280.800102 
L 216.318936 -271.535031 
L 211.411703 -275.65612 
L 206.50447 -277.24104 
L 201.597236 -289.821318 
L 196.690003 -280.814567 
L 191.782769 -283.934476 
L 186.875536 -283.445448 
L 181.968303 -272.459018 
L 177.061069 -279.988519 
L 172.153836 -275.601166 
L 167.246603 -257.891029 
L 162.339369 -274.203547 
L 157.432136 -268.022989 
L 152.524902 -261.935912 
L 147.617669 -271.773529 
L 142.710436 -272.54134 
L 137.803202 -268.275617 
L 132.895969 -271.777685 
L 127.988736 -263.786274 
L 123.081502 -263.98129 
L 118.174269 -273.399676 
L 113.267036 -268.79072 
L 108.359802 -277.598873 
L 103.452569 -274.416932 
L 98.545335 -278.683667 
L 93.638102 -284.232515 
L 88.730869 -280.577095 
L 83.823635 -266.836039 
L 78.916402 -292.49549 
L 74.009169 -261.747839 
z
" style="stroke: #0015bc; stroke-opacity: 0.2"/>
    </defs>
    <g clip-path="url(#p74ab090703)">
     <use xlink:href="#me4071f8d8f" x="0" y="424.8" style="fill: #0015bc; fill-opacity: 0.2; stroke: #0015bc; stroke-opacity: 0.2"/>
    </g>
   </g>
   <g id="PolyCollection_3">
    <defs>
     <path id="mb170a8c342" d="M 74.009169 -292.160233 
L 74.009169 -287.127923 
L 78.916402 -281.47657 
L 83.823635 -290.294336 
L 88.730869 -295.126501 
L 93.638102 -293.635605 
L 98.545335 -288.597544 
L 103.452569 -279.977403 
L 108.359802 -284.682586 
L 113.267036 -281.155367 
L 118.174269 -287.215894 
L 123.081502 -279.919905 
L 127.988736 -320.696042 
L 132.895969 -299.411483 
L 137.803202 -292.640277 
L 142.710436 -304.320042 
L 147.617669 -297.585743 
L 152.524902 -312.545783 
L 157.432136 -297.555298 
L 162.339369 -316.244471 
L 167.246603 -304.594845 
L 172.153836 -294.484694 
L 177.061069 -319.061179 
L 181.968303 -303.537421 
L 186.875536 -313.710722 
L 191.782769 -297.951232 
L 196.690003 -316.055259 
L 201.597236 -305.447927 
L 206.50447 -297.97926 
L 211.411703 -290.541229 
L 216.318936 -290.486546 
L 221.22617 -288.319904 
L 226.133403 -291.173577 
L 231.040636 -288.77755 
L 235.94787 -293.196137 
L 240.855103 -287.475774 
L 245.762336 -310.499304 
L 250.66957 -311.560352 
L 255.576803 -311.961336 
L 260.484037 -306.814751 
L 265.39127 -303.009902 
L 270.298503 -301.49317 
L 275.205737 -302.007649 
L 280.11297 -310.804846 
L 285.020203 -310.924903 
L 289.927437 -315.480758 
L 294.83467 -306.61409 
L 299.741904 -308.215279 
L 304.649137 -311.841544 
L 309.55637 -307.614351 
L 314.463604 -307.005908 
L 319.370837 -300.087928 
L 324.27807 -300.294005 
L 329.185304 -300.027271 
L 334.092537 -304.921696 
L 338.99977 -295.780442 
L 343.907004 -304.411748 
L 348.814237 -303.048634 
L 353.721471 -307.594699 
L 358.628704 -305.011891 
L 363.535937 -335.685669 
L 368.443171 -322.468113 
L 373.350404 -318.060994 
L 378.257637 -314.069251 
L 383.164871 -323.825453 
L 388.072104 -321.338648 
L 392.979338 -317.456062 
L 397.886571 -326.901554 
L 402.793804 -332.232075 
L 407.701038 -304.14082 
L 412.608271 -316.158769 
L 417.515504 -319.53527 
L 422.422738 -330.533583 
L 427.329971 -338.633791 
L 432.237205 -337.901562 
L 437.144438 -325.027666 
L 442.051671 -324.971649 
L 446.958905 -325.964899 
L 451.866138 -334.094561 
L 456.773371 -340.433126 
L 461.680605 -355.882385 
L 466.587838 -338.297894 
L 471.495071 -346.093312 
L 476.402305 -355.095847 
L 481.309538 -351.494469 
L 486.216772 -354.259881 
L 491.124005 -351.763858 
L 496.031238 -355.592318 
L 500.938472 -363.383236 
L 505.845705 -357.015878 
L 510.752938 -352.548751 
L 515.660172 -367.340577 
L 520.567405 -365.605001 
L 525.474639 -348.862139 
L 530.381872 -356.499795 
L 535.289105 -357.989375 
L 540.196339 -364.278998 
L 545.103572 -372.752338 
L 550.010805 -354.279971 
L 554.918039 -329.10583 
L 559.825272 -331.089849 
L 564.732505 -344.733911 
L 569.639739 -346.936305 
L 574.546972 -352.729272 
L 579.454206 -360.058395 
L 584.361439 -341.411909 
L 589.268672 -341.086583 
L 594.175906 -352.416516 
L 599.083139 -369.573715 
L 603.990372 -362.445265 
L 608.897606 -371.369536 
L 613.804839 -367.238437 
L 618.712073 -369.910629 
L 623.619306 -375.532863 
L 628.526539 -381.34806 
L 633.433773 -388.313674 
L 638.341006 -387.707355 
L 643.248239 -386.523392 
L 648.155473 -390.105127 
L 653.062706 -386.138102 
L 657.96994 -383.866639 
L 662.877173 -388.765522 
L 667.784406 -387.328936 
L 672.69164 -369.60779 
L 672.69164 -372.691076 
L 672.69164 -372.691076 
L 667.784406 -389.582903 
L 662.877173 -391.014933 
L 657.96994 -386.105067 
L 653.062706 -388.320552 
L 648.155473 -391.83421 
L 643.248239 -388.631963 
L 638.341006 -389.921246 
L 633.433773 -389.998451 
L 628.526539 -383.219584 
L 623.619306 -377.573521 
L 618.712073 -371.9766 
L 613.804839 -369.208293 
L 608.897606 -373.613841 
L 603.990372 -364.738953 
L 599.083139 -371.878958 
L 594.175906 -354.576042 
L 589.268672 -342.791695 
L 584.361439 -343.415944 
L 579.454206 -361.902442 
L 574.546972 -354.718694 
L 569.639739 -348.939136 
L 564.732505 -346.591363 
L 559.825272 -332.61537 
L 554.918039 -331.018765 
L 550.010805 -356.613236 
L 545.103572 -375.214977 
L 540.196339 -367.035956 
L 535.289105 -360.55249 
L 530.381872 -358.993899 
L 525.474639 -351.807303 
L 520.567405 -368.500841 
L 515.660172 -369.667788 
L 510.752938 -355.172208 
L 505.845705 -359.922278 
L 500.938472 -366.477123 
L 496.031238 -358.282967 
L 491.124005 -354.701257 
L 486.216772 -357.255728 
L 481.309538 -355.056099 
L 476.402305 -358.597512 
L 471.495071 -348.831293 
L 466.587838 -341.169922 
L 461.680605 -358.886277 
L 456.773371 -343.432556 
L 451.866138 -336.96246 
L 446.958905 -328.741475 
L 442.051671 -327.962767 
L 437.144438 -327.334606 
L 432.237205 -340.700033 
L 427.329971 -341.57532 
L 422.422738 -334.25834 
L 417.515504 -322.189825 
L 412.608271 -319.081738 
L 407.701038 -307.268166 
L 402.793804 -335.861824 
L 397.886571 -330.540349 
L 392.979338 -321.141962 
L 388.072104 -325.149835 
L 383.164871 -327.314796 
L 378.257637 -317.428986 
L 373.350404 -321.975508 
L 368.443171 -326.331368 
L 363.535937 -339.641453 
L 358.628704 -308.076385 
L 353.721471 -309.827767 
L 348.814237 -305.651161 
L 343.907004 -307.433337 
L 338.99977 -298.911723 
L 334.092537 -307.706424 
L 329.185304 -302.601372 
L 324.27807 -303.008392 
L 319.370837 -302.834807 
L 314.463604 -309.857251 
L 309.55637 -310.882508 
L 304.649137 -315.51671 
L 299.741904 -311.749833 
L 294.83467 -310.079522 
L 289.927437 -319.192974 
L 285.020203 -315.64931 
L 280.11297 -314.662119 
L 275.205737 -305.061159 
L 270.298503 -305.507329 
L 265.39127 -306.852941 
L 260.484037 -310.537659 
L 255.576803 -316.88926 
L 250.66957 -316.112315 
L 245.762336 -315.975561 
L 240.855103 -291.690665 
L 235.94787 -296.168917 
L 231.040636 -292.170276 
L 226.133403 -295.285057 
L 221.22617 -291.289377 
L 216.318936 -293.590791 
L 211.411703 -294.450212 
L 206.50447 -301.666199 
L 201.597236 -309.141403 
L 196.690003 -319.928383 
L 191.782769 -301.51281 
L 186.875536 -318.370038 
L 181.968303 -307.876803 
L 177.061069 -324.456166 
L 172.153836 -298.744988 
L 167.246603 -309.847526 
L 162.339369 -321.76169 
L 157.432136 -302.009947 
L 152.524902 -316.982759 
L 147.617669 -302.188992 
L 142.710436 -309.776591 
L 137.803202 -298.687967 
L 132.895969 -305.447807 
L 127.988736 -328.564472 
L 123.081502 -284.500312 
L 118.174269 -291.371716 
L 113.267036 -286.033106 
L 108.359802 -288.708114 
L 103.452569 -284.338419 
L 98.545335 -292.88556 
L 93.638102 -298.292002 
L 88.730869 -299.920169 
L 83.823635 -294.806039 
L 78.916402 -285.522267 
L 74.009169 -292.160233 
z
" style="stroke: #ff0000; stroke-opacity: 0.2"/>
    </defs>
    <g clip-path="url(#p74ab090703)">
     <use xlink:href="#mb170a8c342" x="0" y="424.8" style="fill: #ff0000; fill-opacity: 0.2; stroke: #ff0000; stroke-opacity: 0.2"/>
    </g>
   </g>
   <g id="PolyCollection_4">
    <defs>
     <path id="m8addd6cc04" d="M 74.009169 -282.095612 
L 74.009169 -287.127923 
L 78.916402 -281.47657 
L 83.823635 -290.294336 
L 88.730869 -295.126501 
L 93.638102 -293.635605 
L 98.545335 -288.597544 
L 103.452569 -279.977403 
L 108.359802 -284.682586 
L 113.267036 -281.155367 
L 118.174269 -287.215894 
L 123.081502 -279.919905 
L 127.988736 -320.696042 
L 132.895969 -299.411483 
L 137.803202 -292.640277 
L 142.710436 -304.320042 
L 147.617669 -297.585743 
L 152.524902 -312.545783 
L 157.432136 -297.555298 
L 162.339369 -316.244471 
L 167.246603 -304.594845 
L 172.153836 -294.484694 
L 177.061069 -319.061179 
L 181.968303 -303.537421 
L 186.875536 -313.710722 
L 191.782769 -297.951232 
L 196.690003 -316.055259 
L 201.597236 -305.447927 
L 206.50447 -297.97926 
L 211.411703 -290.541229 
L 216.318936 -290.486546 
L 221.22617 -288.319904 
L 226.133403 -291.173577 
L 231.040636 -288.77755 
L 235.94787 -293.196137 
L 240.855103 -287.475774 
L 245.762336 -310.499304 
L 250.66957 -311.560352 
L 255.576803 -311.961336 
L 260.484037 -306.814751 
L 265.39127 -303.009902 
L 270.298503 -301.49317 
L 275.205737 -302.007649 
L 280.11297 -310.804846 
L 285.020203 -310.924903 
L 289.927437 -315.480758 
L 294.83467 -306.61409 
L 299.741904 -308.215279 
L 304.649137 -311.841544 
L 309.55637 -307.614351 
L 314.463604 -307.005908 
L 319.370837 -300.087928 
L 324.27807 -300.294005 
L 329.185304 -300.027271 
L 334.092537 -304.921696 
L 338.99977 -295.780442 
L 343.907004 -304.411748 
L 348.814237 -303.048634 
L 353.721471 -307.594699 
L 358.628704 -305.011891 
L 363.535937 -335.685669 
L 368.443171 -322.468113 
L 373.350404 -318.060994 
L 378.257637 -314.069251 
L 383.164871 -323.825453 
L 388.072104 -321.338648 
L 392.979338 -317.456062 
L 397.886571 -326.901554 
L 402.793804 -332.232075 
L 407.701038 -304.14082 
L 412.608271 -316.158769 
L 417.515504 -319.53527 
L 422.422738 -330.533583 
L 427.329971 -338.633791 
L 432.237205 -337.901562 
L 437.144438 -325.027666 
L 442.051671 -324.971649 
L 446.958905 -325.964899 
L 451.866138 -334.094561 
L 456.773371 -340.433126 
L 461.680605 -355.882385 
L 466.587838 -338.297894 
L 471.495071 -346.093312 
L 476.402305 -355.095847 
L 481.309538 -351.494469 
L 486.216772 -354.259881 
L 491.124005 -351.763858 
L 496.031238 -355.592318 
L 500.938472 -363.383236 
L 505.845705 -357.015878 
L 510.752938 -352.548751 
L 515.660172 -367.340577 
L 520.567405 -365.605001 
L 525.474639 -348.862139 
L 530.381872 -356.499795 
L 535.289105 -357.989375 
L 540.196339 -364.278998 
L 545.103572 -372.752338 
L 550.010805 -354.279971 
L 554.918039 -329.10583 
L 559.825272 -331.089849 
L 564.732505 -344.733911 
L 569.639739 -346.936305 
L 574.546972 -352.729272 
L 579.454206 -360.058395 
L 584.361439 -341.411909 
L 589.268672 -341.086583 
L 594.175906 -352.416516 
L 599.083139 -369.573715 
L 603.990372 -362.445265 
L 608.897606 -371.369536 
L 613.804839 -367.238437 
L 618.712073 -369.910629 
L 623.619306 -375.532863 
L 628.526539 -381.34806 
L 633.433773 -388.313674 
L 638.341006 -387.707355 
L 643.248239 -386.523392 
L 648.155473 -390.105127 
L 653.062706 -386.138102 
L 657.96994 -383.866639 
L 662.877173 -388.765522 
L 667.784406 -387.328936 
L 672.69164 -369.60779 
L 672.69164 -366.524505 
L 672.69164 -366.524505 
L 667.784406 -385.074969 
L 662.877173 -386.516111 
L 657.96994 -381.628212 
L 653.062706 -383.955652 
L 648.155473 -388.376044 
L 643.248239 -384.41482 
L 638.341006 -385.493464 
L 633.433773 -386.628897 
L 628.526539 -379.476536 
L 623.619306 -373.492204 
L 618.712073 -367.844657 
L 613.804839 -365.268582 
L 608.897606 -369.125231 
L 603.990372 -360.151577 
L 599.083139 -367.268472 
L 594.175906 -350.256991 
L 589.268672 -339.381471 
L 584.361439 -339.407874 
L 579.454206 -358.214347 
L 574.546972 -350.739851 
L 569.639739 -344.933474 
L 564.732505 -342.87646 
L 559.825272 -329.564328 
L 554.918039 -327.192894 
L 550.010805 -351.946706 
L 545.103572 -370.289699 
L 540.196339 -361.522041 
L 535.289105 -355.42626 
L 530.381872 -354.00569 
L 525.474639 -345.916975 
L 520.567405 -362.709162 
L 515.660172 -365.013366 
L 510.752938 -349.925293 
L 505.845705 -354.109477 
L 500.938472 -360.289349 
L 496.031238 -352.90167 
L 491.124005 -348.826458 
L 486.216772 -351.264033 
L 481.309538 -347.932839 
L 476.402305 -351.594183 
L 471.495071 -343.355331 
L 466.587838 -335.425866 
L 461.680605 -352.878493 
L 456.773371 -337.433695 
L 451.866138 -331.226662 
L 446.958905 -323.188324 
L 442.051671 -321.98053 
L 437.144438 -322.720727 
L 432.237205 -335.103092 
L 427.329971 -335.692263 
L 422.422738 -326.808827 
L 417.515504 -316.880716 
L 412.608271 -313.235799 
L 407.701038 -301.013474 
L 402.793804 -328.602327 
L 397.886571 -323.262759 
L 392.979338 -313.770163 
L 388.072104 -317.52746 
L 383.164871 -320.336109 
L 378.257637 -310.709516 
L 373.350404 -314.146481 
L 368.443171 -318.604858 
L 363.535937 -331.729884 
L 358.628704 -301.947396 
L 353.721471 -305.361631 
L 348.814237 -300.446108 
L 343.907004 -301.390159 
L 338.99977 -292.649161 
L 334.092537 -302.136968 
L 329.185304 -297.453169 
L 324.27807 -297.579617 
L 319.370837 -297.341048 
L 314.463604 -304.154566 
L 309.55637 -304.346194 
L 304.649137 -308.166377 
L 299.741904 -304.680726 
L 294.83467 -303.148657 
L 289.927437 -311.768542 
L 285.020203 -306.200495 
L 280.11297 -306.947573 
L 275.205737 -298.954139 
L 270.298503 -297.479011 
L 265.39127 -299.166864 
L 260.484037 -303.091844 
L 255.576803 -307.033411 
L 250.66957 -307.00839 
L 245.762336 -305.023047 
L 240.855103 -283.260884 
L 235.94787 -290.223357 
L 231.040636 -285.384824 
L 226.133403 -287.062096 
L 221.22617 -285.35043 
L 216.318936 -287.382301 
L 211.411703 -286.632246 
L 206.50447 -294.29232 
L 201.597236 -301.754451 
L 196.690003 -312.182135 
L 191.782769 -294.389655 
L 186.875536 -309.051405 
L 181.968303 -299.19804 
L 177.061069 -313.666193 
L 172.153836 -290.2244 
L 167.246603 -299.342165 
L 162.339369 -310.727252 
L 157.432136 -293.100649 
L 152.524902 -308.108807 
L 147.617669 -292.982495 
L 142.710436 -298.863493 
L 137.803202 -286.592586 
L 132.895969 -293.375159 
L 127.988736 -312.827613 
L 123.081502 -275.339497 
L 118.174269 -283.060071 
L 113.267036 -276.277629 
L 108.359802 -280.657059 
L 103.452569 -275.616388 
L 98.545335 -284.309527 
L 93.638102 -288.979208 
L 88.730869 -290.332833 
L 83.823635 -285.782632 
L 78.916402 -277.430874 
L 74.009169 -282.095612 
z
" style="stroke: #ff0000; stroke-opacity: 0.2"/>
    </defs>
    <g clip-path="url(#p74ab090703)">
     <use xlink:href="#m8addd6cc04" x="0" y="424.8" style="fill: #ff0000; fill-opacity: 0.2; stroke: #ff0000; stroke-opacity: 0.2"/>
    </g>
   </g>
   <g id="matplotlib.axis_1"/>
   <g id="matplotlib.axis_2">
    <g id="ytick_1">
     <g id="line2d_1">
      <defs>
       <path id="md1688d08dc" d="M 0 0 
L -3.5 0 
" style="stroke: #000000; stroke-width: 0.8"/>
      </defs>
      <g>
       <use xlink:href="#md1688d08dc" x="44.075045" y="194.948769" style="stroke: #000000; stroke-width: 0.8"/>
      </g>
     </g>
     <g id="text_1">
      <!-- 0% -->
      <g transform="translate(31.222055 199.099859)scale(0.12 -0.12)">
       <defs>
        <path id="CMSS17-30" d="M 2758 2073 
C 2758 2439 2752 3120 2490 3647 
C 2227 4153 1805 4288 1504 4288 
C 1069 4288 698 4031 506 3621 
C 301 3191 243 2748 243 2073 
C 243 1611 262 1046 493 551 
C 755 6 1197 -128 1498 -128 
C 1894 -128 2278 83 2496 525 
C 2720 988 2758 1495 2758 2073 
z
M 1498 262 
C 1011 262 864 821 819 1007 
C 742 1328 730 1636 730 2144 
C 730 2542 730 2992 851 3345 
C 998 3756 1254 3897 1498 3897 
C 1971 3897 2125 3422 2176 3255 
C 2272 2915 2272 2516 2272 2144 
C 2272 1546 2272 262 1498 262 
z
" transform="scale(0.015625)"/>
       </defs>
       <use xlink:href="#CMSS17-30" transform="scale(0.996264)"/>
      </g>
     </g>
    </g>
    <g id="ytick_2">
     <g id="line2d_2">
      <g>
       <use xlink:href="#md1688d08dc" x="44.075045" y="139.728543" style="stroke: #000000; stroke-width: 0.8"/>
      </g>
     </g>
     <g id="text_2">
      <!-- 20% -->
      <g transform="translate(25.369064 143.879633)scale(0.12 -0.12)">
       <defs>
        <path id="CMSS17-32" d="M 1651 1353 
C 1830 1538 2099 1761 2285 1984 
C 2464 2201 2701 2507 2701 2953 
C 2701 3655 2227 4288 1421 4288 
C 787 4288 422 3891 250 3272 
L 499 2928 
C 640 3508 838 3878 1338 3878 
C 1888 3878 2195 3431 2195 2940 
C 2195 2354 1747 1901 1408 1563 
C 1030 1187 659 805 301 409 
L 301 0 
L 2701 0 
L 2701 435 
L 1613 435 
C 1536 435 1459 428 1382 428 
L 742 428 
L 742 435 
L 1651 1353 
z
" transform="scale(0.015625)"/>
       </defs>
       <use xlink:href="#CMSS17-32" transform="scale(0.996264)"/>
       <use xlink:href="#CMSS17-30" transform="translate(46.843624 0)scale(0.996264)"/>
      </g>
     </g>
    </g>
    <g id="ytick_3">
     <g id="line2d_3">
      <g>
       <use xlink:href="#md1688d08dc" x="44.075045" y="84.508317" style="stroke: #000000; stroke-width: 0.8"/>
      </g>
     </g>
     <g id="text_3">
      <!-- 40% -->
      <g transform="translate(25.369064 88.659407)scale(0.12 -0.12)">
       <defs>
        <path id="CMSS17-34" d="M 2253 1088 
L 2835 1088 
L 2835 1478 
L 2253 1478 
L 2253 4224 
L 1690 4224 
L 166 1478 
L 166 1088 
L 1747 1088 
L 1747 0 
L 2253 0 
L 2253 1088 
z
M 659 1478 
C 1030 2139 1766 3474 1766 3927 
L 1766 1478 
L 659 1478 
z
" transform="scale(0.015625)"/>
       </defs>
       <use xlink:href="#CMSS17-34" transform="scale(0.996264)"/>
       <use xlink:href="#CMSS17-30" transform="translate(46.843624 0)scale(0.996264)"/>
      </g>
     </g>
    </g>
    <g id="ytick_4">
     <g id="line2d_4">
      <g>
       <use xlink:href="#md1688d08dc" x="44.075045" y="29.288091" style="stroke: #000000; stroke-width: 0.8"/>
      </g>
     </g>
     <g id="text_4">
      <!-- 60% -->
      <g transform="translate(25.369064 33.43918)scale(0.12 -0.12)">
       <defs>
        <path id="CMSS17-36" d="M 2496 4159 
C 2227 4268 2035 4288 1856 4288 
C 1024 4288 250 3408 250 2023 
C 250 268 986 -128 1510 -128 
C 1798 -128 2086 -39 2362 281 
C 2643 619 2752 900 2752 1392 
C 2752 2183 2362 2886 1779 2886 
C 1357 2886 992 2662 768 2381 
C 832 3290 1254 3897 1862 3897 
C 2029 3897 2246 3871 2496 3760 
L 2496 4159 
z
M 774 1372 
C 774 1423 774 1455 781 1551 
C 781 2049 1069 2496 1536 2496 
C 1837 2496 1990 2336 2106 2138 
C 2240 1889 2246 1653 2246 1392 
C 2246 1143 2246 894 2099 638 
C 1978 441 1818 268 1510 268 
C 902 268 800 1117 774 1372 
z
" transform="scale(0.015625)"/>
       </defs>
       <use xlink:href="#CMSS17-36" transform="scale(0.996264)"/>
       <use xlink:href="#CMSS17-30" transform="translate(46.843624 0)scale(0.996264)"/>
      </g>
     </g>
    </g>
    <g id="text_5">
     <!-- NewsGuard coverage -->
     <g transform="translate(18.269588 168.45801)rotate(-90)scale(0.16 -0.16)">
      <defs>
       <path id="CMSS17-4e" d="M 1466 4179 
L 1350 4416 
L 563 4416 
L 563 0 
L 1062 0 
L 1062 3925 
L 1069 3931 
C 1114 3817 1139 3759 1402 3193 
L 2771 236 
L 2886 0 
L 3674 0 
L 3674 4416 
L 3174 4416 
L 3174 490 
L 3168 484 
C 3123 598 3098 655 2835 1222 
L 1466 4179 
z
" transform="scale(0.015625)"/>
       <path id="CMSS17-65" d="M 2502 1375 
C 2502 1587 2490 2001 2285 2347 
C 2061 2713 1696 2816 1421 2816 
C 755 2816 192 2184 192 1363 
C 192 579 774 -64 1510 -64 
C 1798 -64 2150 19 2470 249 
C 2470 275 2458 414 2451 421 
C 2451 433 2432 629 2432 655 
C 2125 408 1773 326 1517 326 
C 1107 326 666 667 646 1375 
L 2502 1375 
z
M 698 1728 
C 781 2086 1062 2425 1421 2425 
C 1517 2425 1965 2412 2080 1728 
L 698 1728 
z
" transform="scale(0.015625)"/>
       <path id="CMSS17-77" d="M 4013 2752 
L 3526 2752 
L 3187 1600 
C 3117 1356 2918 684 2893 371 
L 2886 371 
C 2874 563 2765 1024 2586 1632 
L 2259 2752 
L 1818 2752 
L 1498 1657 
C 1338 1100 1216 627 1203 371 
L 1197 371 
C 1171 748 909 1632 870 1772 
L 582 2752 
L 83 2752 
L 915 0 
L 1402 0 
C 1734 1100 1990 1952 2010 2380 
C 2022 2169 2131 1715 2195 1491 
L 2618 0 
L 3181 0 
L 4013 2752 
z
" transform="scale(0.015625)"/>
       <path id="CMSS17-73" d="M 2061 2623 
C 1683 2803 1389 2816 1197 2816 
C 742 2816 198 2655 198 2009 
C 198 1363 902 1222 1094 1183 
C 1389 1126 1715 1062 1715 742 
C 1715 339 1254 339 1171 339 
C 915 339 563 409 243 639 
L 166 211 
C 531 0 883 -64 1178 -64 
C 1965 -64 2163 416 2163 780 
C 2163 1094 1984 1305 1862 1401 
C 1651 1567 1574 1587 1050 1695 
C 960 1708 646 1779 646 2067 
C 646 2431 1050 2431 1139 2431 
C 1555 2431 1811 2303 1984 2207 
L 2061 2623 
z
" transform="scale(0.015625)"/>
       <path id="CMSS17-47" d="M 3610 1868 
L 2336 1868 
L 2336 1472 
L 3123 1472 
L 3123 473 
C 2874 403 2618 352 2362 352 
C 1466 352 934 1311 934 2220 
C 934 3123 1491 4070 2362 4070 
C 2854 4070 3130 3916 3469 3660 
L 3552 4172 
C 3130 4390 2867 4480 2387 4480 
C 1146 4480 397 3353 397 2201 
C 397 1100 1152 -64 2349 -64 
C 2797 -64 3213 51 3610 249 
L 3610 1868 
z
" transform="scale(0.015625)"/>
       <path id="CMSS17-75" d="M 2618 2752 
L 2131 2752 
L 2131 976 
C 2131 500 1786 307 1421 307 
C 998 307 960 448 960 712 
L 960 2752 
L 474 2752 
L 474 680 
C 474 179 646 -64 1088 -64 
C 1306 -64 1798 -13 2144 307 
L 2144 -13 
L 2618 -13 
L 2618 2752 
z
" transform="scale(0.015625)"/>
       <path id="CMSS17-61" d="M 2406 1789 
C 2406 2399 1978 2816 1402 2816 
C 1120 2816 813 2764 461 2559 
L 499 2133 
C 659 2250 934 2438 1395 2438 
C 1722 2438 1920 2185 1920 1782 
L 1920 1536 
C 896 1504 256 1209 256 711 
C 256 452 416 -64 947 -64 
C 1043 -64 1562 -52 1933 224 
L 1933 -13 
L 2406 -13 
L 2406 1789 
z
M 1920 824 
C 1920 711 1920 559 1728 446 
C 1562 339 1350 326 1261 326 
C 941 326 723 503 723 723 
C 723 1165 1722 1209 1920 1216 
L 1920 824 
z
" transform="scale(0.015625)"/>
       <path id="CMSS17-72" d="M 954 1369 
C 954 1974 1395 2379 1958 2392 
L 1958 2816 
C 1549 2809 1165 2604 934 2270 
L 934 2783 
L 480 2783 
L 480 0 
L 954 0 
L 954 1369 
z
" transform="scale(0.015625)"/>
       <path id="CMSS17-64" d="M 2611 4416 
L 2138 4416 
L 2138 2495 
C 1939 2662 1613 2816 1254 2816 
C 672 2816 211 2179 211 1375 
C 211 572 666 -64 1235 -64 
C 1677 -64 1971 172 2125 307 
L 2125 -13 
L 2611 -13 
L 2611 4416 
z
M 2125 851 
C 2125 760 2125 663 1926 488 
C 1798 378 1645 326 1498 326 
C 1152 326 698 585 698 1369 
C 698 2185 1210 2425 1562 2425 
C 1798 2425 1990 2308 2125 2114 
L 2125 851 
z
" transform="scale(0.015625)"/>
       <path id="CMSS17-63" d="M 2464 2540 
C 2464 2585 2170 2713 2093 2739 
C 1882 2816 1613 2816 1542 2816 
C 710 2816 211 2092 211 1363 
C 211 595 768 -64 1517 -64 
C 1946 -64 2253 76 2502 243 
L 2464 665 
C 2189 454 1869 339 1523 339 
C 1024 339 698 774 698 1369 
C 698 1830 909 2412 1549 2412 
C 1901 2412 2099 2342 2394 2143 
L 2464 2540 
z
" transform="scale(0.015625)"/>
       <path id="CMSS17-6f" d="M 2829 1356 
C 2829 2175 2221 2816 1504 2816 
C 768 2816 173 2156 173 1356 
C 173 544 787 -64 1498 -64 
C 2227 -64 2829 563 2829 1356 
z
M 1504 339 
C 1050 339 659 710 659 1407 
C 659 2150 1114 2425 1498 2425 
C 1914 2425 2342 2124 2342 1407 
C 2342 684 1926 339 1504 339 
z
" transform="scale(0.015625)"/>
       <path id="CMSS17-76" d="M 2675 2752 
L 2176 2752 
L 1747 1555 
C 1613 1164 1421 627 1389 352 
L 1382 352 
C 1370 467 1318 633 1286 748 
C 1248 889 1197 1056 1158 1171 
L 595 2752 
L 83 2752 
L 1094 0 
L 1664 0 
L 2675 2752 
z
" transform="scale(0.015625)"/>
       <path id="CMSS17-67" d="M 2848 2816 
C 2483 2809 2170 2739 1914 2617 
C 1702 2783 1485 2816 1338 2816 
C 781 2816 358 2356 358 1824 
C 358 1481 550 1222 563 1209 
C 448 1049 384 876 384 684 
C 384 460 474 300 544 211 
C 211 6 166 -308 166 -429 
C 166 -896 749 -1280 1498 -1280 
C 2253 -1280 2835 -896 2835 -423 
C 2835 460 1856 467 1587 467 
L 1069 467 
C 973 467 717 467 717 793 
C 717 921 774 1004 781 1011 
C 877 940 1075 832 1338 832 
C 1869 832 2310 1279 2310 1824 
C 2310 2128 2170 2349 2112 2425 
L 2131 2425 
C 2150 2425 2419 2444 2515 2444 
C 2720 2444 2739 2438 2918 2419 
L 2848 2816 
z
M 1338 1184 
C 1120 1184 813 1317 813 1824 
C 813 2375 1165 2463 1331 2463 
C 1549 2463 1856 2330 1856 1824 
C 1856 1272 1504 1184 1338 1184 
z
M 1581 0 
C 1734 0 2381 0 2381 -436 
C 2381 -711 1984 -928 1504 -928 
C 1018 -928 621 -717 621 -429 
C 621 -397 621 0 1062 0 
L 1581 0 
z
" transform="scale(0.015625)"/>
      </defs>
      <use xlink:href="#CMSS17-4e" transform="scale(0.996264)"/>
      <use xlink:href="#CMSS17-65" transform="translate(66.061519 0)scale(0.996264)"/>
      <use xlink:href="#CMSS17-77" transform="translate(107.700341 0)scale(0.996264)"/>
      <use xlink:href="#CMSS17-73" transform="translate(171.519886 0)scale(0.996264)"/>
      <use xlink:href="#CMSS17-47" transform="translate(207.433428 0)scale(0.996264)"/>
      <use xlink:href="#CMSS17-75" transform="translate(269.891654 0)scale(0.996264)"/>
      <use xlink:href="#CMSS17-61" transform="translate(318.096597 0)scale(0.996264)"/>
      <use xlink:href="#CMSS17-72" transform="translate(360.416064 0)scale(0.996264)"/>
      <use xlink:href="#CMSS17-64" transform="translate(392.325836 0)scale(0.996264)"/>
      <use xlink:href="#CMSS17-63" transform="translate(471.759892 0)scale(0.996264)"/>
      <use xlink:href="#CMSS17-6f" transform="translate(513.398714 0)scale(0.996264)"/>
      <use xlink:href="#CMSS17-76" transform="translate(560.242338 0)scale(0.996264)"/>
      <use xlink:href="#CMSS17-65" transform="translate(603.242479 0)scale(0.996264)"/>
      <use xlink:href="#CMSS17-72" transform="translate(644.881301 0)scale(0.996264)"/>
      <use xlink:href="#CMSS17-61" transform="translate(676.791074 0)scale(0.996264)"/>
      <use xlink:href="#CMSS17-67" transform="translate(721.712995 0)scale(0.996264)"/>
      <use xlink:href="#CMSS17-65" transform="translate(768.556618 0)scale(0.996264)"/>
     </g>
    </g>
   </g>
   <g id="line2d_5">
    <path d="M 74.009169 158.684424 
L 78.916402 127.180349 
L 83.823635 154.252916 
L 88.730869 140.164085 
L 93.638102 135.839906 
L 98.545335 141.86379 
L 103.452569 146.571278 
L 108.359802 142.909425 
L 113.267036 152.278234 
L 118.174269 148.478005 
L 123.081502 156.785113 
L 127.988736 154.808132 
L 132.895969 147.309802 
L 137.803202 151.830437 
L 142.710436 146.814519 
L 147.617669 146.964414 
L 152.524902 157.953723 
L 157.432136 151.930872 
L 162.339369 145.051469 
L 167.246603 163.226338 
L 172.153836 143.016178 
L 177.061069 139.590062 
L 181.968303 146.275251 
L 186.875536 134.204432 
L 191.782769 135.346244 
L 196.690003 139.090738 
L 201.597236 130.009562 
L 206.50447 142.493393 
L 211.411703 145.084336 
L 216.318936 148.585941 
L 221.22617 139.65691 
L 226.133403 143.571431 
L 231.040636 152.852511 
L 235.94787 141.74878 
L 240.855103 134.813097 
L 245.762336 128.59439 
L 250.66957 118.605468 
L 255.576803 142.876597 
L 260.484037 126.208207 
L 265.39127 126.721095 
L 270.298503 113.655609 
L 275.205737 118.245096 
L 280.11297 129.258321 
L 285.020203 107.696531 
L 289.927437 127.823358 
L 294.83467 136.531664 
L 299.741904 121.979279 
L 304.649137 120.774948 
L 309.55637 113.244558 
L 314.463604 122.216872 
L 319.370837 125.301921 
L 324.27807 117.289681 
L 329.185304 109.595312 
L 334.092537 113.122107 
L 338.99977 115.376169 
L 343.907004 116.942379 
L 348.814237 108.715017 
L 353.721471 129.878517 
L 358.628704 122.177752 
L 363.535937 83.417379 
L 368.443171 89.693159 
L 373.350404 74.247062 
L 378.257637 61.045898 
L 383.164871 70.654308 
L 388.072104 77.850995 
L 392.979338 71.821005 
L 397.886571 64.123504 
L 402.793804 69.190558 
L 407.701038 77.396049 
L 412.608271 76.369694 
L 417.515504 61.723224 
L 422.422738 65.447829 
L 427.329971 57.195822 
L 432.237205 57.207306 
L 437.144438 55.536561 
L 442.051671 54.299078 
L 446.958905 61.194704 
L 451.866138 58.260032 
L 456.773371 58.076121 
L 461.680605 60.171357 
L 466.587838 74.976366 
L 471.495071 81.09443 
L 476.402305 88.142549 
L 481.309538 39.532816 
L 486.216772 15.641453 
L 491.124005 32.202683 
L 496.031238 26.919293 
L 500.938472 41.545476 
L 505.845705 33.000429 
L 510.752938 40.94566 
L 515.660172 36.660557 
L 520.567405 38.183948 
L 525.474639 53.541467 
L 530.381872 54.239343 
L 535.289105 58.942724 
L 540.196339 51.411717 
L 545.103572 34.967472 
L 550.010805 50.164432 
L 554.918039 79.267875 
L 559.825272 82.374586 
L 564.732505 70.305044 
L 569.639739 57.671667 
L 574.546972 52.459573 
L 579.454206 59.932401 
L 584.361439 78.498452 
L 589.268672 89.694048 
L 594.175906 65.981487 
L 599.083139 42.764614 
L 603.990372 35.649583 
L 608.897606 50.512921 
L 613.804839 52.535594 
L 618.712073 60.624559 
L 623.619306 57.922293 
L 628.526539 46.491633 
L 633.433773 49.823713 
L 638.341006 45.431966 
L 643.248239 49.693644 
L 648.155473 49.747466 
L 653.062706 55.572108 
L 657.96994 43.805591 
L 662.877173 57.240394 
L 667.784406 48.389801 
L 672.69164 63.144213 
" clip-path="url(#p74ab090703)" style="fill: none; stroke: #0015bc; stroke-width: 1.5; stroke-linecap: square"/>
   </g>
   <g id="line2d_6">
    <path d="M 74.009169 137.672077 
L 78.916402 143.32343 
L 83.823635 134.505664 
L 88.730869 129.673499 
L 93.638102 131.164395 
L 98.545335 136.202456 
L 103.452569 144.822597 
L 108.359802 140.117414 
L 113.267036 143.644633 
L 118.174269 137.584106 
L 123.081502 144.880095 
L 127.988736 104.103958 
L 132.895969 125.388517 
L 137.803202 132.159723 
L 142.710436 120.479958 
L 147.617669 127.214257 
L 152.524902 112.254217 
L 157.432136 127.244702 
L 162.339369 108.555529 
L 167.246603 120.205155 
L 172.153836 130.315306 
L 177.061069 105.738821 
L 181.968303 121.262579 
L 186.875536 111.089278 
L 191.782769 126.848768 
L 196.690003 108.744741 
L 201.597236 119.352073 
L 206.50447 126.82074 
L 211.411703 134.258771 
L 216.318936 134.313454 
L 221.22617 136.480096 
L 226.133403 133.626423 
L 231.040636 136.02245 
L 235.94787 131.603863 
L 240.855103 137.324226 
L 245.762336 114.300696 
L 250.66957 113.239648 
L 255.576803 112.838664 
L 260.484037 117.985249 
L 265.39127 121.790098 
L 270.298503 123.30683 
L 275.205737 122.792351 
L 280.11297 113.995154 
L 285.020203 113.875097 
L 289.927437 109.319242 
L 294.83467 118.18591 
L 299.741904 116.584721 
L 304.649137 112.958456 
L 309.55637 117.185649 
L 314.463604 117.794092 
L 319.370837 124.712072 
L 324.27807 124.505995 
L 329.185304 124.772729 
L 334.092537 119.878304 
L 338.99977 129.019558 
L 343.907004 120.388252 
L 348.814237 121.751366 
L 353.721471 117.205301 
L 358.628704 119.788109 
L 363.535937 89.114331 
L 368.443171 102.331887 
L 373.350404 106.739006 
L 378.257637 110.730749 
L 383.164871 100.974547 
L 388.072104 103.461352 
L 392.979338 107.343938 
L 397.886571 97.898446 
L 402.793804 92.567925 
L 407.701038 120.65918 
L 412.608271 108.641231 
L 417.515504 105.26473 
L 422.422738 94.266417 
L 427.329971 86.166209 
L 432.237205 86.898438 
L 437.144438 99.772334 
L 442.051671 99.828351 
L 446.958905 98.835101 
L 451.866138 90.705439 
L 456.773371 84.366874 
L 461.680605 68.917615 
L 466.587838 86.502106 
L 471.495071 78.706688 
L 476.402305 69.704153 
L 481.309538 73.305531 
L 486.216772 70.540119 
L 491.124005 73.036142 
L 496.031238 69.207682 
L 500.938472 61.416764 
L 505.845705 67.784122 
L 510.752938 72.251249 
L 515.660172 57.459423 
L 520.567405 59.194999 
L 525.474639 75.937861 
L 530.381872 68.300205 
L 535.289105 66.810625 
L 540.196339 60.521002 
L 545.103572 52.047662 
L 550.010805 70.520029 
L 554.918039 95.69417 
L 559.825272 93.710151 
L 564.732505 80.066089 
L 569.639739 77.863695 
L 574.546972 72.070728 
L 579.454206 64.741605 
L 584.361439 83.388091 
L 589.268672 83.713417 
L 594.175906 72.383484 
L 599.083139 55.226285 
L 603.990372 62.354735 
L 608.897606 53.430464 
L 613.804839 57.561563 
L 618.712073 54.889371 
L 623.619306 49.267137 
L 628.526539 43.45194 
L 633.433773 36.486326 
L 638.341006 37.092645 
L 643.248239 38.276608 
L 648.155473 34.694873 
L 653.062706 38.661898 
L 657.96994 40.933361 
L 662.877173 36.034478 
L 667.784406 37.471064 
L 672.69164 55.19221 
" clip-path="url(#p74ab090703)" style="fill: none; stroke: #ff0000; stroke-width: 1.5; stroke-linecap: square"/>
   </g>
   <g id="patch_3">
    <path d="M 44.075045 194.948769 
L 44.075045 7.2 
" style="fill: none; stroke: #000000; stroke-width: 0.8; stroke-linejoin: miter; stroke-linecap: square"/>
   </g>
   <g id="patch_4">
    <path d="M 44.075045 194.948769 
L 702.625763 194.948769 
" style="fill: none; stroke: #000000; stroke-width: 0.8; stroke-linejoin: miter; stroke-linecap: square"/>
   </g>
   <g id="legend_1">
    <g id="line2d_7">
     <path d="M 572.664172 149.549817 
L 588.664172 149.549817 
L 604.664172 149.549817 
" style="fill: none; stroke: #0015bc; stroke-width: 1.5; stroke-linecap: square"/>
    </g>
    <g id="text_6">
     <!-- Democrat -->
     <g transform="translate(617.464172 155.149817)scale(0.16 -0.16)">
      <defs>
       <path id="CMSS17-44" d="M 570 4416 
L 570 0 
L 2144 0 
C 3194 0 4000 981 4000 2169 
C 4000 3396 3194 4416 2144 4416 
L 570 4416 
z
M 1094 358 
L 1094 4057 
L 2003 4057 
C 2861 4057 3475 3275 3475 2169 
C 3475 1108 2867 358 2003 358 
L 1094 358 
z
" transform="scale(0.015625)"/>
       <path id="CMSS17-6d" d="M 4288 1878 
C 4288 2309 4179 2816 3462 2816 
C 2982 2816 2694 2515 2566 2328 
C 2451 2668 2182 2816 1798 2816 
C 1363 2816 1088 2566 941 2386 
L 941 2783 
L 474 2783 
L 474 0 
L 960 0 
L 960 1556 
C 960 1936 1101 2425 1555 2425 
C 2138 2425 2138 2013 2138 1826 
L 2138 0 
L 2624 0 
L 2624 1556 
C 2624 1936 2765 2425 3219 2425 
C 3802 2425 3802 2013 3802 1826 
L 3802 0 
L 4288 0 
L 4288 1878 
z
" transform="scale(0.015625)"/>
       <path id="CMSS17-74" d="M 1069 2380 
L 1901 2380 
L 1901 2752 
L 1069 2752 
L 1069 3520 
L 614 3520 
L 614 2752 
L 109 2752 
L 109 2380 
L 602 2380 
L 602 751 
C 602 384 685 -64 1107 -64 
C 1427 -64 1722 25 2003 172 
L 1901 551 
C 1747 416 1562 339 1363 339 
C 1082 339 1069 699 1069 860 
L 1069 2380 
z
" transform="scale(0.015625)"/>
      </defs>
      <use xlink:href="#CMSS17-44" transform="scale(0.996264)"/>
      <use xlink:href="#CMSS17-65" transform="translate(67.542842 0)scale(0.996264)"/>
      <use xlink:href="#CMSS17-6d" transform="translate(109.181664 0)scale(0.996264)"/>
      <use xlink:href="#CMSS17-6f" transform="translate(183.410918 0)scale(0.996264)"/>
      <use xlink:href="#CMSS17-63" transform="translate(232.85698 0)scale(0.996264)"/>
      <use xlink:href="#CMSS17-72" transform="translate(274.495802 0)scale(0.996264)"/>
      <use xlink:href="#CMSS17-61" transform="translate(306.405575 0)scale(0.996264)"/>
      <use xlink:href="#CMSS17-74" transform="translate(351.327496 0)scale(0.996264)"/>
     </g>
    </g>
    <g id="line2d_8">
     <path d="M 572.664172 171.849293 
L 588.664172 171.849293 
L 604.664172 171.849293 
" style="fill: none; stroke: #ff0000; stroke-width: 1.5; stroke-linecap: square"/>
    </g>
    <g id="text_7">
     <!-- Republican -->
     <g transform="translate(617.464172 177.449293)scale(0.16 -0.16)">
      <defs>
       <path id="CMSS17-52" d="M 2522 2099 
L 2534 2105 
C 3533 2450 3539 3125 3539 3244 
C 3539 3838 2925 4416 2003 4416 
L 570 4416 
L 570 0 
L 1094 0 
L 1094 2041 
L 2035 2041 
L 3168 0 
L 3706 0 
L 2522 2099 
z
M 1094 2432 
L 1094 4057 
L 1933 4057 
C 2746 4057 3034 3607 3034 3244 
C 3034 2907 2778 2432 1933 2432 
L 1094 2432 
z
" transform="scale(0.015625)"/>
       <path id="CMSS17-70" d="M 966 275 
C 1178 70 1466 -64 1773 -64 
C 2368 -64 2880 553 2880 1382 
C 2880 2147 2496 2816 1946 2816 
C 1626 2816 1242 2700 954 2470 
L 954 2764 
L 480 2764 
L 480 -1280 
L 966 -1280 
L 966 275 
z
M 966 2088 
C 1018 2166 1235 2412 1587 2412 
C 2035 2412 2394 1946 2394 1382 
C 2394 741 1958 326 1530 326 
C 1402 326 1267 358 1139 468 
C 966 624 966 721 966 812 
L 966 2088 
z
" transform="scale(0.015625)"/>
       <path id="CMSS17-62" d="M 954 4416 
L 480 4416 
L 480 -13 
L 966 -13 
L 966 275 
C 1210 38 1504 -64 1766 -64 
C 2381 -64 2880 559 2880 1382 
C 2880 2133 2496 2816 1926 2816 
C 1523 2816 1165 2649 954 2476 
L 954 4416 
z
M 966 2095 
C 1107 2276 1306 2425 1587 2425 
C 1965 2425 2394 2146 2394 1382 
C 2394 566 1882 326 1530 326 
C 1402 326 1267 358 1139 468 
C 966 624 966 721 966 812 
L 966 2095 
z
" transform="scale(0.015625)"/>
       <path id="CMSS17-6c" d="M 947 4416 
L 474 4416 
L 474 0 
L 947 0 
L 947 4416 
z
" transform="scale(0.015625)"/>
       <path id="CMSS17-69" d="M 979 4224 
L 442 4224 
L 442 3686 
L 979 3686 
L 979 4224 
z
M 947 2752 
L 474 2752 
L 474 0 
L 947 0 
L 947 2752 
z
" transform="scale(0.015625)"/>
       <path id="CMSS17-6e" d="M 2618 1878 
C 2618 2283 2522 2816 1798 2816 
C 1389 2816 1120 2604 941 2386 
L 941 2783 
L 474 2783 
L 474 0 
L 960 0 
L 960 1556 
C 960 1962 1114 2425 1549 2425 
C 2112 2425 2131 2045 2131 1826 
L 2131 0 
L 2618 0 
L 2618 1878 
z
" transform="scale(0.015625)"/>
      </defs>
      <use xlink:href="#CMSS17-52" transform="scale(0.996264)"/>
      <use xlink:href="#CMSS17-65" transform="translate(60.416155 0)scale(0.996264)"/>
      <use xlink:href="#CMSS17-70" transform="translate(102.054977 0)scale(0.996264)"/>
      <use xlink:href="#CMSS17-75" transform="translate(150.25992 0)scale(0.996264)"/>
      <use xlink:href="#CMSS17-62" transform="translate(198.464863 0)scale(0.996264)"/>
      <use xlink:href="#CMSS17-6c" transform="translate(246.669806 0)scale(0.996264)"/>
      <use xlink:href="#CMSS17-69" transform="translate(268.850529 0)scale(0.996264)"/>
      <use xlink:href="#CMSS17-63" transform="translate(291.031252 0)scale(0.996264)"/>
      <use xlink:href="#CMSS17-61" transform="translate(332.670075 0)scale(0.996264)"/>
      <use xlink:href="#CMSS17-6e" transform="translate(377.591995 0)scale(0.996264)"/>
     </g>
    </g>
   </g>
  </g>
  <g id="axes_2">
   <g id="patch_5">
    <path d="M 44.075045 399.973224 
L 702.625763 399.973224 
L 702.625763 212.224455 
L 44.075045 212.224455 
z
" style="fill: #ffffff"/>
   </g>
   <g id="PolyCollection_5">
    <defs>
     <path id="m0038bba730" d="M 74.009169 -52.216258 
L 74.009169 -48.694754 
L 78.916402 -77.071934 
L 83.823635 -47.531674 
L 88.730869 -60.50066 
L 93.638102 -67.280717 
L 98.545335 -61.936629 
L 103.452569 -65.312496 
L 108.359802 -63.410293 
L 113.267036 -57.132952 
L 118.174269 -60.165318 
L 123.081502 -51.900593 
L 127.988736 -56.317368 
L 132.895969 -68.45123 
L 137.803202 -62.993657 
L 142.710436 -64.944455 
L 147.617669 -65.576358 
L 152.524902 -54.528772 
L 157.432136 -63.414465 
L 162.339369 -68.172726 
L 167.246603 -49.33504 
L 172.153836 -74.117105 
L 177.061069 -74.717778 
L 181.968303 -72.01121 
L 186.875536 -78.379322 
L 191.782769 -80.865117 
L 196.690003 -73.420662 
L 201.597236 -78.223235 
L 206.50447 -70.526076 
L 211.411703 -70.86138 
L 216.318936 -64.273176 
L 221.22617 -71.011632 
L 226.133403 -68.247365 
L 231.040636 -58.136225 
L 235.94787 -66.886834 
L 240.855103 -66.96507 
L 245.762336 -83.061049 
L 250.66957 -87.038014 
L 255.576803 -63.929283 
L 260.484037 -84.773618 
L 265.39127 -80.230248 
L 270.298503 -93.546723 
L 275.205737 -95.756005 
L 280.11297 -76.94529 
L 285.020203 -103.192507 
L 289.927437 -79.793509 
L 294.83467 -81.279213 
L 299.741904 -86.170605 
L 304.649137 -91.287073 
L 309.55637 -92.699275 
L 314.463604 -87.759489 
L 319.370837 -91.56428 
L 324.27807 -96.012438 
L 329.185304 -97.126044 
L 334.092537 -106.568257 
L 338.99977 -100.655806 
L 343.907004 -92.119959 
L 348.814237 -97.501854 
L 353.721471 -79.862139 
L 358.628704 -80.783243 
L 363.535937 -129.465506 
L 368.443171 -119.514493 
L 373.350404 -133.634903 
L 378.257637 -153.774808 
L 383.164871 -134.99592 
L 388.072104 -138.010549 
L 392.979338 -140.126586 
L 397.886571 -151.669119 
L 402.793804 -136.057715 
L 407.701038 -129.907407 
L 412.608271 -137.988788 
L 417.515504 -146.888996 
L 422.422738 -147.200996 
L 427.329971 -148.045978 
L 432.237205 -147.635626 
L 437.144438 -148.739986 
L 442.051671 -151.399518 
L 446.958905 -144.718098 
L 451.866138 -150.141156 
L 456.773371 -147.132075 
L 461.680605 -140.991939 
L 466.587838 -131.80398 
L 471.495071 -123.091646 
L 476.402305 -121.817302 
L 481.309538 -167.64759 
L 486.216772 -185.023403 
L 491.124005 -166.797913 
L 496.031238 -169.937326 
L 500.938472 -157.916475 
L 505.845705 -167.625797 
L 510.752938 -160.427916 
L 515.660172 -164.626891 
L 520.567405 -159.443988 
L 525.474639 -147.680843 
L 530.381872 -146.510393 
L 535.289105 -140.615971 
L 540.196339 -151.878868 
L 545.103572 -163.876163 
L 550.010805 -149.046046 
L 554.918039 -125.725653 
L 559.825272 -117.842738 
L 564.732505 -129.650366 
L 569.639739 -146.337117 
L 574.546972 -151.347084 
L 579.454206 -140.784287 
L 584.361439 -128.315477 
L 589.268672 -115.127762 
L 594.175906 -138.01741 
L 599.083139 -158.182042 
L 603.990372 -165.793129 
L 608.897606 -148.26103 
L 613.804839 -147.246059 
L 618.712073 -140.915226 
L 623.619306 -137.700743 
L 628.526539 -149.896111 
L 633.433773 -143.776428 
L 638.341006 -145.097809 
L 643.248239 -149.484965 
L 648.155473 -149.705144 
L 653.062706 -139.852208 
L 657.96994 -151.33267 
L 662.877173 -140.083472 
L 667.784406 -148.535218 
L 672.69164 -139.955134 
L 672.69164 -142.486263 
L 672.69164 -142.486263 
L 667.784406 -150.241865 
L 662.877173 -141.650888 
L 657.96994 -153.144057 
L 653.062706 -141.42418 
L 648.155473 -151.621782 
L 643.248239 -151.143763 
L 638.341006 -146.879702 
L 633.433773 -145.231191 
L 628.526539 -151.50825 
L 623.619306 -139.168733 
L 618.712073 -142.512973 
L 613.804839 -148.63765 
L 608.897606 -149.982032 
L 603.990372 -167.369423 
L 599.083139 -159.807215 
L 594.175906 -139.718517 
L 589.268672 -116.304517 
L 584.361439 -129.607461 
L 579.454206 -142.089001 
L 574.546972 -152.579165 
L 569.639739 -147.764742 
L 564.732505 -131.017159 
L 559.825272 -119.112405 
L 554.918039 -127.359376 
L 550.010805 -150.941466 
L 545.103572 -165.863497 
L 540.196339 -153.990998 
L 535.289105 -142.578095 
L 530.381872 -148.654375 
L 525.474639 -149.887428 
L 520.567405 -162.156522 
L 515.660172 -166.833847 
L 510.752938 -162.704556 
L 505.845705 -169.918883 
L 500.938472 -160.244926 
L 496.031238 -172.380145 
L 491.124005 -169.546426 
L 486.216772 -187.439181 
L 481.309538 -171.009077 
L 476.402305 -123.996794 
L 471.495071 -124.625448 
L 466.587838 -134.184822 
L 461.680605 -143.704067 
L 456.773371 -149.871586 
L 451.866138 -152.451627 
L 446.958905 -147.030645 
L 442.051671 -154.274496 
L 437.144438 -151.203332 
L 432.237205 -150.618049 
L 427.329971 -151.469198 
L 422.422738 -150.290215 
L 417.515504 -150.385958 
L 412.608271 -141.610516 
L 407.701038 -133.760645 
L 402.793804 -141.215771 
L 397.886571 -155.820933 
L 392.979338 -144.27179 
L 388.072104 -142.415243 
L 383.164871 -140.142699 
L 378.257637 -158.642953 
L 373.350404 -139.099529 
L 368.443171 -125.006404 
L 363.535937 -134.758529 
L 358.628704 -84.987959 
L 353.721471 -83.140406 
L 348.814237 -101.459593 
L 343.907004 -96.975227 
L 338.99977 -105.353667 
L 334.092537 -111.638009 
L 329.185304 -102.122458 
L 324.27807 -100.515865 
L 319.370837 -96.1444 
L 314.463604 -91.86138 
L 309.55637 -99.796273 
L 304.649137 -97.122877 
L 299.741904 -91.840555 
L 294.83467 -86.318901 
L 289.927437 -85.44767 
L 285.020203 -110.219656 
L 280.11297 -81.26851 
L 275.205737 -101.16224 
L 270.298503 -99.559967 
L 265.39127 -85.064524 
L 260.484037 -90.171691 
L 255.576803 -68.54421 
L 250.66957 -92.480302 
L 245.762336 -90.174669 
L 240.855103 -71.665618 
L 235.94787 -69.555606 
L 231.040636 -61.293152 
L 226.133403 -72.705284 
L 221.22617 -75.156987 
L 216.318936 -68.31201 
L 211.411703 -74.950546 
L 206.50447 -75.592029 
L 201.597236 -82.763404 
L 196.690003 -78.17166 
L 191.782769 -86.244591 
L 186.875536 -84.964653 
L 181.968303 -77.782143 
L 177.061069 -79.311476 
L 172.153836 -79.997055 
L 167.246603 -52.670544 
L 162.339369 -73.376603 
L 157.432136 -68.502519 
L 152.524902 -58.887531 
L 147.617669 -71.014844 
L 142.710436 -70.063748 
L 137.803202 -67.621372 
L 132.895969 -73.862426 
L 127.988736 -61.725816 
L 123.081502 -55.14875 
L 118.174269 -62.644041 
L 113.267036 -60.381388 
L 108.359802 -67.421216 
L 103.452569 -68.857505 
L 98.545335 -65.255086 
L 93.638102 -71.22429 
L 88.730869 -64.208006 
L 83.823635 -50.73656 
L 78.916402 -81.696984 
L 74.009169 -52.216258 
z
" style="stroke: #0015bc; stroke-opacity: 0.2"/>
    </defs>
    <g clip-path="url(#p24703b6b36)">
     <use xlink:href="#m0038bba730" x="0" y="424.8" style="fill: #0015bc; fill-opacity: 0.2; stroke: #0015bc; stroke-opacity: 0.2"/>
    </g>
   </g>
   <g id="PolyCollection_6">
    <defs>
     <path id="m86016b961b" d="M 74.009169 -45.17325 
L 74.009169 -48.694754 
L 78.916402 -77.071934 
L 83.823635 -47.531674 
L 88.730869 -60.50066 
L 93.638102 -67.280717 
L 98.545335 -61.936629 
L 103.452569 -65.312496 
L 108.359802 -63.410293 
L 113.267036 -57.132952 
L 118.174269 -60.165318 
L 123.081502 -51.900593 
L 127.988736 -56.317368 
L 132.895969 -68.45123 
L 137.803202 -62.993657 
L 142.710436 -64.944455 
L 147.617669 -65.576358 
L 152.524902 -54.528772 
L 157.432136 -63.414465 
L 162.339369 -68.172726 
L 167.246603 -49.33504 
L 172.153836 -74.117105 
L 177.061069 -74.717778 
L 181.968303 -72.01121 
L 186.875536 -78.379322 
L 191.782769 -80.865117 
L 196.690003 -73.420662 
L 201.597236 -78.223235 
L 206.50447 -70.526076 
L 211.411703 -70.86138 
L 216.318936 -64.273176 
L 221.22617 -71.011632 
L 226.133403 -68.247365 
L 231.040636 -58.136225 
L 235.94787 -66.886834 
L 240.855103 -66.96507 
L 245.762336 -83.061049 
L 250.66957 -87.038014 
L 255.576803 -63.929283 
L 260.484037 -84.773618 
L 265.39127 -80.230248 
L 270.298503 -93.546723 
L 275.205737 -95.756005 
L 280.11297 -76.94529 
L 285.020203 -103.192507 
L 289.927437 -79.793509 
L 294.83467 -81.279213 
L 299.741904 -86.170605 
L 304.649137 -91.287073 
L 309.55637 -92.699275 
L 314.463604 -87.759489 
L 319.370837 -91.56428 
L 324.27807 -96.012438 
L 329.185304 -97.126044 
L 334.092537 -106.568257 
L 338.99977 -100.655806 
L 343.907004 -92.119959 
L 348.814237 -97.501854 
L 353.721471 -79.862139 
L 358.628704 -80.783243 
L 363.535937 -129.465506 
L 368.443171 -119.514493 
L 373.350404 -133.634903 
L 378.257637 -153.774808 
L 383.164871 -134.99592 
L 388.072104 -138.010549 
L 392.979338 -140.126586 
L 397.886571 -151.669119 
L 402.793804 -136.057715 
L 407.701038 -129.907407 
L 412.608271 -137.988788 
L 417.515504 -146.888996 
L 422.422738 -147.200996 
L 427.329971 -148.045978 
L 432.237205 -147.635626 
L 437.144438 -148.739986 
L 442.051671 -151.399518 
L 446.958905 -144.718098 
L 451.866138 -150.141156 
L 456.773371 -147.132075 
L 461.680605 -140.991939 
L 466.587838 -131.80398 
L 471.495071 -123.091646 
L 476.402305 -121.817302 
L 481.309538 -167.64759 
L 486.216772 -185.023403 
L 491.124005 -166.797913 
L 496.031238 -169.937326 
L 500.938472 -157.916475 
L 505.845705 -167.625797 
L 510.752938 -160.427916 
L 515.660172 -164.626891 
L 520.567405 -159.443988 
L 525.474639 -147.680843 
L 530.381872 -146.510393 
L 535.289105 -140.615971 
L 540.196339 -151.878868 
L 545.103572 -163.876163 
L 550.010805 -149.046046 
L 554.918039 -125.725653 
L 559.825272 -117.842738 
L 564.732505 -129.650366 
L 569.639739 -146.337117 
L 574.546972 -151.347084 
L 579.454206 -140.784287 
L 584.361439 -128.315477 
L 589.268672 -115.127762 
L 594.175906 -138.01741 
L 599.083139 -158.182042 
L 603.990372 -165.793129 
L 608.897606 -148.26103 
L 613.804839 -147.246059 
L 618.712073 -140.915226 
L 623.619306 -137.700743 
L 628.526539 -149.896111 
L 633.433773 -143.776428 
L 638.341006 -145.097809 
L 643.248239 -149.484965 
L 648.155473 -149.705144 
L 653.062706 -139.852208 
L 657.96994 -151.33267 
L 662.877173 -140.083472 
L 667.784406 -148.535218 
L 672.69164 -139.955134 
L 672.69164 -137.424005 
L 672.69164 -137.424005 
L 667.784406 -146.828571 
L 662.877173 -138.516056 
L 657.96994 -149.521282 
L 653.062706 -138.280236 
L 648.155473 -147.788506 
L 643.248239 -147.826166 
L 638.341006 -143.315915 
L 633.433773 -142.321666 
L 628.526539 -148.283972 
L 623.619306 -136.232753 
L 618.712073 -139.317479 
L 613.804839 -145.854468 
L 608.897606 -146.540028 
L 603.990372 -164.216835 
L 599.083139 -156.556869 
L 594.175906 -136.316303 
L 589.268672 -113.951008 
L 584.361439 -127.023494 
L 579.454206 -139.479573 
L 574.546972 -150.115002 
L 569.639739 -144.909492 
L 564.732505 -128.283573 
L 559.825272 -116.573072 
L 554.918039 -124.09193 
L 550.010805 -147.150625 
L 545.103572 -161.88883 
L 540.196339 -149.766739 
L 535.289105 -138.653847 
L 530.381872 -144.366411 
L 525.474639 -145.474257 
L 520.567405 -156.731453 
L 515.660172 -162.419934 
L 510.752938 -158.151277 
L 505.845705 -165.332711 
L 500.938472 -155.588024 
L 496.031238 -167.494507 
L 491.124005 -164.0494 
L 486.216772 -182.607626 
L 481.309538 -164.286102 
L 476.402305 -119.637811 
L 471.495071 -121.557845 
L 466.587838 -129.423139 
L 461.680605 -138.279811 
L 456.773371 -144.392564 
L 451.866138 -147.830685 
L 446.958905 -142.40555 
L 442.051671 -148.52454 
L 437.144438 -146.27664 
L 432.237205 -144.653203 
L 427.329971 -144.622759 
L 422.422738 -144.111777 
L 417.515504 -143.392035 
L 412.608271 -134.367059 
L 407.701038 -126.05417 
L 402.793804 -130.89966 
L 397.886571 -147.517305 
L 392.979338 -135.981382 
L 388.072104 -133.605854 
L 383.164871 -129.849141 
L 378.257637 -148.906662 
L 373.350404 -128.170277 
L 368.443171 -114.022583 
L 363.535937 -124.172483 
L 358.628704 -76.578527 
L 353.721471 -76.583872 
L 348.814237 -93.544116 
L 343.907004 -87.26469 
L 338.99977 -95.957944 
L 334.092537 -101.498505 
L 329.185304 -92.12963 
L 324.27807 -91.509011 
L 319.370837 -86.98416 
L 314.463604 -83.657597 
L 309.55637 -85.602277 
L 304.649137 -85.451269 
L 299.741904 -80.500655 
L 294.83467 -76.239524 
L 289.927437 -74.139347 
L 285.020203 -96.165359 
L 280.11297 -72.62207 
L 275.205737 -90.349769 
L 270.298503 -87.53348 
L 265.39127 -75.395972 
L 260.484037 -79.375545 
L 255.576803 -59.314357 
L 250.66957 -81.595727 
L 245.762336 -75.947429 
L 240.855103 -62.264523 
L 235.94787 -64.218062 
L 231.040636 -54.979298 
L 226.133403 -63.789446 
L 221.22617 -66.866277 
L 216.318936 -60.234343 
L 211.411703 -66.772214 
L 206.50447 -65.460124 
L 201.597236 -73.683065 
L 196.690003 -68.669665 
L 191.782769 -75.485643 
L 186.875536 -71.793991 
L 181.968303 -66.240277 
L 177.061069 -70.12408 
L 172.153836 -68.237155 
L 167.246603 -45.999536 
L 162.339369 -62.968849 
L 157.432136 -58.32641 
L 152.524902 -50.170013 
L 147.617669 -60.137872 
L 142.710436 -59.825162 
L 137.803202 -58.365942 
L 132.895969 -63.040034 
L 127.988736 -50.908921 
L 123.081502 -48.652436 
L 118.174269 -57.686595 
L 113.267036 -53.884516 
L 108.359802 -59.39937 
L 103.452569 -61.767488 
L 98.545335 -58.618171 
L 93.638102 -63.337145 
L 88.730869 -56.793314 
L 83.823635 -44.326788 
L 78.916402 -72.446885 
L 74.009169 -45.17325 
z
" style="stroke: #0015bc; stroke-opacity: 0.2"/>
    </defs>
    <g clip-path="url(#p24703b6b36)">
     <use xlink:href="#m86016b961b" x="0" y="424.8" style="fill: #0015bc; fill-opacity: 0.2; stroke: #0015bc; stroke-opacity: 0.2"/>
    </g>
   </g>
   <g id="PolyCollection_7">
    <defs>
     <path id="ma86d4cbc8b" d="M 74.009169 -82.254188 
L 74.009169 -77.389066 
L 78.916402 -72.997943 
L 83.823635 -78.951913 
L 88.730869 -82.505657 
L 93.638102 -82.8141 
L 98.545335 -74.532357 
L 103.452569 -67.158603 
L 108.359802 -68.321196 
L 113.267036 -69.894291 
L 118.174269 -76.210692 
L 123.081502 -81.528912 
L 127.988736 -113.233285 
L 132.895969 -89.018408 
L 137.803202 -88.550612 
L 142.710436 -92.600008 
L 147.617669 -84.402133 
L 152.524902 -96.116726 
L 157.432136 -88.609088 
L 162.339369 -102.174995 
L 167.246603 -87.81986 
L 172.153836 -80.826534 
L 177.061069 -107.663767 
L 181.968303 -98.169157 
L 186.875536 -99.822418 
L 191.782769 -87.812327 
L 196.690003 -101.038025 
L 201.597236 -89.256617 
L 206.50447 -83.122131 
L 211.411703 -73.862108 
L 216.318936 -78.893126 
L 221.22617 -74.551239 
L 226.133403 -74.402041 
L 231.040636 -74.443116 
L 235.94787 -74.147988 
L 240.855103 -73.164568 
L 245.762336 -90.721448 
L 250.66957 -94.487103 
L 255.576803 -94.294453 
L 260.484037 -93.829061 
L 265.39127 -86.400087 
L 270.298503 -84.468193 
L 275.205737 -85.972755 
L 280.11297 -96.286073 
L 285.020203 -88.24589 
L 289.927437 -94.947571 
L 294.83467 -84.276052 
L 299.741904 -88.396956 
L 304.649137 -95.032532 
L 309.55637 -84.631174 
L 314.463604 -87.689262 
L 319.370837 -84.447047 
L 324.27807 -83.329942 
L 329.185304 -81.022678 
L 334.092537 -86.120758 
L 338.99977 -79.084659 
L 343.907004 -78.477485 
L 348.814237 -86.061342 
L 353.721471 -87.791495 
L 358.628704 -84.868457 
L 363.535937 -103.322213 
L 368.443171 -104.589684 
L 373.350404 -91.557757 
L 378.257637 -92.169778 
L 383.164871 -101.297008 
L 388.072104 -101.481176 
L 392.979338 -99.148631 
L 397.886571 -103.22292 
L 402.793804 -103.957866 
L 407.701038 -86.342406 
L 412.608271 -97.990301 
L 417.515504 -104.317193 
L 422.422738 -115.55146 
L 427.329971 -116.66091 
L 432.237205 -109.590965 
L 437.144438 -97.877732 
L 442.051671 -102.416446 
L 446.958905 -103.105997 
L 451.866138 -115.703335 
L 456.773371 -119.327494 
L 461.680605 -124.926405 
L 466.587838 -114.360583 
L 471.495071 -120.247267 
L 476.402305 -124.330529 
L 481.309538 -114.960133 
L 486.216772 -123.868563 
L 491.124005 -128.317562 
L 496.031238 -123.790737 
L 500.938472 -127.986729 
L 505.845705 -125.134976 
L 510.752938 -119.09679 
L 515.660172 -131.862298 
L 520.567405 -119.70555 
L 525.474639 -115.873187 
L 530.381872 -120.821017 
L 535.289105 -125.413355 
L 540.196339 -131.464709 
L 545.103572 -138.038931 
L 550.010805 -124.436834 
L 554.918039 -104.059045 
L 559.825272 -99.710268 
L 564.732505 -115.700453 
L 569.639739 -117.456877 
L 574.546972 -124.973898 
L 579.454206 -127.764939 
L 584.361439 -117.310621 
L 589.268672 -117.374105 
L 594.175906 -127.53939 
L 599.083139 -137.911487 
L 603.990372 -134.26553 
L 608.897606 -143.016037 
L 613.804839 -142.316706 
L 618.712073 -147.697972 
L 623.619306 -150.394429 
L 628.526539 -155.428538 
L 633.433773 -161.910824 
L 638.341006 -163.0888 
L 643.248239 -162.986666 
L 648.155473 -171.540955 
L 653.062706 -165.248116 
L 657.96994 -163.705693 
L 662.877173 -169.012305 
L 667.784406 -158.136062 
L 672.69164 -142.431275 
L 672.69164 -145.261658 
L 672.69164 -145.261658 
L 667.784406 -160.355454 
L 662.877173 -170.984231 
L 657.96994 -166.032574 
L 653.062706 -167.39637 
L 648.155473 -173.15138 
L 643.248239 -164.921512 
L 638.341006 -165.276353 
L 633.433773 -163.677271 
L 628.526539 -157.311264 
L 623.619306 -152.288219 
L 618.712073 -149.587287 
L 613.804839 -144.307425 
L 608.897606 -144.910212 
L 603.990372 -136.635625 
L 599.083139 -140.2831 
L 594.175906 -129.707459 
L 589.268672 -118.997899 
L 584.361439 -119.22081 
L 579.454206 -129.587434 
L 574.546972 -126.740056 
L 569.639739 -119.453755 
L 564.732505 -117.401719 
L 559.825272 -101.051523 
L 554.918039 -105.9108 
L 550.010805 -126.483621 
L 545.103572 -140.39299 
L 540.196339 -134.084579 
L 535.289105 -128.192807 
L 530.381872 -123.166766 
L 525.474639 -118.490704 
L 520.567405 -122.481119 
L 515.660172 -134.427138 
L 510.752938 -121.705989 
L 505.845705 -127.934841 
L 500.938472 -130.880448 
L 496.031238 -126.502476 
L 491.124005 -131.383403 
L 486.216772 -126.9735 
L 481.309538 -118.647113 
L 476.402305 -127.712037 
L 471.495071 -122.749739 
L 466.587838 -117.402812 
L 461.680605 -128.008754 
L 456.773371 -122.151113 
L 451.866138 -118.118852 
L 446.958905 -105.540903 
L 442.051671 -105.391052 
L 437.144438 -100.422479 
L 432.237205 -112.443414 
L 427.329971 -119.685518 
L 422.422738 -118.967063 
L 417.515504 -106.980188 
L 412.608271 -101.004038 
L 407.701038 -89.404266 
L 402.793804 -107.465787 
L 397.886571 -107.113828 
L 392.979338 -102.813557 
L 388.072104 -104.854753 
L 383.164871 -104.576894 
L 378.257637 -95.262428 
L 373.350404 -95.461613 
L 368.443171 -108.348028 
L 363.535937 -106.98581 
L 358.628704 -87.607994 
L 353.721471 -90.13693 
L 348.814237 -88.686302 
L 343.907004 -80.760383 
L 338.99977 -81.950418 
L 334.092537 -88.702905 
L 329.185304 -83.728404 
L 324.27807 -85.860592 
L 319.370837 -87.001246 
L 314.463604 -90.476741 
L 309.55637 -87.77374 
L 304.649137 -98.549791 
L 299.741904 -91.556131 
L 294.83467 -87.488564 
L 289.927437 -98.531541 
L 285.020203 -92.469164 
L 280.11297 -99.59783 
L 275.205737 -89.441679 
L 270.298503 -87.871633 
L 265.39127 -90.136036 
L 260.484037 -97.286936 
L 255.576803 -99.042277 
L 250.66957 -98.719341 
L 245.762336 -96.160469 
L 240.855103 -77.129632 
L 235.94787 -76.597922 
L 231.040636 -77.460051 
L 226.133403 -78.167694 
L 221.22617 -77.196681 
L 216.318936 -81.780726 
L 211.411703 -77.593854 
L 206.50447 -86.326228 
L 201.597236 -92.801663 
L 196.690003 -105.076248 
L 191.782769 -91.280912 
L 186.875536 -103.973517 
L 181.968303 -102.512466 
L 177.061069 -113.072707 
L 172.153836 -84.358042 
L 167.246603 -92.684052 
L 162.339369 -107.349131 
L 157.432136 -93.252301 
L 152.524902 -100.437631 
L 147.617669 -89.640541 
L 142.710436 -97.875588 
L 137.803202 -94.273738 
L 132.895969 -94.990556 
L 127.988736 -120.394414 
L 123.081502 -86.531835 
L 118.174269 -80.180918 
L 113.267036 -74.610305 
L 108.359802 -72.030777 
L 103.452569 -71.011496 
L 98.545335 -78.388187 
L 93.638102 -87.463386 
L 88.730869 -86.806592 
L 83.823635 -83.002248 
L 78.916402 -77.095464 
L 74.009169 -82.254188 
z
" style="stroke: #ff0000; stroke-opacity: 0.2"/>
    </defs>
    <g clip-path="url(#p24703b6b36)">
     <use xlink:href="#ma86d4cbc8b" x="0" y="424.8" style="fill: #ff0000; fill-opacity: 0.2; stroke: #ff0000; stroke-opacity: 0.2"/>
    </g>
   </g>
   <g id="PolyCollection_8">
    <defs>
     <path id="md6d64f4c92" d="M 74.009169 -72.523943 
L 74.009169 -77.389066 
L 78.916402 -72.997943 
L 83.823635 -78.951913 
L 88.730869 -82.505657 
L 93.638102 -82.8141 
L 98.545335 -74.532357 
L 103.452569 -67.158603 
L 108.359802 -68.321196 
L 113.267036 -69.894291 
L 118.174269 -76.210692 
L 123.081502 -81.528912 
L 127.988736 -113.233285 
L 132.895969 -89.018408 
L 137.803202 -88.550612 
L 142.710436 -92.600008 
L 147.617669 -84.402133 
L 152.524902 -96.116726 
L 157.432136 -88.609088 
L 162.339369 -102.174995 
L 167.246603 -87.81986 
L 172.153836 -80.826534 
L 177.061069 -107.663767 
L 181.968303 -98.169157 
L 186.875536 -99.822418 
L 191.782769 -87.812327 
L 196.690003 -101.038025 
L 201.597236 -89.256617 
L 206.50447 -83.122131 
L 211.411703 -73.862108 
L 216.318936 -78.893126 
L 221.22617 -74.551239 
L 226.133403 -74.402041 
L 231.040636 -74.443116 
L 235.94787 -74.147988 
L 240.855103 -73.164568 
L 245.762336 -90.721448 
L 250.66957 -94.487103 
L 255.576803 -94.294453 
L 260.484037 -93.829061 
L 265.39127 -86.400087 
L 270.298503 -84.468193 
L 275.205737 -85.972755 
L 280.11297 -96.286073 
L 285.020203 -88.24589 
L 289.927437 -94.947571 
L 294.83467 -84.276052 
L 299.741904 -88.396956 
L 304.649137 -95.032532 
L 309.55637 -84.631174 
L 314.463604 -87.689262 
L 319.370837 -84.447047 
L 324.27807 -83.329942 
L 329.185304 -81.022678 
L 334.092537 -86.120758 
L 338.99977 -79.084659 
L 343.907004 -78.477485 
L 348.814237 -86.061342 
L 353.721471 -87.791495 
L 358.628704 -84.868457 
L 363.535937 -103.322213 
L 368.443171 -104.589684 
L 373.350404 -91.557757 
L 378.257637 -92.169778 
L 383.164871 -101.297008 
L 388.072104 -101.481176 
L 392.979338 -99.148631 
L 397.886571 -103.22292 
L 402.793804 -103.957866 
L 407.701038 -86.342406 
L 412.608271 -97.990301 
L 417.515504 -104.317193 
L 422.422738 -115.55146 
L 427.329971 -116.66091 
L 432.237205 -109.590965 
L 437.144438 -97.877732 
L 442.051671 -102.416446 
L 446.958905 -103.105997 
L 451.866138 -115.703335 
L 456.773371 -119.327494 
L 461.680605 -124.926405 
L 466.587838 -114.360583 
L 471.495071 -120.247267 
L 476.402305 -124.330529 
L 481.309538 -114.960133 
L 486.216772 -123.868563 
L 491.124005 -128.317562 
L 496.031238 -123.790737 
L 500.938472 -127.986729 
L 505.845705 -125.134976 
L 510.752938 -119.09679 
L 515.660172 -131.862298 
L 520.567405 -119.70555 
L 525.474639 -115.873187 
L 530.381872 -120.821017 
L 535.289105 -125.413355 
L 540.196339 -131.464709 
L 545.103572 -138.038931 
L 550.010805 -124.436834 
L 554.918039 -104.059045 
L 559.825272 -99.710268 
L 564.732505 -115.700453 
L 569.639739 -117.456877 
L 574.546972 -124.973898 
L 579.454206 -127.764939 
L 584.361439 -117.310621 
L 589.268672 -117.374105 
L 594.175906 -127.53939 
L 599.083139 -137.911487 
L 603.990372 -134.26553 
L 608.897606 -143.016037 
L 613.804839 -142.316706 
L 618.712073 -147.697972 
L 623.619306 -150.394429 
L 628.526539 -155.428538 
L 633.433773 -161.910824 
L 638.341006 -163.0888 
L 643.248239 -162.986666 
L 648.155473 -171.540955 
L 653.062706 -165.248116 
L 657.96994 -163.705693 
L 662.877173 -169.012305 
L 667.784406 -158.136062 
L 672.69164 -142.431275 
L 672.69164 -139.600891 
L 672.69164 -139.600891 
L 667.784406 -155.916669 
L 662.877173 -167.040379 
L 657.96994 -161.378812 
L 653.062706 -163.099863 
L 648.155473 -169.930531 
L 643.248239 -161.05182 
L 638.341006 -160.901246 
L 633.433773 -160.144377 
L 628.526539 -153.545811 
L 623.619306 -148.50064 
L 618.712073 -145.808657 
L 613.804839 -140.325987 
L 608.897606 -141.121861 
L 603.990372 -131.895435 
L 599.083139 -135.539874 
L 594.175906 -125.371321 
L 589.268672 -115.75031 
L 584.361439 -115.400433 
L 579.454206 -125.942444 
L 574.546972 -123.207741 
L 569.639739 -115.46 
L 564.732505 -113.999188 
L 559.825272 -98.369014 
L 554.918039 -102.20729 
L 550.010805 -122.390047 
L 545.103572 -135.684871 
L 540.196339 -128.844838 
L 535.289105 -122.633903 
L 530.381872 -118.475267 
L 525.474639 -113.25567 
L 520.567405 -116.929981 
L 515.660172 -129.297458 
L 510.752938 -116.487592 
L 505.845705 -122.335111 
L 500.938472 -125.09301 
L 496.031238 -121.078998 
L 491.124005 -125.251721 
L 486.216772 -120.763626 
L 481.309538 -111.273153 
L 476.402305 -120.949021 
L 471.495071 -117.744794 
L 466.587838 -111.318355 
L 461.680605 -121.844055 
L 456.773371 -116.503875 
L 451.866138 -113.287819 
L 446.958905 -100.671091 
L 442.051671 -99.441839 
L 437.144438 -95.332985 
L 432.237205 -106.738516 
L 427.329971 -113.636301 
L 422.422738 -112.135857 
L 417.515504 -101.654198 
L 412.608271 -94.976563 
L 407.701038 -83.280546 
L 402.793804 -100.449945 
L 397.886571 -99.332012 
L 392.979338 -95.483704 
L 388.072104 -98.1076 
L 383.164871 -98.017122 
L 378.257637 -89.077127 
L 373.350404 -87.653901 
L 368.443171 -100.831341 
L 363.535937 -99.658617 
L 358.628704 -82.128921 
L 353.721471 -85.446061 
L 348.814237 -83.436383 
L 343.907004 -76.194586 
L 338.99977 -76.2189 
L 334.092537 -83.538611 
L 329.185304 -78.316953 
L 324.27807 -80.799291 
L 319.370837 -81.892847 
L 314.463604 -84.901783 
L 309.55637 -81.488607 
L 304.649137 -91.515274 
L 299.741904 -85.237781 
L 294.83467 -81.063539 
L 289.927437 -91.363601 
L 285.020203 -84.022617 
L 280.11297 -92.974316 
L 275.205737 -82.503831 
L 270.298503 -81.064753 
L 265.39127 -82.664137 
L 260.484037 -90.371185 
L 255.576803 -89.54663 
L 250.66957 -90.254864 
L 245.762336 -85.282427 
L 240.855103 -69.199505 
L 235.94787 -71.698054 
L 231.040636 -71.426181 
L 226.133403 -70.636388 
L 221.22617 -71.905798 
L 216.318936 -76.005526 
L 211.411703 -70.130362 
L 206.50447 -79.918035 
L 201.597236 -85.71157 
L 196.690003 -96.999801 
L 191.782769 -84.343743 
L 186.875536 -95.671319 
L 181.968303 -93.825848 
L 177.061069 -102.254826 
L 172.153836 -77.295027 
L 167.246603 -82.955668 
L 162.339369 -97.000859 
L 157.432136 -83.965876 
L 152.524902 -91.79582 
L 147.617669 -79.163726 
L 142.710436 -87.324427 
L 137.803202 -82.827487 
L 132.895969 -83.046259 
L 127.988736 -106.072155 
L 123.081502 -76.52599 
L 118.174269 -72.240466 
L 113.267036 -65.178276 
L 108.359802 -64.611616 
L 103.452569 -63.305711 
L 98.545335 -70.676527 
L 93.638102 -78.164814 
L 88.730869 -78.204722 
L 83.823635 -74.901578 
L 78.916402 -68.900421 
L 74.009169 -72.523943 
z
" style="stroke: #ff0000; stroke-opacity: 0.2"/>
    </defs>
    <g clip-path="url(#p24703b6b36)">
     <use xlink:href="#md6d64f4c92" x="0" y="424.8" style="fill: #ff0000; fill-opacity: 0.2; stroke: #ff0000; stroke-opacity: 0.2"/>
    </g>
   </g>
   <g id="matplotlib.axis_3">
    <g id="xtick_1">
     <g id="line2d_9">
      <defs>
       <path id="mff5bf9ab14" d="M 0 0 
L 0 3.5 
" style="stroke: #000000; stroke-width: 0.8"/>
      </defs>
      <g>
       <use xlink:href="#mff5bf9ab14" x="103.452569" y="399.973224" style="stroke: #000000; stroke-width: 0.8"/>
      </g>
     </g>
     <g id="text_8">
      <!-- 2012 -->
      <g transform="translate(91.746588 415.275404)scale(0.12 -0.12)">
       <defs>
        <path id="CMSS17-31" d="M 1818 4288 
L 1696 4288 
C 1350 3949 947 3902 538 3891 
L 538 3520 
C 723 3526 1024 3539 1325 3673 
L 1325 371 
L 570 371 
L 570 0 
L 2573 0 
L 2573 371 
L 1818 371 
L 1818 4288 
z
" transform="scale(0.015625)"/>
       </defs>
       <use xlink:href="#CMSS17-32" transform="scale(0.996264)"/>
       <use xlink:href="#CMSS17-30" transform="translate(46.843624 0)scale(0.996264)"/>
       <use xlink:href="#CMSS17-31" transform="translate(93.687247 0)scale(0.996264)"/>
       <use xlink:href="#CMSS17-32" transform="translate(140.530871 0)scale(0.996264)"/>
      </g>
     </g>
    </g>
    <g id="xtick_2">
     <g id="line2d_10">
      <g>
       <use xlink:href="#mff5bf9ab14" x="221.22617" y="399.973224" style="stroke: #000000; stroke-width: 0.8"/>
      </g>
     </g>
     <g id="text_9">
      <!-- 2014 -->
      <g transform="translate(209.520189 415.275404)scale(0.12 -0.12)">
       <use xlink:href="#CMSS17-32" transform="scale(0.996264)"/>
       <use xlink:href="#CMSS17-30" transform="translate(46.843624 0)scale(0.996264)"/>
       <use xlink:href="#CMSS17-31" transform="translate(93.687247 0)scale(0.996264)"/>
       <use xlink:href="#CMSS17-34" transform="translate(140.530871 0)scale(0.996264)"/>
      </g>
     </g>
    </g>
    <g id="xtick_3">
     <g id="line2d_11">
      <g>
       <use xlink:href="#mff5bf9ab14" x="338.99977" y="399.973224" style="stroke: #000000; stroke-width: 0.8"/>
      </g>
     </g>
     <g id="text_10">
      <!-- 2016 -->
      <g transform="translate(327.29379 415.275404)scale(0.12 -0.12)">
       <use xlink:href="#CMSS17-32" transform="scale(0.996264)"/>
       <use xlink:href="#CMSS17-30" transform="translate(46.843624 0)scale(0.996264)"/>
       <use xlink:href="#CMSS17-31" transform="translate(93.687247 0)scale(0.996264)"/>
       <use xlink:href="#CMSS17-36" transform="translate(140.530871 0)scale(0.996264)"/>
      </g>
     </g>
    </g>
    <g id="xtick_4">
     <g id="line2d_12">
      <g>
       <use xlink:href="#mff5bf9ab14" x="456.773371" y="399.973224" style="stroke: #000000; stroke-width: 0.8"/>
      </g>
     </g>
     <g id="text_11">
      <!-- 2018 -->
      <g transform="translate(445.067391 415.275404)scale(0.12 -0.12)">
       <defs>
        <path id="CMSS17-38" d="M 1933 2246 
C 2419 2406 2669 2793 2669 3174 
C 2669 3774 2157 4288 1504 4288 
C 826 4288 333 3755 333 3174 
C 333 2799 576 2412 1069 2246 
C 442 2003 250 1516 250 1152 
C 250 448 819 -128 1498 -128 
C 2202 -128 2752 460 2752 1152 
C 2752 1574 2502 2022 1933 2246 
z
M 1504 2438 
C 1075 2438 787 2728 787 3167 
C 787 3613 1075 3897 1504 3897 
C 1901 3897 2214 3639 2214 3167 
C 2214 2703 1907 2438 1504 2438 
z
M 1504 268 
C 1139 268 749 518 749 1158 
C 749 1817 1184 2048 1498 2048 
C 1843 2048 2253 1804 2253 1158 
C 2253 492 1830 268 1504 268 
z
" transform="scale(0.015625)"/>
       </defs>
       <use xlink:href="#CMSS17-32" transform="scale(0.996264)"/>
       <use xlink:href="#CMSS17-30" transform="translate(46.843624 0)scale(0.996264)"/>
       <use xlink:href="#CMSS17-31" transform="translate(93.687247 0)scale(0.996264)"/>
       <use xlink:href="#CMSS17-38" transform="translate(140.530871 0)scale(0.996264)"/>
      </g>
     </g>
    </g>
    <g id="xtick_5">
     <g id="line2d_13">
      <g>
       <use xlink:href="#mff5bf9ab14" x="574.546972" y="399.973224" style="stroke: #000000; stroke-width: 0.8"/>
      </g>
     </g>
     <g id="text_12">
      <!-- 2020 -->
      <g transform="translate(562.840992 415.275404)scale(0.12 -0.12)">
       <use xlink:href="#CMSS17-32" transform="scale(0.996264)"/>
       <use xlink:href="#CMSS17-30" transform="translate(46.843624 0)scale(0.996264)"/>
       <use xlink:href="#CMSS17-32" transform="translate(93.687247 0)scale(0.996264)"/>
       <use xlink:href="#CMSS17-30" transform="translate(140.530871 0)scale(0.996264)"/>
      </g>
     </g>
    </g>
    <g id="xtick_6">
     <g id="line2d_14">
      <g>
       <use xlink:href="#mff5bf9ab14" x="692.320573" y="399.973224" style="stroke: #000000; stroke-width: 0.8"/>
      </g>
     </g>
     <g id="text_13">
      <!-- 2022 -->
      <g transform="translate(680.614593 415.275404)scale(0.12 -0.12)">
       <use xlink:href="#CMSS17-32" transform="scale(0.996264)"/>
       <use xlink:href="#CMSS17-30" transform="translate(46.843624 0)scale(0.996264)"/>
       <use xlink:href="#CMSS17-32" transform="translate(93.687247 0)scale(0.996264)"/>
       <use xlink:href="#CMSS17-32" transform="translate(140.530871 0)scale(0.996264)"/>
      </g>
     </g>
    </g>
   </g>
   <g id="matplotlib.axis_4">
    <g id="ytick_5">
     <g id="line2d_15">
      <g>
       <use xlink:href="#md1688d08dc" x="44.075045" y="399.973224" style="stroke: #000000; stroke-width: 0.8"/>
      </g>
     </g>
     <g id="text_14">
      <!-- 0% -->
      <g transform="translate(31.222055 404.124314)scale(0.12 -0.12)">
       <use xlink:href="#CMSS17-30" transform="scale(0.996264)"/>
      </g>
     </g>
    </g>
    <g id="ytick_6">
     <g id="line2d_16">
      <g>
       <use xlink:href="#md1688d08dc" x="44.075045" y="344.752998" style="stroke: #000000; stroke-width: 0.8"/>
      </g>
     </g>
     <g id="text_15">
      <!-- 20% -->
      <g transform="translate(25.369064 348.904088)scale(0.12 -0.12)">
       <use xlink:href="#CMSS17-32" transform="scale(0.996264)"/>
       <use xlink:href="#CMSS17-30" transform="translate(46.843624 0)scale(0.996264)"/>
      </g>
     </g>
    </g>
    <g id="ytick_7">
     <g id="line2d_17">
      <g>
       <use xlink:href="#md1688d08dc" x="44.075045" y="289.532772" style="stroke: #000000; stroke-width: 0.8"/>
      </g>
     </g>
     <g id="text_16">
      <!-- 40% -->
      <g transform="translate(25.369064 293.683862)scale(0.12 -0.12)">
       <use xlink:href="#CMSS17-34" transform="scale(0.996264)"/>
       <use xlink:href="#CMSS17-30" transform="translate(46.843624 0)scale(0.996264)"/>
      </g>
     </g>
    </g>
    <g id="ytick_8">
     <g id="line2d_18">
      <g>
       <use xlink:href="#md1688d08dc" x="44.075045" y="234.312546" style="stroke: #000000; stroke-width: 0.8"/>
      </g>
     </g>
     <g id="text_17">
      <!-- 60% -->
      <g transform="translate(25.369064 238.463635)scale(0.12 -0.12)">
       <use xlink:href="#CMSS17-36" transform="scale(0.996264)"/>
       <use xlink:href="#CMSS17-30" transform="translate(46.843624 0)scale(0.996264)"/>
      </g>
     </g>
    </g>
    <g id="text_18">
     <!-- independent list coverage -->
     <g transform="translate(18.269588 388.246353)rotate(-90)scale(0.16 -0.16)">
      <use xlink:href="#CMSS17-69" transform="scale(0.996264)"/>
      <use xlink:href="#CMSS17-6e" transform="translate(22.180723 0)scale(0.996264)"/>
      <use xlink:href="#CMSS17-64" transform="translate(70.385666 0)scale(0.996264)"/>
      <use xlink:href="#CMSS17-65" transform="translate(118.590609 0)scale(0.996264)"/>
      <use xlink:href="#CMSS17-70" transform="translate(160.229431 0)scale(0.996264)"/>
      <use xlink:href="#CMSS17-65" transform="translate(211.036813 0)scale(0.996264)"/>
      <use xlink:href="#CMSS17-6e" transform="translate(252.675635 0)scale(0.996264)"/>
      <use xlink:href="#CMSS17-64" transform="translate(300.880578 0)scale(0.996264)"/>
      <use xlink:href="#CMSS17-65" transform="translate(349.085522 0)scale(0.996264)"/>
      <use xlink:href="#CMSS17-6e" transform="translate(390.724344 0)scale(0.996264)"/>
      <use xlink:href="#CMSS17-74" transform="translate(438.929287 0)scale(0.996264)"/>
      <use xlink:href="#CMSS17-6c" transform="translate(503.989966 0)scale(0.996264)"/>
      <use xlink:href="#CMSS17-69" transform="translate(526.170689 0)scale(0.996264)"/>
      <use xlink:href="#CMSS17-73" transform="translate(548.351412 0)scale(0.996264)"/>
      <use xlink:href="#CMSS17-74" transform="translate(584.264954 0)scale(0.996264)"/>
      <use xlink:href="#CMSS17-63" transform="translate(649.325634 0)scale(0.996264)"/>
      <use xlink:href="#CMSS17-6f" transform="translate(690.964456 0)scale(0.996264)"/>
      <use xlink:href="#CMSS17-76" transform="translate(737.808079 0)scale(0.996264)"/>
      <use xlink:href="#CMSS17-65" transform="translate(780.808221 0)scale(0.996264)"/>
      <use xlink:href="#CMSS17-72" transform="translate(822.447043 0)scale(0.996264)"/>
      <use xlink:href="#CMSS17-61" transform="translate(854.356816 0)scale(0.996264)"/>
      <use xlink:href="#CMSS17-67" transform="translate(899.278736 0)scale(0.996264)"/>
      <use xlink:href="#CMSS17-65" transform="translate(946.12236 0)scale(0.996264)"/>
     </g>
    </g>
   </g>
   <g id="line2d_19">
    <path d="M 74.009169 376.105246 
L 78.916402 347.728066 
L 83.823635 377.268326 
L 88.730869 364.29934 
L 93.638102 357.519283 
L 98.545335 362.863371 
L 103.452569 359.487504 
L 108.359802 361.389707 
L 113.267036 367.667048 
L 118.174269 364.634682 
L 123.081502 372.899407 
L 127.988736 368.482632 
L 132.895969 356.34877 
L 137.803202 361.806343 
L 142.710436 359.855545 
L 147.617669 359.223642 
L 152.524902 370.271228 
L 157.432136 361.385535 
L 162.339369 356.627274 
L 167.246603 375.46496 
L 172.153836 350.682895 
L 177.061069 350.082222 
L 181.968303 352.78879 
L 186.875536 346.420678 
L 191.782769 343.934883 
L 196.690003 351.379338 
L 201.597236 346.576765 
L 206.50447 354.273924 
L 211.411703 353.93862 
L 216.318936 360.526824 
L 221.22617 353.788368 
L 226.133403 356.552635 
L 231.040636 366.663775 
L 235.94787 357.913166 
L 240.855103 357.83493 
L 245.762336 341.738951 
L 250.66957 337.761986 
L 255.576803 360.870717 
L 260.484037 340.026382 
L 265.39127 344.569752 
L 270.298503 331.253277 
L 275.205737 329.043995 
L 280.11297 347.85471 
L 285.020203 321.607493 
L 289.927437 345.006491 
L 294.83467 343.520787 
L 299.741904 338.629395 
L 304.649137 333.512927 
L 309.55637 332.100725 
L 314.463604 337.040511 
L 319.370837 333.23572 
L 324.27807 328.787562 
L 329.185304 327.673956 
L 334.092537 318.231743 
L 338.99977 324.144194 
L 343.907004 332.680041 
L 348.814237 327.298146 
L 353.721471 344.937861 
L 358.628704 344.016757 
L 363.535937 295.334494 
L 368.443171 305.285507 
L 373.350404 291.165097 
L 378.257637 271.025192 
L 383.164871 289.80408 
L 388.072104 286.789451 
L 392.979338 284.673414 
L 397.886571 273.130881 
L 402.793804 288.742285 
L 407.701038 294.892593 
L 412.608271 286.811212 
L 417.515504 277.911004 
L 422.422738 277.599004 
L 427.329971 276.754022 
L 432.237205 277.164374 
L 437.144438 276.060014 
L 442.051671 273.400482 
L 446.958905 280.081902 
L 451.866138 274.658844 
L 456.773371 277.667925 
L 461.680605 283.808061 
L 466.587838 292.99602 
L 471.495071 301.708354 
L 476.402305 302.982698 
L 481.309538 257.15241 
L 486.216772 239.776597 
L 491.124005 258.002087 
L 496.031238 254.862674 
L 500.938472 266.883525 
L 505.845705 257.174203 
L 510.752938 264.372084 
L 515.660172 260.173109 
L 520.567405 265.356012 
L 525.474639 277.119157 
L 530.381872 278.289607 
L 535.289105 284.184029 
L 540.196339 272.921132 
L 545.103572 260.923837 
L 550.010805 275.753954 
L 554.918039 299.074347 
L 559.825272 306.957262 
L 564.732505 295.149634 
L 569.639739 278.462883 
L 574.546972 273.452916 
L 579.454206 284.015713 
L 584.361439 296.484523 
L 589.268672 309.672238 
L 594.175906 286.78259 
L 599.083139 266.617958 
L 603.990372 259.006871 
L 608.897606 276.53897 
L 613.804839 277.553941 
L 618.712073 283.884774 
L 623.619306 287.099257 
L 628.526539 274.903889 
L 633.433773 281.023572 
L 638.341006 279.702191 
L 643.248239 275.315035 
L 648.155473 275.094856 
L 653.062706 284.947792 
L 657.96994 273.46733 
L 662.877173 284.716528 
L 667.784406 276.264782 
L 672.69164 284.844866 
" clip-path="url(#p24703b6b36)" style="fill: none; stroke: #0015bc; stroke-width: 1.5; stroke-linecap: square"/>
   </g>
   <g id="line2d_20">
    <path d="M 74.009169 347.410934 
L 78.916402 351.802057 
L 83.823635 345.848087 
L 88.730869 342.294343 
L 93.638102 341.9859 
L 98.545335 350.267643 
L 103.452569 357.641397 
L 108.359802 356.478804 
L 113.267036 354.905709 
L 118.174269 348.589308 
L 123.081502 343.271088 
L 127.988736 311.566715 
L 132.895969 335.781592 
L 137.803202 336.249388 
L 142.710436 332.199992 
L 147.617669 340.397867 
L 152.524902 328.683274 
L 157.432136 336.190912 
L 162.339369 322.625005 
L 167.246603 336.98014 
L 172.153836 343.973466 
L 177.061069 317.136233 
L 181.968303 326.630843 
L 186.875536 324.977582 
L 191.782769 336.987673 
L 196.690003 323.761975 
L 201.597236 335.543383 
L 206.50447 341.677869 
L 211.411703 350.937892 
L 216.318936 345.906874 
L 221.22617 350.248761 
L 226.133403 350.397959 
L 231.040636 350.356884 
L 235.94787 350.652012 
L 240.855103 351.635432 
L 245.762336 334.078552 
L 250.66957 330.312897 
L 255.576803 330.505547 
L 260.484037 330.970939 
L 265.39127 338.399913 
L 270.298503 340.331807 
L 275.205737 338.827245 
L 280.11297 328.513927 
L 285.020203 336.55411 
L 289.927437 329.852429 
L 294.83467 340.523948 
L 299.741904 336.403044 
L 304.649137 329.767468 
L 309.55637 340.168826 
L 314.463604 337.110738 
L 319.370837 340.352953 
L 324.27807 341.470058 
L 329.185304 343.777322 
L 334.092537 338.679242 
L 338.99977 345.715341 
L 343.907004 346.322515 
L 348.814237 338.738658 
L 353.721471 337.008505 
L 358.628704 339.931543 
L 363.535937 321.477787 
L 368.443171 320.210316 
L 373.350404 333.242243 
L 378.257637 332.630222 
L 383.164871 323.502992 
L 388.072104 323.318824 
L 392.979338 325.651369 
L 397.886571 321.57708 
L 402.793804 320.842134 
L 407.701038 338.457594 
L 412.608271 326.809699 
L 417.515504 320.482807 
L 422.422738 309.24854 
L 427.329971 308.13909 
L 432.237205 315.209035 
L 437.144438 326.922268 
L 442.051671 322.383554 
L 446.958905 321.694003 
L 451.866138 309.096665 
L 456.773371 305.472506 
L 461.680605 299.873595 
L 466.587838 310.439417 
L 471.495071 304.552733 
L 476.402305 300.469471 
L 481.309538 309.839867 
L 486.216772 300.931437 
L 491.124005 296.482438 
L 496.031238 301.009263 
L 500.938472 296.813271 
L 505.845705 299.665024 
L 510.752938 305.70321 
L 515.660172 292.937702 
L 520.567405 305.09445 
L 525.474639 308.926813 
L 530.381872 303.978983 
L 535.289105 299.386645 
L 540.196339 293.335291 
L 545.103572 286.761069 
L 550.010805 300.363166 
L 554.918039 320.740955 
L 559.825272 325.089732 
L 564.732505 309.099547 
L 569.639739 307.343123 
L 574.546972 299.826102 
L 579.454206 297.035061 
L 584.361439 307.489379 
L 589.268672 307.425895 
L 594.175906 297.26061 
L 599.083139 286.888513 
L 603.990372 290.53447 
L 608.897606 281.783963 
L 613.804839 282.483294 
L 618.712073 277.102028 
L 623.619306 274.405571 
L 628.526539 269.371462 
L 633.433773 262.889176 
L 638.341006 261.7112 
L 643.248239 261.813334 
L 648.155473 253.259045 
L 653.062706 259.551884 
L 657.96994 261.094307 
L 662.877173 255.787695 
L 667.784406 266.663938 
L 672.69164 282.368725 
" clip-path="url(#p24703b6b36)" style="fill: none; stroke: #ff0000; stroke-width: 1.5; stroke-linecap: square"/>
   </g>
   <g id="patch_6">
    <path d="M 44.075045 399.973224 
L 44.075045 212.224455 
" style="fill: none; stroke: #000000; stroke-width: 0.8; stroke-linejoin: miter; stroke-linecap: square"/>
   </g>
   <g id="patch_7">
    <path d="M 44.075045 399.973224 
L 702.625763 399.973224 
" style="fill: none; stroke: #000000; stroke-width: 0.8; stroke-linejoin: miter; stroke-linecap: square"/>
   </g>
  </g>
  <g id="text_19">
   <!-- A -->
   <g transform="translate(68.4 22.32)scale(0.2 -0.2)">
    <defs>
     <path id="CMSS17-41" d="M 2272 4416 
L 1722 4416 
L 166 0 
L 653 0 
L 1101 1280 
L 2816 1280 
L 3270 0 
L 3827 0 
L 2272 4416 
z
M 2694 1638 
L 1222 1638 
C 1530 2530 1914 3638 1958 3924 
L 1965 3924 
C 2010 3663 2138 3281 2246 2956 
L 2694 1638 
z
" transform="scale(0.015625)"/>
    </defs>
    <use xlink:href="#CMSS17-41" transform="scale(0.996264)"/>
   </g>
  </g>
  <g id="text_20">
   <!-- B -->
   <g transform="translate(68.4 225.36)scale(0.2 -0.2)">
    <defs>
     <path id="CMSS17-42" d="M 570 4416 
L 570 0 
L 2163 0 
C 3034 0 3667 575 3667 1200 
C 3667 1684 3251 2175 2502 2316 
C 3334 2559 3501 3039 3501 3311 
C 3501 3880 2874 4416 1997 4416 
L 570 4416 
z
M 1088 2496 
L 1088 4057 
L 1824 4057 
C 2483 4057 3002 3722 3002 3305 
C 3002 2925 2592 2496 1766 2496 
L 1088 2496 
z
M 1088 358 
L 1088 2105 
L 1939 2105 
C 2630 2105 3162 1678 3162 1206 
C 3162 772 2694 358 1984 358 
L 1088 358 
z
" transform="scale(0.015625)"/>
    </defs>
    <use xlink:href="#CMSS17-42" transform="scale(0.996264)"/>
   </g>
  </g>
 </g>
 <defs>
  <clipPath id="p74ab090703">
   <rect x="44.075045" y="7.2" width="658.550718" height="187.748769"/>
  </clipPath>
  <clipPath id="p24703b6b36">
   <rect x="44.075045" y="212.224455" width="658.550718" height="187.748769"/>
  </clipPath>
 </defs>
</svg>
