<?xml version="1.0" encoding="utf-8" standalone="no"?>
<!DOCTYPE svg PUBLIC "-//W3C//DTD SVG 1.1//EN"
  "http://www.w3.org/Graphics/SVG/1.1/DTD/svg11.dtd">
<svg xmlns:xlink="http://www.w3.org/1999/xlink" width="711.226554pt" height="424.8pt" viewBox="0 0 711.226554 424.8" xmlns="http://www.w3.org/2000/svg" version="1.1">
 <metadata>
  <rdf:RDF xmlns:dc="http://purl.org/dc/elements/1.1/" xmlns:cc="http://creativecommons.org/ns#" xmlns:rdf="http://www.w3.org/1999/02/22-rdf-syntax-ns#">
   <cc:Work>
    <dc:type rdf:resource="http://purl.org/dc/dcmitype/StillImage"/>
    <dc:date>2022-06-15T12:40:08.254352</dc:date>
    <dc:format>image/svg+xml</dc:format>
    <dc:creator>
     <cc:Agent>
      <dc:title>Matplotlib v3.5.1, https://matplotlib.org/</dc:title>
     </cc:Agent>
    </dc:creator>
   </cc:Work>
  </rdf:RDF>
 </metadata>
 <defs>
  <style type="text/css">*{stroke-linejoin: round; stroke-linecap: butt}</style>
 </defs>
 <g id="figure_1">
  <g id="patch_1">
   <path d="M 0 424.8 
L 711.226554 424.8 
L 711.226554 0 
L 0 0 
z
" style="fill: #ffffff"/>
  </g>
  <g id="axes_1">
   <g id="patch_2">
    <path d="M 44.075045 194.948769 
L 702.625763 194.948769 
L 702.625763 7.2 
L 44.075045 7.2 
z
" style="fill: #ffffff"/>
   </g>
   <g id="PolyCollection_1">
    <defs>
     <path id="mb3aed56d2c" d="M 74.009169 -269.925741 
L 74.009169 -265.482881 
L 78.916402 -294.952574 
L 83.823635 -271.808111 
L 88.730869 -284.939972 
L 93.638102 -287.287906 
L 98.545335 -282.298809 
L 103.452569 -280.174408 
L 108.359802 -279.669921 
L 113.267036 -272.180929 
L 118.174269 -276.953854 
L 123.081502 -267.643966 
L 127.988736 -271.131486 
L 132.895969 -275.851882 
L 137.803202 -273.964002 
L 142.710436 -279.372044 
L 147.617669 -277.3936 
L 152.524902 -266.688855 
L 157.432136 -275.627813 
L 162.339369 -279.111614 
L 167.246603 -264.290807 
L 172.153836 -283.987994 
L 177.061069 -283.936798 
L 181.968303 -280.445275 
L 186.875536 -291.208091 
L 191.782769 -291.499839 
L 196.690003 -284.919142 
L 201.597236 -293.613188 
L 206.50447 -283.815746 
L 211.411703 -281.936698 
L 216.318936 -275.472289 
L 221.22617 -284.324795 
L 226.133403 -280.729395 
L 231.040636 -272.505044 
L 235.94787 -281.685001 
L 240.855103 -289.50394 
L 245.762336 -297.545731 
L 250.66957 -306.82286 
L 255.576803 -282.373265 
L 260.484037 -297.844802 
L 265.39127 -298.304717 
L 270.298503 -312.128239 
L 275.205737 -306.598005 
L 280.11297 -295.994543 
L 285.020203 -318.314848 
L 289.927437 -293.558102 
L 294.83467 -288.814809 
L 299.741904 -302.755352 
L 304.649137 -305.619851 
L 309.55637 -309.730529 
L 314.463604 -302.396693 
L 319.370837 -302.550051 
L 324.27807 -307.354648 
L 329.185304 -316.452525 
L 334.092537 -310.905563 
L 338.99977 -310.99772 
L 343.907004 -308.263087 
L 348.814237 -317.496749 
L 353.721471 -296.813681 
L 358.628704 -303.510335 
L 363.535937 -340.651829 
L 368.443171 -337.538719 
L 373.350404 -350.54432 
L 378.257637 -363.592198 
L 383.164871 -354.282768 
L 388.072104 -346.553749 
L 392.979338 -352.851224 
L 397.886571 -360.161046 
L 402.793804 -355.293027 
L 407.701038 -347.680667 
L 412.608271 -348.673697 
L 417.515504 -362.142242 
L 422.422738 -359.507252 
L 427.329971 -366.406854 
L 432.237205 -347.162836 
L 437.144438 -368.841641 
L 442.051671 -370.073871 
L 446.958905 -362.131414 
L 451.866138 -366.953093 
L 456.773371 -365.932937 
L 461.680605 -364.535563 
L 466.587838 -349.669816 
L 471.495071 -343.573598 
L 476.402305 -336.894261 
L 481.309538 -384.93757 
L 486.216772 -409.438029 
L 491.124005 -392.004442 
L 496.031238 -398.137137 
L 500.938472 -383.45101 
L 505.845705 -391.833457 
L 510.752938 -383.88722 
L 515.660172 -387.468891 
L 520.567405 -386.537684 
L 525.474639 -371.345395 
L 530.381872 -370.972736 
L 535.289105 -365.658434 
L 540.196339 -372.503939 
L 545.103572 -390.250456 
L 550.010805 -374.676806 
L 554.918039 -345.162653 
L 559.825272 -342.34771 
L 564.732505 -354.461658 
L 569.639739 -367.560997 
L 574.546972 -372.587072 
L 579.454206 -364.694748 
L 584.361439 -345.961232 
L 589.268672 -335.274478 
L 594.175906 -359.04419 
L 599.083139 -382.079709 
L 603.990372 -388.69027 
L 608.897606 -374.447245 
L 613.804839 -372.252943 
L 618.712073 -363.891018 
L 623.619306 -366.337259 
L 628.526539 -378.145498 
L 633.433773 -374.81986 
L 638.341006 -379.304347 
L 643.248239 -375.268924 
L 648.155473 -375.18537 
L 653.062706 -369.051079 
L 657.96994 -380.443392 
L 662.877173 -367.23961 
L 667.784406 -376.630957 
L 672.69164 -362.131078 
L 672.69164 -364.526383 
L 672.69164 -364.526383 
L 667.784406 -378.525169 
L 662.877173 -368.79214 
L 657.96994 -382.307632 
L 653.062706 -370.659142 
L 648.155473 -376.962238 
L 643.248239 -376.898775 
L 638.341006 -380.884677 
L 633.433773 -376.447543 
L 628.526539 -379.900351 
L 623.619306 -367.828901 
L 618.712073 -365.465669 
L 613.804839 -373.843061 
L 608.897606 -376.018186 
L 603.990372 -390.388098 
L 599.083139 -383.639513 
L 594.175906 -360.695275 
L 589.268672 -336.500932 
L 584.361439 -347.225999 
L 579.454206 -366.056115 
L 574.546972 -373.94665 
L 569.639739 -369.006399 
L 564.732505 -355.807984 
L 559.825272 -343.801869 
L 554.918039 -346.408287 
L 550.010805 -376.309641 
L 545.103572 -391.917517 
L 540.196339 -374.472399 
L 535.289105 -367.924778 
L 530.381872 -373.198838 
L 525.474639 -373.674108 
L 520.567405 -388.782396 
L 515.660172 -389.994888 
L 510.752938 -386.363156 
L 505.845705 -394.069884 
L 500.938472 -385.928949 
L 496.031238 -400.508948 
L 491.124005 -394.546448 
L 486.216772 -411.849411 
L 481.309538 -388.106312 
L 476.402305 -339.345595 
L 471.495071 -345.602917 
L 466.587838 -352.24736 
L 461.680605 -367.203848 
L 456.773371 -368.890024 
L 451.866138 -369.21921 
L 446.958905 -364.573581 
L 442.051671 -372.89296 
L 437.144438 -371.884457 
L 432.237205 -349.70711 
L 427.329971 -369.645649 
L 422.422738 -363.096649 
L 417.515504 -365.445007 
L 412.608271 -352.319621 
L 407.701038 -351.92355 
L 402.793804 -360.111057 
L 397.886571 -364.920231 
L 392.979338 -357.585231 
L 388.072104 -350.977714 
L 383.164871 -359.290698 
L 378.257637 -367.829777 
L 373.350404 -355.826299 
L 368.443171 -342.55068 
L 363.535937 -346.648232 
L 358.628704 -307.722812 
L 353.721471 -300.722261 
L 348.814237 -321.827501 
L 343.907004 -312.851418 
L 338.99977 -315.762368 
L 334.092537 -316.156213 
L 329.185304 -321.197326 
L 324.27807 -312.487577 
L 319.370837 -307.447457 
L 314.463604 -307.184364 
L 309.55637 -315.914439 
L 304.649137 -311.692998 
L 299.741904 -307.595324 
L 294.83467 -293.613673 
L 289.927437 -299.222966 
L 285.020203 -325.300916 
L 280.11297 -301.521504 
L 275.205737 -313.652445 
L 270.298503 -319.339781 
L 265.39127 -303.243559 
L 260.484037 -303.426215 
L 255.576803 -287.32389 
L 250.66957 -313.476755 
L 245.762336 -304.005318 
L 240.855103 -295.129812 
L 235.94787 -284.789586 
L 231.040636 -276.292227 
L 226.133403 -285.426414 
L 221.22617 -288.943424 
L 216.318936 -279.797323 
L 211.411703 -285.893275 
L 206.50447 -288.603208 
L 201.597236 -299.04337 
L 196.690003 -289.539793 
L 191.782769 -297.114852 
L 186.875536 -297.979577 
L 181.968303 -286.129341 
L 177.061069 -288.461868 
L 172.153836 -289.432646 
L 167.246603 -268.038531 
L 162.339369 -283.951656 
L 157.432136 -280.293699 
L 152.524902 -272.656165 
L 147.617669 -282.552902 
L 142.710436 -284.999148 
L 137.803202 -278.955564 
L 132.895969 -281.108553 
L 127.988736 -277.248483 
L 123.081502 -271.225611 
L 118.174269 -279.77458 
L 113.267036 -275.863822 
L 108.359802 -283.339462 
L 103.452569 -283.740383 
L 98.545335 -286.448789 
L 93.638102 -291.860785 
L 88.730869 -289.737783 
L 83.823635 -275.867189 
L 78.916402 -299.846867 
L 74.009169 -269.925741 
z
" style="stroke: #0015bc; stroke-opacity: 0.2"/>
    </defs>
    <g clip-path="url(#p4dbd130375)">
     <use xlink:href="#mb3aed56d2c" x="0" y="424.8" style="fill: #0015bc; fill-opacity: 0.2; stroke: #0015bc; stroke-opacity: 0.2"/>
    </g>
   </g>
   <g id="PolyCollection_2">
    <defs>
     <path id="mf4c317ed5e" d="M 74.009169 -261.04002 
L 74.009169 -265.482881 
L 78.916402 -294.952574 
L 83.823635 -271.808111 
L 88.730869 -284.939972 
L 93.638102 -287.287906 
L 98.545335 -282.298809 
L 103.452569 -280.174408 
L 108.359802 -279.669921 
L 113.267036 -272.180929 
L 118.174269 -276.953854 
L 123.081502 -267.643966 
L 127.988736 -271.131486 
L 132.895969 -275.851882 
L 137.803202 -273.964002 
L 142.710436 -279.372044 
L 147.617669 -277.3936 
L 152.524902 -266.688855 
L 157.432136 -275.627813 
L 162.339369 -279.111614 
L 167.246603 -264.290807 
L 172.153836 -283.987994 
L 177.061069 -283.936798 
L 181.968303 -280.445275 
L 186.875536 -291.208091 
L 191.782769 -291.499839 
L 196.690003 -284.919142 
L 201.597236 -293.613188 
L 206.50447 -283.815746 
L 211.411703 -281.936698 
L 216.318936 -275.472289 
L 221.22617 -284.324795 
L 226.133403 -280.729395 
L 231.040636 -272.505044 
L 235.94787 -281.685001 
L 240.855103 -289.50394 
L 245.762336 -297.545731 
L 250.66957 -306.82286 
L 255.576803 -282.373265 
L 260.484037 -297.844802 
L 265.39127 -298.304717 
L 270.298503 -312.128239 
L 275.205737 -306.598005 
L 280.11297 -295.994543 
L 285.020203 -318.314848 
L 289.927437 -293.558102 
L 294.83467 -288.814809 
L 299.741904 -302.755352 
L 304.649137 -305.619851 
L 309.55637 -309.730529 
L 314.463604 -302.396693 
L 319.370837 -302.550051 
L 324.27807 -307.354648 
L 329.185304 -316.452525 
L 334.092537 -310.905563 
L 338.99977 -310.99772 
L 343.907004 -308.263087 
L 348.814237 -317.496749 
L 353.721471 -296.813681 
L 358.628704 -303.510335 
L 363.535937 -340.651829 
L 368.443171 -337.538719 
L 373.350404 -350.54432 
L 378.257637 -363.592198 
L 383.164871 -354.282768 
L 388.072104 -346.553749 
L 392.979338 -352.851224 
L 397.886571 -360.161046 
L 402.793804 -355.293027 
L 407.701038 -347.680667 
L 412.608271 -348.673697 
L 417.515504 -362.142242 
L 422.422738 -359.507252 
L 427.329971 -366.406854 
L 432.237205 -347.162836 
L 437.144438 -368.841641 
L 442.051671 -370.073871 
L 446.958905 -362.131414 
L 451.866138 -366.953093 
L 456.773371 -365.932937 
L 461.680605 -364.535563 
L 466.587838 -349.669816 
L 471.495071 -343.573598 
L 476.402305 -336.894261 
L 481.309538 -384.93757 
L 486.216772 -409.438029 
L 491.124005 -392.004442 
L 496.031238 -398.137137 
L 500.938472 -383.45101 
L 505.845705 -391.833457 
L 510.752938 -383.88722 
L 515.660172 -387.468891 
L 520.567405 -386.537684 
L 525.474639 -371.345395 
L 530.381872 -370.972736 
L 535.289105 -365.658434 
L 540.196339 -372.503939 
L 545.103572 -390.250456 
L 550.010805 -374.676806 
L 554.918039 -345.162653 
L 559.825272 -342.34771 
L 564.732505 -354.461658 
L 569.639739 -367.560997 
L 574.546972 -372.587072 
L 579.454206 -364.694748 
L 584.361439 -345.961232 
L 589.268672 -335.274478 
L 594.175906 -359.04419 
L 599.083139 -382.079709 
L 603.990372 -388.69027 
L 608.897606 -374.447245 
L 613.804839 -372.252943 
L 618.712073 -363.891018 
L 623.619306 -366.337259 
L 628.526539 -378.145498 
L 633.433773 -374.81986 
L 638.341006 -379.304347 
L 643.248239 -375.268924 
L 648.155473 -375.18537 
L 653.062706 -369.051079 
L 657.96994 -380.443392 
L 662.877173 -367.23961 
L 667.784406 -376.630957 
L 672.69164 -362.131078 
L 672.69164 -359.735774 
L 672.69164 -359.735774 
L 667.784406 -374.736745 
L 662.877173 -365.687079 
L 657.96994 -378.579152 
L 653.062706 -367.443015 
L 648.155473 -373.408502 
L 643.248239 -373.639073 
L 638.341006 -377.724017 
L 633.433773 -373.192176 
L 628.526539 -376.390646 
L 623.619306 -364.845617 
L 618.712073 -362.316368 
L 613.804839 -370.662826 
L 608.897606 -372.876305 
L 603.990372 -386.992442 
L 599.083139 -380.519905 
L 594.175906 -357.393106 
L 589.268672 -334.048024 
L 584.361439 -344.696466 
L 579.454206 -363.333381 
L 574.546972 -371.227493 
L 569.639739 -366.115596 
L 564.732505 -353.115332 
L 559.825272 -340.893552 
L 554.918039 -343.917019 
L 550.010805 -373.043972 
L 545.103572 -388.583395 
L 540.196339 -370.535479 
L 535.289105 -363.392089 
L 530.381872 -368.746634 
L 525.474639 -369.016682 
L 520.567405 -384.292971 
L 515.660172 -384.942894 
L 510.752938 -381.411284 
L 505.845705 -389.597029 
L 500.938472 -380.973072 
L 496.031238 -395.765326 
L 491.124005 -389.462436 
L 486.216772 -407.026646 
L 481.309538 -381.768828 
L 476.402305 -334.442927 
L 471.495071 -341.544279 
L 466.587838 -347.092272 
L 461.680605 -361.867278 
L 456.773371 -362.97585 
L 451.866138 -364.686976 
L 446.958905 -359.689248 
L 442.051671 -367.254781 
L 437.144438 -365.798825 
L 432.237205 -344.618561 
L 427.329971 -363.168058 
L 422.422738 -355.917856 
L 417.515504 -358.839477 
L 412.608271 -345.027773 
L 407.701038 -343.437784 
L 402.793804 -350.474997 
L 397.886571 -355.401861 
L 392.979338 -348.117217 
L 388.072104 -342.129784 
L 383.164871 -349.274837 
L 378.257637 -359.354619 
L 373.350404 -345.26234 
L 368.443171 -332.526759 
L 363.535937 -334.655426 
L 358.628704 -299.297857 
L 353.721471 -292.905101 
L 348.814237 -313.165998 
L 343.907004 -303.674757 
L 338.99977 -306.233072 
L 334.092537 -305.654914 
L 329.185304 -311.707723 
L 324.27807 -302.22172 
L 319.370837 -297.652644 
L 314.463604 -297.609023 
L 309.55637 -303.546619 
L 304.649137 -299.546704 
L 299.741904 -297.91538 
L 294.83467 -284.015944 
L 289.927437 -287.893238 
L 285.020203 -311.328779 
L 280.11297 -290.467583 
L 275.205737 -299.543564 
L 270.298503 -304.916696 
L 265.39127 -293.365875 
L 260.484037 -292.263389 
L 255.576803 -277.422641 
L 250.66957 -300.168964 
L 245.762336 -291.086143 
L 240.855103 -283.878067 
L 235.94787 -278.580416 
L 231.040636 -268.717862 
L 226.133403 -276.032377 
L 221.22617 -279.706167 
L 216.318936 -271.147255 
L 211.411703 -277.980122 
L 206.50447 -279.028285 
L 201.597236 -288.183007 
L 196.690003 -280.298492 
L 191.782769 -285.884826 
L 186.875536 -284.436605 
L 181.968303 -274.761208 
L 177.061069 -279.411728 
L 172.153836 -278.543341 
L 167.246603 -260.543083 
L 162.339369 -274.271572 
L 157.432136 -270.961928 
L 152.524902 -260.721545 
L 147.617669 -272.234298 
L 142.710436 -273.744941 
L 137.803202 -268.97244 
L 132.895969 -270.595212 
L 127.988736 -265.014489 
L 123.081502 -264.062321 
L 118.174269 -274.133127 
L 113.267036 -268.498036 
L 108.359802 -276.000381 
L 103.452569 -276.608434 
L 98.545335 -278.148828 
L 93.638102 -282.715027 
L 88.730869 -280.142161 
L 83.823635 -267.749034 
L 78.916402 -290.05828 
L 74.009169 -261.04002 
z
" style="stroke: #0015bc; stroke-opacity: 0.2"/>
    </defs>
    <g clip-path="url(#p4dbd130375)">
     <use xlink:href="#mf4c317ed5e" x="0" y="424.8" style="fill: #0015bc; fill-opacity: 0.2; stroke: #0015bc; stroke-opacity: 0.2"/>
    </g>
   </g>
   <g id="PolyCollection_3">
    <defs>
     <path id="m7aff7fe74e" d="M 74.009169 -293.191812 
L 74.009169 -288.439307 
L 78.916402 -282.182434 
L 83.823635 -292.190327 
L 88.730869 -294.826167 
L 93.638102 -292.374776 
L 98.545335 -287.991393 
L 103.452569 -283.746584 
L 108.359802 -285.212141 
L 113.267036 -280.081896 
L 118.174269 -288.183871 
L 123.081502 -281.107615 
L 127.988736 -321.275501 
L 132.895969 -303.076945 
L 137.803202 -293.404362 
L 142.710436 -302.507503 
L 147.617669 -296.581514 
L 152.524902 -312.337902 
L 157.432136 -298.526029 
L 162.339369 -318.090249 
L 167.246603 -306.73347 
L 172.153836 -294.99948 
L 177.061069 -319.08973 
L 181.968303 -302.724151 
L 186.875536 -314.723666 
L 191.782769 -298.243942 
L 196.690003 -317.528869 
L 201.597236 -303.960596 
L 206.50447 -297.834443 
L 211.411703 -290.317331 
L 216.318936 -290.602748 
L 221.22617 -288.17036 
L 226.133403 -288.048473 
L 231.040636 -283.743543 
L 235.94787 -287.292607 
L 240.855103 -286.858966 
L 245.762336 -313.186178 
L 250.66957 -312.850508 
L 255.576803 -310.853405 
L 260.484037 -307.302557 
L 265.39127 -304.071425 
L 270.298503 -302.619918 
L 275.205737 -302.941583 
L 280.11297 -310.440985 
L 285.020203 -311.36142 
L 289.927437 -315.040384 
L 294.83467 -307.020506 
L 299.741904 -308.751653 
L 304.649137 -313.669649 
L 309.55637 -307.549224 
L 314.463604 -307.365831 
L 319.370837 -301.015512 
L 324.27807 -300.286719 
L 329.185304 -300.621228 
L 334.092537 -305.869867 
L 338.99977 -295.463624 
L 343.907004 -305.131858 
L 348.814237 -304.305272 
L 353.721471 -307.749693 
L 358.628704 -305.809817 
L 363.535937 -336.691421 
L 368.443171 -313.684716 
L 373.350404 -318.247768 
L 378.257637 -313.313267 
L 383.164871 -325.27359 
L 388.072104 -321.333142 
L 392.979338 -317.108359 
L 397.886571 -325.653015 
L 402.793804 -332.724776 
L 407.701038 -304.959188 
L 412.608271 -316.00378 
L 417.515504 -319.050714 
L 422.422738 -330.724577 
L 427.329971 -339.199989 
L 432.237205 -337.462662 
L 437.144438 -325.226881 
L 442.051671 -325.15971 
L 446.958905 -326.027311 
L 451.866138 -334.532417 
L 456.773371 -340.92426 
L 461.680605 -355.692231 
L 466.587838 -338.187835 
L 471.495071 -346.707558 
L 476.402305 -355.418098 
L 481.309538 -351.170234 
L 486.216772 -354.410188 
L 491.124005 -351.310042 
L 496.031238 -355.780412 
L 500.938472 -364.22963 
L 505.845705 -357.3131 
L 510.752938 -352.412915 
L 515.660172 -367.350269 
L 520.567405 -365.583552 
L 525.474639 -348.631624 
L 530.381872 -357.410851 
L 535.289105 -357.428661 
L 540.196339 -364.010762 
L 545.103572 -372.507137 
L 550.010805 -354.045108 
L 554.918039 -329.463352 
L 559.825272 -330.854826 
L 564.732505 -344.267887 
L 569.639739 -346.725985 
L 574.546972 -352.736503 
L 579.454206 -360.192468 
L 584.361439 -340.940254 
L 589.268672 -340.869897 
L 594.175906 -351.703285 
L 599.083139 -368.852649 
L 603.990372 -362.454721 
L 608.897606 -371.422697 
L 613.804839 -367.058164 
L 618.712073 -369.773967 
L 623.619306 -375.956011 
L 628.526539 -381.634294 
L 633.433773 -388.519919 
L 638.341006 -387.245648 
L 643.248239 -386.000671 
L 648.155473 -390.07066 
L 653.062706 -385.893343 
L 657.96994 -383.726057 
L 662.877173 -388.85116 
L 667.784406 -387.699785 
L 672.69164 -368.765662 
L 672.69164 -371.682913 
L 672.69164 -371.682913 
L 667.784406 -389.611538 
L 662.877173 -390.725538 
L 657.96994 -385.672425 
L 653.062706 -387.926435 
L 648.155473 -392.092418 
L 643.248239 -388.355785 
L 638.341006 -389.423766 
L 633.433773 -390.452212 
L 628.526539 -383.365904 
L 623.619306 -377.853493 
L 618.712073 -372.042877 
L 613.804839 -368.775415 
L 608.897606 -373.350054 
L 603.990372 -364.573645 
L 599.083139 -371.090739 
L 594.175906 -354.339965 
L 589.268672 -342.643757 
L 584.361439 -342.710961 
L 579.454206 -362.016865 
L 574.546972 -354.674407 
L 569.639739 -348.984672 
L 564.732505 -346.279182 
L 559.825272 -332.375006 
L 554.918039 -331.080598 
L 550.010805 -356.262916 
L 545.103572 -375.364742 
L 540.196339 -366.257547 
L 535.289105 -360.343285 
L 530.381872 -360.246893 
L 525.474639 -350.977101 
L 520.567405 -368.817321 
L 515.660172 -370.314888 
L 510.752938 -354.960092 
L 505.845705 -359.848024 
L 500.938472 -367.448957 
L 496.031238 -358.420545 
L 491.124005 -354.290583 
L 486.216772 -357.506031 
L 481.309538 -354.66083 
L 476.402305 -358.609362 
L 471.495071 -349.222886 
L 466.587838 -340.838046 
L 461.680605 -358.227295 
L 456.773371 -344.107162 
L 451.866138 -337.265281 
L 446.958905 -328.911529 
L 442.051671 -328.160367 
L 437.144438 -328.130005 
L 432.237205 -340.593723 
L 427.329971 -342.316586 
L 422.422738 -334.098006 
L 417.515504 -322.300348 
L 412.608271 -319.215203 
L 407.701038 -307.492652 
L 402.793804 -336.539528 
L 397.886571 -329.180094 
L 392.979338 -320.368121 
L 388.072104 -324.691897 
L 383.164871 -328.794926 
L 378.257637 -316.574519 
L 373.350404 -322.202991 
L 368.443171 -317.051034 
L 363.535937 -340.679489 
L 358.628704 -309.280291 
L 353.721471 -310.070129 
L 348.814237 -307.009622 
L 343.907004 -307.772611 
L 338.99977 -298.405915 
L 334.092537 -308.569804 
L 329.185304 -303.315174 
L 324.27807 -302.932435 
L 319.370837 -304.138526 
L 314.463604 -310.571174 
L 309.55637 -310.623504 
L 304.649137 -317.084935 
L 299.741904 -312.168236 
L 294.83467 -310.538415 
L 289.927437 -318.958369 
L 285.020203 -315.709945 
L 280.11297 -313.947018 
L 275.205737 -306.476116 
L 270.298503 -306.868463 
L 265.39127 -308.708636 
L 260.484037 -310.985022 
L 255.576803 -314.78566 
L 250.66957 -317.799964 
L 245.762336 -319.075283 
L 240.855103 -290.927683 
L 235.94787 -290.165984 
L 231.040636 -286.564589 
L 226.133403 -291.619054 
L 221.22617 -291.422894 
L 216.318936 -293.635245 
L 211.411703 -293.945131 
L 206.50447 -301.267232 
L 201.597236 -308.052047 
L 196.690003 -321.484255 
L 191.782769 -302.461929 
L 186.875536 -319.366286 
L 181.968303 -306.913018 
L 177.061069 -323.82824 
L 172.153836 -298.841821 
L 167.246603 -311.664867 
L 162.339369 -323.527213 
L 157.432136 -303.042731 
L 152.524902 -316.902174 
L 147.617669 -300.765588 
L 142.710436 -308.288432 
L 137.803202 -298.723116 
L 132.895969 -309.303647 
L 127.988736 -329.632896 
L 123.081502 -286.16125 
L 118.174269 -292.112485 
L 113.267036 -284.243874 
L 108.359802 -289.222444 
L 103.452569 -289.064867 
L 98.545335 -292.218297 
L 93.638102 -297.386383 
L 88.730869 -299.133498 
L 83.823635 -296.10113 
L 78.916402 -286.324706 
L 74.009169 -293.191812 
z
" style="stroke: #ff0000; stroke-opacity: 0.2"/>
    </defs>
    <g clip-path="url(#p4dbd130375)">
     <use xlink:href="#m7aff7fe74e" x="0" y="424.8" style="fill: #ff0000; fill-opacity: 0.2; stroke: #ff0000; stroke-opacity: 0.2"/>
    </g>
   </g>
   <g id="PolyCollection_4">
    <defs>
     <path id="mfce363199d" d="M 74.009169 -283.686801 
L 74.009169 -288.439307 
L 78.916402 -282.182434 
L 83.823635 -292.190327 
L 88.730869 -294.826167 
L 93.638102 -292.374776 
L 98.545335 -287.991393 
L 103.452569 -283.746584 
L 108.359802 -285.212141 
L 113.267036 -280.081896 
L 118.174269 -288.183871 
L 123.081502 -281.107615 
L 127.988736 -321.275501 
L 132.895969 -303.076945 
L 137.803202 -293.404362 
L 142.710436 -302.507503 
L 147.617669 -296.581514 
L 152.524902 -312.337902 
L 157.432136 -298.526029 
L 162.339369 -318.090249 
L 167.246603 -306.73347 
L 172.153836 -294.99948 
L 177.061069 -319.08973 
L 181.968303 -302.724151 
L 186.875536 -314.723666 
L 191.782769 -298.243942 
L 196.690003 -317.528869 
L 201.597236 -303.960596 
L 206.50447 -297.834443 
L 211.411703 -290.317331 
L 216.318936 -290.602748 
L 221.22617 -288.17036 
L 226.133403 -288.048473 
L 231.040636 -283.743543 
L 235.94787 -287.292607 
L 240.855103 -286.858966 
L 245.762336 -313.186178 
L 250.66957 -312.850508 
L 255.576803 -310.853405 
L 260.484037 -307.302557 
L 265.39127 -304.071425 
L 270.298503 -302.619918 
L 275.205737 -302.941583 
L 280.11297 -310.440985 
L 285.020203 -311.36142 
L 289.927437 -315.040384 
L 294.83467 -307.020506 
L 299.741904 -308.751653 
L 304.649137 -313.669649 
L 309.55637 -307.549224 
L 314.463604 -307.365831 
L 319.370837 -301.015512 
L 324.27807 -300.286719 
L 329.185304 -300.621228 
L 334.092537 -305.869867 
L 338.99977 -295.463624 
L 343.907004 -305.131858 
L 348.814237 -304.305272 
L 353.721471 -307.749693 
L 358.628704 -305.809817 
L 363.535937 -336.691421 
L 368.443171 -313.684716 
L 373.350404 -318.247768 
L 378.257637 -313.313267 
L 383.164871 -325.27359 
L 388.072104 -321.333142 
L 392.979338 -317.108359 
L 397.886571 -325.653015 
L 402.793804 -332.724776 
L 407.701038 -304.959188 
L 412.608271 -316.00378 
L 417.515504 -319.050714 
L 422.422738 -330.724577 
L 427.329971 -339.199989 
L 432.237205 -337.462662 
L 437.144438 -325.226881 
L 442.051671 -325.15971 
L 446.958905 -326.027311 
L 451.866138 -334.532417 
L 456.773371 -340.92426 
L 461.680605 -355.692231 
L 466.587838 -338.187835 
L 471.495071 -346.707558 
L 476.402305 -355.418098 
L 481.309538 -351.170234 
L 486.216772 -354.410188 
L 491.124005 -351.310042 
L 496.031238 -355.780412 
L 500.938472 -364.22963 
L 505.845705 -357.3131 
L 510.752938 -352.412915 
L 515.660172 -367.350269 
L 520.567405 -365.583552 
L 525.474639 -348.631624 
L 530.381872 -357.410851 
L 535.289105 -357.428661 
L 540.196339 -364.010762 
L 545.103572 -372.507137 
L 550.010805 -354.045108 
L 554.918039 -329.463352 
L 559.825272 -330.854826 
L 564.732505 -344.267887 
L 569.639739 -346.725985 
L 574.546972 -352.736503 
L 579.454206 -360.192468 
L 584.361439 -340.940254 
L 589.268672 -340.869897 
L 594.175906 -351.703285 
L 599.083139 -368.852649 
L 603.990372 -362.454721 
L 608.897606 -371.422697 
L 613.804839 -367.058164 
L 618.712073 -369.773967 
L 623.619306 -375.956011 
L 628.526539 -381.634294 
L 633.433773 -388.519919 
L 638.341006 -387.245648 
L 643.248239 -386.000671 
L 648.155473 -390.07066 
L 653.062706 -385.893343 
L 657.96994 -383.726057 
L 662.877173 -388.85116 
L 667.784406 -387.699785 
L 672.69164 -368.765662 
L 672.69164 -365.84841 
L 672.69164 -365.84841 
L 667.784406 -385.788032 
L 662.877173 -386.976782 
L 657.96994 -381.779689 
L 653.062706 -383.860251 
L 648.155473 -388.048901 
L 643.248239 -383.645557 
L 638.341006 -385.067531 
L 633.433773 -386.587625 
L 628.526539 -379.902685 
L 623.619306 -374.058528 
L 618.712073 -367.505058 
L 613.804839 -365.340914 
L 608.897606 -369.495339 
L 603.990372 -360.335796 
L 599.083139 -366.614559 
L 594.175906 -349.066605 
L 589.268672 -339.096038 
L 584.361439 -339.169546 
L 579.454206 -358.368072 
L 574.546972 -350.798599 
L 569.639739 -344.467299 
L 564.732505 -342.256592 
L 559.825272 -329.334645 
L 554.918039 -327.846106 
L 550.010805 -351.827301 
L 545.103572 -369.649533 
L 540.196339 -361.763978 
L 535.289105 -354.514038 
L 530.381872 -354.57481 
L 525.474639 -346.286147 
L 520.567405 -362.349782 
L 515.660172 -364.385651 
L 510.752938 -349.865739 
L 505.845705 -354.778177 
L 500.938472 -361.010302 
L 496.031238 -353.140278 
L 491.124005 -348.3295 
L 486.216772 -351.314345 
L 481.309538 -347.679638 
L 476.402305 -352.226834 
L 471.495071 -344.19223 
L 466.587838 -335.537625 
L 461.680605 -353.157167 
L 456.773371 -337.741357 
L 451.866138 -331.799554 
L 446.958905 -323.143092 
L 442.051671 -322.159054 
L 437.144438 -322.323757 
L 432.237205 -334.331601 
L 427.329971 -336.083391 
L 422.422738 -327.351149 
L 417.515504 -315.801081 
L 412.608271 -312.792357 
L 407.701038 -302.425724 
L 402.793804 -328.910025 
L 397.886571 -322.125936 
L 392.979338 -313.848596 
L 388.072104 -317.974388 
L 383.164871 -321.752254 
L 378.257637 -310.052015 
L 373.350404 -314.292545 
L 368.443171 -310.318399 
L 363.535937 -332.703353 
L 358.628704 -302.339343 
L 353.721471 -305.429258 
L 348.814237 -301.600922 
L 343.907004 -302.491104 
L 338.99977 -292.521333 
L 334.092537 -303.16993 
L 329.185304 -297.927282 
L 324.27807 -297.641004 
L 319.370837 -297.892499 
L 314.463604 -304.160489 
L 309.55637 -304.474945 
L 304.649137 -310.254362 
L 299.741904 -305.335069 
L 294.83467 -303.502597 
L 289.927437 -311.122398 
L 285.020203 -307.012896 
L 280.11297 -306.934951 
L 275.205737 -299.40705 
L 270.298503 -298.371372 
L 265.39127 -299.434214 
L 260.484037 -303.620093 
L 255.576803 -306.921151 
L 250.66957 -307.901051 
L 245.762336 -307.297073 
L 240.855103 -282.79025 
L 235.94787 -284.419229 
L 231.040636 -280.922496 
L 226.133403 -284.477891 
L 221.22617 -284.917827 
L 216.318936 -287.570252 
L 211.411703 -286.689531 
L 206.50447 -294.401654 
L 201.597236 -299.869145 
L 196.690003 -313.573483 
L 191.782769 -294.025954 
L 186.875536 -310.081046 
L 181.968303 -298.535284 
L 177.061069 -314.35122 
L 172.153836 -291.157138 
L 167.246603 -301.802073 
L 162.339369 -312.653284 
L 157.432136 -294.009327 
L 152.524902 -307.773629 
L 147.617669 -292.39744 
L 142.710436 -296.726574 
L 137.803202 -288.085608 
L 132.895969 -296.850243 
L 127.988736 -312.918106 
L 123.081502 -276.05398 
L 118.174269 -284.255256 
L 113.267036 -275.919919 
L 108.359802 -281.201838 
L 103.452569 -278.428302 
L 98.545335 -283.764488 
L 93.638102 -287.363169 
L 88.730869 -290.518836 
L 83.823635 -288.279523 
L 78.916402 -278.040161 
L 74.009169 -283.686801 
z
" style="stroke: #ff0000; stroke-opacity: 0.2"/>
    </defs>
    <g clip-path="url(#p4dbd130375)">
     <use xlink:href="#mfce363199d" x="0" y="424.8" style="fill: #ff0000; fill-opacity: 0.2; stroke: #ff0000; stroke-opacity: 0.2"/>
    </g>
   </g>
   <g id="matplotlib.axis_1"/>
   <g id="matplotlib.axis_2">
    <g id="ytick_1">
     <g id="line2d_1">
      <defs>
       <path id="m68b88aa112" d="M 0 0 
L -3.5 0 
" style="stroke: #000000; stroke-width: 0.8"/>
      </defs>
      <g>
       <use xlink:href="#m68b88aa112" x="44.075045" y="194.948769" style="stroke: #000000; stroke-width: 0.8"/>
      </g>
     </g>
     <g id="text_1">
      <!-- 0% -->
      <g transform="translate(31.222055 199.099859)scale(0.12 -0.12)">
       <defs>
        <path id="CMSS17-30" d="M 2758 2044 
C 2758 2405 2752 3077 2490 3596 
C 2227 4096 1805 4229 1504 4229 
C 1069 4229 698 3975 506 3570 
C 301 3146 243 2709 243 2044 
C 243 1589 262 1031 493 543 
C 755 5 1197 -128 1498 -128 
C 1894 -128 2278 81 2496 518 
C 2720 974 2758 1474 2758 2044 
z
M 1498 261 
C 1011 261 864 811 819 995 
C 742 1310 730 1614 730 2114 
C 730 2506 730 2948 851 3297 
C 998 3701 1254 3840 1498 3840 
C 1971 3840 2125 3372 2176 3208 
C 2272 2873 2272 2481 2272 2114 
C 2272 1526 2272 261 1498 261 
z
" transform="scale(0.015625)"/>
       </defs>
       <use xlink:href="#CMSS17-30" transform="scale(0.996264)"/>
      </g>
     </g>
    </g>
    <g id="ytick_2">
     <g id="line2d_2">
      <g>
       <use xlink:href="#m68b88aa112" x="44.075045" y="139.728543" style="stroke: #000000; stroke-width: 0.8"/>
      </g>
     </g>
     <g id="text_2">
      <!-- 20% -->
      <g transform="translate(25.369064 143.879633)scale(0.12 -0.12)">
       <defs>
        <path id="CMSS17-32" d="M 1651 1357 
C 1830 1541 2099 1764 2285 1987 
C 2464 2204 2701 2511 2701 2957 
C 2701 3657 2227 4288 1421 4288 
C 787 4288 422 3893 250 3274 
L 499 2929 
C 640 3510 838 3880 1338 3880 
C 1888 3880 2195 3433 2195 2942 
C 2195 2355 1747 1901 1408 1563 
C 1030 1187 659 804 301 408 
L 301 0 
L 2701 0 
L 2701 433 
L 1613 433 
C 1536 433 1459 433 1382 433 
L 742 433 
L 742 439 
L 1651 1357 
z
" transform="scale(0.015625)"/>
       </defs>
       <use xlink:href="#CMSS17-32" transform="scale(0.996264)"/>
       <use xlink:href="#CMSS17-30" transform="translate(46.843624 0)scale(0.996264)"/>
      </g>
     </g>
    </g>
    <g id="ytick_3">
     <g id="line2d_3">
      <g>
       <use xlink:href="#m68b88aa112" x="44.075045" y="84.508317" style="stroke: #000000; stroke-width: 0.8"/>
      </g>
     </g>
     <g id="text_3">
      <!-- 40% -->
      <g transform="translate(25.369064 88.659407)scale(0.12 -0.12)">
       <defs>
        <path id="CMSS17-34" d="M 2253 1088 
L 2835 1088 
L 2835 1477 
L 2253 1477 
L 2253 4192 
L 1690 4192 
L 166 1477 
L 166 1088 
L 1747 1088 
L 1747 0 
L 2253 0 
L 2253 1088 
z
M 659 1477 
C 1030 2127 1766 3439 1766 3885 
L 1766 1477 
L 659 1477 
z
" transform="scale(0.015625)"/>
       </defs>
       <use xlink:href="#CMSS17-34" transform="scale(0.996264)"/>
       <use xlink:href="#CMSS17-30" transform="translate(46.843624 0)scale(0.996264)"/>
      </g>
     </g>
    </g>
    <g id="ytick_4">
     <g id="line2d_4">
      <g>
       <use xlink:href="#m68b88aa112" x="44.075045" y="29.288091" style="stroke: #000000; stroke-width: 0.8"/>
      </g>
     </g>
     <g id="text_4">
      <!-- 60% -->
      <g transform="translate(25.369064 33.43918)scale(0.12 -0.12)">
       <defs>
        <path id="CMSS17-36" d="M 2496 4101 
C 2227 4210 2035 4229 1856 4229 
C 1024 4229 250 3368 250 2006 
C 250 265 986 -128 1510 -128 
C 1798 -128 2086 -39 2362 280 
C 2643 617 2752 898 2752 1389 
C 2752 2179 2362 2880 1779 2880 
C 1357 2880 992 2657 768 2376 
C 832 3258 1254 3840 1862 3840 
C 2029 3840 2246 3816 2496 3710 
L 2496 4101 
z
M 774 1369 
C 774 1420 774 1452 781 1548 
C 781 2045 1069 2491 1536 2491 
C 1837 2491 1990 2332 2106 2135 
C 2240 1886 2246 1650 2246 1388 
C 2246 1140 2246 891 2099 637 
C 1978 439 1818 267 1510 267 
C 902 267 800 1114 774 1369 
z
" transform="scale(0.015625)"/>
       </defs>
       <use xlink:href="#CMSS17-36" transform="scale(0.996264)"/>
       <use xlink:href="#CMSS17-30" transform="translate(46.843624 0)scale(0.996264)"/>
      </g>
     </g>
    </g>
    <g id="text_5">
     <!-- NewsGuard coverage -->
     <g transform="translate(18.269588 168.45801)rotate(-90)scale(0.16 -0.16)">
      <defs>
       <path id="CMSS17-4e" d="M 1466 4180 
L 1350 4416 
L 563 4416 
L 563 0 
L 1062 0 
L 1062 3926 
L 1069 3932 
C 1114 3817 1139 3760 1402 3194 
L 2771 236 
L 2886 0 
L 3674 0 
L 3674 4416 
L 3174 4416 
L 3174 490 
L 3168 483 
C 3123 598 3098 655 2835 1221 
L 1466 4180 
z
" transform="scale(0.015625)"/>
       <path id="CMSS17-65" d="M 2502 1377 
C 2502 1590 2490 2003 2285 2345 
C 2061 2713 1696 2816 1421 2816 
C 755 2816 192 2188 192 1375 
C 192 582 774 -64 1510 -64 
C 1798 -64 2150 19 2470 248 
C 2470 274 2458 414 2451 420 
C 2451 433 2432 630 2432 656 
C 2125 407 1773 325 1517 325 
C 1107 325 666 667 646 1377 
L 2502 1377 
z
M 698 1728 
C 781 2084 1062 2421 1421 2421 
C 1517 2421 1965 2421 2080 1728 
L 698 1728 
z
" transform="scale(0.015625)"/>
       <path id="CMSS17-77" d="M 4013 2752 
L 3526 2752 
L 3187 1601 
C 3117 1358 2918 685 2893 371 
L 2886 371 
C 2874 564 2765 1024 2586 1633 
L 2259 2752 
L 1818 2752 
L 1498 1658 
C 1338 1101 1216 627 1203 371 
L 1197 371 
C 1171 749 909 1633 870 1773 
L 582 2752 
L 83 2752 
L 915 0 
L 1402 0 
C 1734 1096 1990 1943 2010 2370 
C 2022 2160 2131 1707 2195 1484 
L 2618 0 
L 3181 0 
L 4013 2752 
z
" transform="scale(0.015625)"/>
       <path id="CMSS17-73" d="M 2061 2627 
C 1683 2807 1389 2807 1197 2807 
C 742 2807 198 2648 198 2003 
C 198 1359 902 1218 1094 1179 
C 1389 1122 1715 1058 1715 740 
C 1715 337 1254 337 1171 337 
C 915 337 563 407 243 638 
L 166 210 
C 531 0 883 -64 1178 -64 
C 1965 -64 2163 416 2163 781 
C 2163 1094 1984 1305 1862 1401 
C 1651 1568 1574 1587 1050 1696 
C 960 1709 646 1779 646 2066 
C 646 2432 1050 2432 1139 2432 
C 1555 2432 1811 2303 1984 2208 
L 2061 2627 
z
" transform="scale(0.015625)"/>
       <path id="CMSS17-47" d="M 3610 1856 
L 2336 1856 
L 2336 1461 
L 3123 1461 
L 3123 471 
C 2874 401 2618 350 2362 350 
C 1466 350 934 1301 934 2200 
C 934 3095 1491 4032 2362 4032 
C 2854 4032 3130 3881 3469 3627 
L 3552 4134 
C 3130 4351 2867 4440 2387 4440 
C 1146 4440 397 3324 397 2182 
C 397 1090 1152 -64 2349 -64 
C 2797 -64 3213 51 3610 248 
L 3610 1856 
z
" transform="scale(0.015625)"/>
       <path id="CMSS17-75" d="M 2618 2739 
L 2131 2739 
L 2131 972 
C 2131 498 1786 306 1421 306 
C 998 306 960 447 960 709 
L 960 2739 
L 474 2739 
L 474 678 
C 474 179 646 -64 1088 -64 
C 1306 -64 1798 -13 2144 306 
L 2144 0 
L 2618 0 
L 2618 2739 
z
" transform="scale(0.015625)"/>
       <path id="CMSS17-61" d="M 2406 1791 
C 2406 2392 1978 2808 1402 2808 
C 1120 2808 813 2757 461 2553 
L 499 2135 
C 659 2248 934 2432 1395 2432 
C 1722 2432 1920 2180 1920 1782 
L 1920 1536 
C 896 1536 256 1238 256 726 
C 256 461 416 -64 947 -64 
C 1043 -64 1562 -64 1933 217 
L 1933 -19 
L 2406 -19 
L 2406 1791 
z
M 1920 816 
C 1920 701 1920 548 1728 434 
C 1562 325 1350 325 1261 325 
C 941 325 723 511 723 744 
C 723 1211 1722 1211 1920 1211 
L 1920 816 
z
" transform="scale(0.015625)"/>
       <path id="CMSS17-72" d="M 954 1363 
C 954 1965 1395 2368 1958 2368 
L 1958 2789 
C 1549 2789 1165 2585 934 2253 
L 934 2758 
L 480 2758 
L 480 0 
L 954 0 
L 954 1363 
z
" transform="scale(0.015625)"/>
       <path id="CMSS17-64" d="M 2611 4416 
L 2138 4416 
L 2138 2438 
C 1939 2603 1613 2756 1254 2756 
C 672 2756 211 2131 211 1347 
C 211 562 666 -64 1235 -64 
C 1677 -64 1971 172 2125 306 
L 2125 -13 
L 2611 -13 
L 2611 4416 
z
M 2125 836 
C 2125 747 2125 653 1926 482 
C 1798 375 1645 325 1498 325 
C 1152 325 698 576 698 1340 
C 698 2134 1210 2368 1562 2368 
C 1798 2368 1990 2254 2125 2065 
L 2125 836 
z
" transform="scale(0.015625)"/>
       <path id="CMSS17-63" d="M 2464 2541 
C 2464 2585 2170 2714 2093 2739 
C 1882 2816 1613 2816 1542 2816 
C 710 2816 211 2093 211 1363 
C 211 595 768 -64 1517 -64 
C 1946 -64 2253 76 2502 242 
L 2464 664 
C 2189 453 1869 337 1523 337 
C 1024 337 698 774 698 1369 
C 698 1831 909 2414 1549 2414 
C 1901 2414 2099 2343 2394 2145 
L 2464 2541 
z
" transform="scale(0.015625)"/>
       <path id="CMSS17-6f" d="M 2829 1356 
C 2829 2176 2221 2816 1504 2816 
C 768 2816 173 2157 173 1356 
C 173 544 787 -64 1498 -64 
C 2227 -64 2829 563 2829 1356 
z
M 1504 337 
C 1050 337 659 709 659 1408 
C 659 2151 1114 2427 1498 2427 
C 1914 2427 2342 2126 2342 1408 
C 2342 683 1926 337 1504 337 
z
" transform="scale(0.015625)"/>
       <path id="CMSS17-76" d="M 2675 2752 
L 2176 2752 
L 1747 1556 
C 1613 1165 1421 627 1389 352 
L 1382 352 
C 1370 468 1318 634 1286 749 
C 1248 890 1197 1056 1158 1172 
L 595 2752 
L 83 2752 
L 1094 0 
L 1664 0 
L 2675 2752 
z
" transform="scale(0.015625)"/>
       <path id="CMSS17-67" d="M 2848 2808 
C 2483 2808 2170 2738 1914 2617 
C 1702 2777 1485 2808 1338 2808 
C 781 2808 358 2349 358 1814 
C 358 1468 550 1207 563 1195 
C 448 1035 384 863 384 672 
C 384 448 474 289 544 200 
C 211 -3 166 -314 166 -435 
C 166 -898 749 -1280 1498 -1280 
C 2253 -1280 2835 -898 2835 -428 
C 2835 448 1856 448 1587 448 
L 1069 448 
C 973 448 717 448 717 791 
C 717 921 774 1004 781 1010 
C 877 940 1075 832 1338 832 
C 1869 832 2310 1278 2310 1827 
C 2310 2132 2170 2355 2112 2432 
L 2131 2432 
C 2150 2432 2419 2432 2515 2432 
C 2720 2432 2739 2429 2918 2419 
L 2848 2808 
z
M 1338 1182 
C 1120 1182 813 1315 813 1823 
C 813 2375 1165 2464 1331 2464 
C 1549 2464 1856 2331 1856 1823 
C 1856 1271 1504 1182 1338 1182 
z
M 1581 -10 
C 1734 -10 2381 -10 2381 -442 
C 2381 -714 1984 -929 1504 -929 
C 1018 -929 621 -720 621 -435 
C 621 -403 621 -10 1062 -10 
L 1581 -10 
z
" transform="scale(0.015625)"/>
      </defs>
      <use xlink:href="#CMSS17-4e" transform="scale(0.996264)"/>
      <use xlink:href="#CMSS17-65" transform="translate(66.061519 0)scale(0.996264)"/>
      <use xlink:href="#CMSS17-77" transform="translate(107.700341 0)scale(0.996264)"/>
      <use xlink:href="#CMSS17-73" transform="translate(171.519886 0)scale(0.996264)"/>
      <use xlink:href="#CMSS17-47" transform="translate(207.433428 0)scale(0.996264)"/>
      <use xlink:href="#CMSS17-75" transform="translate(269.891654 0)scale(0.996264)"/>
      <use xlink:href="#CMSS17-61" transform="translate(318.096597 0)scale(0.996264)"/>
      <use xlink:href="#CMSS17-72" transform="translate(360.416064 0)scale(0.996264)"/>
      <use xlink:href="#CMSS17-64" transform="translate(392.325836 0)scale(0.996264)"/>
      <use xlink:href="#CMSS17-63" transform="translate(471.759892 0)scale(0.996264)"/>
      <use xlink:href="#CMSS17-6f" transform="translate(513.398714 0)scale(0.996264)"/>
      <use xlink:href="#CMSS17-76" transform="translate(560.242338 0)scale(0.996264)"/>
      <use xlink:href="#CMSS17-65" transform="translate(603.242479 0)scale(0.996264)"/>
      <use xlink:href="#CMSS17-72" transform="translate(644.881301 0)scale(0.996264)"/>
      <use xlink:href="#CMSS17-61" transform="translate(676.791074 0)scale(0.996264)"/>
      <use xlink:href="#CMSS17-67" transform="translate(721.712995 0)scale(0.996264)"/>
      <use xlink:href="#CMSS17-65" transform="translate(768.556618 0)scale(0.996264)"/>
     </g>
    </g>
   </g>
   <g id="line2d_5">
    <path d="M 74.009169 159.317119 
L 78.916402 129.847426 
L 83.823635 152.991889 
L 88.730869 139.860028 
L 93.638102 137.512094 
L 98.545335 142.501191 
L 103.452569 144.625592 
L 108.359802 145.130079 
L 113.267036 152.619071 
L 118.174269 147.846146 
L 123.081502 157.156034 
L 127.988736 153.668514 
L 132.895969 148.948118 
L 137.803202 150.835998 
L 142.710436 145.427956 
L 147.617669 147.4064 
L 152.524902 158.111145 
L 157.432136 149.172187 
L 162.339369 145.688386 
L 167.246603 160.509193 
L 172.153836 140.812006 
L 177.061069 140.863202 
L 181.968303 144.354725 
L 186.875536 133.591909 
L 191.782769 133.300161 
L 196.690003 139.880858 
L 201.597236 131.186812 
L 206.50447 140.984254 
L 211.411703 142.863302 
L 216.318936 149.327711 
L 221.22617 140.475205 
L 226.133403 144.070605 
L 231.040636 152.294956 
L 235.94787 143.114999 
L 240.855103 135.29606 
L 245.762336 127.254269 
L 250.66957 117.97714 
L 255.576803 142.426735 
L 260.484037 126.955198 
L 265.39127 126.495283 
L 270.298503 112.671761 
L 275.205737 118.201995 
L 280.11297 128.805457 
L 285.020203 106.485152 
L 289.927437 131.241898 
L 294.83467 135.985191 
L 299.741904 122.044648 
L 304.649137 119.180149 
L 309.55637 115.069471 
L 314.463604 122.403307 
L 319.370837 122.249949 
L 324.27807 117.445352 
L 329.185304 108.347475 
L 334.092537 113.894437 
L 338.99977 113.80228 
L 343.907004 116.536913 
L 348.814237 107.303251 
L 353.721471 127.986319 
L 358.628704 121.289665 
L 363.535937 84.148171 
L 368.443171 87.261281 
L 373.350404 74.25568 
L 378.257637 61.207802 
L 383.164871 70.517232 
L 388.072104 78.246251 
L 392.979338 71.948776 
L 397.886571 64.638954 
L 402.793804 69.506973 
L 407.701038 77.119333 
L 412.608271 76.126303 
L 417.515504 62.657758 
L 422.422738 65.292748 
L 427.329971 58.393146 
L 432.237205 77.637164 
L 437.144438 55.958359 
L 442.051671 54.726129 
L 446.958905 62.668586 
L 451.866138 57.846907 
L 456.773371 58.867063 
L 461.680605 60.264437 
L 466.587838 75.130184 
L 471.495071 81.226402 
L 476.402305 87.905739 
L 481.309538 39.86243 
L 486.216772 15.361971 
L 491.124005 32.795558 
L 496.031238 26.662863 
L 500.938472 41.34899 
L 505.845705 32.966543 
L 510.752938 40.91278 
L 515.660172 37.331109 
L 520.567405 38.262316 
L 525.474639 53.454605 
L 530.381872 53.827264 
L 535.289105 59.141566 
L 540.196339 52.296061 
L 545.103572 34.549544 
L 550.010805 50.123194 
L 554.918039 79.637347 
L 559.825272 82.45229 
L 564.732505 70.338342 
L 569.639739 57.239003 
L 574.546972 52.212928 
L 579.454206 60.105252 
L 584.361439 78.838768 
L 589.268672 89.525522 
L 594.175906 65.75581 
L 599.083139 42.720291 
L 603.990372 36.10973 
L 608.897606 50.352755 
L 613.804839 52.547057 
L 618.712073 60.908982 
L 623.619306 58.462741 
L 628.526539 46.654502 
L 633.433773 49.98014 
L 638.341006 45.495653 
L 643.248239 49.531076 
L 648.155473 49.61463 
L 653.062706 55.748921 
L 657.96994 44.356608 
L 662.877173 57.56039 
L 667.784406 48.169043 
L 672.69164 62.668922 
" clip-path="url(#p4dbd130375)" style="fill: none; stroke: #0015bc; stroke-width: 1.5; stroke-linecap: square"/>
   </g>
   <g id="line2d_6">
    <path d="M 74.009169 136.360693 
L 78.916402 142.617566 
L 83.823635 132.609673 
L 88.730869 129.973833 
L 93.638102 132.425224 
L 98.545335 136.808607 
L 103.452569 141.053416 
L 108.359802 139.587859 
L 113.267036 144.718104 
L 118.174269 136.616129 
L 123.081502 143.692385 
L 127.988736 103.524499 
L 132.895969 121.723055 
L 137.803202 131.395638 
L 142.710436 122.292497 
L 147.617669 128.218486 
L 152.524902 112.462098 
L 157.432136 126.273971 
L 162.339369 106.709751 
L 167.246603 118.06653 
L 172.153836 129.80052 
L 177.061069 105.71027 
L 181.968303 122.075849 
L 186.875536 110.076334 
L 191.782769 126.556058 
L 196.690003 107.271131 
L 201.597236 120.839404 
L 206.50447 126.965557 
L 211.411703 134.482669 
L 216.318936 134.197252 
L 221.22617 136.62964 
L 226.133403 136.751527 
L 231.040636 141.056457 
L 235.94787 137.507393 
L 240.855103 137.941034 
L 245.762336 111.613822 
L 250.66957 111.949492 
L 255.576803 113.946595 
L 260.484037 117.497443 
L 265.39127 120.728575 
L 270.298503 122.180082 
L 275.205737 121.858417 
L 280.11297 114.359015 
L 285.020203 113.43858 
L 289.927437 109.759616 
L 294.83467 117.779494 
L 299.741904 116.048347 
L 304.649137 111.130351 
L 309.55637 117.250776 
L 314.463604 117.434169 
L 319.370837 123.784488 
L 324.27807 124.513281 
L 329.185304 124.178772 
L 334.092537 118.930133 
L 338.99977 129.336376 
L 343.907004 119.668142 
L 348.814237 120.494728 
L 353.721471 117.050307 
L 358.628704 118.990183 
L 363.535937 88.108579 
L 368.443171 111.115284 
L 373.350404 106.552232 
L 378.257637 111.486733 
L 383.164871 99.52641 
L 388.072104 103.466858 
L 392.979338 107.691641 
L 397.886571 99.146985 
L 402.793804 92.075224 
L 407.701038 119.840812 
L 412.608271 108.79622 
L 417.515504 105.749286 
L 422.422738 94.075423 
L 427.329971 85.600011 
L 432.237205 87.337338 
L 437.144438 99.573119 
L 442.051671 99.64029 
L 446.958905 98.772689 
L 451.866138 90.267583 
L 456.773371 83.87574 
L 461.680605 69.107769 
L 466.587838 86.612165 
L 471.495071 78.092442 
L 476.402305 69.381902 
L 481.309538 73.629766 
L 486.216772 70.389812 
L 491.124005 73.489958 
L 496.031238 69.019588 
L 500.938472 60.57037 
L 505.845705 67.4869 
L 510.752938 72.387085 
L 515.660172 57.449731 
L 520.567405 59.216448 
L 525.474639 76.168376 
L 530.381872 67.389149 
L 535.289105 67.371339 
L 540.196339 60.789238 
L 545.103572 52.292863 
L 550.010805 70.754892 
L 554.918039 95.336648 
L 559.825272 93.945174 
L 564.732505 80.532113 
L 569.639739 78.074015 
L 574.546972 72.063497 
L 579.454206 64.607532 
L 584.361439 83.859746 
L 589.268672 83.930103 
L 594.175906 73.096715 
L 599.083139 55.947351 
L 603.990372 62.345279 
L 608.897606 53.377303 
L 613.804839 57.741836 
L 618.712073 55.026033 
L 623.619306 48.843989 
L 628.526539 43.165706 
L 633.433773 36.280081 
L 638.341006 37.554352 
L 643.248239 38.799329 
L 648.155473 34.72934 
L 653.062706 38.906657 
L 657.96994 41.073943 
L 662.877173 35.94884 
L 667.784406 37.100215 
L 672.69164 56.034338 
" clip-path="url(#p4dbd130375)" style="fill: none; stroke: #ff0000; stroke-width: 1.5; stroke-linecap: square"/>
   </g>
   <g id="patch_3">
    <path d="M 44.075045 194.948769 
L 44.075045 7.2 
" style="fill: none; stroke: #000000; stroke-width: 0.8; stroke-linejoin: miter; stroke-linecap: square"/>
   </g>
   <g id="patch_4">
    <path d="M 44.075045 194.948769 
L 702.625763 194.948769 
" style="fill: none; stroke: #000000; stroke-width: 0.8; stroke-linejoin: miter; stroke-linecap: square"/>
   </g>
   <g id="legend_1">
    <g id="line2d_7">
     <path d="M 572.664172 149.549817 
L 588.664172 149.549817 
L 604.664172 149.549817 
" style="fill: none; stroke: #0015bc; stroke-width: 1.5; stroke-linecap: square"/>
    </g>
    <g id="text_6">
     <!-- Democrat -->
     <g transform="translate(617.464172 155.149817)scale(0.16 -0.16)">
      <defs>
       <path id="CMSS17-44" d="M 570 4416 
L 570 0 
L 2144 0 
C 3194 0 4000 980 4000 2170 
C 4000 3398 3194 4416 2144 4416 
L 570 4416 
z
M 1094 357 
L 1094 4059 
L 2003 4059 
C 2861 4059 3475 3277 3475 2170 
C 3475 1107 2867 357 2003 357 
L 1094 357 
z
" transform="scale(0.015625)"/>
       <path id="CMSS17-6d" d="M 4288 1877 
C 4288 2308 4179 2816 3462 2816 
C 2982 2816 2694 2516 2566 2331 
C 2451 2670 2182 2816 1798 2816 
C 1363 2816 1088 2568 941 2389 
L 941 2758 
L 474 2758 
L 474 0 
L 960 0 
L 960 1559 
C 960 1939 1101 2428 1555 2428 
C 2138 2428 2138 2016 2138 1829 
L 2138 0 
L 2624 0 
L 2624 1559 
C 2624 1939 2765 2428 3219 2428 
C 3802 2428 3802 2016 3802 1829 
L 3802 0 
L 4288 0 
L 4288 1877 
z
" transform="scale(0.015625)"/>
       <path id="CMSS17-74" d="M 1069 2368 
L 1901 2368 
L 1901 2737 
L 1069 2737 
L 1069 3520 
L 614 3520 
L 614 2737 
L 109 2737 
L 109 2368 
L 602 2368 
L 602 749 
C 602 384 685 -64 1107 -64 
C 1427 -64 1722 25 2003 172 
L 1901 548 
C 1747 414 1562 337 1363 337 
C 1082 337 1069 696 1069 856 
L 1069 2368 
z
" transform="scale(0.015625)"/>
      </defs>
      <use xlink:href="#CMSS17-44" transform="scale(0.996264)"/>
      <use xlink:href="#CMSS17-65" transform="translate(67.542842 0)scale(0.996264)"/>
      <use xlink:href="#CMSS17-6d" transform="translate(109.181664 0)scale(0.996264)"/>
      <use xlink:href="#CMSS17-6f" transform="translate(183.410918 0)scale(0.996264)"/>
      <use xlink:href="#CMSS17-63" transform="translate(232.85698 0)scale(0.996264)"/>
      <use xlink:href="#CMSS17-72" transform="translate(274.495802 0)scale(0.996264)"/>
      <use xlink:href="#CMSS17-61" transform="translate(306.405575 0)scale(0.996264)"/>
      <use xlink:href="#CMSS17-74" transform="translate(351.327496 0)scale(0.996264)"/>
     </g>
    </g>
    <g id="line2d_8">
     <path d="M 572.664172 171.849293 
L 588.664172 171.849293 
L 604.664172 171.849293 
" style="fill: none; stroke: #ff0000; stroke-width: 1.5; stroke-linecap: square"/>
    </g>
    <g id="text_7">
     <!-- Republican -->
     <g transform="translate(617.464172 177.449293)scale(0.16 -0.16)">
      <defs>
       <path id="CMSS17-52" d="M 2522 2109 
L 2534 2115 
C 3533 2459 3539 3147 3539 3268 
C 3539 3873 2925 4453 2003 4453 
L 570 4453 
L 570 32 
L 1094 32 
L 1094 2048 
L 2035 2048 
L 3168 32 
L 3706 32 
L 2522 2109 
z
M 1094 2437 
L 1094 4096 
L 1933 4096 
C 2746 4096 3034 3637 3034 3267 
C 3034 2922 2778 2437 1933 2437 
L 1094 2437 
z
" transform="scale(0.015625)"/>
       <path id="CMSS17-70" d="M 966 333 
C 1178 129 1466 -5 1773 -5 
C 2368 -5 2880 603 2880 1412 
C 2880 2159 2496 2816 1946 2816 
C 1626 2816 1242 2702 954 2472 
L 954 2765 
L 480 2765 
L 480 -1216 
L 966 -1216 
L 966 333 
z
M 966 2100 
C 1018 2176 1235 2415 1587 2415 
C 2035 2415 2394 1960 2394 1412 
C 2394 787 1958 384 1530 384 
C 1402 384 1267 415 1139 523 
C 966 674 966 768 966 857 
L 966 2100 
z
" transform="scale(0.015625)"/>
       <path id="CMSS17-62" d="M 954 4416 
L 480 4416 
L 480 -13 
L 966 -13 
L 966 274 
C 1210 38 1504 -64 1766 -64 
C 2381 -64 2880 549 2880 1352 
C 2880 2086 2496 2756 1926 2756 
C 1523 2756 1165 2591 954 2419 
L 954 4416 
z
M 966 2046 
C 1107 2222 1306 2368 1587 2368 
C 1965 2368 2394 2097 2394 1352 
C 2394 558 1882 325 1530 325 
C 1402 325 1267 356 1139 464 
C 966 615 966 709 966 797 
L 966 2046 
z
" transform="scale(0.015625)"/>
       <path id="CMSS17-6c" d="M 947 4416 
L 474 4416 
L 474 0 
L 947 0 
L 947 4416 
z
" transform="scale(0.015625)"/>
       <path id="CMSS17-69" d="M 979 4183 
L 442 4183 
L 442 3648 
L 979 3648 
L 979 4183 
z
M 947 2739 
L 474 2739 
L 474 0 
L 947 0 
L 947 2739 
z
" transform="scale(0.015625)"/>
       <path id="CMSS17-6e" d="M 2618 1877 
C 2618 2283 2522 2816 1798 2816 
C 1389 2816 1120 2606 941 2389 
L 941 2758 
L 474 2758 
L 474 0 
L 960 0 
L 960 1559 
C 960 1964 1114 2428 1549 2428 
C 2112 2428 2131 2048 2131 1829 
L 2131 0 
L 2618 0 
L 2618 1877 
z
" transform="scale(0.015625)"/>
      </defs>
      <use xlink:href="#CMSS17-52" transform="scale(0.996264)"/>
      <use xlink:href="#CMSS17-65" transform="translate(60.416155 0)scale(0.996264)"/>
      <use xlink:href="#CMSS17-70" transform="translate(102.054977 0)scale(0.996264)"/>
      <use xlink:href="#CMSS17-75" transform="translate(150.25992 0)scale(0.996264)"/>
      <use xlink:href="#CMSS17-62" transform="translate(198.464863 0)scale(0.996264)"/>
      <use xlink:href="#CMSS17-6c" transform="translate(246.669806 0)scale(0.996264)"/>
      <use xlink:href="#CMSS17-69" transform="translate(268.850529 0)scale(0.996264)"/>
      <use xlink:href="#CMSS17-63" transform="translate(291.031252 0)scale(0.996264)"/>
      <use xlink:href="#CMSS17-61" transform="translate(332.670075 0)scale(0.996264)"/>
      <use xlink:href="#CMSS17-6e" transform="translate(377.591995 0)scale(0.996264)"/>
     </g>
    </g>
   </g>
  </g>
  <g id="axes_2">
   <g id="patch_5">
    <path d="M 44.075045 399.973224 
L 702.625763 399.973224 
L 702.625763 212.224455 
L 44.075045 212.224455 
z
" style="fill: #ffffff"/>
   </g>
   <g id="PolyCollection_5">
    <defs>
     <path id="m7662d33e31" d="M 74.009169 -52.010405 
L 74.009169 -48.121892 
L 78.916402 -74.897316 
L 83.823635 -47.772467 
L 88.730869 -60.771399 
L 93.638102 -65.996287 
L 98.545335 -61.304143 
L 103.452569 -65.473558 
L 108.359802 -61.748074 
L 113.267036 -56.647124 
L 118.174269 -60.299074 
L 123.081502 -51.335306 
L 127.988736 -56.725514 
L 132.895969 -67.421718 
L 137.803202 -64.746981 
L 142.710436 -65.183331 
L 147.617669 -65.39882 
L 152.524902 -54.07072 
L 157.432136 -66.076668 
L 162.339369 -68.417415 
L 167.246603 -52.766044 
L 172.153836 -76.084368 
L 177.061069 -72.744588 
L 181.968303 -73.536435 
L 186.875536 -77.319861 
L 191.782769 -82.911103 
L 196.690003 -72.237192 
L 201.597236 -78.696108 
L 206.50447 -72.796882 
L 211.411703 -72.605543 
L 216.318936 -63.591376 
L 221.22617 -70.588475 
L 226.133403 -68.03732 
L 231.040636 -58.678062 
L 235.94787 -65.318523 
L 240.855103 -66.429986 
L 245.762336 -83.698362 
L 250.66957 -88.750646 
L 255.576803 -64.658439 
L 260.484037 -84.379355 
L 265.39127 -80.523205 
L 270.298503 -94.932453 
L 275.205737 -94.363711 
L 280.11297 -75.846302 
L 285.020203 -103.9217 
L 289.927437 -77.218189 
L 294.83467 -80.95571 
L 299.741904 -85.815882 
L 304.649137 -92.929859 
L 309.55637 -92.280182 
L 314.463604 -88.302615 
L 319.370837 -94.63435 
L 324.27807 -96.576028 
L 329.185304 -96.979346 
L 334.092537 -105.730907 
L 338.99977 -102.044992 
L 343.907004 -91.532366 
L 348.814237 -98.553096 
L 353.721471 -81.162738 
L 358.628704 -81.520174 
L 363.535937 -128.581745 
L 368.443171 -123.07906 
L 373.350404 -133.338332 
L 378.257637 -153.42436 
L 383.164871 -135.187222 
L 388.072104 -137.65284 
L 392.979338 -139.900386 
L 397.886571 -150.893472 
L 402.793804 -135.63016 
L 407.701038 -129.980066 
L 412.608271 -138.726966 
L 417.515504 -146.89901 
L 422.422738 -146.837521 
L 427.329971 -146.962404 
L 432.237205 -131.9021 
L 437.144438 -148.423984 
L 442.051671 -151.133731 
L 446.958905 -143.940343 
L 451.866138 -150.714177 
L 456.773371 -146.548304 
L 461.680605 -140.898775 
L 466.587838 -131.337311 
L 471.495071 -122.816528 
L 476.402305 -121.969481 
L 481.309538 -167.552901 
L 486.216772 -185.27095 
L 491.124005 -166.05485 
L 496.031238 -170.185631 
L 500.938472 -158.275477 
L 505.845705 -167.57911 
L 510.752938 -160.894139 
L 515.660172 -163.674256 
L 520.567405 -159.551434 
L 525.474639 -147.763828 
L 530.381872 -146.737324 
L 535.289105 -140.663498 
L 540.196339 -150.891433 
L 545.103572 -163.938406 
L 550.010805 -149.29463 
L 554.918039 -125.426016 
L 559.825272 -117.829925 
L 564.732505 -129.697812 
L 569.639739 -146.759504 
L 574.546972 -151.622422 
L 579.454206 -140.774381 
L 584.361439 -127.992352 
L 589.268672 -115.22797 
L 594.175906 -138.293491 
L 599.083139 -158.28014 
L 603.990372 -165.508852 
L 608.897606 -148.51268 
L 613.804839 -147.193628 
L 618.712073 -141.009716 
L 623.619306 -137.407746 
L 628.526539 -149.748646 
L 633.433773 -143.677775 
L 638.341006 -145.321512 
L 643.248239 -149.581931 
L 648.155473 -149.982455 
L 653.062706 -139.971369 
L 657.96994 -150.776626 
L 662.877173 -139.770038 
L 667.784406 -148.658433 
L 672.69164 -140.226673 
L 672.69164 -142.868683 
L 672.69164 -142.868683 
L 667.784406 -150.455589 
L 662.877173 -141.201705 
L 657.96994 -152.495701 
L 653.062706 -141.550895 
L 648.155473 -151.709858 
L 643.248239 -151.197734 
L 638.341006 -146.821239 
L 633.433773 -145.210682 
L 628.526539 -151.395228 
L 623.619306 -139.068497 
L 618.712073 -142.566954 
L 613.804839 -148.750879 
L 608.897606 -149.991502 
L 603.990372 -167.251727 
L 599.083139 -159.868318 
L 594.175906 -139.909797 
L 589.268672 -116.404621 
L 584.361439 -129.321315 
L 579.454206 -142.083219 
L 574.546972 -152.898344 
L 569.639739 -148.261381 
L 564.732505 -131.070724 
L 559.825272 -119.120046 
L 554.918039 -126.669401 
L 550.010805 -150.995472 
L 545.103572 -165.76611 
L 540.196339 -152.751361 
L 535.289105 -142.961 
L 530.381872 -148.899181 
L 525.474639 -150.039721 
L 520.567405 -161.83186 
L 515.660172 -166.570386 
L 510.752938 -162.978082 
L 505.845705 -169.687082 
L 500.938472 -160.860368 
L 496.031238 -172.564731 
L 491.124005 -168.603993 
L 486.216772 -187.767513 
L 481.309538 -170.759912 
L 476.402305 -124.332116 
L 471.495071 -124.585205 
L 466.587838 -133.7004 
L 461.680605 -143.28718 
L 456.773371 -149.311067 
L 451.866138 -153.144152 
L 446.958905 -146.42262 
L 442.051671 -154.113477 
L 437.144438 -151.585707 
L 432.237205 -134.329434 
L 427.329971 -150.126569 
L 422.422738 -150.391539 
L 417.515504 -150.278048 
L 412.608271 -142.628856 
L 407.701038 -134.153624 
L 402.793804 -140.815078 
L 397.886571 -155.226535 
L 392.979338 -144.281148 
L 388.072104 -142.235159 
L 383.164871 -140.193461 
L 378.257637 -158.033964 
L 373.350404 -138.306211 
L 368.443171 -128.193002 
L 363.535937 -134.478818 
L 358.628704 -85.255875 
L 353.721471 -84.740458 
L 348.814237 -102.414405 
L 343.907004 -96.210136 
L 338.99977 -106.682934 
L 334.092537 -110.972148 
L 329.185304 -101.730038 
L 324.27807 -101.647962 
L 319.370837 -99.452277 
L 314.463604 -93.136843 
L 309.55637 -97.931778 
L 304.649137 -97.984744 
L 299.741904 -90.757877 
L 294.83467 -85.926568 
L 289.927437 -82.556233 
L 285.020203 -110.707865 
L 280.11297 -80.76866 
L 275.205737 -101.496196 
L 270.298503 -102.17579 
L 265.39127 -85.756272 
L 260.484037 -89.89635 
L 255.576803 -69.083219 
L 250.66957 -94.926249 
L 245.762336 -90.183986 
L 240.855103 -71.304371 
L 235.94787 -68.066477 
L 231.040636 -62.094925 
L 226.133403 -72.597974 
L 221.22617 -74.641782 
L 216.318936 -67.703087 
L 211.411703 -76.74923 
L 206.50447 -77.426655 
L 201.597236 -83.621803 
L 196.690003 -77.004605 
L 191.782769 -88.406447 
L 186.875536 -83.874631 
L 181.968303 -79.059587 
L 177.061069 -77.221225 
L 172.153836 -81.342483 
L 167.246603 -56.020137 
L 162.339369 -72.825367 
L 157.432136 -70.570805 
L 152.524902 -59.201931 
L 147.617669 -70.633068 
L 142.710436 -70.629584 
L 137.803202 -69.55715 
L 132.895969 -72.765815 
L 127.988736 -62.171243 
L 123.081502 -54.225729 
L 118.174269 -62.946977 
L 113.267036 -59.885792 
L 108.359802 -65.036826 
L 103.452569 -68.57011 
L 98.545335 -64.73536 
L 93.638102 -69.96742 
L 88.730869 -64.40144 
L 83.823635 -50.823814 
L 78.916402 -79.282216 
L 74.009169 -52.010405 
z
" style="stroke: #0015bc; stroke-opacity: 0.2"/>
    </defs>
    <g clip-path="url(#p507035d13e)">
     <use xlink:href="#m7662d33e31" x="0" y="424.8" style="fill: #0015bc; fill-opacity: 0.2; stroke: #0015bc; stroke-opacity: 0.2"/>
    </g>
   </g>
   <g id="PolyCollection_6">
    <defs>
     <path id="m4189db1a1b" d="M 74.009169 -44.233378 
L 74.009169 -48.121892 
L 78.916402 -74.897316 
L 83.823635 -47.772467 
L 88.730869 -60.771399 
L 93.638102 -65.996287 
L 98.545335 -61.304143 
L 103.452569 -65.473558 
L 108.359802 -61.748074 
L 113.267036 -56.647124 
L 118.174269 -60.299074 
L 123.081502 -51.335306 
L 127.988736 -56.725514 
L 132.895969 -67.421718 
L 137.803202 -64.746981 
L 142.710436 -65.183331 
L 147.617669 -65.39882 
L 152.524902 -54.07072 
L 157.432136 -66.076668 
L 162.339369 -68.417415 
L 167.246603 -52.766044 
L 172.153836 -76.084368 
L 177.061069 -72.744588 
L 181.968303 -73.536435 
L 186.875536 -77.319861 
L 191.782769 -82.911103 
L 196.690003 -72.237192 
L 201.597236 -78.696108 
L 206.50447 -72.796882 
L 211.411703 -72.605543 
L 216.318936 -63.591376 
L 221.22617 -70.588475 
L 226.133403 -68.03732 
L 231.040636 -58.678062 
L 235.94787 -65.318523 
L 240.855103 -66.429986 
L 245.762336 -83.698362 
L 250.66957 -88.750646 
L 255.576803 -64.658439 
L 260.484037 -84.379355 
L 265.39127 -80.523205 
L 270.298503 -94.932453 
L 275.205737 -94.363711 
L 280.11297 -75.846302 
L 285.020203 -103.9217 
L 289.927437 -77.218189 
L 294.83467 -80.95571 
L 299.741904 -85.815882 
L 304.649137 -92.929859 
L 309.55637 -92.280182 
L 314.463604 -88.302615 
L 319.370837 -94.63435 
L 324.27807 -96.576028 
L 329.185304 -96.979346 
L 334.092537 -105.730907 
L 338.99977 -102.044992 
L 343.907004 -91.532366 
L 348.814237 -98.553096 
L 353.721471 -81.162738 
L 358.628704 -81.520174 
L 363.535937 -128.581745 
L 368.443171 -123.07906 
L 373.350404 -133.338332 
L 378.257637 -153.42436 
L 383.164871 -135.187222 
L 388.072104 -137.65284 
L 392.979338 -139.900386 
L 397.886571 -150.893472 
L 402.793804 -135.63016 
L 407.701038 -129.980066 
L 412.608271 -138.726966 
L 417.515504 -146.89901 
L 422.422738 -146.837521 
L 427.329971 -146.962404 
L 432.237205 -131.9021 
L 437.144438 -148.423984 
L 442.051671 -151.133731 
L 446.958905 -143.940343 
L 451.866138 -150.714177 
L 456.773371 -146.548304 
L 461.680605 -140.898775 
L 466.587838 -131.337311 
L 471.495071 -122.816528 
L 476.402305 -121.969481 
L 481.309538 -167.552901 
L 486.216772 -185.27095 
L 491.124005 -166.05485 
L 496.031238 -170.185631 
L 500.938472 -158.275477 
L 505.845705 -167.57911 
L 510.752938 -160.894139 
L 515.660172 -163.674256 
L 520.567405 -159.551434 
L 525.474639 -147.763828 
L 530.381872 -146.737324 
L 535.289105 -140.663498 
L 540.196339 -150.891433 
L 545.103572 -163.938406 
L 550.010805 -149.29463 
L 554.918039 -125.426016 
L 559.825272 -117.829925 
L 564.732505 -129.697812 
L 569.639739 -146.759504 
L 574.546972 -151.622422 
L 579.454206 -140.774381 
L 584.361439 -127.992352 
L 589.268672 -115.22797 
L 594.175906 -138.293491 
L 599.083139 -158.28014 
L 603.990372 -165.508852 
L 608.897606 -148.51268 
L 613.804839 -147.193628 
L 618.712073 -141.009716 
L 623.619306 -137.407746 
L 628.526539 -149.748646 
L 633.433773 -143.677775 
L 638.341006 -145.321512 
L 643.248239 -149.581931 
L 648.155473 -149.982455 
L 653.062706 -139.971369 
L 657.96994 -150.776626 
L 662.877173 -139.770038 
L 667.784406 -148.658433 
L 672.69164 -140.226673 
L 672.69164 -137.584663 
L 672.69164 -137.584663 
L 667.784406 -146.861278 
L 662.877173 -138.338371 
L 657.96994 -149.057551 
L 653.062706 -138.391842 
L 648.155473 -148.255052 
L 643.248239 -147.966128 
L 638.341006 -143.821785 
L 633.433773 -142.144868 
L 628.526539 -148.102063 
L 623.619306 -135.746995 
L 618.712073 -139.452479 
L 613.804839 -145.636378 
L 608.897606 -147.033858 
L 603.990372 -163.765978 
L 599.083139 -156.691962 
L 594.175906 -136.677186 
L 589.268672 -114.051318 
L 584.361439 -126.663388 
L 579.454206 -139.465542 
L 574.546972 -150.346499 
L 569.639739 -145.257628 
L 564.732505 -128.324899 
L 559.825272 -116.539804 
L 554.918039 -124.182631 
L 550.010805 -147.593788 
L 545.103572 -162.110701 
L 540.196339 -149.031505 
L 535.289105 -138.365997 
L 530.381872 -144.575467 
L 525.474639 -145.487936 
L 520.567405 -157.271007 
L 515.660172 -160.778127 
L 510.752938 -158.810197 
L 505.845705 -165.471137 
L 500.938472 -155.690587 
L 496.031238 -167.80653 
L 491.124005 -163.505708 
L 486.216772 -182.774387 
L 481.309538 -164.345891 
L 476.402305 -119.606845 
L 471.495071 -121.047851 
L 466.587838 -128.974222 
L 461.680605 -138.51037 
L 456.773371 -143.785541 
L 451.866138 -148.284203 
L 446.958905 -141.458065 
L 442.051671 -148.153986 
L 437.144438 -145.262262 
L 432.237205 -129.474765 
L 427.329971 -143.798238 
L 422.422738 -143.283503 
L 417.515504 -143.519972 
L 412.608271 -134.825076 
L 407.701038 -125.806508 
L 402.793804 -130.445242 
L 397.886571 -146.560409 
L 392.979338 -135.519625 
L 388.072104 -133.070521 
L 383.164871 -130.180984 
L 378.257637 -148.814756 
L 373.350404 -128.370453 
L 368.443171 -117.965117 
L 363.535937 -122.684673 
L 358.628704 -77.784474 
L 353.721471 -77.585018 
L 348.814237 -94.691786 
L 343.907004 -86.854596 
L 338.99977 -97.407049 
L 334.092537 -100.489666 
L 329.185304 -92.228653 
L 324.27807 -91.504093 
L 319.370837 -89.816423 
L 314.463604 -83.468388 
L 309.55637 -86.628586 
L 304.649137 -87.874973 
L 299.741904 -80.873887 
L 294.83467 -75.984853 
L 289.927437 -71.880144 
L 285.020203 -97.135534 
L 280.11297 -70.923944 
L 275.205737 -87.231227 
L 270.298503 -87.689116 
L 265.39127 -75.290138 
L 260.484037 -78.862359 
L 255.576803 -60.233659 
L 250.66957 -82.575044 
L 245.762336 -77.212737 
L 240.855103 -61.555601 
L 235.94787 -62.570569 
L 231.040636 -55.261198 
L 226.133403 -63.476665 
L 221.22617 -66.535168 
L 216.318936 -59.479664 
L 211.411703 -68.461856 
L 206.50447 -68.167108 
L 201.597236 -73.770413 
L 196.690003 -67.469779 
L 191.782769 -77.41576 
L 186.875536 -70.76509 
L 181.968303 -68.013284 
L 177.061069 -68.26795 
L 172.153836 -70.826252 
L 167.246603 -49.511951 
L 162.339369 -64.009463 
L 157.432136 -61.582531 
L 152.524902 -48.939509 
L 147.617669 -60.164572 
L 142.710436 -59.737078 
L 137.803202 -59.936812 
L 132.895969 -62.07762 
L 127.988736 -51.279786 
L 123.081502 -48.444883 
L 118.174269 -57.65117 
L 113.267036 -53.408455 
L 108.359802 -58.459322 
L 103.452569 -62.377007 
L 98.545335 -57.872925 
L 93.638102 -62.025154 
L 88.730869 -57.141358 
L 83.823635 -44.72112 
L 78.916402 -70.512415 
L 74.009169 -44.233378 
z
" style="stroke: #0015bc; stroke-opacity: 0.2"/>
    </defs>
    <g clip-path="url(#p507035d13e)">
     <use xlink:href="#m4189db1a1b" x="0" y="424.8" style="fill: #0015bc; fill-opacity: 0.2; stroke: #0015bc; stroke-opacity: 0.2"/>
    </g>
   </g>
   <g id="PolyCollection_7">
    <defs>
     <path id="m85aa443acb" d="M 74.009169 -82.533175 
L 74.009169 -78.386286 
L 78.916402 -73.949304 
L 83.823635 -80.973436 
L 88.730869 -82.606869 
L 93.638102 -82.210186 
L 98.545335 -74.054976 
L 103.452569 -71.345784 
L 108.359802 -69.709352 
L 113.267036 -69.645912 
L 118.174269 -77.037084 
L 123.081502 -82.534966 
L 127.988736 -111.947741 
L 132.895969 -92.084377 
L 137.803202 -87.954192 
L 142.710436 -91.678964 
L 147.617669 -82.683173 
L 152.524902 -95.834987 
L 157.432136 -89.757749 
L 162.339369 -104.290569 
L 167.246603 -89.438951 
L 172.153836 -81.633825 
L 177.061069 -108.571484 
L 181.968303 -96.873852 
L 186.875536 -99.398754 
L 191.782769 -87.869499 
L 196.690003 -101.904299 
L 201.597236 -88.320217 
L 206.50447 -82.99587 
L 211.411703 -73.199297 
L 216.318936 -78.34467 
L 221.22617 -74.641275 
L 226.133403 -71.616382 
L 231.040636 -70.355894 
L 235.94787 -69.147673 
L 240.855103 -73.045429 
L 245.762336 -92.646067 
L 250.66957 -97.089171 
L 255.576803 -92.896043 
L 260.484037 -93.916386 
L 265.39127 -86.530089 
L 270.298503 -85.096122 
L 275.205737 -86.074424 
L 280.11297 -95.242872 
L 285.020203 -88.393416 
L 289.927437 -94.65815 
L 294.83467 -84.524779 
L 299.741904 -88.744278 
L 304.649137 -95.975532 
L 309.55637 -84.665317 
L 314.463604 -87.680262 
L 319.370837 -84.652368 
L 324.27807 -83.234163 
L 329.185304 -81.542839 
L 334.092537 -87.019785 
L 338.99977 -79.05897 
L 343.907004 -78.727325 
L 348.814237 -86.836668 
L 353.721471 -87.876603 
L 358.628704 -85.765882 
L 363.535937 -103.932874 
L 368.443171 -97.233607 
L 373.350404 -92.010913 
L 378.257637 -91.954029 
L 383.164871 -102.397246 
L 388.072104 -101.230378 
L 392.979338 -99.305658 
L 397.886571 -103.057369 
L 402.793804 -104.287815 
L 407.701038 -86.957633 
L 412.608271 -98.230986 
L 417.515504 -103.776853 
L 422.422738 -115.304561 
L 427.329971 -117.55013 
L 432.237205 -109.21655 
L 437.144438 -97.862455 
L 442.051671 -102.269559 
L 446.958905 -102.832458 
L 451.866138 -115.383695 
L 456.773371 -120.084112 
L 461.680605 -125.011246 
L 466.587838 -114.229307 
L 471.495071 -120.438782 
L 476.402305 -124.515409 
L 481.309538 -114.854604 
L 486.216772 -123.793585 
L 491.124005 -127.544266 
L 496.031238 -123.956919 
L 500.938472 -128.365834 
L 505.845705 -125.099954 
L 510.752938 -118.799702 
L 515.660172 -131.532672 
L 520.567405 -120.088372 
L 525.474639 -115.694168 
L 530.381872 -121.003505 
L 535.289105 -125.029431 
L 540.196339 -131.189566 
L 545.103572 -137.90343 
L 550.010805 -123.970502 
L 554.918039 -104.063584 
L 559.825272 -99.255682 
L 564.732505 -115.71572 
L 569.639739 -117.336437 
L 574.546972 -124.832795 
L 579.454206 -127.75872 
L 584.361439 -116.897404 
L 589.268672 -116.948677 
L 594.175906 -126.890261 
L 599.083139 -137.568848 
L 603.990372 -134.255042 
L 608.897606 -142.991399 
L 613.804839 -142.074426 
L 618.712073 -147.572557 
L 623.619306 -150.332404 
L 628.526539 -155.662245 
L 633.433773 -161.868937 
L 638.341006 -162.809841 
L 643.248239 -162.616284 
L 648.155473 -171.376194 
L 653.062706 -164.925928 
L 657.96994 -163.777902 
L 662.877173 -169.49846 
L 667.784406 -158.405763 
L 672.69164 -141.931909 
L 672.69164 -144.577728 
L 672.69164 -144.577728 
L 667.784406 -160.43628 
L 662.877173 -171.325311 
L 657.96994 -165.960679 
L 653.062706 -166.782759 
L 648.155473 -173.463165 
L 643.248239 -164.994328 
L 638.341006 -164.944353 
L 633.433773 -163.898172 
L 628.526539 -157.590832 
L 623.619306 -152.02554 
L 618.712073 -149.699932 
L 613.804839 -143.823753 
L 608.897606 -144.878395 
L 603.990372 -136.315663 
L 599.083139 -139.752799 
L 594.175906 -129.433133 
L 589.268672 -118.740735 
L 584.361439 -118.714022 
L 579.454206 -129.705666 
L 574.546972 -126.876468 
L 569.639739 -119.451846 
L 564.732505 -117.38525 
L 559.825272 -100.610969 
L 554.918039 -105.619551 
L 550.010805 -126.070344 
L 545.103572 -140.567008 
L 540.196339 -133.473914 
L 535.289105 -127.920242 
L 530.381872 -123.623985 
L 525.474639 -118.259906 
L 520.567405 -123.01296 
L 515.660172 -134.101747 
L 510.752938 -121.373249 
L 505.845705 -127.424995 
L 500.938472 -131.233232 
L 496.031238 -126.483916 
L 491.124005 -130.579971 
L 486.216772 -126.54891 
L 481.309538 -118.046893 
L 476.402305 -128.001301 
L 471.495071 -122.513501 
L 466.587838 -116.583399 
L 461.680605 -127.61825 
L 456.773371 -122.821004 
L 451.866138 -117.841688 
L 446.958905 -105.612072 
L 442.051671 -104.997303 
L 437.144438 -100.531479 
L 432.237205 -111.890872 
L 427.329971 -120.17216 
L 422.422738 -118.653809 
L 417.515504 -106.738523 
L 412.608271 -101.275111 
L 407.701038 -89.367068 
L 402.793804 -107.981833 
L 397.886571 -106.414188 
L 392.979338 -102.339183 
L 388.072104 -104.309318 
L 383.164871 -105.802606 
L 378.257637 -94.819866 
L 373.350404 -95.347881 
L 368.443171 -100.477075 
L 363.535937 -107.49926 
L 358.628704 -88.577738 
L 353.721471 -90.025017 
L 348.814237 -89.575186 
L 343.907004 -81.233442 
L 338.99977 -81.743012 
L 334.092537 -89.374154 
L 329.185304 -83.763596 
L 324.27807 -86.010647 
L 319.370837 -87.46289 
L 314.463604 -90.515308 
L 309.55637 -87.626629 
L 304.649137 -99.249507 
L 299.741904 -91.998612 
L 294.83467 -88.120231 
L 289.927437 -98.24778 
L 285.020203 -92.528661 
L 280.11297 -98.43563 
L 275.205737 -89.536161 
L 270.298503 -89.123028 
L 265.39127 -90.211908 
L 260.484037 -97.934002 
L 255.576803 -96.705672 
L 250.66957 -101.712578 
L 245.762336 -97.778044 
L 240.855103 -76.864292 
L 235.94787 -71.553899 
L 231.040636 -72.919551 
L 226.133403 -74.813785 
L 221.22617 -77.422027 
L 216.318936 -81.495794 
L 211.411703 -76.749869 
L 206.50447 -85.986539 
L 201.597236 -91.923647 
L 196.690003 -105.633889 
L 191.782769 -91.794472 
L 186.875536 -103.472551 
L 181.968303 -101.058311 
L 177.061069 -112.922475 
L 172.153836 -85.420044 
L 167.246603 -93.821225 
L 162.339369 -109.684634 
L 157.432136 -94.286983 
L 152.524902 -100.480659 
L 147.617669 -86.707887 
L 142.710436 -97.524265 
L 137.803202 -93.42916 
L 132.895969 -98.216988 
L 127.988736 -119.685552 
L 123.081502 -87.862706 
L 118.174269 -80.552338 
L 113.267036 -73.473044 
L 108.359802 -73.378519 
L 103.452569 -76.059975 
L 98.545335 -78.106457 
L 93.638102 -86.902626 
L 88.730869 -86.871129 
L 83.823635 -84.896022 
L 78.916402 -78.167779 
L 74.009169 -82.533175 
z
" style="stroke: #ff0000; stroke-opacity: 0.2"/>
    </defs>
    <g clip-path="url(#p507035d13e)">
     <use xlink:href="#m85aa443acb" x="0" y="424.8" style="fill: #ff0000; fill-opacity: 0.2; stroke: #ff0000; stroke-opacity: 0.2"/>
    </g>
   </g>
   <g id="PolyCollection_8">
    <defs>
     <path id="meca76aa6df" d="M 74.009169 -74.239397 
L 74.009169 -78.386286 
L 78.916402 -73.949304 
L 83.823635 -80.973436 
L 88.730869 -82.606869 
L 93.638102 -82.210186 
L 98.545335 -74.054976 
L 103.452569 -71.345784 
L 108.359802 -69.709352 
L 113.267036 -69.645912 
L 118.174269 -77.037084 
L 123.081502 -82.534966 
L 127.988736 -111.947741 
L 132.895969 -92.084377 
L 137.803202 -87.954192 
L 142.710436 -91.678964 
L 147.617669 -82.683173 
L 152.524902 -95.834987 
L 157.432136 -89.757749 
L 162.339369 -104.290569 
L 167.246603 -89.438951 
L 172.153836 -81.633825 
L 177.061069 -108.571484 
L 181.968303 -96.873852 
L 186.875536 -99.398754 
L 191.782769 -87.869499 
L 196.690003 -101.904299 
L 201.597236 -88.320217 
L 206.50447 -82.99587 
L 211.411703 -73.199297 
L 216.318936 -78.34467 
L 221.22617 -74.641275 
L 226.133403 -71.616382 
L 231.040636 -70.355894 
L 235.94787 -69.147673 
L 240.855103 -73.045429 
L 245.762336 -92.646067 
L 250.66957 -97.089171 
L 255.576803 -92.896043 
L 260.484037 -93.916386 
L 265.39127 -86.530089 
L 270.298503 -85.096122 
L 275.205737 -86.074424 
L 280.11297 -95.242872 
L 285.020203 -88.393416 
L 289.927437 -94.65815 
L 294.83467 -84.524779 
L 299.741904 -88.744278 
L 304.649137 -95.975532 
L 309.55637 -84.665317 
L 314.463604 -87.680262 
L 319.370837 -84.652368 
L 324.27807 -83.234163 
L 329.185304 -81.542839 
L 334.092537 -87.019785 
L 338.99977 -79.05897 
L 343.907004 -78.727325 
L 348.814237 -86.836668 
L 353.721471 -87.876603 
L 358.628704 -85.765882 
L 363.535937 -103.932874 
L 368.443171 -97.233607 
L 373.350404 -92.010913 
L 378.257637 -91.954029 
L 383.164871 -102.397246 
L 388.072104 -101.230378 
L 392.979338 -99.305658 
L 397.886571 -103.057369 
L 402.793804 -104.287815 
L 407.701038 -86.957633 
L 412.608271 -98.230986 
L 417.515504 -103.776853 
L 422.422738 -115.304561 
L 427.329971 -117.55013 
L 432.237205 -109.21655 
L 437.144438 -97.862455 
L 442.051671 -102.269559 
L 446.958905 -102.832458 
L 451.866138 -115.383695 
L 456.773371 -120.084112 
L 461.680605 -125.011246 
L 466.587838 -114.229307 
L 471.495071 -120.438782 
L 476.402305 -124.515409 
L 481.309538 -114.854604 
L 486.216772 -123.793585 
L 491.124005 -127.544266 
L 496.031238 -123.956919 
L 500.938472 -128.365834 
L 505.845705 -125.099954 
L 510.752938 -118.799702 
L 515.660172 -131.532672 
L 520.567405 -120.088372 
L 525.474639 -115.694168 
L 530.381872 -121.003505 
L 535.289105 -125.029431 
L 540.196339 -131.189566 
L 545.103572 -137.90343 
L 550.010805 -123.970502 
L 554.918039 -104.063584 
L 559.825272 -99.255682 
L 564.732505 -115.71572 
L 569.639739 -117.336437 
L 574.546972 -124.832795 
L 579.454206 -127.75872 
L 584.361439 -116.897404 
L 589.268672 -116.948677 
L 594.175906 -126.890261 
L 599.083139 -137.568848 
L 603.990372 -134.255042 
L 608.897606 -142.991399 
L 613.804839 -142.074426 
L 618.712073 -147.572557 
L 623.619306 -150.332404 
L 628.526539 -155.662245 
L 633.433773 -161.868937 
L 638.341006 -162.809841 
L 643.248239 -162.616284 
L 648.155473 -171.376194 
L 653.062706 -164.925928 
L 657.96994 -163.777902 
L 662.877173 -169.49846 
L 667.784406 -158.405763 
L 672.69164 -141.931909 
L 672.69164 -139.28609 
L 672.69164 -139.28609 
L 667.784406 -156.375246 
L 662.877173 -167.67161 
L 657.96994 -161.595126 
L 653.062706 -163.069097 
L 648.155473 -169.289222 
L 643.248239 -160.23824 
L 638.341006 -160.675329 
L 633.433773 -159.839702 
L 628.526539 -153.733659 
L 623.619306 -148.639267 
L 618.712073 -145.445182 
L 613.804839 -140.325099 
L 608.897606 -141.104403 
L 603.990372 -132.194421 
L 599.083139 -135.384897 
L 594.175906 -124.347389 
L 589.268672 -115.156618 
L 584.361439 -115.080786 
L 579.454206 -125.811775 
L 574.546972 -122.789123 
L 569.639739 -115.221028 
L 564.732505 -114.046191 
L 559.825272 -97.900394 
L 554.918039 -102.507617 
L 550.010805 -121.870661 
L 545.103572 -135.239852 
L 540.196339 -128.905218 
L 535.289105 -122.138619 
L 530.381872 -118.383025 
L 525.474639 -113.12843 
L 520.567405 -117.163783 
L 515.660172 -128.963598 
L 510.752938 -116.226154 
L 505.845705 -122.774912 
L 500.938472 -125.498436 
L 496.031238 -121.429922 
L 491.124005 -124.508561 
L 486.216772 -121.03826 
L 481.309538 -111.662316 
L 476.402305 -121.029516 
L 471.495071 -118.364064 
L 466.587838 -111.875216 
L 461.680605 -122.404243 
L 456.773371 -117.347219 
L 451.866138 -112.925702 
L 446.958905 -100.052844 
L 442.051671 -99.541815 
L 437.144438 -95.193431 
L 432.237205 -106.542229 
L 427.329971 -114.928099 
L 422.422738 -111.955313 
L 417.515504 -100.815182 
L 412.608271 -95.186861 
L 407.701038 -84.548198 
L 402.793804 -100.593797 
L 397.886571 -99.700549 
L 392.979338 -96.272133 
L 388.072104 -98.151438 
L 383.164871 -98.991885 
L 378.257637 -89.088193 
L 373.350404 -88.673945 
L 368.443171 -93.990139 
L 363.535937 -100.366487 
L 358.628704 -82.954027 
L 353.721471 -85.728189 
L 348.814237 -84.09815 
L 343.907004 -76.221208 
L 338.99977 -76.374928 
L 334.092537 -84.665417 
L 329.185304 -79.322082 
L 324.27807 -80.457679 
L 319.370837 -81.841846 
L 314.463604 -84.845217 
L 309.55637 -81.704005 
L 304.649137 -92.701556 
L 299.741904 -85.489944 
L 294.83467 -80.929326 
L 289.927437 -91.06852 
L 285.020203 -84.258171 
L 280.11297 -92.050114 
L 275.205737 -82.612687 
L 270.298503 -81.069216 
L 265.39127 -82.848271 
L 260.484037 -89.898769 
L 255.576803 -89.086413 
L 250.66957 -92.465765 
L 245.762336 -87.51409 
L 240.855103 -69.226565 
L 235.94787 -66.741448 
L 231.040636 -67.792237 
L 226.133403 -68.418979 
L 221.22617 -71.860523 
L 216.318936 -75.193546 
L 211.411703 -69.648725 
L 206.50447 -80.005201 
L 201.597236 -84.716787 
L 196.690003 -98.174708 
L 191.782769 -83.944526 
L 186.875536 -95.324957 
L 181.968303 -92.689393 
L 177.061069 -104.220492 
L 172.153836 -77.847605 
L 167.246603 -85.056676 
L 162.339369 -98.896504 
L 157.432136 -85.228516 
L 152.524902 -91.189315 
L 147.617669 -78.658459 
L 142.710436 -85.833664 
L 137.803202 -82.479224 
L 132.895969 -85.951767 
L 127.988736 -104.20993 
L 123.081502 -77.207226 
L 118.174269 -73.521831 
L 113.267036 -65.818781 
L 108.359802 -66.040185 
L 103.452569 -66.631593 
L 98.545335 -70.003496 
L 93.638102 -77.517747 
L 88.730869 -78.34261 
L 83.823635 -77.050849 
L 78.916402 -69.730828 
L 74.009169 -74.239397 
z
" style="stroke: #ff0000; stroke-opacity: 0.2"/>
    </defs>
    <g clip-path="url(#p507035d13e)">
     <use xlink:href="#meca76aa6df" x="0" y="424.8" style="fill: #ff0000; fill-opacity: 0.2; stroke: #ff0000; stroke-opacity: 0.2"/>
    </g>
   </g>
   <g id="matplotlib.axis_3">
    <g id="xtick_1">
     <g id="line2d_9">
      <defs>
       <path id="m09bb5fa5ed" d="M 0 0 
L 0 3.5 
" style="stroke: #000000; stroke-width: 0.8"/>
      </defs>
      <g>
       <use xlink:href="#m09bb5fa5ed" x="103.452569" y="399.973224" style="stroke: #000000; stroke-width: 0.8"/>
      </g>
     </g>
     <g id="text_8">
      <!-- 2012 -->
      <g transform="translate(91.746588 415.275404)scale(0.12 -0.12)">
       <defs>
        <path id="CMSS17-31" d="M 1818 4288 
L 1696 4288 
C 1350 3940 947 3890 538 3890 
L 538 3520 
C 723 3520 1024 3520 1325 3667 
L 1325 369 
L 570 369 
L 570 0 
L 2573 0 
L 2573 369 
L 1818 369 
L 1818 4288 
z
" transform="scale(0.015625)"/>
       </defs>
       <use xlink:href="#CMSS17-32" transform="scale(0.996264)"/>
       <use xlink:href="#CMSS17-30" transform="translate(46.843624 0)scale(0.996264)"/>
       <use xlink:href="#CMSS17-31" transform="translate(93.687247 0)scale(0.996264)"/>
       <use xlink:href="#CMSS17-32" transform="translate(140.530871 0)scale(0.996264)"/>
      </g>
     </g>
    </g>
    <g id="xtick_2">
     <g id="line2d_10">
      <g>
       <use xlink:href="#m09bb5fa5ed" x="221.22617" y="399.973224" style="stroke: #000000; stroke-width: 0.8"/>
      </g>
     </g>
     <g id="text_9">
      <!-- 2014 -->
      <g transform="translate(209.520189 415.275404)scale(0.12 -0.12)">
       <use xlink:href="#CMSS17-32" transform="scale(0.996264)"/>
       <use xlink:href="#CMSS17-30" transform="translate(46.843624 0)scale(0.996264)"/>
       <use xlink:href="#CMSS17-31" transform="translate(93.687247 0)scale(0.996264)"/>
       <use xlink:href="#CMSS17-34" transform="translate(140.530871 0)scale(0.996264)"/>
      </g>
     </g>
    </g>
    <g id="xtick_3">
     <g id="line2d_11">
      <g>
       <use xlink:href="#m09bb5fa5ed" x="338.99977" y="399.973224" style="stroke: #000000; stroke-width: 0.8"/>
      </g>
     </g>
     <g id="text_10">
      <!-- 2016 -->
      <g transform="translate(327.29379 415.275404)scale(0.12 -0.12)">
       <use xlink:href="#CMSS17-32" transform="scale(0.996264)"/>
       <use xlink:href="#CMSS17-30" transform="translate(46.843624 0)scale(0.996264)"/>
       <use xlink:href="#CMSS17-31" transform="translate(93.687247 0)scale(0.996264)"/>
       <use xlink:href="#CMSS17-36" transform="translate(140.530871 0)scale(0.996264)"/>
      </g>
     </g>
    </g>
    <g id="xtick_4">
     <g id="line2d_12">
      <g>
       <use xlink:href="#m09bb5fa5ed" x="456.773371" y="399.973224" style="stroke: #000000; stroke-width: 0.8"/>
      </g>
     </g>
     <g id="text_11">
      <!-- 2018 -->
      <g transform="translate(445.067391 415.275404)scale(0.12 -0.12)">
       <defs>
        <path id="CMSS17-38" d="M 1933 2222 
C 2419 2380 2669 2760 2669 3134 
C 2669 3722 2157 4229 1504 4229 
C 826 4229 333 3708 333 3144 
C 333 2780 576 2403 1069 2241 
C 442 1997 250 1512 250 1149 
C 250 446 819 -128 1498 -128 
C 2202 -128 2752 455 2752 1138 
C 2752 1557 2502 2000 1933 2222 
z
M 1504 2432 
C 1075 2432 787 2712 787 3136 
C 787 3566 1075 3840 1504 3840 
C 1901 3840 2214 3591 2214 3136 
C 2214 2687 1907 2432 1504 2432 
z
M 1504 267 
C 1139 267 749 517 749 1156 
C 749 1813 1184 2043 1498 2043 
C 1843 2043 2253 1800 2253 1156 
C 2253 491 1830 267 1504 267 
z
" transform="scale(0.015625)"/>
       </defs>
       <use xlink:href="#CMSS17-32" transform="scale(0.996264)"/>
       <use xlink:href="#CMSS17-30" transform="translate(46.843624 0)scale(0.996264)"/>
       <use xlink:href="#CMSS17-31" transform="translate(93.687247 0)scale(0.996264)"/>
       <use xlink:href="#CMSS17-38" transform="translate(140.530871 0)scale(0.996264)"/>
      </g>
     </g>
    </g>
    <g id="xtick_5">
     <g id="line2d_13">
      <g>
       <use xlink:href="#m09bb5fa5ed" x="574.546972" y="399.973224" style="stroke: #000000; stroke-width: 0.8"/>
      </g>
     </g>
     <g id="text_12">
      <!-- 2020 -->
      <g transform="translate(562.840992 415.275404)scale(0.12 -0.12)">
       <use xlink:href="#CMSS17-32" transform="scale(0.996264)"/>
       <use xlink:href="#CMSS17-30" transform="translate(46.843624 0)scale(0.996264)"/>
       <use xlink:href="#CMSS17-32" transform="translate(93.687247 0)scale(0.996264)"/>
       <use xlink:href="#CMSS17-30" transform="translate(140.530871 0)scale(0.996264)"/>
      </g>
     </g>
    </g>
    <g id="xtick_6">
     <g id="line2d_14">
      <g>
       <use xlink:href="#m09bb5fa5ed" x="692.320573" y="399.973224" style="stroke: #000000; stroke-width: 0.8"/>
      </g>
     </g>
     <g id="text_13">
      <!-- 2022 -->
      <g transform="translate(680.614593 415.275404)scale(0.12 -0.12)">
       <use xlink:href="#CMSS17-32" transform="scale(0.996264)"/>
       <use xlink:href="#CMSS17-30" transform="translate(46.843624 0)scale(0.996264)"/>
       <use xlink:href="#CMSS17-32" transform="translate(93.687247 0)scale(0.996264)"/>
       <use xlink:href="#CMSS17-32" transform="translate(140.530871 0)scale(0.996264)"/>
      </g>
     </g>
    </g>
   </g>
   <g id="matplotlib.axis_4">
    <g id="ytick_5">
     <g id="line2d_15">
      <g>
       <use xlink:href="#m68b88aa112" x="44.075045" y="399.973224" style="stroke: #000000; stroke-width: 0.8"/>
      </g>
     </g>
     <g id="text_14">
      <!-- 0% -->
      <g transform="translate(31.222055 404.124314)scale(0.12 -0.12)">
       <use xlink:href="#CMSS17-30" transform="scale(0.996264)"/>
      </g>
     </g>
    </g>
    <g id="ytick_6">
     <g id="line2d_16">
      <g>
       <use xlink:href="#m68b88aa112" x="44.075045" y="344.752998" style="stroke: #000000; stroke-width: 0.8"/>
      </g>
     </g>
     <g id="text_15">
      <!-- 20% -->
      <g transform="translate(25.369064 348.904088)scale(0.12 -0.12)">
       <use xlink:href="#CMSS17-32" transform="scale(0.996264)"/>
       <use xlink:href="#CMSS17-30" transform="translate(46.843624 0)scale(0.996264)"/>
      </g>
     </g>
    </g>
    <g id="ytick_7">
     <g id="line2d_17">
      <g>
       <use xlink:href="#m68b88aa112" x="44.075045" y="289.532772" style="stroke: #000000; stroke-width: 0.8"/>
      </g>
     </g>
     <g id="text_16">
      <!-- 40% -->
      <g transform="translate(25.369064 293.683862)scale(0.12 -0.12)">
       <use xlink:href="#CMSS17-34" transform="scale(0.996264)"/>
       <use xlink:href="#CMSS17-30" transform="translate(46.843624 0)scale(0.996264)"/>
      </g>
     </g>
    </g>
    <g id="ytick_8">
     <g id="line2d_18">
      <g>
       <use xlink:href="#m68b88aa112" x="44.075045" y="234.312546" style="stroke: #000000; stroke-width: 0.8"/>
      </g>
     </g>
     <g id="text_17">
      <!-- 60% -->
      <g transform="translate(25.369064 238.463635)scale(0.12 -0.12)">
       <use xlink:href="#CMSS17-36" transform="scale(0.996264)"/>
       <use xlink:href="#CMSS17-30" transform="translate(46.843624 0)scale(0.996264)"/>
      </g>
     </g>
    </g>
    <g id="text_18">
     <!-- independent list coverage -->
     <g transform="translate(18.657036 377.977876)rotate(-90)scale(0.14 -0.14)">
      <use xlink:href="#CMSS17-69" transform="scale(0.996264)"/>
      <use xlink:href="#CMSS17-6e" transform="translate(22.180723 0)scale(0.996264)"/>
      <use xlink:href="#CMSS17-64" transform="translate(70.385666 0)scale(0.996264)"/>
      <use xlink:href="#CMSS17-65" transform="translate(118.590609 0)scale(0.996264)"/>
      <use xlink:href="#CMSS17-70" transform="translate(160.229431 0)scale(0.996264)"/>
      <use xlink:href="#CMSS17-65" transform="translate(211.036813 0)scale(0.996264)"/>
      <use xlink:href="#CMSS17-6e" transform="translate(252.675635 0)scale(0.996264)"/>
      <use xlink:href="#CMSS17-64" transform="translate(300.880578 0)scale(0.996264)"/>
      <use xlink:href="#CMSS17-65" transform="translate(349.085522 0)scale(0.996264)"/>
      <use xlink:href="#CMSS17-6e" transform="translate(390.724344 0)scale(0.996264)"/>
      <use xlink:href="#CMSS17-74" transform="translate(438.929287 0)scale(0.996264)"/>
      <use xlink:href="#CMSS17-6c" transform="translate(503.989966 0)scale(0.996264)"/>
      <use xlink:href="#CMSS17-69" transform="translate(526.170689 0)scale(0.996264)"/>
      <use xlink:href="#CMSS17-73" transform="translate(548.351412 0)scale(0.996264)"/>
      <use xlink:href="#CMSS17-74" transform="translate(584.264954 0)scale(0.996264)"/>
      <use xlink:href="#CMSS17-63" transform="translate(649.325634 0)scale(0.996264)"/>
      <use xlink:href="#CMSS17-6f" transform="translate(690.964456 0)scale(0.996264)"/>
      <use xlink:href="#CMSS17-76" transform="translate(737.808079 0)scale(0.996264)"/>
      <use xlink:href="#CMSS17-65" transform="translate(780.808221 0)scale(0.996264)"/>
      <use xlink:href="#CMSS17-72" transform="translate(822.447043 0)scale(0.996264)"/>
      <use xlink:href="#CMSS17-61" transform="translate(854.356816 0)scale(0.996264)"/>
      <use xlink:href="#CMSS17-67" transform="translate(899.278736 0)scale(0.996264)"/>
      <use xlink:href="#CMSS17-65" transform="translate(946.12236 0)scale(0.996264)"/>
     </g>
    </g>
   </g>
   <g id="line2d_19">
    <path d="M 74.009169 376.678108 
L 78.916402 349.902684 
L 83.823635 377.027533 
L 88.730869 364.028601 
L 93.638102 358.803713 
L 98.545335 363.495857 
L 103.452569 359.326442 
L 108.359802 363.051926 
L 113.267036 368.152876 
L 118.174269 364.500926 
L 123.081502 373.464694 
L 127.988736 368.074486 
L 132.895969 357.378282 
L 137.803202 360.053019 
L 142.710436 359.616669 
L 147.617669 359.40118 
L 152.524902 370.72928 
L 157.432136 358.723332 
L 162.339369 356.382585 
L 167.246603 372.033956 
L 172.153836 348.715632 
L 177.061069 352.055412 
L 181.968303 351.263565 
L 186.875536 347.480139 
L 191.782769 341.888897 
L 196.690003 352.562808 
L 201.597236 346.103892 
L 206.50447 352.003118 
L 211.411703 352.194457 
L 216.318936 361.208624 
L 221.22617 354.211525 
L 226.133403 356.76268 
L 231.040636 366.121938 
L 235.94787 359.481477 
L 240.855103 358.370014 
L 245.762336 341.101638 
L 250.66957 336.049354 
L 255.576803 360.141561 
L 260.484037 340.420645 
L 265.39127 344.276795 
L 270.298503 329.867547 
L 275.205737 330.436289 
L 280.11297 348.953698 
L 285.020203 320.8783 
L 289.927437 347.581811 
L 294.83467 343.84429 
L 299.741904 338.984118 
L 304.649137 331.870141 
L 309.55637 332.519818 
L 314.463604 336.497385 
L 319.370837 330.16565 
L 324.27807 328.223972 
L 329.185304 327.820654 
L 334.092537 319.069093 
L 338.99977 322.755008 
L 343.907004 333.267634 
L 348.814237 326.246904 
L 353.721471 343.637262 
L 358.628704 343.279826 
L 363.535937 296.218255 
L 368.443171 301.72094 
L 373.350404 291.461668 
L 378.257637 271.37564 
L 383.164871 289.612778 
L 388.072104 287.14716 
L 392.979338 284.899614 
L 397.886571 273.906528 
L 402.793804 289.16984 
L 407.701038 294.819934 
L 412.608271 286.073034 
L 417.515504 277.90099 
L 422.422738 277.962479 
L 427.329971 277.837596 
L 432.237205 292.8979 
L 437.144438 276.376016 
L 442.051671 273.666269 
L 446.958905 280.859657 
L 451.866138 274.085823 
L 456.773371 278.251696 
L 461.680605 283.901225 
L 466.587838 293.462689 
L 471.495071 301.983472 
L 476.402305 302.830519 
L 481.309538 257.247099 
L 486.216772 239.52905 
L 491.124005 258.74515 
L 496.031238 254.614369 
L 500.938472 266.524523 
L 505.845705 257.22089 
L 510.752938 263.905861 
L 515.660172 261.125744 
L 520.567405 265.248566 
L 525.474639 277.036172 
L 530.381872 278.062676 
L 535.289105 284.136502 
L 540.196339 273.908567 
L 545.103572 260.861594 
L 550.010805 275.50537 
L 554.918039 299.373984 
L 559.825272 306.970075 
L 564.732505 295.102188 
L 569.639739 278.040496 
L 574.546972 273.177578 
L 579.454206 284.025619 
L 584.361439 296.807648 
L 589.268672 309.57203 
L 594.175906 286.506509 
L 599.083139 266.51986 
L 603.990372 259.291148 
L 608.897606 276.28732 
L 613.804839 277.606372 
L 618.712073 283.790284 
L 623.619306 287.392254 
L 628.526539 275.051354 
L 633.433773 281.122225 
L 638.341006 279.478488 
L 643.248239 275.218069 
L 648.155473 274.817545 
L 653.062706 284.828631 
L 657.96994 274.023374 
L 662.877173 285.029962 
L 667.784406 276.141567 
L 672.69164 284.573327 
" clip-path="url(#p507035d13e)" style="fill: none; stroke: #0015bc; stroke-width: 1.5; stroke-linecap: square"/>
   </g>
   <g id="line2d_20">
    <path d="M 74.009169 346.413714 
L 78.916402 350.850696 
L 83.823635 343.826564 
L 88.730869 342.193131 
L 93.638102 342.589814 
L 98.545335 350.745024 
L 103.452569 353.454216 
L 108.359802 355.090648 
L 113.267036 355.154088 
L 118.174269 347.762916 
L 123.081502 342.265034 
L 127.988736 312.852259 
L 132.895969 332.715623 
L 137.803202 336.845808 
L 142.710436 333.121036 
L 147.617669 342.116827 
L 152.524902 328.965013 
L 157.432136 335.042251 
L 162.339369 320.509431 
L 167.246603 335.361049 
L 172.153836 343.166175 
L 177.061069 316.228516 
L 181.968303 327.926148 
L 186.875536 325.401246 
L 191.782769 336.930501 
L 196.690003 322.895701 
L 201.597236 336.479783 
L 206.50447 341.80413 
L 211.411703 351.600703 
L 216.318936 346.45533 
L 221.22617 350.158725 
L 226.133403 353.183618 
L 231.040636 354.444106 
L 235.94787 355.652327 
L 240.855103 351.754571 
L 245.762336 332.153933 
L 250.66957 327.710829 
L 255.576803 331.903957 
L 260.484037 330.883614 
L 265.39127 338.269911 
L 270.298503 339.703878 
L 275.205737 338.725576 
L 280.11297 329.557128 
L 285.020203 336.406584 
L 289.927437 330.14185 
L 294.83467 340.275221 
L 299.741904 336.055722 
L 304.649137 328.824468 
L 309.55637 340.134683 
L 314.463604 337.119738 
L 319.370837 340.147632 
L 324.27807 341.565837 
L 329.185304 343.257161 
L 334.092537 337.780215 
L 338.99977 345.74103 
L 343.907004 346.072675 
L 348.814237 337.963332 
L 353.721471 336.923397 
L 358.628704 339.034118 
L 363.535937 320.867126 
L 368.443171 327.566393 
L 373.350404 332.789087 
L 378.257637 332.845971 
L 383.164871 322.402754 
L 388.072104 323.569622 
L 392.979338 325.494342 
L 397.886571 321.742631 
L 402.793804 320.512185 
L 407.701038 337.842367 
L 412.608271 326.569014 
L 417.515504 321.023147 
L 422.422738 309.495439 
L 427.329971 307.24987 
L 432.237205 315.58345 
L 437.144438 326.937545 
L 442.051671 322.530441 
L 446.958905 321.967542 
L 451.866138 309.416305 
L 456.773371 304.715888 
L 461.680605 299.788754 
L 466.587838 310.570693 
L 471.495071 304.361218 
L 476.402305 300.284591 
L 481.309538 309.945396 
L 486.216772 301.006415 
L 491.124005 297.255734 
L 496.031238 300.843081 
L 500.938472 296.434166 
L 505.845705 299.700046 
L 510.752938 306.000298 
L 515.660172 293.267328 
L 520.567405 304.711628 
L 525.474639 309.105832 
L 530.381872 303.796495 
L 535.289105 299.770569 
L 540.196339 293.610434 
L 545.103572 286.89657 
L 550.010805 300.829498 
L 554.918039 320.736416 
L 559.825272 325.544318 
L 564.732505 309.08428 
L 569.639739 307.463563 
L 574.546972 299.967205 
L 579.454206 297.04128 
L 584.361439 307.902596 
L 589.268672 307.851323 
L 594.175906 297.909739 
L 599.083139 287.231152 
L 603.990372 290.544958 
L 608.897606 281.808601 
L 613.804839 282.725574 
L 618.712073 277.227443 
L 623.619306 274.467596 
L 628.526539 269.137755 
L 633.433773 262.931063 
L 638.341006 261.990159 
L 643.248239 262.183716 
L 648.155473 253.423806 
L 653.062706 259.874072 
L 657.96994 261.022098 
L 662.877173 255.30154 
L 667.784406 266.394237 
L 672.69164 282.868091 
" clip-path="url(#p507035d13e)" style="fill: none; stroke: #ff0000; stroke-width: 1.5; stroke-linecap: square"/>
   </g>
   <g id="patch_6">
    <path d="M 44.075045 399.973224 
L 44.075045 212.224455 
" style="fill: none; stroke: #000000; stroke-width: 0.8; stroke-linejoin: miter; stroke-linecap: square"/>
   </g>
   <g id="patch_7">
    <path d="M 44.075045 399.973224 
L 702.625763 399.973224 
" style="fill: none; stroke: #000000; stroke-width: 0.8; stroke-linejoin: miter; stroke-linecap: square"/>
   </g>
  </g>
  <g id="text_19">
   <!-- A -->
   <g transform="translate(68.4 22.32)scale(0.2 -0.2)">
    <defs>
     <path id="CMSS17-41" d="M 2272 4416 
L 1722 4416 
L 166 0 
L 653 0 
L 1101 1280 
L 2816 1280 
L 3270 0 
L 3827 0 
L 2272 4416 
z
M 2694 1637 
L 1222 1637 
C 1530 2528 1914 3638 1958 3925 
L 1965 3925 
C 2010 3663 2138 3281 2246 2956 
L 2694 1637 
z
" transform="scale(0.015625)"/>
    </defs>
    <use xlink:href="#CMSS17-41" transform="scale(0.996264)"/>
   </g>
  </g>
  <g id="text_20">
   <!-- B -->
   <g transform="translate(68.4 225.36)scale(0.2 -0.2)">
    <defs>
     <path id="CMSS17-42" d="M 570 4416 
L 570 0 
L 2163 0 
C 3034 0 3667 574 3667 1200 
C 3667 1685 3251 2176 2502 2317 
C 3334 2558 3501 3040 3501 3313 
C 3501 3883 2874 4416 1997 4416 
L 570 4416 
z
M 1088 2496 
L 1088 4059 
L 1824 4059 
C 2483 4059 3002 3724 3002 3306 
C 3002 2926 2592 2496 1766 2496 
L 1088 2496 
z
M 1088 357 
L 1088 2107 
L 1939 2107 
C 2630 2107 3162 1679 3162 1206 
C 3162 772 2694 357 1984 357 
L 1088 357 
z
" transform="scale(0.015625)"/>
    </defs>
    <use xlink:href="#CMSS17-42" transform="scale(0.996264)"/>
   </g>
  </g>
 </g>
 <defs>
  <clipPath id="p4dbd130375">
   <rect x="44.075045" y="7.2" width="658.550718" height="187.748769"/>
  </clipPath>
  <clipPath id="p507035d13e">
   <rect x="44.075045" y="212.224455" width="658.550718" height="187.748769"/>
  </clipPath>
 </defs>
</svg>
